<svg xmlns="http://www.w3.org/2000/svg" width="123" height="123" viewBox="0 0 123 123">
  <g id="Grupo_1125712" data-name="Grupo 1125712" transform="translate(-310.051 -3971)">
    <rect id="Rectángulo_415769" data-name="Rectángulo 415769" width="123" height="123" transform="translate(310.051 3971)" fill="none"/>
    <g id="Grupo_1125711" data-name="Grupo 1125711" transform="translate(440.275 3975.5) rotate(90)">
      <g id="Grupo_1124278" data-name="Grupo 1124278" transform="translate(7.5 22.906)">
        <g id="Grupo_1124277" data-name="Grupo 1124277" transform="translate(0 6.686)">
          <path id="Trazado_984779" data-name="Trazado 984779" d="M419.656,56.668h-6.607a.99.99,0,0,0-.99.99V67.7a.99.99,0,0,0,.99.99h6.607Z" transform="translate(-331.944 -56.668)" fill="#a79ba7"/>
          <path id="Trazado_984780" data-name="Trazado 984780" d="M412.057,94.327v3.568a.99.99,0,0,0,.99.99h6.607V94.319a.008.008,0,0,1-.008.008Z" transform="translate(-331.943 -86.863)" fill="#918291"/>
          <path id="Trazado_984781" data-name="Trazado 984781" d="M419.656,386.219h-6.607a.99.99,0,0,0-.99.99V397.25a.99.99,0,0,0,.99.99h6.607Z" transform="translate(-331.944 -320.959)" fill="#a79ba7"/>
          <path id="Trazado_984782" data-name="Trazado 984782" d="M412.057,423.878v3.568a.99.99,0,0,0,.99.99h6.607v-4.566a.007.007,0,0,1-.008.008Z" transform="translate(-331.943 -351.155)" fill="#918291"/>
          <g id="Grupo_1124276" data-name="Grupo 1124276" transform="translate(0 25.222)">
            <path id="Trazado_984787" data-name="Trazado 984787" d="M336.166,222.364l-2.374-2.387a.908.908,0,0,0-.644-.268h-8.61v10.257h8.61a.907.907,0,0,0,.644-.267l2.374-2.387a.908.908,0,0,0,.264-.64V223A.908.908,0,0,0,336.166,222.364Z" transform="translate(-261.756 -212.644)" fill="#cbc4cc"/>
            <path id="Trazado_984788" data-name="Trazado 984788" d="M333.792,237.009a.908.908,0,0,1-.644.268h-8.61v4.5h8.61a.908.908,0,0,0,.644-.268l2.374-2.387a.908.908,0,0,0,.264-.64v-3.667a.906.906,0,0,0-.085-.377Z" transform="translate(-261.756 -224.459)" fill="#b5adb6"/>
            <path id="Trazado_984789" data-name="Trazado 984789" d="M296.353,206.966h-5.842v15.3h5.842a1.094,1.094,0,0,0,1.094-1.094V208.06A1.094,1.094,0,0,0,296.353,206.966Z" transform="translate(-234.467 -202.425)" fill="#a79ba7"/>
            <g id="Grupo_1124275" data-name="Grupo 1124275" transform="translate(56.044 13.905)">
              <path id="Trazado_984790" data-name="Trazado 984790" d="M290.51,260.189h5.842a1.094,1.094,0,0,0,1.094-1.094v-4.847H290.51v5.941Z" transform="translate(-290.51 -254.248)" fill="#918291"/>
            </g>
            <path id="Trazado_984791" data-name="Trazado 984791" d="M19.693,208.42H59.365a4.377,4.377,0,0,0,4.377-4.377V188.41a4.377,4.377,0,0,0-4.377-4.377H19.693A12.193,12.193,0,0,0,7.5,196.226h0A12.193,12.193,0,0,0,19.693,208.42Z" transform="translate(-7.5 -184.033)" fill="#ffe177"/>
            <path id="Trazado_984792" data-name="Trazado 984792" d="M19.693,208.42H59.365a4.377,4.377,0,0,0,4.377-4.377V188.41a4.377,4.377,0,0,0-4.377-4.377H19.693A12.193,12.193,0,0,0,7.5,196.226h0A12.193,12.193,0,0,0,19.693,208.42Z" transform="translate(-7.5 -184.033)" fill="#ffe177"/>
            <path id="Trazado_984793" data-name="Trazado 984793" d="M64.238,184.033H61.7v12.921a.981.981,0,0,1,.207.6v3.168a.99.99,0,0,1-.99.99H50.935a.982.982,0,0,1-.6-.207H13.577a12.19,12.19,0,0,0,10.99,6.915H64.239a4.377,4.377,0,0,0,4.377-4.377V188.41A4.377,4.377,0,0,0,64.238,184.033Z" transform="translate(-12.374 -184.033)" fill="#ffd15b"/>
          </g>
        </g>
        <path id="Trazado_984794" data-name="Trazado 984794" d="M449.423,114.234V23.9a.99.99,0,0,1,.99-.99h8.926a.99.99,0,0,1,.99.99v90.338a.99.99,0,0,1-.99.99h-8.926A.99.99,0,0,1,449.423,114.234Z" transform="translate(-361.91 -22.906)" fill="#cbc4cc"/>
        <path id="Trazado_984795" data-name="Trazado 984795" d="M459.34,22.906h-4.291v85.387a.99.99,0,0,1-.99.99h-4.635v4.951a.99.99,0,0,0,.99.99h8.926a.99.99,0,0,0,.99-.99V23.9A.99.99,0,0,0,459.34,22.906Z" transform="translate(-361.91 -22.906)" fill="#b5adb6"/>
        <path id="Trazado_984796" data-name="Trazado 984796" d="M208.2,252.458h-9.983a.99.99,0,0,1-.99-.99V248.3a.99.99,0,0,1,.99-.99H208.2a.99.99,0,0,1,.99.99v3.168A.99.99,0,0,1,208.2,252.458Z" transform="translate(-159.656 -202.871)" fill="#fff"/>
        <path id="Trazado_984797" data-name="Trazado 984797" d="M239.771,247.309h-3.178v5.149h3.178a.99.99,0,0,0,.99-.99V248.3A.99.99,0,0,0,239.771,247.309Z" transform="translate(-191.226 -202.871)" fill="#f3f0f3"/>
      </g>
      <g id="Grupo_1124282" data-name="Grupo 1124282" transform="translate(7.5 22.906)">
        <path id="Trazado_984798" data-name="Trazado 984798" d="M419.457,56.668h-6.409a.99.99,0,0,0-.99.99V67.7a.99.99,0,0,0,.99.99h6.409Z" transform="translate(-331.943 -49.982)" fill="none" stroke="#000" stroke-linecap="round" stroke-linejoin="round" stroke-miterlimit="10" stroke-width="1"/>
        <path id="Trazado_984799" data-name="Trazado 984799" d="M419.457,386.219h-6.409a.99.99,0,0,0-.99.99V397.25a.99.99,0,0,0,.99.99h6.409Z" transform="translate(-331.943 -314.273)" fill="none" stroke="#000" stroke-linecap="round" stroke-linejoin="round" stroke-miterlimit="10" stroke-width="1"/>
        <path id="Trazado_984801" data-name="Trazado 984801" d="M336.968,222.364l-2.374-2.387a.908.908,0,0,0-.644-.268h-8.412v10.257h8.412a.907.907,0,0,0,.644-.267l2.374-2.387a.908.908,0,0,0,.264-.64V223A.908.908,0,0,0,336.968,222.364Z" transform="translate(-262.558 -180.737)" fill="none" stroke="#000" stroke-linecap="round" stroke-linejoin="round" stroke-miterlimit="10" stroke-width="1"/>
        <g id="Grupo_1124279" data-name="Grupo 1124279" transform="translate(51.162 12.48)">
          <path id="Trazado_984802" data-name="Trazado 984802" d="M290.718,101.769l-6.955-6.955h-9.016l-8.887-8.887" transform="translate(-265.859 -85.926)" fill="none" stroke="#000" stroke-linecap="round" stroke-linejoin="round" stroke-miterlimit="10" stroke-width="1"/>
          <path id="Trazado_984803" data-name="Trazado 984803" d="M265.859,341.128l6.955-6.955h9.016l8.888-8.887" transform="translate(-265.859 -277.885)" fill="none" stroke="#000" stroke-linecap="round" stroke-linejoin="round" stroke-miterlimit="10" stroke-width="1"/>
        </g>
        <path id="Trazado_984804" data-name="Trazado 984804" d="M297.155,206.966h-5.644v15.3h5.644a1.094,1.094,0,0,0,1.094-1.094V208.06A1.094,1.094,0,0,0,297.155,206.966Z" transform="translate(-235.269 -170.517)" fill="none" stroke="#000" stroke-linecap="round" stroke-linejoin="round" stroke-miterlimit="10" stroke-width="1"/>
        <line id="Línea_610" data-name="Línea 610" x2="12.839" transform="translate(74.674 44.101)" fill="none" stroke="#000" stroke-linecap="round" stroke-linejoin="round" stroke-miterlimit="10" stroke-width="1"/>
        <g id="Grupo_1124280" data-name="Grupo 1124280" transform="translate(11.678 41.181)">
          <line id="Línea_611" data-name="Línea 611" y2="5.839" fill="none" stroke="#000" stroke-linecap="round" stroke-linejoin="round" stroke-miterlimit="10" stroke-width="1"/>
          <line id="Línea_612" data-name="Línea 612" y2="5.839" transform="translate(5.496)" fill="none" stroke="#000" stroke-linecap="round" stroke-linejoin="round" stroke-miterlimit="10" stroke-width="1"/>
          <line id="Línea_613" data-name="Línea 613" y2="5.839" transform="translate(10.991)" fill="none" stroke="#000" stroke-linecap="round" stroke-linejoin="round" stroke-miterlimit="10" stroke-width="1"/>
        </g>
        <g id="Grupo_1124281" data-name="Grupo 1124281" transform="translate(78.955 42.899)">
          <line id="Línea_614" data-name="Línea 614" y2="2.404" fill="none" stroke="#000" stroke-linecap="round" stroke-linejoin="round" stroke-miterlimit="10" stroke-width="1"/>
          <line id="Línea_615" data-name="Línea 615" y2="2.404" transform="translate(4.465)" fill="none" stroke="#000" stroke-linecap="round" stroke-linejoin="round" stroke-miterlimit="10" stroke-width="1"/>
        </g>
        <path id="Trazado_984805" data-name="Trazado 984805" d="M449.423,85.533v28.7a.99.99,0,0,0,.99.99h8.926a.99.99,0,0,0,.99-.99V23.9a.99.99,0,0,0-.99-.99h-8.926a.99.99,0,0,0-.99.99V78.6" transform="translate(-361.91 -22.906)" fill="none" stroke="#000" stroke-linecap="round" stroke-linejoin="round" stroke-miterlimit="10" stroke-width="1"/>
        <path id="Trazado_984806" data-name="Trazado 984806" d="M44.109,184.033H19.693A12.193,12.193,0,0,0,7.5,196.226h0A12.193,12.193,0,0,0,19.693,208.42H59.365a4.377,4.377,0,0,0,4.377-4.377V188.41a4.377,4.377,0,0,0-4.377-4.377H51.04" transform="translate(-7.5 -152.125)" fill="none" stroke="#000" stroke-linecap="round" stroke-linejoin="round" stroke-miterlimit="10" stroke-width="1"/>
        <path id="Trazado_984807" data-name="Trazado 984807" d="M208.2,252.458h-9.983a.99.99,0,0,1-.99-.99V248.3a.99.99,0,0,1,.99-.99H208.2a.99.99,0,0,1,.99.99v3.168A.99.99,0,0,1,208.2,252.458Z" transform="translate(-159.656 -202.871)" fill="none" stroke="#000" stroke-linecap="round" stroke-linejoin="round" stroke-miterlimit="10" stroke-width="1"/>
      </g>
    </g>
  </g>
</svg>
