<svg xmlns="http://www.w3.org/2000/svg" xmlns:xlink="http://www.w3.org/1999/xlink" width="123" height="123" viewBox="0 0 123 123">
  <defs>
    <clipPath id="clip-path">
      <path id="path9003" d="M0-682.665H84.732v84.732H0Z" transform="translate(0 682.665)"/>
    </clipPath>
  </defs>
  <g id="Grupo_1125731" data-name="Grupo 1125731" transform="translate(-1152.051 -4561)">
    <rect id="Rectángulo_415772" data-name="Rectángulo 415772" width="123" height="123" transform="translate(1152.051 4561)" fill="none"/>
    <g id="g8997" transform="translate(1170.568 5263.183)">
      <g id="g8999" transform="translate(0 -682.665)">
        <g id="g9001" clip-path="url(#clip-path)">
          <g id="g9007" transform="translate(1.241 2.738)">
            <path id="path9009" d="M-398.532-559.285h-52.912a3.563,3.563,0,0,1-3.563-3.563v-72.129a3.563,3.563,0,0,1,3.563-3.563h52.912a3.563,3.563,0,0,1,3.563,3.563v72.129a3.563,3.563,0,0,1-3.563,3.563" transform="translate(455.007 638.54)" fill="#bbec6c"/>
          </g>
          <g id="g9011" transform="translate(53.422 2.738)">
            <path id="path9013" d="M-55.442-25.145V46.985a3.563,3.563,0,0,1-3.563,3.563H-63.3a3.563,3.563,0,0,0,3.563-3.563V-25.145A3.563,3.563,0,0,0-63.3-28.708h4.293a3.563,3.563,0,0,1,3.563,3.563" transform="translate(63.299 28.708)" fill="#a2e62e"/>
          </g>
          <g id="g9015" transform="translate(7.057 13.132)">
            <path id="path9017" d="M-31.17-15.586a2.209,2.209,0,0,1-2.208,2.208,2.208,2.208,0,0,1-2.208-2.208,2.209,2.209,0,0,1,2.208-2.209,2.209,2.209,0,0,1,2.208,2.209" transform="translate(35.587 17.795)" fill="#8379c1"/>
          </g>
          <g id="g9019" transform="translate(22.047 59.89)">
            <path id="path9021" d="M-31.17-15.586a2.209,2.209,0,0,1-2.208,2.208,2.208,2.208,0,0,1-2.208-2.208,2.208,2.208,0,0,1,2.208-2.209,2.209,2.209,0,0,1,2.208,2.209" transform="translate(35.587 17.795)" fill="#8379c1"/>
          </g>
          <g id="g9023" transform="translate(22.047 70.962)">
            <path id="path9025" d="M-31.17-15.585a2.209,2.209,0,0,1-2.208,2.209,2.208,2.208,0,0,1-2.208-2.209,2.208,2.208,0,0,1,2.208-2.208,2.209,2.209,0,0,1,2.208,2.208" transform="translate(35.587 17.793)" fill="#8379c1"/>
          </g>
          <g id="g9027" transform="translate(22.047 13.132)">
            <path id="path9029" d="M-31.17-15.586a2.209,2.209,0,0,1-2.208,2.208,2.208,2.208,0,0,1-2.208-2.208,2.209,2.209,0,0,1,2.208-2.209,2.209,2.209,0,0,1,2.208,2.209" transform="translate(35.587 17.795)" fill="#8379c1"/>
          </g>
          <g id="g9031" transform="translate(7.057 24.302)">
            <path id="path9033" d="M-31.17-15.586a2.209,2.209,0,0,1-2.208,2.208,2.208,2.208,0,0,1-2.208-2.208,2.208,2.208,0,0,1,2.208-2.209,2.209,2.209,0,0,1,2.208,2.209" transform="translate(35.587 17.795)" fill="#8379c1"/>
          </g>
          <path id="path9035" d="M68.825-392.458H56.855v-4.417h11.97Z" transform="translate(-49.798 432.347)" fill="#8379c1"/>
          <path id="path9037" d="M333.414-193.458H317.183v-6.686h16.231Z" transform="translate(-277.815 260.033)" fill="#8379c1"/>
          <path id="path9039" d="M421.957-193.454h-3.683v-6.685h3.683Z" transform="translate(-366.358 260.03)" fill="#6e61b6"/>
          <path id="path9041" d="M290.032-491.29h-25.87v-18.185h25.87Z" transform="translate(-231.375 530.971)" fill="#ffaf9e"/>
          <g id="g9043" transform="translate(50.708 20.343)">
            <path id="path9045" d="M-153.135-150.437l-18.672-11.535-1.16-3.746-1.868-6.036h15.1l1.868,6.036Z" transform="translate(174.836 171.756)" fill="#ffcebf"/>
          </g>
          <g id="g9047" transform="translate(21.66 20.343)">
            <path id="path9049" d="M-238.2,0h-22.946a5.2,5.2,0,0,0-4.168,2.093l-5.987,8.036a3.3,3.3,0,0,0,.313,4.3,3.3,3.3,0,0,0,4.664,0l5.11-5.111a3.186,3.186,0,0,1,2.253-.933H-238.2Z" transform="translate(271.955)" fill="#ffcebf"/>
          </g>
          <g id="g9051" transform="translate(24.745 14.414)">
            <path id="path9053" d="M-153.377-8.253l-19.19,19.19-2.545,2.545,7.166,7.166,21.735-21.735a3.993,3.993,0,0,0,0-5.647l-1.519-1.519a3.993,3.993,0,0,0-5.647,0" transform="translate(175.112 9.423)" fill="#8ebac5"/>
          </g>
          <g id="g9055" transform="translate(43.801 14.414)">
            <path id="path9057" d="M-69.474-58.817-72.189-56.1a3.991,3.991,0,0,0,0-5.647l-1.518-1.52a4,4,0,0,0-5.612-.035l2.678-2.678a3.991,3.991,0,0,1,5.647,0l1.52,1.518a3.992,3.992,0,0,1,0,5.647" transform="translate(79.318 67.152)" fill="#7ca1b1"/>
          </g>
          <g id="g9059" transform="translate(9.265 38.191)">
            <path id="path9061" d="M-115.4,0l-11.833,11.833.892.892-5.327,8.2c-.343.527.433,1.29.951.935l8.013-5.5.892.892,11.833-11.833Z" transform="translate(131.747)" fill="#deecf1"/>
          </g>
          <g id="g9063" transform="translate(22.896 38.191)">
            <path id="path9065" d="M-57.453-38.26l-2.722,2.721-5.42-5.42,2.722-2.723Z" transform="translate(65.595 43.681)" fill="#a8d3d8"/>
          </g>
          <g id="g9067" transform="translate(39.263 26.369)">
            <path id="path9069" d="M-233.9-107.911l-4.732-15.282-15.079-.01h-9.978a3.356,3.356,0,0,0-3.356,3.356,3.356,3.356,0,0,0,3,3.338l10.16,1.18a4.181,4.181,0,0,1,3.512,2.917,6.376,6.376,0,0,0,6.09,4.49Z" transform="translate(267.045 123.202)" fill="#ffcebf"/>
          </g>
          <path id="path9071" d="M501.7-497.449h3.538v-21.318H501.7Z" transform="translate(-439.427 539.11)" fill="#ffaf9e"/>
          <path id="path9073" d="M530.2-518.767h17.682v26.147H530.2Z" transform="translate(-464.393 539.11)" fill="#deecf1"/>
          <path id="path9075" d="M642.532-492.62h-4.27v-26.148h4.27Z" transform="translate(-559.042 539.111)" fill="#a8d3d8"/>
          <g id="g9077" transform="translate(7.057 13.132)">
            <path id="path9079" d="M-31.17-15.586a2.209,2.209,0,0,1-2.208,2.208,2.208,2.208,0,0,1-2.208-2.208,2.209,2.209,0,0,1,2.208-2.209A2.209,2.209,0,0,1-31.17-15.586Z" transform="translate(35.587 17.795)" fill="none" stroke="#000" stroke-linecap="round" stroke-linejoin="round" stroke-miterlimit="10" stroke-width="1"/>
          </g>
          <g id="g9081" transform="translate(22.047 59.89)">
            <path id="path9083" d="M-31.17-15.586a2.209,2.209,0,0,1-2.208,2.208,2.208,2.208,0,0,1-2.208-2.208,2.208,2.208,0,0,1,2.208-2.209A2.209,2.209,0,0,1-31.17-15.586Z" transform="translate(35.587 17.795)" fill="none" stroke="#000" stroke-linecap="round" stroke-linejoin="round" stroke-miterlimit="10" stroke-width="1"/>
          </g>
          <g id="g9085" transform="translate(22.047 70.962)">
            <path id="path9087" d="M-31.17-15.585a2.209,2.209,0,0,1-2.208,2.209,2.208,2.208,0,0,1-2.208-2.209,2.208,2.208,0,0,1,2.208-2.208A2.209,2.209,0,0,1-31.17-15.585Z" transform="translate(35.587 17.793)" fill="none" stroke="#000" stroke-linecap="round" stroke-linejoin="round" stroke-miterlimit="10" stroke-width="1"/>
          </g>
          <g id="g9089" transform="translate(22.047 13.132)">
            <path id="path9091" d="M-31.17-15.586a2.209,2.209,0,0,1-2.208,2.208,2.208,2.208,0,0,1-2.208-2.208,2.209,2.209,0,0,1,2.208-2.209A2.209,2.209,0,0,1-31.17-15.586Z" transform="translate(35.587 17.795)" fill="none" stroke="#000" stroke-linecap="round" stroke-linejoin="round" stroke-miterlimit="10" stroke-width="1"/>
          </g>
          <g id="g9093" transform="translate(7.057 24.302)">
            <path id="path9095" d="M-31.17-15.586a2.209,2.209,0,0,1-2.208,2.208,2.208,2.208,0,0,1-2.208-2.208,2.208,2.208,0,0,1,2.208-2.209A2.209,2.209,0,0,1-31.17-15.586Z" transform="translate(35.587 17.795)" fill="none" stroke="#000" stroke-linecap="round" stroke-linejoin="round" stroke-miterlimit="10" stroke-width="1"/>
          </g>
          <g id="g9097" transform="translate(11.474 15.341)">
            <path id="path9099" d="M0,0H10.574" fill="none" stroke="#000" stroke-linecap="round" stroke-linejoin="round" stroke-miterlimit="10" stroke-width="1"/>
          </g>
          <path id="path9101" d="M68.825-392.458H56.855v-4.417h11.97Z" transform="translate(-49.798 432.347)" fill="none" stroke="#000" stroke-linecap="round" stroke-linejoin="round" stroke-miterlimit="10" stroke-width="1"/>
          <path id="path9103" d="M333.414-193.458H317.183v-6.686h16.231Z" transform="translate(-277.815 260.033)" fill="none" stroke="#000" stroke-linecap="round" stroke-linejoin="round" stroke-miterlimit="10" stroke-width="1"/>
          <g id="g9105" transform="translate(11.474 26.511)">
            <path id="path9107" d="M0,0H4.609V8.961" fill="none" stroke="#000" stroke-linecap="round" stroke-linejoin="round" stroke-miterlimit="10" stroke-width="1"/>
          </g>
          <g id="g9109" transform="translate(26.464 62.098)">
            <path id="path9111" d="M0,0H12.9" fill="none" stroke="#000" stroke-linecap="round" stroke-linejoin="round" stroke-miterlimit="10" stroke-width="1"/>
          </g>
          <g id="g9113" transform="translate(52.302 66.576)">
            <path id="path9115" d="M0,0V3.183" fill="none" stroke="#000" stroke-linecap="round" stroke-linejoin="round" stroke-miterlimit="10" stroke-width="1"/>
          </g>
          <g id="g9117" transform="translate(26.464 66.576)">
            <path id="path9119" d="M0-46.538H12.9l3.3-3.412v-3.183" transform="translate(0 53.133)" fill="none" stroke="#000" stroke-linecap="round" stroke-linejoin="round" stroke-miterlimit="10" stroke-width="1"/>
          </g>
          <g id="g9121" transform="translate(7.94 71.845)">
            <path id="path9123" d="M-18.7-9.351a1.325,1.325,0,0,1-1.325,1.325,1.325,1.325,0,0,1-1.325-1.325,1.325,1.325,0,0,1,1.325-1.325A1.325,1.325,0,0,1-18.7-9.351" transform="translate(21.352 10.676)"/>
          </g>
          <g id="g9125" transform="translate(13.789 71.845)">
            <path id="path9127" d="M-18.7-9.351a1.325,1.325,0,0,1-1.325,1.325,1.325,1.325,0,0,1-1.325-1.325,1.325,1.325,0,0,1,1.325-1.325A1.325,1.325,0,0,1-18.7-9.351" transform="translate(21.352 10.676)"/>
          </g>
          <g id="g9129" transform="translate(7.94 66.842)">
            <path id="path9131" d="M-18.7-9.351a1.325,1.325,0,0,1-1.325,1.325,1.325,1.325,0,0,1-1.325-1.325,1.325,1.325,0,0,1,1.325-1.325A1.325,1.325,0,0,1-18.7-9.351" transform="translate(21.352 10.676)"/>
          </g>
          <g id="g9133" transform="translate(13.789 66.842)">
            <path id="path9135" d="M-18.7-9.351a1.325,1.325,0,0,1-1.325,1.325,1.325,1.325,0,0,1-1.325-1.325,1.325,1.325,0,0,1,1.325-1.325A1.325,1.325,0,0,1-18.7-9.351" transform="translate(21.352 10.676)"/>
          </g>
          <g id="g9137" transform="translate(1.241 2.738)">
            <path id="path9139" d="M-423.674-316.429v30.852a3.563,3.563,0,0,1-3.563,3.563h-52.912a3.563,3.563,0,0,1-3.563-3.563v-72.129a3.563,3.563,0,0,1,3.563-3.563h52.912a3.563,3.563,0,0,1,3.563,3.563v14.042" transform="translate(483.712 361.27)" fill="none" stroke="#000" stroke-linecap="round" stroke-linejoin="round" stroke-miterlimit="10" stroke-width="1"/>
          </g>
          <g id="g9141" transform="translate(36.714 39.681)">
            <path id="path9143" d="M-146.134,0h-20.708" transform="translate(166.842)" fill="none" stroke="#000" stroke-linecap="round" stroke-linejoin="round" stroke-miterlimit="10" stroke-width="1"/>
          </g>
          <g id="g9145" transform="translate(54.793 20.343)">
            <path id="path9147" d="M0,0H11.015" fill="none" stroke="#000" stroke-linecap="round" stroke-linejoin="round" stroke-miterlimit="10" stroke-width="1"/>
          </g>
          <g id="g9149" transform="translate(21.66 20.343)">
            <path id="path9151" d="M-141.564,0h-9.252a5.2,5.2,0,0,0-4.169,2.093l-5.987,8.036a3.3,3.3,0,0,0,.313,4.3,3.3,3.3,0,0,0,4.664,0l5.111-5.111" transform="translate(161.625)" fill="none" stroke="#000" stroke-linecap="round" stroke-linejoin="round" stroke-miterlimit="10" stroke-width="1"/>
          </g>
          <g id="g9153" transform="translate(24.745 14.414)">
            <path id="path9155" d="M-178.407-84.363l3.619-3.619a3.993,3.993,0,0,0,0-5.647l-1.519-1.519a3.993,3.993,0,0,0-5.647,0l-19.19,19.19-2.545,2.545,7.166,7.166,11.31-11.31" transform="translate(203.689 96.317)" fill="none" stroke="#000" stroke-linecap="round" stroke-linejoin="round" stroke-miterlimit="10" stroke-width="1"/>
          </g>
          <g id="g9157" transform="translate(9.265 38.191)">
            <path id="path9159" d="M-115.4,0l-11.833,11.833.892.892-5.327,8.2c-.343.527.433,1.29.951.935l8.013-5.5.892.892,7.762-7.762" transform="translate(131.747)" fill="none" stroke="#000" stroke-linecap="round" stroke-linejoin="round" stroke-miterlimit="10" stroke-width="1"/>
          </g>
          <g id="g9161" transform="translate(39.263 26.37)">
            <path id="path9163" d="M-75.956,0h-7.407A3.356,3.356,0,0,0-86.72,3.356a3.356,3.356,0,0,0,3,3.338l10.16,1.18a4.181,4.181,0,0,1,3.512,2.917,6.376,6.376,0,0,0,6.09,4.49l3.779,0" transform="translate(86.72)" fill="none" stroke="#000" stroke-linecap="round" stroke-linejoin="round" stroke-miterlimit="10" stroke-width="1"/>
          </g>
          <g id="g9165" transform="translate(65.808 20.343)">
            <path id="path9167" d="M-124.781-152.217v4.577h-17.682v-26.147h17.682v15.765" transform="translate(142.464 173.788)" fill="none" stroke="#000" stroke-linecap="round" stroke-linejoin="round" stroke-miterlimit="10" stroke-width="1"/>
          </g>
          <g id="g9169" transform="translate(14.677 50.916)">
            <path id="path9171" d="M0,0,3.637,3.637" fill="none" stroke="#000" stroke-linecap="round" stroke-linejoin="round" stroke-miterlimit="10" stroke-width="1"/>
          </g>
          <g id="g9173" transform="translate(52.886 9.522)">
            <path id="path9175" d="M0-48.134l4.215-4.215c1.668-1.669,2.862-2.606,4.178-2.606H30.6" transform="translate(0 54.955)" fill="none" stroke="#000" stroke-linecap="round" stroke-linejoin="round" stroke-miterlimit="10" stroke-width="1"/>
          </g>
          <g id="g9177" transform="translate(69.535 40.413)">
            <path id="path9179" d="M-17.518-8.759a1.241,1.241,0,0,1-1.241,1.241A1.241,1.241,0,0,1-20-8.759,1.241,1.241,0,0,1-18.759-10a1.241,1.241,0,0,1,1.241,1.241" transform="translate(20 10)"/>
          </g>
        </g>
      </g>
    </g>
  </g>
</svg>
