<svg xmlns="http://www.w3.org/2000/svg" width="93" height="69" viewBox="0 0 93 69">
  <g id="Grupo_1125666" data-name="Grupo 1125666" transform="translate(-820.051 -5497)">
    <rect id="Rectángulo_404457" data-name="Rectángulo 404457" width="93" height="69" rx="12" transform="translate(820.051 5497)" fill="#008db6"/>
    <g id="Grupo_1125662" data-name="Grupo 1125662" transform="translate(831.551 5455.5)">
      <g id="Grupo_1125660" data-name="Grupo 1125660" transform="translate(7.5 53.5)">
        <path id="Trazado_986383" data-name="Trazado 986383" d="M39.62,98.22l-1.9-3.329a.555.555,0,0,0-.482-.28H28.86a.555.555,0,0,0-.482.28l-1.9,3.329a.555.555,0,0,1-.482.28H14.988L11.9,98.064a.556.556,0,0,1-.556-.556l-.1-30.62a.556.556,0,0,1,.2-.43L21.845,58a.555.555,0,0,1,.352-.126l4.1-.485H41.124a.555.555,0,0,0,.482-.28l1.9-3.329a.555.555,0,0,1,.482-.28h21.5a.556.556,0,0,1,.556.556V97.944a.556.556,0,0,1-.556.556H40.1A.555.555,0,0,1,39.62,98.22Z" transform="translate(-10.825 -53.5)" fill="#a8ebff"/>
        <path id="Trazado_986384" data-name="Trazado 986384" d="M22.976,88.5,12.112,97.361a1.222,1.222,0,0,0-.45.947v31.3H8.056a.556.556,0,0,1-.556-.556v-31.2a.555.555,0,0,1,.2-.43l10.729-8.8a.557.557,0,0,1,.352-.126Z" transform="translate(-7.5 -84.611)" fill="#73e6f9"/>
        <path id="Trazado_986385" data-name="Trazado 986385" d="M99.123,144.887l-1.9-3.329a.555.555,0,0,0-.482-.28H80.624a.555.555,0,0,0-.482.279l-1.912,3.331a.556.556,0,0,1-.482.279h-1.29l-1.984-.483a.556.556,0,0,1-.556-.556l-.09-20.476a.556.556,0,0,1,.2-.43l6-5.322a.555.555,0,0,1,.352-.126l16.61-.02.623-.365h3.011a.555.555,0,0,0,.482-.28l1.9-3.329a.555.555,0,0,1,.482-.28h10.965a.556.556,0,0,1,.556.556v6.712l-.715,8.344.715,8.344v7.156a.556.556,0,0,1-.556.556H112.57l-1.879-.495-1.409.495H105.9l-1.816-.463-1.472.463H99.6A.555.555,0,0,1,99.123,144.887Z" transform="translate(-66.459 -106.833)" fill="#737380"/>
        <path id="Trazado_986386" data-name="Trazado 986386" d="M286.44,251.741h10.239v3.388h-7.606a2.632,2.632,0,0,1-2.632-2.632v-.756Z" transform="translate(-255.447 -229.714)" fill="#68687c"/>
        <path id="Trazado_986387" data-name="Trazado 986387" d="M78.148,148.729l.34.072-7.411,6.077a.667.667,0,0,0-.244.516v3.615l-.716,4.214.716,3.992v9.063H68.056a.556.556,0,0,1-.556-.556v-7.156l.8-5.285-.8-5.625V154.34a.555.555,0,0,1,.2-.429l6.446-5.286a.56.56,0,0,1,.352-.126h3.135Z" transform="translate(-60.833 -137.944)" fill="#68687c"/>
        <g id="Grupo_1125659" data-name="Grupo 1125659" transform="translate(6.667 10.556)">
          <path id="Trazado_986388" data-name="Trazado 986388" d="M317.928,363.5h-2.52a.333.333,0,0,0-.289.5l1.937,3.39h3.288l-2.126-3.721A.333.333,0,0,0,317.928,363.5Z" transform="translate(-287.566 -339.611)" fill="#f4f8f9"/>
          <path id="Trazado_986389" data-name="Trazado 986389" d="M377.928,363.5h-2.52a.333.333,0,0,0-.289.5l1.937,3.39h3.288l-2.126-3.721A.333.333,0,0,0,377.928,363.5Z" transform="translate(-340.899 -339.611)" fill="#f4f8f9"/>
          <path id="Trazado_986390" data-name="Trazado 986390" d="M158.726,148.5H173.08l-1.035,3.105a.333.333,0,0,1-.316.228H160.077a.333.333,0,0,1-.316-.228Z" transform="translate(-148.59 -148.5)" fill="#f4f8f9"/>
          <path id="Trazado_986391" data-name="Trazado 986391" d="M417.833,178.908V195.6l-3.105-1.035a.333.333,0,0,1-.228-.316V180.259a.333.333,0,0,1,.228-.316Z" transform="translate(-375.944 -175.529)" fill="#f4f8f9"/>
          <path id="Trazado_986392" data-name="Trazado 986392" d="M67.5,241.817V230.908l3.105,1.035a.333.333,0,0,1,.228.316v8.207a.333.333,0,0,1-.228.316Z" transform="translate(-67.5 -221.752)" fill="#e7edf3"/>
        </g>
      </g>
      <g id="Grupo_1125661" data-name="Grupo 1125661" transform="translate(7.5 53.5)">
        <path id="Trazado_986393" data-name="Trazado 986393" d="M7.5,108.833V97.589L18.586,88.5h9.026" transform="translate(-7.5 -84.611)" fill="none" stroke="#000" stroke-linecap="round" stroke-linejoin="round" stroke-miterlimit="10" stroke-width="2"/>
        <path id="Trazado_986394" data-name="Trazado 986394" d="M31.5,57.389h6.62L40.343,53.5H62.722v45H36.455l-2.222-3.889h-9.02L22.99,98.5H7.5V81.611" transform="translate(-7.5 -53.5)" fill="none" stroke="#000" stroke-linecap="round" stroke-linejoin="round" stroke-miterlimit="10" stroke-width="2"/>
        <path id="Trazado_986395" data-name="Trazado 986395" d="M447.833,92.057V83.5H444.5" transform="translate(-395.944 -80.167)" fill="none" stroke="#000" stroke-linecap="round" stroke-linejoin="round" stroke-miterlimit="10" stroke-width="2"/>
        <path id="Trazado_986396" data-name="Trazado 986396" d="M289,221.4h20.611V195.511" transform="translate(-257.722 -179.732)" fill="none" stroke="#000" stroke-linecap="round" stroke-linejoin="round" stroke-miterlimit="10" stroke-width="2"/>
        <path id="Trazado_986397" data-name="Trazado 986397" d="M37.5,184.5v27.111H47.556" transform="translate(-34.167 -169.944)" fill="none" stroke="#000" stroke-linecap="round" stroke-linejoin="round" stroke-miterlimit="10" stroke-width="2"/>
        <path id="Trazado_986398" data-name="Trazado 986398" d="M144.056,83.5l-2.222,3.889H122" transform="translate(-109.278 -80.167)" fill="none" stroke="#000" stroke-linecap="round" stroke-linejoin="round" stroke-miterlimit="10" stroke-width="2"/>
        <path id="Trazado_986399" data-name="Trazado 986399" d="M81.035,141.278H74.677l-2.232,3.889H67.5v-22.2l6.8-5.578h21.02l2.222-3.889h11.843v31.667H93.657l-2.222-3.889h-6.51" transform="translate(-60.833 -106.833)" fill="none" stroke="#000" stroke-linecap="round" stroke-linejoin="round" stroke-miterlimit="10" stroke-width="2"/>
        <line id="Línea_639" data-name="Línea 639" x2="10.333" transform="translate(17.056 37.778)" fill="none" stroke="#000" stroke-linecap="round" stroke-linejoin="round" stroke-miterlimit="10" stroke-width="2"/>
        <path id="Trazado_986400" data-name="Trazado 986400" d="M318.419,367.389,316.2,363.5h-3.288l2.222,3.889" transform="translate(-278.975 -329.056)" fill="none" stroke="#000" stroke-linecap="round" stroke-linejoin="round" stroke-miterlimit="10" stroke-width="2"/>
        <path id="Trazado_986401" data-name="Trazado 986401" d="M378.419,367.389,376.2,363.5h-3.288l2.222,3.889" transform="translate(-332.308 -329.056)" fill="none" stroke="#000" stroke-linecap="round" stroke-linejoin="round" stroke-miterlimit="10" stroke-width="2"/>
        <path id="Trazado_986402" data-name="Trazado 986402" d="M173.08,148.5l-1.111,3.333H159.837l-1.111-3.333" transform="translate(-141.923 -137.944)" fill="none" stroke="#000" stroke-linecap="round" stroke-linejoin="round" stroke-miterlimit="10" stroke-width="2"/>
        <path id="Trazado_986403" data-name="Trazado 986403" d="M417.833,195.6l-3.333-1.111V180.019l3.333-1.111" transform="translate(-369.278 -164.974)" fill="none" stroke="#000" stroke-linecap="round" stroke-linejoin="round" stroke-miterlimit="10" stroke-width="2"/>
        <path id="Trazado_986404" data-name="Trazado 986404" d="M67.5,230.908l3.333,1.111v8.687L67.5,241.817" transform="translate(-60.833 -211.196)" fill="none" stroke="#000" stroke-linecap="round" stroke-linejoin="round" stroke-miterlimit="10" stroke-width="2"/>
        <line id="Línea_640" data-name="Línea 640" x2="17.242" transform="translate(13.99 30)" fill="none" stroke="#000" stroke-linecap="round" stroke-linejoin="round" stroke-miterlimit="10" stroke-width="2"/>
        <line id="Línea_641" data-name="Línea 641" x2="13.997" transform="translate(13.99 26.111)" fill="none" stroke="#000" stroke-linecap="round" stroke-linejoin="round" stroke-miterlimit="10" stroke-width="2"/>
        <line id="Línea_642" data-name="Línea 642" x2="15.472" transform="translate(13.99 22.222)" fill="none" stroke="#000" stroke-linecap="round" stroke-linejoin="round" stroke-miterlimit="10" stroke-width="2"/>
        <line id="Línea_643" data-name="Línea 643" x2="19.899" transform="translate(13.99 18.333)" fill="none" stroke="#000" stroke-linecap="round" stroke-linejoin="round" stroke-miterlimit="10" stroke-width="2"/>
        <path id="Trazado_986405" data-name="Trazado 986405" d="M284.43,256.833h-8.436L272.66,253.5h11.77Z" transform="translate(-243.198 -231.278)" fill="none" stroke="#000" stroke-linecap="round" stroke-linejoin="round" stroke-miterlimit="10" stroke-width="2"/>
        <circle id="Elipse_12107" data-name="Elipse 12107" transform="translate(41.232 30)" fill="none" stroke="#000" stroke-linecap="round" stroke-linejoin="round" stroke-miterlimit="10" stroke-width="2"/>
        <circle id="Elipse_12108" data-name="Elipse 12108" transform="translate(37.899 30)" fill="none" stroke="#000" stroke-linecap="round" stroke-linejoin="round" stroke-miterlimit="10" stroke-width="2"/>
        <circle id="Elipse_12109" data-name="Elipse 12109" transform="translate(34.565 30)" fill="none" stroke="#000" stroke-linecap="round" stroke-linejoin="round" stroke-miterlimit="10" stroke-width="2"/>
        <circle id="Elipse_12110" data-name="Elipse 12110" transform="translate(45.232 10)" fill="none" stroke="#000" stroke-linecap="round" stroke-linejoin="round" stroke-miterlimit="10" stroke-width="2"/>
        <circle id="Elipse_12111" data-name="Elipse 12111" transform="translate(41.899 10)" fill="none" stroke="#000" stroke-linecap="round" stroke-linejoin="round" stroke-miterlimit="10" stroke-width="2"/>
        <circle id="Elipse_12112" data-name="Elipse 12112" transform="translate(38.565 10)" fill="none" stroke="#000" stroke-linecap="round" stroke-linejoin="round" stroke-miterlimit="10" stroke-width="2"/>
      </g>
    </g>
  </g>
</svg>
