<svg xmlns="http://www.w3.org/2000/svg" width="146.666" height="225.421" viewBox="0 0 146.666 225.421">
  <g id="_3" data-name="3" transform="translate(-25 -16.993)">
    <g id="Grupo_1124238" data-name="Grupo 1124238" transform="translate(25 16.993)">
      <path id="Trazado_984625" data-name="Trazado 984625" d="M183.984,86.2c-.154.077-.23.23-.384.307a1.676,1.676,0,0,0,.384-.307Z" transform="translate(-61.75 -33.029)" fill="#aeb2f4"/>
      <path id="Trazado_984626" data-name="Trazado 984626" d="M56.3,86.5a16.875,16.875,0,0,0,1.383,1.076c-.461-.384-.922-.691-1.383-1.076Z" transform="translate(-32.253 -33.099)" fill="#aeb2f4"/>
      <path id="Trazado_984627" data-name="Trazado 984627" d="M50.661,101.938c-.154-.154-.307-.384-.461-.538.154.154.307.384.461.538Z" transform="translate(-30.839 -36.551)" fill="#aeb2f4"/>
      <path id="Trazado_984628" data-name="Trazado 984628" d="M47.9,98.2h0c.154.23.23.461.384.691A2.015,2.015,0,0,0,47.9,98.2Z" transform="translate(-30.306 -35.81)" fill="#aeb2f4"/>
      <path id="Trazado_984629" data-name="Trazado 984629" d="M192.4,98.03c.077-.077.154-.154.154-.23h0C192.477,97.8,192.477,97.877,192.4,98.03Z" transform="translate(-63.789 -35.717)" fill="#aeb2f4"/>
      <path id="Trazado_984630" data-name="Trazado 984630" d="M189.7,101.329h0a10.326,10.326,0,0,0,.845-1.076c.077-.077.077-.154.154-.154A7.019,7.019,0,0,1,189.7,101.329Z" transform="translate(-63.163 -36.25)" fill="#aeb2f4"/>
      <path id="Trazado_984631" data-name="Trazado 984631" d="M94.732,308.2c-1.844-.307-3.688-.615-5.532-1C91.2,307.584,93.041,307.891,94.732,308.2Z" transform="translate(-39.876 -84.238)" fill="#aeb2f4"/>
      <path id="Trazado_984632" data-name="Trazado 984632" d="M131.541,309.854a13.718,13.718,0,0,1,1.767-.154c-1.844.154-3.765.307-5.608.384C128.929,310.007,130.235,309.93,131.541,309.854Z" transform="translate(-48.797 -84.817)" fill="#aeb2f4"/>
      <path id="Trazado_984633" data-name="Trazado 984633" d="M211.429,267.8h0c-.384.845-.845,1.613-1.229,2.382A23.15,23.15,0,0,0,211.429,267.8Z" transform="translate(-67.913 -75.109)" fill="#aeb2f4"/>
      <path id="Trazado_984634" data-name="Trazado 984634" d="M198.265,284.454l.154-.154c-1.229,1.152-2.535,2.228-3.918,3.3C196.037,286.374,197.343,285.3,198.265,284.454Z" transform="translate(-64.276 -78.932)" fill="#aeb2f4"/>
      <path id="Trazado_984635" data-name="Trazado 984635" d="M209.274,271.4c-.845,1.46-1.613,2.535-2.074,3.227A23.93,23.93,0,0,0,209.274,271.4Z" transform="translate(-67.218 -75.943)" fill="#aeb2f4"/>
      <path id="Trazado_984636" data-name="Trazado 984636" d="M102.732,309.291q-2.651-.23-5.532-.691C99.5,308.984,101.349,309.138,102.732,309.291Z" transform="translate(-41.73 -84.562)" fill="#aeb2f4"/>
      <path id="Trazado_984637" data-name="Trazado 984637" d="M104.9,309.6c2.228.23,5.916.538,10.526.615-3.15-.077-6.761-.23-10.526-.615Z" transform="translate(-43.514 -84.794)" fill="#aeb2f4"/>
      <path id="Trazado_984638" data-name="Trazado 984638" d="M125.607,310.2c-2.228.077-4.379.154-6.607.154C121.074,310.354,123.226,310.277,125.607,310.2Z" transform="translate(-46.781 -84.933)" fill="#aeb2f4"/>
      <path id="Trazado_984639" data-name="Trazado 984639" d="M25.854,255.9a34.659,34.659,0,0,0,.845,4,31.9,31.9,0,0,1-1-4.994A4.5,4.5,0,0,1,25.854,255.9Z" transform="translate(-25.162 -72.119)" fill="#aeb2f4"/>
      <path id="Trazado_984640" data-name="Trazado 984640" d="M27.43,262.691c.077.23.154.384.23.615-.154-.461-.307-.845-.461-1.306Z" transform="translate(-25.51 -73.765)" fill="#aeb2f4"/>
      <path id="Trazado_984641" data-name="Trazado 984641" d="M47.613,289.329c.461.307.922.691,1.46,1.076-.922-.691-2-1.537-3.073-2.3C46.615,288.561,47.152,288.945,47.613,289.329Z" transform="translate(-29.866 -79.812)" fill="#aeb2f4"/>
      <path id="Trazado_984642" data-name="Trazado 984642" d="M158.2,303.006a85.447,85.447,0,0,0,18.285-7.222,3.113,3.113,0,0,0,.691-.384A88.523,88.523,0,0,1,154.2,304C155.583,303.621,156.889,303.313,158.2,303.006Z" transform="translate(-54.937 -81.504)" fill="#aeb2f4"/>
      <path id="Trazado_984643" data-name="Trazado 984643" d="M151.208,306.9c-1.767.384-3.688.768-5.608,1.076C147.521,307.668,149.365,307.284,151.208,306.9Z" transform="translate(-52.945 -84.169)" fill="#aeb2f4"/>
      <path id="Trazado_984644" data-name="Trazado 984644" d="M76.387,303.713c.461.154.845.23,1.306.384-2-.615-4-1.229-5.993-2C73.313,302.715,74.927,303.252,76.387,303.713Z" transform="translate(-35.821 -83.056)" fill="#aeb2f4"/>
      <path id="Trazado_984645" data-name="Trazado 984645" d="M63.335,298.533c1.229.538,2.689,1.152,4.149,1.69A77.123,77.123,0,0,1,54.5,294,75.5,75.5,0,0,0,63.335,298.533Z" transform="translate(-31.836 -81.179)" fill="#aeb2f4"/>
      <path id="Trazado_984646" data-name="Trazado 984646" d="M40.777,283.477l.077.077L40.7,283.4A.075.075,0,0,0,40.777,283.477Z" transform="translate(-28.638 -78.723)" fill="#aeb2f4"/>
      <path id="Trazado_984647" data-name="Trazado 984647" d="M45.86,279.625c-.461-.384-.845-.691-1.306-1.076C31.877,270.483,25.5,260.341,25.5,250.2c0,.922.077,1.844.154,2.766,0,.307.077.615.077.845a31.9,31.9,0,0,0,1,4.994c.077.154.077.307.154.461.154.461.307.922.461,1.306a13.851,13.851,0,0,0,.615,1.613l.461,1.152c.154.307.307.691.461,1,.23.461.461.922.691,1.306.077.154.23.384.307.538.23.461.538.922.768,1.383.384.615.691,1.152,1.076,1.69a36.2,36.2,0,0,0,4.226,5.224,7.12,7.12,0,0,0,1.076,1.076l.154.154.154.154c.384.384.768.691,1.152,1.076q1.268,1.152,2.766,2.3c1.076.845,2.151,1.613,3.073,2.3h0a.4.4,0,0,0,.307.154,8.1,8.1,0,0,0,.845.538c.768.461,1.613,1,2.228,1.46C46.628,283.159,45.936,281.7,45.86,279.625Z" transform="translate(-25.116 -71.03)" fill="#888abf"/>
      <path id="Trazado_984648" data-name="Trazado 984648" d="M51.606,288.176v-.23c-.461-.307-.845-.538-1.306-.845C50.761,287.484,51.145,287.791,51.606,288.176Z" transform="translate(-30.862 -79.581)" fill="#aeb2f4"/>
      <path id="Trazado_984649" data-name="Trazado 984649" d="M215.6,154.3l.077,13.522C215.677,163.212,215.677,158.679,215.6,154.3Z" transform="translate(-69.165 -48.809)" fill="#aeb2f4"/>
      <path id="Trazado_984650" data-name="Trazado 984650" d="M215.7,184.5l.077,28.119C215.777,203.477,215.777,193.873,215.7,184.5Z" transform="translate(-69.188 -55.807)" fill="#aeb2f4"/>
      <path id="Trazado_984651" data-name="Trazado 984651" d="M199.822,150.7a9.208,9.208,0,0,1-.922.845,9.206,9.206,0,0,0,.922-.845Z" transform="translate(-65.295 -47.975)" fill="#aeb2f4"/>
      <path id="Trazado_984652" data-name="Trazado 984652" d="M41.545,151.968c-.307-.23-.538-.538-.845-.768h0A4.027,4.027,0,0,1,41.545,151.968Z" transform="translate(-28.638 -48.091)" fill="#aeb2f4"/>
      <path id="Trazado_984653" data-name="Trazado 984653" d="M186.952,104.5a14.747,14.747,0,0,1-1.152,1.076c.154-.154.307-.23.461-.384a5.867,5.867,0,0,0,.691-.691Z" transform="translate(-62.26 -37.27)" fill="#aeb2f4"/>
      <path id="Trazado_984654" data-name="Trazado 984654" d="M27.207,130.8a6.4,6.4,0,0,0-.307,1.152c.077-.384.23-.768.307-1.152Z" transform="translate(-25.44 -43.364)" fill="#aeb2f4"/>
      <path id="Trazado_984655" data-name="Trazado 984655" d="M187.383,104.454l.077-.077.077-.077a.165.165,0,0,0-.154.154Z" transform="translate(-62.613 -37.223)" fill="#aeb2f4"/>
      <path id="Trazado_984656" data-name="Trazado 984656" d="M215.4,139.9c.077.922.154,1.767.154,2.766A19.709,19.709,0,0,0,215.4,139.9Z" transform="translate(-69.118 -45.472)" fill="#aeb2f4"/>
      <path id="Trazado_984657" data-name="Trazado 984657" d="M189.5,101.93l.23-.23h0C189.577,101.777,189.577,101.854,189.5,101.93Z" transform="translate(-63.117 -36.621)" fill="#aeb2f4"/>
      <path id="Trazado_984658" data-name="Trazado 984658" d="M51.338,102.791a4.222,4.222,0,0,1-.538-.691h0A4.222,4.222,0,0,0,51.338,102.791Z" transform="translate(-30.978 -36.714)" fill="#aeb2f4"/>
      <path id="Trazado_984659" data-name="Trazado 984659" d="M155.411,280.355C126.293,296.642,79.966,296.181,52,279.279v.23c.077,2.074.768,3.534,1.921,4.226A83.553,83.553,0,0,0,66.9,289.958a.268.268,0,0,1,.154.077c2,.768,4,1.383,5.993,2,.384.077.691.23,1.076.307,1.844.538,3.765,1,5.608,1.383a3.381,3.381,0,0,0,.768.154c1.844.384,3.765.768,5.532,1,.23,0,.461.077.615.077q2.881.461,5.532.691a.693.693,0,0,1,.384.077c3.765.384,7.376.538,10.526.615h.307c2.151,0,4.379,0,6.607-.154h.077c1.844-.077,3.765-.23,5.608-.384l2.074-.23c1.46-.154,2.919-.384,4.379-.615l1.613-.23c1.921-.307,3.765-.691,5.608-1.076a.282.282,0,0,0,.23-.077c.307-.077.538-.154.845-.23a89.584,89.584,0,0,0,22.972-8.6h0a29.126,29.126,0,0,0,2.612-1.537c.077,0,.077-.077.154-.077.691-.461,1.383-.845,2-1.306.461-.307.845-.615,1.229-.845a5.8,5.8,0,0,0,1.076-.845c.23-.154.538-.384.768-.538,1.383-1.076,2.689-2.151,3.918-3.3a46.341,46.341,0,0,0,5.916-6.607c.461-.691,1.229-1.844,2.074-3.227l.23-.461c.384-.691.845-1.537,1.229-2.382.307-.691.615-1.46.922-2.228.154-.384.307-.691.461-1.076,0-.077.077-.154.077-.23.384-1.229.691-2.151.922-3.15v-.077a14.318,14.318,0,0,0,.384-2.074,23.751,23.751,0,0,0,.384-5.071C178,260.763,170.393,271.98,155.411,280.355Z" transform="translate(-31.256 -70.915)" fill="#888abf"/>
      <path id="Trazado_984660" data-name="Trazado 984660" d="M197,84.2c0-.384.077-.691.077-1,0,.307-.077.615-.077,1Z" transform="translate(-64.855 -32.334)" fill="#aeb2f4"/>
      <path id="Trazado_984661" data-name="Trazado 984661" d="M212.719,97.151a26.6,26.6,0,0,1-.768,5.916,24.22,24.22,0,0,1-1.69,4.84c-.23.538-.384,1.076-.615,1.537-.691,1.229-1.46,2.535-2.3,3.765a40.817,40.817,0,0,0-3.841-4.456,13.133,13.133,0,0,0,.845-1.076,19.2,19.2,0,0,0,1.921-3.15,16.26,16.26,0,0,0,.845-1.613,8.536,8.536,0,0,0,.538-1.229c0-.077.077-.077.077-.154a5.29,5.29,0,0,0,.23-.615,20.779,20.779,0,0,0,1.383-4.379,2.88,2.88,0,0,0,.077-.845A24.8,24.8,0,0,0,207.879,82.4,25.793,25.793,0,0,1,212.719,97.151Z" transform="translate(-66.361 -32.149)" fill="#d7daff"/>
      <path id="Trazado_984662" data-name="Trazado 984662" d="M43.4,84.8v.077h0Z" transform="translate(-29.264 -32.705)" fill="#aeb2f4"/>
      <path id="Trazado_984663" data-name="Trazado 984663" d="M215.5,101.5v0Z" transform="translate(-69.142 -36.575)" fill="#aeb2f4"/>
      <path id="Trazado_984664" data-name="Trazado 984664" d="M38.025,147.329l-.615-.615h0a26.513,26.513,0,0,1-1.921-2.074l-.154-.154a35.972,35.972,0,0,1-4.379-5.839,37.963,37.963,0,0,1-2.228-4.226v-.077a7.487,7.487,0,0,0-.384-.845c-1,8.144,2.074,16.441,9.45,23.74C40.023,153.629,40.176,149.48,38.025,147.329Z" transform="translate(-25.733 -43.989)" fill="#888abf"/>
      <path id="Trazado_984665" data-name="Trazado 984665" d="M45.513,170.213A13.3,13.3,0,0,1,47.05,164.3a57.419,57.419,0,0,1-10.141-7.683c-7.376-7.3-10.449-15.6-9.45-23.74a3.745,3.745,0,0,1-.23-.538c0-.077-.077-.154-.077-.307-.154-.384-.307-.768-.461-1.229-.154.384-.23.768-.384,1.152-.077.307-.154.538-.23.845v.154a12.8,12.8,0,0,0-.461,2.228c0,.154-.077.307-.077.461-.154.768-.23,1.383-.307,2,0,.23-.077.384-.077.615-.077,1.152-.077,2.074-.154,2.766C25.154,151.467,31.915,161.992,45.513,170.213Z" transform="translate(-25 -43.364)" fill="#d7daff"/>
      <path id="Trazado_984666" data-name="Trazado 984666" d="M47.6,97.7c.077.154.154.23.23.384h0A1.679,1.679,0,0,0,47.6,97.7Z" transform="translate(-30.237 -35.694)" fill="#aeb2f4"/>
      <path id="Trazado_984667" data-name="Trazado 984667" d="M45.6,93.7h0c0,.077.077.154.077.23.077.23.23.538.307.768C45.83,94.391,45.754,94.084,45.6,93.7Z" transform="translate(-29.773 -34.767)" fill="#aeb2f4"/>
      <path id="Trazado_984668" data-name="Trazado 984668" d="M175.471,131.452c-.077.077-.077.23-.154.307a1.092,1.092,0,0,0-.154.461c1.076,8.144-2,16.518-9.3,23.817a56.687,56.687,0,0,1-12.293,9.066c-28.273,15.75-73.218,15.289-100.338-1A13.3,13.3,0,0,0,51.7,170.02c27.966,16.825,74.293,17.286,103.411,1.076,14.982-8.374,22.511-19.514,22.511-30.731,0-.922-.077-1.844-.154-2.766,0-.23-.077-.384-.077-.615a15.547,15.547,0,0,0-.307-2c0-.154-.077-.307-.077-.461-.154-.768-.307-1.46-.461-2.151,0-.077,0-.077-.077-.154-.077-.307-.154-.538-.23-.768-.154-.384-.23-.845-.384-1.152h0A6.76,6.76,0,0,1,175.471,131.452Z" transform="translate(-31.187 -43.248)" fill="#d7daff"/>
      <path id="Trazado_984669" data-name="Trazado 984669" d="M199.343,146.783c-2.151,2.151-2,6.377.384,9.834,7.3-7.3,10.372-15.6,9.3-23.817a9.013,9.013,0,0,1-.384.845v.077a40.7,40.7,0,0,1-2.3,4.379c-.538.845-1.152,1.767-1.767,2.612a24.388,24.388,0,0,1-1.613,2.074c-.077.077-.077.154-.154.23l-.154.154-.154.154c-.154.154-.307.384-.461.538l-.154.154c-.691.768-1.383,1.46-1.921,2.074h0A1.814,1.814,0,0,1,199.343,146.783Z" transform="translate(-65.047 -43.827)" fill="#888abf"/>
      <path id="Trazado_984670" data-name="Trazado 984670" d="M204.7,115.5l.922,1.383a1.679,1.679,0,0,0-.23-.384C205.161,116.191,204.93,115.807,204.7,115.5Z" transform="translate(-66.639 -39.819)" fill="#aeb2f4"/>
      <path id="Trazado_984671" data-name="Trazado 984671" d="M192.6,97.306h0c.077-.077.154-.23.23-.307a7.014,7.014,0,0,0,.615-1C193.215,96.384,192.907,96.845,192.6,97.306Z" transform="translate(-63.835 -35.3)" fill="#aeb2f4"/>
      <path id="Trazado_984672" data-name="Trazado 984672" d="M194.854,93.3c-.077.077-.077.154-.154.307,0-.077.077-.154.077-.23.077,0,.077,0,.077-.077Z" transform="translate(-64.322 -34.674)" fill="#aeb2f4"/>
      <path id="Trazado_984673" data-name="Trazado 984673" d="M25.177,119.421A16.058,16.058,0,0,1,25.1,117.5,18.833,18.833,0,0,0,25.177,119.421Z" transform="translate(-25.023 -40.282)" fill="#aeb2f4"/>
      <path id="Trazado_984674" data-name="Trazado 984674" d="M43.4,84.9a8.466,8.466,0,0,0,.154,1.383c-.077-.461-.077-.922-.154-1.383Z" transform="translate(-29.264 -32.728)" fill="#aeb2f4"/>
      <path id="Trazado_984675" data-name="Trazado 984675" d="M197,84.884c0-.154.077-.23.077-.384h0A.576.576,0,0,0,197,84.884Z" transform="translate(-64.855 -32.635)" fill="#aeb2f4"/>
      <path id="Trazado_984676" data-name="Trazado 984676" d="M28.8,134.5a32.238,32.238,0,0,0,2.228,4.226A30.756,30.756,0,0,1,28.8,134.5Z" transform="translate(-25.881 -44.221)" fill="#aeb2f4"/>
      <path id="Trazado_984677" data-name="Trazado 984677" d="M204.6,145.174a24.4,24.4,0,0,0,1.613-2.074Z" transform="translate(-66.616 -46.214)" fill="#aeb2f4"/>
      <path id="Trazado_984678" data-name="Trazado 984678" d="M204.354,146.1h0c-.077.077-.077.154-.154.154Z" transform="translate(-66.523 -46.909)" fill="#aeb2f4"/>
      <path id="Trazado_984679" data-name="Trazado 984679" d="M212.284,132.761a1.092,1.092,0,0,0,.154-.461c-.154.461-.384.922-.538,1.383v-.077A7.479,7.479,0,0,0,212.284,132.761Z" transform="translate(-68.307 -43.711)" fill="#aeb2f4"/>
      <path id="Trazado_984680" data-name="Trazado 984680" d="M185.022,85.1a9.208,9.208,0,0,1-.922.845h0C184.484,85.638,184.715,85.33,185.022,85.1Z" transform="translate(-61.866 -32.774)" fill="#aeb2f4"/>
      <path id="Trazado_984681" data-name="Trazado 984681" d="M55.2,85.5a8.138,8.138,0,0,1,.922.768h0A4.872,4.872,0,0,1,55.2,85.5Z" transform="translate(-31.998 -32.867)" fill="#aeb2f4"/>
      <path id="Trazado_984682" data-name="Trazado 984682" d="M200.484,150.2h0l-.384.384h0C200.254,150.43,200.407,150.354,200.484,150.2Z" transform="translate(-65.573 -47.859)" fill="#aeb2f4"/>
      <path id="Trazado_984683" data-name="Trazado 984683" d="M40.661,151.061h0L40.2,150.6h0Z" transform="translate(-28.522 -47.952)" fill="#aeb2f4"/>
      <path id="Trazado_984684" data-name="Trazado 984684" d="M45.554,93.584c-.077-.154-.077-.23-.154-.384a.268.268,0,0,0,.077.154.282.282,0,0,0,.077.23Z" transform="translate(-29.727 -34.651)" fill="#aeb2f4"/>
      <path id="Trazado_984685" data-name="Trazado 984685" d="M204.23,146.1c-.077.077-.154.23-.23.307l.154-.154A.268.268,0,0,0,204.23,146.1Z" transform="translate(-66.477 -46.909)" fill="#aeb2f4"/>
      <path id="Trazado_984686" data-name="Trazado 984686" d="M194.9,93.068c0-.077.077-.154.077-.23.077-.154.154-.384.23-.538a5.3,5.3,0,0,0-.307.768Z" transform="translate(-64.368 -34.443)" fill="#aeb2f4"/>
      <path id="Trazado_984687" data-name="Trazado 984687" d="M45.79,254.787a6.962,6.962,0,0,1-1.229-.845,27.791,27.791,0,0,1-2.459-1.69c-11.063-7.76-16.595-17.21-16.595-26.736L25.2,144c0,9.6,5.608,19.13,16.825,26.89a27.945,27.945,0,0,0,3.534,2.3Z" transform="translate(-25.046 -46.422)" fill="#aeb2f4"/>
      <path id="Trazado_984688" data-name="Trazado 984688" d="M50.63,125.749c.077.077.154.077.307.154,1.152.538,2.382,1.076,3.534,1.613.768.307,1.46.691,2.3,1a4.331,4.331,0,0,0,.922.307c23.894,9.219,55.24,9.45,79.594.461a94.87,94.87,0,0,0,11.678-5.3c7.606-4.226,13.291-9.219,17.056-14.521h0a34.38,34.38,0,0,0-3.841-4.533A52.366,52.366,0,0,1,147.05,117.3c-28.042,15.6-72.6,15.135-99.57-1C24.432,102.47,21.82,81.573,39.106,66.054V65.9c-.077,0-.077.077-.154.154a49.623,49.623,0,0,0-7.068,7.683A34.332,34.332,0,0,0,25.2,93.789c0,10.372,6.607,20.744,19.822,28.888a3.253,3.253,0,0,0,.538.384C47.1,123.906,48.863,124.828,50.63,125.749Z" transform="translate(-25.046 -28.326)" fill="#d7daff"/>
      <path id="Trazado_984689" data-name="Trazado 984689" d="M48.225,116.107c26.967,16.211,71.451,16.672,99.57,1a52.366,52.366,0,0,0,15.135-12.369,13.136,13.136,0,0,0,.845-1.076h0a27.167,27.167,0,0,0,2-3.15,11.568,11.568,0,0,0,.845-1.69c.23-.384.384-.845.615-1.229,0-.077.077-.077.077-.154h0a5.294,5.294,0,0,1,.23-.615,24.039,24.039,0,0,0,1.383-4.379h0A3.151,3.151,0,0,0,169,91.6a24.081,24.081,0,0,0-1.537-13.291,34.419,34.419,0,0,0-9.45-12.907v4.84h0v8.451h0v.077a4.726,4.726,0,0,1-.077,1h0a.692.692,0,0,1-.077.384v.307c-.077.538-.077,1-.154,1.537-.077.307-.154.691-.23,1-.077.23-.077.538-.154.768l-.23.691c-.077.307-.154.538-.23.845l-.23.461a3.746,3.746,0,0,0-.23.538c0,.077-.077.154-.077.23V86.6c0,.077-.077.154-.077.23-.077.077-.077.154-.154.307-.154.23-.23.538-.384.768a2.729,2.729,0,0,1-.307.691c-.23.307-.384.691-.615,1-.077.077-.154.23-.23.307h0c-.077.077-.077.154-.154.23,0,.077-.077.077-.077.154-.154.23-.23.384-.384.615a4.664,4.664,0,0,1-.538.768c-.077.077-.154.154-.154.23a10.331,10.331,0,0,0-.845,1.076h0l-.23.23-.23.23c-.384.461-.691.922-1.076,1.306,0,.077-.077.077-.154.154l-.077.077-.077.077a6.927,6.927,0,0,1-.768.691c-.154.154-.307.23-.461.384-.154.077-.23.23-.384.307-.461.384-.845.768-1.229,1.152-.768.615-1.613,1.229-2.382,1.844a1.677,1.677,0,0,0-.384.307,3.411,3.411,0,0,1-.845.615c-1.306.845-2.689,1.767-4.226,2.612C122.211,112.8,96.7,115.108,75.5,109.807a70.251,70.251,0,0,1-19.207-7.683c-.154-.077-.307-.23-.461-.307-1-.615-2-1.229-2.919-1.921-.154-.077-.307-.23-.461-.307-.154-.154-.384-.307-.538-.461-.23-.154-.384-.307-.615-.461a8.224,8.224,0,0,1-1.229-1.076c-.307-.307-.691-.538-1-.845l-.615-.615-.538-.538-1.69-1.69a4.222,4.222,0,0,0-.538-.691c-.154-.154-.23-.384-.384-.538-.461-.538-.845-1.076-1.229-1.613,0-.077-.077-.077-.077-.154V90.83a4.289,4.289,0,0,0-.384-.615h0c-.077-.154-.154-.23-.23-.384-.077-.077-.077-.154-.154-.23-.154-.23-.23-.461-.384-.691-.23-.307-.384-.691-.615-1a3.745,3.745,0,0,1-.307-.845c0-.077-.077-.154-.077-.23h0a.282.282,0,0,1-.077-.23c0-.077-.077-.077-.077-.154-.23-.615-.461-1.152-.691-1.767a9.879,9.879,0,0,1-.307-1.46c-.154-.615-.23-1.152-.384-1.767a8.35,8.35,0,0,1-.077-1.383V80c0-.461-.077-.845-.077-1.306V65.631C22.641,81.457,25.253,102.278,48.225,116.107Z" transform="translate(-25.867 -28.21)" fill="#d7daff"/>
      <path id="Trazado_984690" data-name="Trazado 984690" d="M43.2,61.3v.384c0,.461.077.922.077,1.306C43.277,62.452,43.2,61.838,43.2,61.3Z" transform="translate(-29.217 -27.26)" fill="#aeb2f4"/>
      <path id="Trazado_984691" data-name="Trazado 984691" d="M197.077,60.906c0-.461-.077-.922-.077-1.306a12.445,12.445,0,0,1,.077,1.69Z" transform="translate(-64.855 -26.866)" fill="#aeb2f4"/>
      <path id="Trazado_984692" data-name="Trazado 984692" d="M50.972,159.06c-1-.615-1.921-1.229-2.843-1.844-.23-.154-.461-.384-.691-.538-.615-.461-1.306-.922-1.844-1.383l-.922-.691c-.538-.384-1-.845-1.537-1.229-.307-.307-.615-.538-.922-.845-.384-.384-.845-.768-1.229-1.152l-.077-.077c2.151,2.151,2,6.377-.307,9.834a51.56,51.56,0,0,0,10.141,7.683C52.662,165.206,52.739,160.98,50.972,159.06Z" transform="translate(-28.615 -48.114)" fill="#888abf"/>
      <path id="Trazado_984693" data-name="Trazado 984693" d="M40.2,150.6l.615.615.077.077c.384.384.845.768,1.229,1.152.307.307.615.538.922.845.461.384,1,.845,1.537,1.229l.922.691,1.844,1.383c.23.154.461.384.691.538.922.615,1.844,1.229,2.843,1.844l-.615-.615c-1-.615-1.921-1.229-2.843-1.844a4.932,4.932,0,0,1-1-.768L44.81,154.6a11.3,11.3,0,0,0-1-.768c-.461-.384-1-.768-1.46-1.152-.307-.307-.615-.538-.922-.845-.307-.23-.538-.538-.845-.768A2.037,2.037,0,0,0,40.2,150.6Z" transform="translate(-28.522 -47.952)" fill="#aeb2f4"/>
      <path id="Trazado_984694" data-name="Trazado 984694" d="M27.251,128.871c0,.077.077.154.077.307.077.154.154.384.23.538a9.013,9.013,0,0,0,.384.845v.077a30.756,30.756,0,0,0,2.228,4.226A32.872,32.872,0,0,0,34.55,140.7l.154.154c.691.768,1.383,1.46,1.921,2.074h0a2.037,2.037,0,0,0,.461.384,8.412,8.412,0,0,0,.845.768c.307.307.615.538.922.845.461.384.922.768,1.46,1.152a11.291,11.291,0,0,0,1,.768L42.924,148a11.3,11.3,0,0,1,1,.768c.922.615,1.844,1.229,2.843,1.844a5.473,5.473,0,0,1-1.306-3.918c-13.6-8.144-20.36-18.669-20.36-29.195a15.429,15.429,0,0,0,.077,1.921v.461c.077.615.077,1.229.154,1.767v.077a15.383,15.383,0,0,0,.307,1.844h0c.154.615.23,1.152.384,1.767h0c.077.384.23.768.307,1.076a2.375,2.375,0,0,1,.154.615,1.424,1.424,0,0,1,.154.538h0C26.944,128.1,27.1,128.563,27.251,128.871Z" transform="translate(-25.023 -40.282)" fill="#aeb2f4"/>
      <path id="Trazado_984695" data-name="Trazado 984695" d="M45.46,143.1V131.272a2.335,2.335,0,0,1-.538-.384C31.707,122.744,25.1,112.372,25.1,102v11.832C25.1,124.434,31.861,134.959,45.46,143.1Z" transform="translate(-25.023 -36.69)" fill="#aeb2f4"/>
      <path id="Trazado_984696" data-name="Trazado 984696" d="M177.853,225.061c0,11.217-7.529,22.357-22.511,30.731-18.516,10.3-43.869,13.829-67.148,10.833-13.368-1.767-26.045-5.685-36.263-11.908L51.7,173.2c10.3,6.146,23.049,10.141,36.494,11.908,23.2,3,48.479-.538,66.918-10.833,14.982-8.3,22.511-19.514,22.511-30.578v31.423l.077,28.042Z" transform="translate(-31.187 -46.353)" fill="#aeb2f4"/>
      <path id="Trazado_984697" data-name="Trazado 984697" d="M154.015,169.9a58.635,58.635,0,0,0,12.293-9.066c-2.382-3.457-2.535-7.683-.384-9.834l-.077.077c-.461.461-.922.845-1.383,1.306-.384.307-.691.691-1.152,1-.538.461-1.152.922-1.767,1.383l-1.152.922c-.691.538-1.46,1-2.151,1.537a11.242,11.242,0,0,0-1,.691c-1.152.691-2.3,1.383-3.534,2.074-28.119,15.673-72.757,15.212-99.8-1,1.844,1.844,1.69,6.146-.307,9.911C80.8,185.266,125.742,185.727,154.015,169.9Z" transform="translate(-31.627 -48.044)" fill="#888abf"/>
      <path id="Trazado_984698" data-name="Trazado 984698" d="M153.638,159.9c1.229-.691,2.382-1.383,3.534-2.074a11.239,11.239,0,0,0,1-.691,21.755,21.755,0,0,0,2.151-1.537l1.152-.922c.615-.461,1.152-.922,1.767-1.383.384-.307.768-.691,1.152-1,.461-.461,1-.845,1.383-1.306l.077-.077.615-.615c-.154.154-.307.23-.384.384-.307.307-.615.538-.922.845-.384.384-.768.768-1.229,1.152-.538.461-1.076.845-1.613,1.306-.461.307-.845.691-1.306,1-.615.461-1.229.845-1.921,1.306-.461.307-.845.615-1.306.922-1.152.691-2.3,1.46-3.534,2.151-28.427,15.9-73.679,15.443-100.953-1l.615.615C80.881,175.116,125.519,175.577,153.638,159.9Z" transform="translate(-31.558 -47.882)" fill="#aeb2f4"/>
      <path id="Trazado_984699" data-name="Trazado 984699" d="M161.864,74.215V77.9h0v.077c0,.307-.077.615-.077.922v.691a10.412,10.412,0,0,1-.154,1.537,6.065,6.065,0,0,1-.23,1,2.73,2.73,0,0,0-.154.768l-.23.691a1.751,1.751,0,0,1-.23.845,1.092,1.092,0,0,1-.154.461,7.963,7.963,0,0,0-.307.768c-.077.077-.077.154-.154.23,0,.077-.077.154-.077.23-.077.23-.23.538-.307.768a2.729,2.729,0,0,1-.307.691c-.23.384-.538.845-.768,1.306a.4.4,0,0,0-.154.307.268.268,0,0,0-.077.154,2.335,2.335,0,0,1-.384.538c-.154.23-.307.538-.461.768-.307.384-.691.845-1,1.229l-.23.23c0,.077-.077.154-.154.23-.384.384-.691.845-1.076,1.306l-.077.077c-.077.077-.154.154-.154.23a14.751,14.751,0,0,0-1.152,1.076l-.307.307c-.384.384-.768.768-1.229,1.152-.691.615-1.537,1.229-2.382,1.844-.154.077-.23.23-.384.307-.23.23-.538.384-.768.615-1.306.845-2.689,1.767-4.226,2.612-17.671,9.834-43.178,12.139-64.382,6.838a68.017,68.017,0,0,1-19.207-7.76,1.607,1.607,0,0,1-.461-.307c-1-.615-2-1.306-2.919-1.921-.154-.077-.307-.23-.461-.307s-.307-.23-.538-.384a4.262,4.262,0,0,0-.615-.461c-.384-.307-.768-.691-1.229-1a9.733,9.733,0,0,1-1-.845,4.635,4.635,0,0,1-.615-.615,3.549,3.549,0,0,1-.538-.538l-1.69-1.69a4.222,4.222,0,0,0-.538-.691c-.154-.154-.307-.384-.461-.538-.384-.538-.845-1.076-1.229-1.613l-.077-.077h0c-.154-.23-.23-.461-.384-.691-.077-.154-.154-.23-.23-.384,0-.077-.077-.154-.154-.23-.154-.23-.23-.461-.384-.691-.23-.307-.384-.691-.615-1-.154-.307-.23-.691-.384-1-.077-.154-.077-.23-.154-.384-.23-.615-.461-1.152-.691-1.767a9.88,9.88,0,0,1-.307-1.46c-.154-.615-.23-1.152-.384-1.767a8.35,8.35,0,0,1-.077-1.383v-.077c0-.461-.077-.845-.077-1.306V61.461c0,.461.077.845.077,1.306a9.3,9.3,0,0,0,.077,1.46,13.381,13.381,0,0,0,.384,1.69,9.88,9.88,0,0,0,.307,1.46,7.839,7.839,0,0,0,.691,1.69c.154.461.307.922.538,1.46a18.328,18.328,0,0,0,.922,1.69c.307.461.538.922.845,1.383.384.538.845,1.152,1.306,1.69.307.384.615.845,1,1.306.538.538,1.076,1.152,1.69,1.69l1.152,1.152c.23.23.538.461.845.768.384.307.845.691,1.306,1.076.384.307.691.615,1.152.922a31.545,31.545,0,0,0,3.918,2.612c22.588,13.675,60,13.983,83.59.845,1.46-.768,2.843-1.69,4.226-2.535.384-.307.768-.615,1.229-.922.768-.615,1.613-1.152,2.382-1.844l.307-.307c.307-.307.615-.538.922-.845.615-.538,1.229-1.152,1.844-1.767.384-.384.691-.845,1.076-1.306a15.581,15.581,0,0,0,1.383-1.767l.922-1.383c.384-.615.768-1.152,1.076-1.767.23-.461.384-1,.615-1.46.23-.538.538-1.152.768-1.767a8.986,8.986,0,0,0,.384-1.537c.154-.538.307-1.152.461-1.767a10.412,10.412,0,0,0,.154-1.537,12.61,12.61,0,0,0,.154-1.767v8.067Z" transform="translate(-29.565 -27.19)" fill="#aeb2f4"/>
      <path id="Trazado_984700" data-name="Trazado 984700" d="M161.864,73.5v3.841c0,.307-.077.615-.077.922v.691a10.412,10.412,0,0,1-.154,1.537,6.065,6.065,0,0,1-.23,1,2.73,2.73,0,0,0-.154.768l-.23.691a1.751,1.751,0,0,1-.23.845,1.092,1.092,0,0,1-.154.461,7.963,7.963,0,0,0-.307.768c-.077.077-.077.154-.154.23,0,.077-.077.154-.077.23-.077.23-.23.538-.307.768a2.73,2.73,0,0,1-.307.691c-.23.384-.538.845-.768,1.306a.4.4,0,0,0-.154.307.268.268,0,0,0-.077.154,2.335,2.335,0,0,1-.384.538c-.154.23-.307.538-.461.768-.307.384-.691.845-1,1.229l-.23.23c0,.077-.077.154-.154.23-.384.384-.691.845-1.076,1.306a.075.075,0,0,1-.077.077c-.077.077-.154.154-.154.23A14.749,14.749,0,0,0,153.8,94.4l-.307.307c-.384.384-.768.768-1.229,1.152-.691.615-1.537,1.229-2.382,1.844-.154.077-.23.23-.384.307-.23.23-.538.384-.768.615-1.306.845-2.689,1.767-4.226,2.612-17.671,9.834-43.178,12.139-64.382,6.838a68.016,68.016,0,0,1-19.207-7.76,1.607,1.607,0,0,1-.461-.307c-1-.615-2-1.306-2.919-1.921-.154-.077-.307-.23-.461-.307s-.307-.23-.538-.384a4.261,4.261,0,0,0-.615-.461c-.384-.307-.768-.691-1.229-1a9.731,9.731,0,0,1-1-.845,4.636,4.636,0,0,1-.615-.615,3.549,3.549,0,0,1-.538-.538l-1.69-1.69a4.222,4.222,0,0,0-.538-.691c-.154-.154-.307-.384-.461-.538-.384-.538-.845-1.076-1.229-1.613a.075.075,0,0,0-.077-.077V89.25c-.154-.23-.23-.461-.384-.691-.077-.154-.154-.23-.23-.384,0-.077-.077-.154-.154-.23-.154-.23-.23-.461-.384-.691-.23-.307-.384-.691-.615-1-.154-.307-.23-.691-.384-1-.077-.154-.077-.23-.154-.384-.23-.615-.461-1.152-.691-1.767a9.881,9.881,0,0,1-.307-1.46c-.154-.615-.23-1.152-.384-1.767a8.35,8.35,0,0,1-.077-1.383v-.077c0-.461-.077-.845-.077-1.306V73.577c0,.461.077.845.077,1.306v.077c0,.461.077.922.077,1.383.077.538.23,1.152.384,1.767a12.483,12.483,0,0,0,.307,1.46c.154.538.461,1.152.691,1.767a1.3,1.3,0,0,0,.154.384c.154.307.23.691.384,1a7.014,7.014,0,0,0,.615,1,3.114,3.114,0,0,0,.384.691c0,.077.077.154.154.23a1.679,1.679,0,0,1,.23.384,3.114,3.114,0,0,0,.384.691h0l.077.077c.384.538.768,1.076,1.229,1.613.154.154.307.384.461.538a4.222,4.222,0,0,0,.538.691c.538.538,1.076,1.152,1.69,1.69a3.549,3.549,0,0,1,.538.538,4.635,4.635,0,0,0,.615.615,11.494,11.494,0,0,0,1,.845c.384.307.768.691,1.229,1,.23.154.384.307.615.461a1.378,1.378,0,0,0,.538.384c.154.077.307.23.461.307.922.615,1.844,1.306,2.919,1.921.154.077.307.23.461.307a71.361,71.361,0,0,0,19.207,7.76c21.2,5.224,46.635,3,64.382-6.838,1.46-.845,2.919-1.69,4.226-2.612.23-.23.538-.384.768-.615a1.349,1.349,0,0,0,.384-.307,19.556,19.556,0,0,0,2.382-1.844c.461-.384.845-.768,1.229-1.152l.307-.307a14.75,14.75,0,0,0,1.152-1.076c.077-.077.077-.154.154-.23l.077-.077c.384-.384.691-.845,1.076-1.306.077-.077.154-.154.154-.23l.23-.23c.307-.384.691-.845,1-1.229.154-.23.307-.538.461-.768a2.335,2.335,0,0,1,.384-.538c0-.077.077-.077.077-.154.077-.077.077-.154.154-.307.23-.461.538-.845.768-1.306a2.729,2.729,0,0,1,.307-.691c.077-.23.23-.538.307-.768,0-.077.077-.154.077-.23.077-.077.077-.154.154-.23a5.3,5.3,0,0,1,.307-.768,1.092,1.092,0,0,0,.154-.461c.077-.23.154-.538.23-.845l.23-.691a3.382,3.382,0,0,1,.154-.768c.077-.307.154-.615.23-1a10.41,10.41,0,0,0,.154-1.537v-.691c0-.307.077-.615.077-.922v-.154C161.787,73.654,161.787,73.577,161.864,73.5Z" transform="translate(-29.565 -30.087)" fill="#888abf"/>
      <path id="Trazado_984701" data-name="Trazado 984701" d="M197.177,67.463v3.38l-.077-4.61V62.7Z" transform="translate(-64.878 -27.584)" fill="#888abf"/>
      <path id="Trazado_984702" data-name="Trazado 984702" d="M161.864,65.3v3.688h0v.077c0,.307-.077.615-.077.922v.691a10.412,10.412,0,0,1-.154,1.537,6.065,6.065,0,0,1-.23,1,2.73,2.73,0,0,0-.154.768l-.23.691a1.751,1.751,0,0,1-.23.845,1.092,1.092,0,0,1-.154.461,7.964,7.964,0,0,0-.307.768c-.077.077-.077.154-.154.23,0,.077-.077.154-.077.23-.077.23-.23.538-.307.768a2.73,2.73,0,0,1-.307.691c-.23.384-.538.845-.768,1.306a.4.4,0,0,0-.154.307.268.268,0,0,0-.077.154,2.335,2.335,0,0,1-.384.538c-.154.23-.307.538-.461.768-.307.384-.691.845-1,1.229l-.23.23c0,.077-.077.154-.154.23-.384.384-.691.845-1.076,1.306l-.077.077c-.077.077-.154.154-.154.23a14.748,14.748,0,0,0-1.152,1.076l-.307.307c-.384.384-.768.768-1.229,1.152-.691.615-1.537,1.229-2.382,1.844-.154.077-.23.23-.384.307-.23.23-.538.384-.768.615-1.306.845-2.689,1.767-4.226,2.612C126.83,102.792,101.323,105.1,80.118,99.8a68.016,68.016,0,0,1-19.207-7.76,1.607,1.607,0,0,1-.461-.307c-1-.615-2-1.306-2.919-1.921-.154-.077-.307-.23-.461-.307s-.307-.23-.538-.384a4.261,4.261,0,0,0-.615-.461c-.384-.307-.768-.691-1.229-1a9.731,9.731,0,0,1-1-.845,4.635,4.635,0,0,1-.615-.615,3.549,3.549,0,0,1-.538-.538l-1.69-1.69a4.222,4.222,0,0,0-.538-.691c-.154-.154-.307-.384-.461-.538-.384-.538-.845-1.076-1.229-1.613a.075.075,0,0,0-.077-.077v-.077c-.154-.23-.23-.461-.384-.691-.077-.154-.154-.23-.23-.384,0-.077-.077-.154-.154-.23-.154-.23-.23-.461-.384-.691-.23-.307-.384-.691-.615-1-.154-.307-.23-.691-.384-1-.077-.154-.077-.23-.154-.384-.23-.615-.461-1.152-.691-1.767a9.881,9.881,0,0,1-.307-1.46c-.154-.615-.23-1.152-.384-1.767a8.35,8.35,0,0,1-.077-1.383V70.14c0-.461-.077-.845-.077-1.306V65.3c0,.461.077.845.077,1.306v.077c0,.461.077.922.077,1.383.077.538.23,1.152.384,1.767a12.483,12.483,0,0,0,.307,1.46c.154.538.461,1.152.691,1.767a1.3,1.3,0,0,0,.154.384c.154.307.23.691.384,1a7.014,7.014,0,0,0,.615,1,3.114,3.114,0,0,0,.384.691c0,.077.077.154.154.23a1.679,1.679,0,0,1,.23.384,3.114,3.114,0,0,0,.384.691v.077l.077.077c.384.538.768,1.076,1.229,1.613.154.154.307.384.461.538a4.222,4.222,0,0,0,.538.691c.538.538,1.076,1.152,1.69,1.69a3.549,3.549,0,0,1,.538.538,4.636,4.636,0,0,0,.615.615,11.5,11.5,0,0,0,1,.845c.384.307.768.691,1.229,1,.23.154.384.307.615.461a1.378,1.378,0,0,0,.538.384c.154.077.307.23.461.307.922.615,1.844,1.306,2.919,1.921.154.077.307.23.461.307a71.361,71.361,0,0,0,19.207,7.76c21.2,5.224,46.635,3,64.382-6.838,1.46-.845,2.919-1.69,4.226-2.612.23-.23.538-.384.768-.615a1.349,1.349,0,0,0,.384-.307,19.556,19.556,0,0,0,2.382-1.844c.461-.384.845-.768,1.229-1.152l.307-.307a14.749,14.749,0,0,0,1.152-1.076c.077-.077.077-.154.154-.23l.077-.077c.384-.384.691-.845,1.076-1.306.077-.077.154-.154.154-.23l.23-.23c.307-.384.691-.845,1-1.229.154-.23.307-.538.461-.768a2.335,2.335,0,0,1,.384-.538c0-.077.077-.077.077-.154.077-.077.077-.154.154-.307.23-.461.538-.845.768-1.306a2.729,2.729,0,0,1,.307-.691c.077-.23.23-.538.307-.768,0-.077.077-.154.077-.23.077-.077.077-.154.154-.23a5.3,5.3,0,0,1,.307-.768,1.092,1.092,0,0,0,.154-.461c.077-.23.154-.538.23-.845l.23-.691a3.382,3.382,0,0,1,.154-.768c.077-.307.154-.615.23-1a10.41,10.41,0,0,0,.154-1.537v-.691c0-.307.077-.615.077-.922v-.077h0C161.787,65.454,161.787,65.377,161.864,65.3Z" transform="translate(-29.565 -28.186)" fill="#888abf"/>
      <path id="Trazado_984703" data-name="Trazado 984703" d="M155.011,147.678C125.893,163.889,79.566,163.428,51.6,146.6a5.473,5.473,0,0,0,1.306,3.918c27.274,16.441,72.526,16.9,100.953,1,1.229-.691,2.382-1.383,3.534-2.151.461-.307.845-.615,1.306-.922.615-.461,1.306-.845,1.921-1.306.461-.307.845-.691,1.306-1,.538-.461,1.076-.845,1.613-1.306.461-.384.845-.768,1.229-1.152a9.21,9.21,0,0,1,.922-.845c.154-.154.307-.23.384-.384h0c.615-.615,1.229-1.306,1.921-2.074l.154-.154c.154-.154.307-.384.461-.538.077-.077.154-.23.23-.307h0c.077-.077.077-.154.154-.23l1.613-2.074c.615-.922,1.229-1.767,1.767-2.612a40.7,40.7,0,0,0,2.3-4.379,10.259,10.259,0,0,0,.538-1.383c.077-.077.077-.23.154-.307a6.763,6.763,0,0,0,.384-1.152h0a1.424,1.424,0,0,0,.154-.538c.077-.154.077-.384.154-.538a22.773,22.773,0,0,0,.691-2.919h0a15.381,15.381,0,0,0,.307-1.844v-.077a16.251,16.251,0,0,0,.154-1.844v-.461a18.83,18.83,0,0,0,.077-1.921,25.753,25.753,0,0,1-1.383,8.3C173.373,133.541,166.305,141.378,155.011,147.678Z" transform="translate(-31.164 -40.189)" fill="#aeb2f4"/>
      <path id="Trazado_984704" data-name="Trazado 984704" d="M175.04,112.333h0a9.332,9.332,0,0,1-.691,1.537c-.691,1.229-1.46,2.535-2.3,3.765h0c-3.765,5.3-9.45,10.3-17.056,14.521a85.485,85.485,0,0,1-11.678,5.3c-24.355,8.989-55.7,8.758-79.594-.461-.307-.077-.615-.23-.922-.307-.768-.307-1.537-.691-2.3-1-1.229-.538-2.382-1-3.534-1.613-.077-.077-.154-.077-.307-.154a55.239,55.239,0,0,1-5.148-2.843v11.832c27.966,16.825,74.293,17.286,103.411,1.076,11.217-6.3,18.285-14.136,21.128-22.357a26.1,26.1,0,0,0,1.383-8.3h0V101.5a26.034,26.034,0,0,1-.768,5.916A23.024,23.024,0,0,1,175.04,112.333Z" transform="translate(-31.14 -36.575)" fill="#aeb2f4"/>
      <path id="Trazado_984705" data-name="Trazado 984705" d="M43.477,54.26a14.532,14.532,0,0,0,.384,1.767c.154.461.23,1,.384,1.46a16.787,16.787,0,0,0,.691,1.767c.23.461.384,1,.615,1.46a12.228,12.228,0,0,0,1,1.69c.307.461.538.922.845,1.383a14.133,14.133,0,0,0,1.306,1.69,14.772,14.772,0,0,0,1,1.306c.538.615,1.076,1.152,1.69,1.767L52.543,69.7a8.138,8.138,0,0,1,.922.768,16.875,16.875,0,0,0,1.383,1.076c.384.307.691.615,1.152.922,1.229.922,2.535,1.767,3.918,2.612,22.588,13.6,60,13.983,83.59.845,1.46-.845,2.919-1.69,4.226-2.612.461-.307.845-.615,1.229-.922.845-.615,1.69-1.229,2.382-1.844.154-.077.23-.23.384-.307.307-.307.615-.538.922-.845.615-.615,1.306-1.152,1.844-1.767a16.093,16.093,0,0,0,1.076-1.306c.461-.615,1-1.152,1.46-1.767l.922-1.383c.384-.615.768-1.152,1.076-1.767.23-.461.461-1,.691-1.46.23-.615.538-1.152.768-1.767.154-.538.307-1,.461-1.537.154-.615.307-1.152.461-1.767a10.412,10.412,0,0,0,.154-1.537,13.716,13.716,0,0,0,.154-1.767c0-.538-.077-1.152-.077-1.69a10.412,10.412,0,0,0-.154-1.537,14.533,14.533,0,0,0-.384-1.767c-.154-.461-.23-1-.384-1.46a16.79,16.79,0,0,0-.691-1.767c-.23-.461-.384-.922-.615-1.46-.307-.615-.615-1.152-1-1.767a13.364,13.364,0,0,0-.845-1.383,14.133,14.133,0,0,0-1.306-1.69,14.768,14.768,0,0,0-1-1.306c-.538-.615-1.076-1.152-1.69-1.767l-1.152-1.152c-.691-.615-1.46-1.229-2.228-1.844l-1.152-.922c-1.229-.922-2.535-1.767-3.918-2.612-22.588-13.6-60-13.983-83.59-.845-1.46.845-2.919,1.69-4.226,2.612-.461.307-.845.615-1.229.922-.845.615-1.69,1.229-2.382,1.844-.461.384-.845.768-1.229,1.152-.615.615-1.306,1.152-1.844,1.767a16.094,16.094,0,0,0-1.076,1.306c-.461.615-1,1.152-1.46,1.767l-.922,1.383c-.384.615-.768,1.152-1.076,1.767-.23.461-.461,1-.691,1.46-.23.615-.538,1.152-.768,1.767-.154.538-.307,1-.461,1.537-.154.615-.307,1.152-.461,1.767a10.412,10.412,0,0,0-.154,1.537,13.716,13.716,0,0,0-.154,1.767c0,.538.077,1.152.077,1.69A5.669,5.669,0,0,0,43.477,54.26Z" transform="translate(-29.264 -16.993)" fill="#d7daff"/>
      <path id="Trazado_984706" data-name="Trazado 984706" d="M55.777,55.406c.077.461.23,1,.307,1.46a7.193,7.193,0,0,0,.307,1.229c.154.461.384,1,.538,1.46.154.384.307.845.461,1.229a14.271,14.271,0,0,0,.845,1.46l.691,1.152A17.726,17.726,0,0,0,60,64.856c.307.384.538.691.845,1.076.461.461.922,1,1.383,1.46a12.243,12.243,0,0,0,1,1c.23.23.538.384.768.615l1.152.922c.307.23.615.538.922.768a27.257,27.257,0,0,0,3.3,2.151c18.977,11.447,50.4,11.755,70.145.691,1.229-.691,2.459-1.46,3.534-2.151a11.3,11.3,0,0,0,1-.768c.691-.538,1.383-1,2-1.537l.307-.307a6.926,6.926,0,0,0,.768-.691c.538-.461,1.076-1,1.537-1.46a13.378,13.378,0,0,1,.922-1.076c.384-.461.845-1,1.229-1.46a10.012,10.012,0,0,0,.768-1.152c.307-.461.615-1,.922-1.46a8.536,8.536,0,0,0,.538-1.229,11.82,11.82,0,0,0,.615-1.46c.154-.461.23-.845.384-1.306a10.235,10.235,0,0,0,.384-1.46c.077-.461.077-.845.154-1.306.077-.538.077-1,.154-1.537a9.8,9.8,0,0,0-.077-1.46c0-.384-.077-.845-.077-1.229-.077-.461-.23-1-.307-1.46a7.2,7.2,0,0,0-.307-1.229c-.154-.461-.384-1-.538-1.46-.154-.384-.307-.768-.461-1.229a14.269,14.269,0,0,0-.845-1.46l-.691-1.152a17.725,17.725,0,0,0-1.076-1.46c-.307-.384-.538-.691-.845-1.076-.461-.461-.922-1-1.383-1.46a12.241,12.241,0,0,0-1-1c-.615-.538-1.229-1-1.844-1.537-.307-.23-.615-.538-.922-.768a27.257,27.257,0,0,0-3.3-2.151c-18.977-11.447-50.4-11.755-70.145-.691-1.229.691-2.459,1.46-3.534,2.151a11.294,11.294,0,0,0-1,.768c-.691.538-1.383,1-2,1.537-.384.307-.691.691-1.076,1-.538.461-1.076,1-1.537,1.46a13.376,13.376,0,0,1-.922,1.076c-.384.461-.845,1-1.229,1.46a10.01,10.01,0,0,0-.768,1.152c-.307.461-.615,1-.922,1.46a8.536,8.536,0,0,0-.538,1.229,11.82,11.82,0,0,0-.615,1.46c-.154.461-.23.845-.384,1.306a10.235,10.235,0,0,0-.384,1.46c-.077.461-.077.845-.154,1.306s-.077,1-.154,1.46a9.3,9.3,0,0,0,.077,1.46A7.4,7.4,0,0,0,55.777,55.406Z" transform="translate(-32.114 -18.676)" fill="#aeb2f4"/>
    </g>
    <g id="Grupo_1124239" data-name="Grupo 1124239" transform="translate(30.685 68.32)" opacity="0.5">
      <path id="Trazado_984707" data-name="Trazado 984707" d="M167.7,108.7V214.647c0,9.988-6.607,19.975-19.822,27.581-26.429,15.212-69.146,15.212-95.652,0C39.007,234.622,32.4,224.558,32.4,214.647V108.7H51.684a2.037,2.037,0,0,1,.461.384c.23.154.384.307.615.461a1.378,1.378,0,0,0,.538.384c.154.077.307.23.461.307.922.615,1.844,1.306,2.919,1.921.154.077.307.23.461.307a71.361,71.361,0,0,0,19.207,7.76c21.2,5.224,46.635,3,64.382-6.838,1.46-.845,2.919-1.69,4.226-2.612.23-.23.538-.384.768-.615a1.349,1.349,0,0,0,.384-.307l1.613-1.152Z" transform="translate(-32.4 -89.57)" fill="#e50000"/>
      <path id="Trazado_984708" data-name="Trazado 984708" d="M167.7,102.93c0,9.988-6.607,19.975-19.745,27.581-26.429,15.212-69.223,15.212-95.728,0C39.007,122.829,32.4,112.918,32.4,102.93c0-6.53,2.766-13.061,8.374-18.823v.538c0,.461.077.922.077,1.383.077.538.23,1.152.384,1.767a12.481,12.481,0,0,0,.307,1.46c.154.538.461,1.152.691,1.767a1.3,1.3,0,0,0,.154.384c.154.307.23.691.384,1a7.015,7.015,0,0,0,.615,1,3.114,3.114,0,0,0,.384.691c0,.077.077.154.154.23a1.68,1.68,0,0,1,.23.384,3.114,3.114,0,0,0,.384.691h0l.077.077c.384.538.768,1.076,1.229,1.613.154.154.307.384.461.538a4.222,4.222,0,0,0,.538.691c.538.538,1.076,1.152,1.69,1.69a3.55,3.55,0,0,1,.538.538,4.637,4.637,0,0,0,.615.615,11.494,11.494,0,0,0,1,.845,6.718,6.718,0,0,0,.768.615,2.037,2.037,0,0,1,.461.384c.23.154.384.307.615.461a1.378,1.378,0,0,0,.538.384c.154.077.307.23.461.307.922.615,1.844,1.306,2.919,1.921.154.077.307.23.461.307a71.36,71.36,0,0,0,19.207,7.76c21.2,5.224,46.635,3,64.382-6.838,1.46-.845,2.919-1.69,4.226-2.612.23-.23.538-.384.768-.615a1.349,1.349,0,0,0,.384-.307l1.613-1.152a5.382,5.382,0,0,0,.768-.615c.461-.384.845-.768,1.229-1.152l.307-.307a14.752,14.752,0,0,0,1.152-1.076c.077-.077.077-.154.154-.23a.075.075,0,0,1,.077-.077c.384-.384.691-.845,1.076-1.306.077-.077.154-.154.154-.23l.23-.23c.307-.384.691-.845,1-1.229.154-.23.307-.538.461-.768a2.335,2.335,0,0,1,.384-.538c0-.077.077-.077.077-.154.077-.077.077-.154.154-.307.23-.461.538-.845.768-1.306a2.729,2.729,0,0,1,.307-.691c.077-.23.23-.538.307-.768,0-.077.077-.154.077-.23.077-.077.077-.154.154-.23a5.3,5.3,0,0,1,.307-.768,1.092,1.092,0,0,0,.154-.461c.077-.23.154-.538.23-.845l.23-.691a3.382,3.382,0,0,1,.154-.768c.077-.307.154-.615.23-1a10.412,10.412,0,0,0,.154-1.537v-.691c0-.154.077-.384.077-.615C164.776,89.639,167.7,96.323,167.7,102.93Z" transform="translate(-32.4 -83.8)" fill="#ed484f"/>
    </g>
    <path id="Trazado_984709" data-name="Trazado 984709" d="M161.478,49.774a9.415,9.415,0,0,0-.154-1.46c-.077-.538-.23-1.152-.307-1.767a13.853,13.853,0,0,0-.384-1.46c-.154-.538-.384-1.152-.615-1.767a10.261,10.261,0,0,0-.538-1.383,19.429,19.429,0,0,0-1-1.69,12.43,12.43,0,0,0-.768-1.383c-.384-.538-.845-1.152-1.306-1.69-.307-.384-.615-.845-1-1.306a17.53,17.53,0,0,0-1.69-1.69c-.384-.384-.691-.768-1.152-1.152-.691-.615-1.46-1.229-2.228-1.844-.384-.307-.691-.615-1.152-.922-1.229-.845-2.535-1.767-3.918-2.612-22.588-13.6-60-13.983-83.59-.845-1.46.845-2.919,1.69-4.226,2.612-.384.307-.768.615-1.229.922a19.556,19.556,0,0,0-2.382,1.844c-.461.384-.845.768-1.229,1.152A20.036,20.036,0,0,0,50.768,35.1a8.844,8.844,0,0,0-1.076,1.306c-.461.538-1,1.152-1.46,1.69a13.363,13.363,0,0,0-.845,1.383c-.384.615-.768,1.152-1.076,1.767-.23.461-.461,1-.691,1.46-.23.538-.538,1.152-.768,1.767-.154.461-.23,1-.384,1.537s-.307,1.152-.461,1.767c-.077.538-.077,1-.154,1.537A12.611,12.611,0,0,0,43.7,51.08a12.448,12.448,0,0,0,.077,1.69,9.3,9.3,0,0,0,.077,1.46,13.381,13.381,0,0,0,.384,1.69,9.88,9.88,0,0,0,.307,1.46,7.839,7.839,0,0,0,.691,1.69c.154.461.307.922.538,1.46a18.328,18.328,0,0,0,.922,1.69c.307.461.538.922.845,1.383a5.382,5.382,0,0,0,.615.768h0a8.164,8.164,0,0,0,.691.845c.307.384.615.845,1,1.306.538.538,1.076,1.152,1.69,1.69l1.152,1.152c.23.23.538.461.845.768.384.307.845.691,1.306,1.076.384.307.691.615,1.152.922a31.545,31.545,0,0,0,3.918,2.612c22.588,13.675,60,13.983,83.59.845,1.46-.768,2.843-1.69,4.226-2.535.384-.307.768-.615,1.229-.922.768-.615,1.613-1.152,2.382-1.844l.307-.307a9.209,9.209,0,0,0,.922-.845c.615-.538,1.229-1.152,1.844-1.767.384-.384.691-.845,1.076-1.306a15.579,15.579,0,0,0,1.383-1.767c0-.077.077-.154.154-.23a10.012,10.012,0,0,1,.768-1.152c.384-.615.768-1.152,1.076-1.767.23-.461.384-1,.615-1.46.23-.538.538-1.152.768-1.767a8.987,8.987,0,0,0,.384-1.537c.154-.538.307-1.152.461-1.767a10.412,10.412,0,0,0,.154-1.537,12.608,12.608,0,0,0,.154-1.767A4.9,4.9,0,0,0,161.478,49.774ZM149.8,59.685a15.307,15.307,0,0,1-.922,1.46,10.012,10.012,0,0,1-.768,1.152c-.307.461-.768.922-1.152,1.46-.307.384-.615.691-.922,1.076-.461.461-1,1-1.537,1.46a6.928,6.928,0,0,1-.768.691,1.061,1.061,0,0,1-.307.23c-.615.538-1.306,1-2,1.537a11.293,11.293,0,0,1-1,.768,30.774,30.774,0,0,1-3.534,2.151c-19.745,11.063-51.168,10.756-70.145-.691-1.152-.691-2.228-1.46-3.3-2.151-.307-.23-.615-.538-.922-.768a13.376,13.376,0,0,1-1.076-.922,5.382,5.382,0,0,1-.768-.615,11.815,11.815,0,0,1-.922-1,12.429,12.429,0,0,1-1.383-1.46,13.134,13.134,0,0,1-.845-1.076,10.221,10.221,0,0,1-1.076-1.46l-.691-1.152c-.154-.23-.307-.538-.461-.768a4.562,4.562,0,0,1-.307-.615l-.461-1.152c-.154-.461-.384-.922-.538-1.46a7.193,7.193,0,0,0-.307-1.229c-.077-.461-.23-1-.307-1.46a6.21,6.21,0,0,1-.077-1.229c0-.461-.077-1-.077-1.46s.077-1,.077-1.46c.077-.384.077-.845.154-1.306a10.234,10.234,0,0,1,.384-1.46,7.193,7.193,0,0,1,.307-1.229,11.821,11.821,0,0,1,.615-1.46,8.536,8.536,0,0,1,.538-1.229,7.663,7.663,0,0,1,.922-1.46,10.01,10.01,0,0,1,.768-1.152c.307-.461.768-.922,1.152-1.46a6.2,6.2,0,0,1,.922-1.076c.461-.461,1-1,1.537-1.46a11.816,11.816,0,0,1,1-.922,19.67,19.67,0,0,1,2-1.537,11.292,11.292,0,0,0,1-.768,39.228,39.228,0,0,1,3.534-2.151c19.745-11.063,51.168-10.756,70.145.691,1.152.691,2.228,1.46,3.3,2.151.307.23.615.538.922.768a17.765,17.765,0,0,1,1.844,1.537l.922.922a12.428,12.428,0,0,1,1.383,1.46c.307.384.538.691.845,1.076a16.875,16.875,0,0,1,1.076,1.383,8.4,8.4,0,0,1,.615,1.152,13.364,13.364,0,0,1,.845,1.383c.154.384.307.768.461,1.229s.384.922.538,1.46a7.193,7.193,0,0,1,.307,1.229c.077.461.23,1,.307,1.46A6.609,6.609,0,0,1,151.721,50c0,.461.077.922.077,1.46,0,.461-.077,1-.077,1.46a8.555,8.555,0,0,1-.154,1.306,10.235,10.235,0,0,1-.384,1.46,7.555,7.555,0,0,1-.384,1.229,11.821,11.821,0,0,1-.615,1.46c-.154.384-.307.691-.461,1.076C149.877,59.608,149.877,59.685,149.8,59.685Z" transform="translate(-4.333 -0.046)" fill="#d7daff"/>
    <path id="Trazado_984710" data-name="Trazado 984710" d="M153.376,68.958a.238.238,0,0,1-.077.154,15.3,15.3,0,0,1-.922,1.46,10.011,10.011,0,0,1-.768,1.152c-.307.461-.768.922-1.152,1.46-.307.384-.615.691-.922,1.076-.461.461-1,1-1.537,1.46a6.928,6.928,0,0,1-.768.691,1.061,1.061,0,0,1-.307.23c-.615.538-1.306,1-2,1.537a11.291,11.291,0,0,1-1,.768,30.774,30.774,0,0,1-3.534,2.151C120.647,92.16,89.224,91.852,70.247,80.4c-1.152-.691-2.228-1.46-3.3-2.151-.307-.23-.615-.538-.922-.768a13.376,13.376,0,0,1-1.076-.922,5.383,5.383,0,0,1-.768-.615,11.815,11.815,0,0,1-.922-1,12.429,12.429,0,0,1-1.383-1.46,13.136,13.136,0,0,1-.845-1.076,10.221,10.221,0,0,1-1.076-1.46L59.261,69.8c-.154-.23-.307-.538-.461-.768C84.768,54.206,127.024,54.13,153.376,68.958Z" transform="translate(-7.832 -9.473)" fill="#ed484f"/>
    <path id="Trazado_984711" data-name="Trazado 984711" d="M87.151,151.336V265.043c-13.368-1.767-26.045-5.685-36.263-11.908a6.963,6.963,0,0,1-1.229-.845A27.792,27.792,0,0,1,47.2,250.6V137.2c.922.615,1.921,1.229,2.919,1.844.154.077.307.23.538.384a54.736,54.736,0,0,0,5.148,2.766c.077.077.154.077.307.154,1.152.538,2.382,1.076,3.534,1.537.768.307,1.46.691,2.228,1a4.332,4.332,0,0,1,.922.307A99.315,99.315,0,0,0,87.151,151.336Z" transform="translate(-5.144 -27.854)" fill="#fff" opacity="0.3"/>
  </g>
</svg>
