<svg xmlns="http://www.w3.org/2000/svg" xmlns:xlink="http://www.w3.org/1999/xlink" width="186.359" height="183.256" viewBox="0 0 186.359 183.256">
  <defs>
    <clipPath id="clip-path">
      <path id="Trazado_984752" data-name="Trazado 984752" d="M349.341,172.854,179.7,172.12,215.755,77.4h94.72Z" transform="translate(-179.7 -77.4)"/>
    </clipPath>
  </defs>
  <g id="Grupo_1124284" data-name="Grupo 1124284" transform="translate(4836 7933.432)">
    <path id="Trazado_984809" data-name="Trazado 984809" d="M366.059,182.261,179.7,181.455,219.308,77.4H323.363Z" transform="translate(-5015.7 -7932.437)" fill="#2d496c"/>
    <g id="Grupo_1124263" data-name="Grupo 1124263" transform="translate(-4828 -7850.333)">
      <g id="Grupo_1124259" data-name="Grupo 1124259">
        <path id="Trazado_984750" data-name="Trazado 984750" d="M349.341,172.854,179.7,172.12,215.755,77.4h94.72Z" transform="translate(-179.7 -77.4)" fill="#54844f"/>
      </g>
      <g id="Grupo_1124261" data-name="Grupo 1124261">
        <g id="Grupo_1124260" data-name="Grupo 1124260" clip-path="url(#clip-path)">
          <path id="Trazado_984751" data-name="Trazado 984751" d="M311.964,129.443a4.644,4.644,0,0,0,0-9.289,4.237,4.237,0,0,0-3.178,1.344l-30.31-30.555a4.358,4.358,0,0,0,.978-2.811,4.644,4.644,0,1,0-4.644,4.644,5.014,5.014,0,0,0,2.689-.856L307.931,122.6a4.574,4.574,0,0,0-.611,2.2A4.642,4.642,0,0,0,311.964,129.443Zm0-7.944a3.3,3.3,0,1,1-3.3,3.3A3.452,3.452,0,0,1,311.964,121.5ZM274.809,91.31a3.3,3.3,0,1,1,3.3-3.3A3.286,3.286,0,0,1,274.809,91.31Zm14.177-8.433a4.644,4.644,0,0,0,0,9.289,6.432,6.432,0,0,0,2.2-.489L306.1,106.832a4.393,4.393,0,0,0-.245,1.344,4.644,4.644,0,1,0,4.644-4.644,4.526,4.526,0,0,0-3.789,1.956L292.287,90.7a4.513,4.513,0,0,0,1.344-3.3A4.618,4.618,0,0,0,288.987,82.877Zm2.322,6.844h0l-.367.367a3.382,3.382,0,0,1-1.956.611,3.3,3.3,0,1,1,3.3-3.3A4.078,4.078,0,0,1,291.309,89.721ZM310.5,104.877a3.3,3.3,0,1,1-3.3,3.3A3.286,3.286,0,0,1,310.5,104.877Zm-19.433,91.787,16.622.244a6.714,6.714,0,0,0,.856,1.1,4.667,4.667,0,1,0,0-6.6,4.288,4.288,0,0,0-1.222,4.033l-15.889-.244a4.949,4.949,0,0,0-1.344-3.3,4.667,4.667,0,1,0,0,6.6A8.732,8.732,0,0,0,291.064,196.664Zm18.333-4.4a3.284,3.284,0,1,1,0,4.644A3.4,3.4,0,0,1,309.4,192.264ZM289.842,195.2v.489a3.625,3.625,0,0,1-.856,1.833,3.284,3.284,0,1,1,0-4.644,3.654,3.654,0,0,1,.856,2.322ZM260.51,69.922h22.366A4.636,4.636,0,1,0,287.4,64.3a4.648,4.648,0,0,0-4.644,4.155H260.387a4.7,4.7,0,0,0-4.522-3.667,4.644,4.644,0,0,0,0,9.289A4.464,4.464,0,0,0,260.51,69.922ZM287.4,65.766a3.3,3.3,0,1,1-3.3,3.3A3.286,3.286,0,0,1,287.4,65.766Zm-31.533,7.089a3.3,3.3,0,1,1,3.3-3.3A3.286,3.286,0,0,1,255.865,72.855Zm-7.333,42.166a4.644,4.644,0,0,0-9.289,0,4.837,4.837,0,0,0,4.033,4.644V163.3a4.636,4.636,0,1,0,5.622,4.522,4.648,4.648,0,0,0-4.155-4.644V119.543A4.5,4.5,0,0,0,248.532,115.021Zm-.978,52.8a3.3,3.3,0,1,1-3.3-3.3A3.286,3.286,0,0,1,247.554,167.82Zm-3.667-49.5a3.3,3.3,0,1,1,3.3-3.3A3.286,3.286,0,0,1,243.888,118.321ZM230.81,183.342a4.835,4.835,0,0,0,4.644-4.155h41.188a4.765,4.765,0,1,0-.367-1.956v.489H235.332a4.588,4.588,0,0,0-4.522-3.789,4.706,4.706,0,0,0,0,9.411Zm49.988-9.289a3.3,3.3,0,1,1-3.3,3.3A3.286,3.286,0,0,1,280.8,174.053ZM230.81,175.4a3.3,3.3,0,1,1-3.3,3.3A3.286,3.286,0,0,1,230.81,175.4Zm27.011,16.866a4.658,4.658,0,0,0,4.644-4.278h58.91a4.545,4.545,0,0,0,4.644,4.033,4.645,4.645,0,1,0-4.522-5.378H262.465a4.7,4.7,0,0,0-4.522-3.667,4.642,4.642,0,0,0-4.644,4.644A4.465,4.465,0,0,0,257.821,192.264ZM325.9,184.2a3.3,3.3,0,1,1-3.3,3.3A3.452,3.452,0,0,1,325.9,184.2Zm-68.076.244a3.3,3.3,0,1,1-3.3,3.3A3.452,3.452,0,0,1,257.821,184.442Zm-22.977-59.888a4.545,4.545,0,0,0,4.033-4.644,4.645,4.645,0,1,0-5.5,4.522v32.633l-11.122,10.144a4.438,4.438,0,0,0-3.422-1.467,4.644,4.644,0,1,0,4.644,4.644,3.586,3.586,0,0,0-.489-1.956l11.733-10.755V124.554Zm-16.011,49.01a3.3,3.3,0,1,1,3.3-3.3A3.286,3.286,0,0,1,218.833,173.564Zm12.1-53.655a3.3,3.3,0,1,1,3.3,3.3A3.286,3.286,0,0,1,230.932,119.91Zm71.01,56.1h12.222a4.674,4.674,0,0,0,3.911,4.155,4.136,4.136,0,0,0,1.344,0,4.3,4.3,0,0,0,3.911-4.522A4.642,4.642,0,0,0,318.686,171a4.7,4.7,0,0,0-4.522,3.667H301.82a5.418,5.418,0,0,0-5.378-4.767,5.378,5.378,0,1,0,0,10.755A5.175,5.175,0,0,0,301.942,176.009Zm16.866-3.667a3.3,3.3,0,1,1-3.3,3.3A3.366,3.366,0,0,1,318.808,172.342Zm-26.277,2.933a4.033,4.033,0,1,1,4.033,4.033A3.917,3.917,0,0,1,292.531,175.275Zm-12.222-31.9a4.644,4.644,0,1,0-4.644-4.644,4.886,4.886,0,0,0,1.222,3.178l-5.255,4.522a4.358,4.358,0,0,0-2.811-.978,4.644,4.644,0,1,0,4.644,4.644,5.014,5.014,0,0,0-.856-2.689l5.378-4.644A5.055,5.055,0,0,0,280.309,143.376ZM268.82,153.52a3.3,3.3,0,1,1,3.3-3.3A3.366,3.366,0,0,1,268.82,153.52Zm8.189-14.789a3.3,3.3,0,1,1,3.3,3.3A3.286,3.286,0,0,1,277.009,138.732Zm-79.932,52.31a4.644,4.644,0,1,0-4.644-4.644,4.886,4.886,0,0,0,1.222,3.178L188.4,194.1a4.358,4.358,0,0,0-2.811-.978,4.644,4.644,0,1,0,4.644,4.644,5.014,5.014,0,0,0-.856-2.689l5.378-4.644A5.055,5.055,0,0,0,197.077,191.042Zm-11.489,10.022a3.3,3.3,0,1,1,3.3-3.3A3.286,3.286,0,0,1,185.589,201.064Zm8.189-14.666a3.3,3.3,0,1,1,3.3,3.3A3.286,3.286,0,0,1,193.777,186.4Zm27.5,4.522a4.644,4.644,0,1,0-4.644-4.644,4.887,4.887,0,0,0,1.222,3.178l-5.255,4.522a4.358,4.358,0,0,0-2.811-.978,4.644,4.644,0,1,0,4.644,4.644,5.013,5.013,0,0,0-.856-2.689l5.378-4.644A5.055,5.055,0,0,0,221.277,190.919Zm-11.489,10.022a3.3,3.3,0,1,1,3.3-3.3A3.286,3.286,0,0,1,209.788,200.941Zm8.189-14.666a3.3,3.3,0,1,1,3.3,3.3A3.286,3.286,0,0,1,217.977,186.275Zm93.5-25.422a4.644,4.644,0,0,0,0-9.289,4.513,4.513,0,0,0-3.3,1.344l-27.255-26.4a4.519,4.519,0,0,0,.733-2.567,4.644,4.644,0,1,0-9.289,0,4.694,4.694,0,0,0,1.1,3.055L260.51,137.632v24.077l15.277.122L287.4,150.465a4.358,4.358,0,0,0,2.811.978,4.644,4.644,0,1,0-4.644-4.644,5.014,5.014,0,0,0,.856,2.689l-11.244,11-13.322-.122V138.243l12.589-10.389a4.452,4.452,0,0,0,5.378-.367L307.2,154.009a4.186,4.186,0,0,0-.489,2.2A4.83,4.83,0,0,0,311.475,160.853Zm0-7.944a3.3,3.3,0,1,1-3.3,3.3A3.452,3.452,0,0,1,311.475,152.909Zm-21.144-9.533a3.3,3.3,0,1,1-3.3,3.3A3.286,3.286,0,0,1,290.331,143.376Zm-13.2-16.255a3.3,3.3,0,1,1,3.3-3.3A3.366,3.366,0,0,1,277.131,127.121Zm-65.877,57.81a4.644,4.644,0,0,0,0-9.289,4.507,4.507,0,0,0-4.522,3.911h-5.378L187.789,164.4a4.886,4.886,0,0,0,1.222-3.178,4.618,4.618,0,1,0-2.322,4.033L200.744,180.9h5.989A4.512,4.512,0,0,0,211.255,184.931Zm0-7.822a3.3,3.3,0,1,1-3.3,3.3A3.286,3.286,0,0,1,211.255,177.109Zm-26.888-12.466a3.3,3.3,0,1,1,3.3-3.3A3.286,3.286,0,0,1,184.367,164.642Zm26.155-19.433a4.519,4.519,0,0,0-2.567-.733,4.644,4.644,0,1,0,4.644,4.644,4.38,4.38,0,0,0-1.1-2.933l7.333-7.578V109.4a4.615,4.615,0,1,0-5.378-4.522,4.507,4.507,0,0,0,3.911,4.522V138.12Zm-2.567,7.089a3.3,3.3,0,1,1,3.3-3.3A3.363,3.363,0,0,1,207.955,152.3Zm6.967-47.544a3.3,3.3,0,1,1,3.3,3.3A3.286,3.286,0,0,1,214.921,104.754Zm-23.711,53.9a4.644,4.644,0,0,0,9.289,0,4.724,4.724,0,0,0-4.033-4.644V125.9a4.7,4.7,0,0,0,3.667-4.522,4.644,4.644,0,1,0-5.011,4.644v27.988A4.828,4.828,0,0,0,191.211,158.653Zm.978-37.155a3.3,3.3,0,1,1,3.3,3.3A3.286,3.286,0,0,1,192.189,121.5Zm3.178,33.977h.978a3.3,3.3,0,1,1-.978,0Zm-11.244-12.222a4.7,4.7,0,0,0-3.667,4.522,4.644,4.644,0,1,0,5.011-4.644V117.1l10.022-9.289a4.518,4.518,0,0,0,2.567.733,4.644,4.644,0,1,0-4.644-4.644,4.163,4.163,0,0,0,1.1,2.933l-10.389,9.533Zm13.933-42.532a3.3,3.3,0,1,1,0,6.6,3.382,3.382,0,0,1-1.956-.611l-.611-.611h0a3.084,3.084,0,0,1-.733-2.078A3.286,3.286,0,0,1,198.055,100.721Zm-9.778,47.055a3.3,3.3,0,1,1-3.3-3.3A3.212,3.212,0,0,1,188.278,147.776Zm19.677,17.844a4.642,4.642,0,0,0,4.644-4.644,5.014,5.014,0,0,0-.855-2.689l13.566-14.055.611-69.421h-5.378a4.627,4.627,0,1,0,.244,1.467v-.122h3.789l-.611,67.588-13.2,13.689a4.594,4.594,0,1,0-2.811,8.189Zm8.189-86.165a3.3,3.3,0,1,1,3.3-3.3A3.286,3.286,0,0,1,216.144,79.455Zm-8.189,78.221a3.3,3.3,0,1,1-3.3,3.3A3.286,3.286,0,0,1,207.955,157.676Zm110-29.822A4.642,4.642,0,0,0,322.6,132.5a4.7,4.7,0,0,0,4.644-4.522h13.2l3.3,4.155v18.822l-8.678,9.411a4.358,4.358,0,0,0-2.811-.978,4.507,4.507,0,0,0-4.522,3.911H294.609l-7.211,5.255-28.966-.122-3.544-4.767V119.421a4.635,4.635,0,0,0,4.4-4.4H277.62l29.7,29.455h9.533a4.681,4.681,0,0,0,3.911,4.278,4.137,4.137,0,0,0,1.344,0,4.382,4.382,0,0,0,2.811-1.344l3.789,2.322a4.081,4.081,0,0,0-.367,1.833,4.507,4.507,0,0,0,3.911,4.522,4.136,4.136,0,0,0,1.344,0,4.3,4.3,0,0,0,3.911-4.522,4.642,4.642,0,0,0-4.644-4.644,4.345,4.345,0,0,0-3.544,1.711l-3.667-2.322a5.709,5.709,0,0,0,.367-2.078,4.642,4.642,0,0,0-4.644-4.644,4.594,4.594,0,0,0-4.522,3.544h-9.044l-29.7-29.455H259.165a4.594,4.594,0,0,0-4.522-3.544A4.642,4.642,0,0,0,250,114.776a4.594,4.594,0,0,0,3.544,4.522v44.855l4.278,5.622,30.188.122,7.211-5.255h32.633a4.61,4.61,0,0,0,9.166-.733,5.013,5.013,0,0,0-.856-2.689l9.044-9.9V131.4l-3.911-5.011H327a4.583,4.583,0,0,0-4.4-3.3A4.83,4.83,0,0,0,317.953,127.854Zm14.911,20.533a3.3,3.3,0,1,1-3.3,3.3A3.286,3.286,0,0,1,332.864,148.387Zm-11.489-7.333a3.286,3.286,0,0,1,3.3,3.3,3.384,3.384,0,0,1-.367,1.589l-.122.244a3.359,3.359,0,0,1-2.689,1.467,3.286,3.286,0,0,1-3.3-3.3A3.113,3.113,0,0,1,321.375,141.054ZM251.221,114.9a3.3,3.3,0,1,1,3.3,3.3A3.286,3.286,0,0,1,251.221,114.9Zm81.032,52.432a3.3,3.3,0,1,1,3.3-3.3A3.286,3.286,0,0,1,332.253,167.331ZM322.6,124.554a3.3,3.3,0,1,1-3.3,3.3A3.286,3.286,0,0,1,322.6,124.554ZM265.4,200.7a4.507,4.507,0,0,0-4.522,3.911H258.31l-13.566-15.155a4.887,4.887,0,0,0,1.222-3.178,4.618,4.618,0,1,0-2.322,4.033L257.7,205.952h3.178a4.71,4.71,0,0,0,4.522,4.033,4.644,4.644,0,1,0,0-9.289Zm-24.077-11.122a3.3,3.3,0,1,1,3.3-3.3A3.286,3.286,0,0,1,241.321,189.575ZM265.4,208.519a3.3,3.3,0,1,1,3.3-3.3A3.286,3.286,0,0,1,265.4,208.519Zm61.11-129.431a4.642,4.642,0,0,0,4.644-4.644,5.014,5.014,0,0,0-.856-2.689l5.378-4.644a4.651,4.651,0,1,0-2.322-4.033,4.886,4.886,0,0,0,1.222,3.178l-5.255,4.522a4.358,4.358,0,0,0-2.811-.978,4.644,4.644,0,0,0,0,9.289Zm11.366-19.311a3.3,3.3,0,1,1-3.3,3.3A3.452,3.452,0,0,1,337.875,59.778ZM326.508,71.144a3.3,3.3,0,1,1-3.3,3.3A3.286,3.286,0,0,1,326.508,71.144Zm5.867,100.587a4.644,4.644,0,0,0,0,9.289,4.38,4.38,0,0,0,2.933-1.1l5.378,5.255v5.378h-.367a4.642,4.642,0,0,0-4.644,4.644,4.507,4.507,0,0,0,3.911,4.522,4.137,4.137,0,0,0,1.344,0,4.3,4.3,0,0,0,3.911-4.522,4.536,4.536,0,0,0-2.933-4.278v-6.233l-5.867-5.744a4.519,4.519,0,0,0,.733-2.567A4.3,4.3,0,0,0,332.375,171.731Zm0,7.944a3.3,3.3,0,1,1,3.3-3.3A3.286,3.286,0,0,1,332.375,179.675ZM343.619,195.2a3.3,3.3,0,1,1-3.3-3.3A3.286,3.286,0,0,1,343.619,195.2Zm-64.043,6.6a7.137,7.137,0,0,0-2.2.489l-4.522-4.4a4.973,4.973,0,0,0,.978-2.933,4.644,4.644,0,1,0-9.289,0,4.507,4.507,0,0,0,3.911,4.522,4.136,4.136,0,0,0,1.344,0,5.4,5.4,0,0,0,1.956-.733l4.522,4.278a4.619,4.619,0,0,0,2.567,7.822,4.136,4.136,0,0,0,1.344,0,4.3,4.3,0,0,0,3.911-4.522A4.436,4.436,0,0,0,279.576,201.8Zm-10.389-3.667a3.3,3.3,0,1,1,3.3-3.3A3.286,3.286,0,0,1,269.187,198.13Zm10.389,11.489a3.3,3.3,0,1,1,3.3-3.3A3.286,3.286,0,0,1,279.576,209.619Zm-32.633-4.4a4.358,4.358,0,0,0-2.811.978l-8.555-9.778a4.886,4.886,0,0,0,1.222-3.178,4.618,4.618,0,1,0-2.322,4.033l8.555,9.9a5.014,5.014,0,0,0-.856,2.689,4.507,4.507,0,0,0,3.911,4.522,4.136,4.136,0,0,0,1.344,0,4.612,4.612,0,0,0-.489-9.166Zm-14.789-8.678a3.3,3.3,0,1,1,3.3-3.3A3.286,3.286,0,0,1,232.154,196.542Zm14.789,16.5a3.3,3.3,0,1,1,3.3-3.3A3.286,3.286,0,0,1,246.943,213.041Zm60.621-10.878a4.507,4.507,0,0,0-4.522,3.911H297.42a4.806,4.806,0,0,0-4.889-4.278,4.889,4.889,0,1,0,0,9.778,4.986,4.986,0,0,0,4.889-4.278h5.622a4.544,4.544,0,0,0,3.911,4.033,4.137,4.137,0,0,0,1.344,0,4.3,4.3,0,0,0,3.911-4.522A4.642,4.642,0,0,0,307.564,202.164Zm-15.033,8.189a3.667,3.667,0,1,1,3.667-3.667A3.759,3.759,0,0,1,292.531,210.352Zm15.033-.367a3.3,3.3,0,1,1,3.3-3.3A3.286,3.286,0,0,1,307.564,209.986ZM315.875,91.31a4.642,4.642,0,0,0-4.644,4.644,4.507,4.507,0,0,0,3.911,4.522,4.136,4.136,0,0,0,1.344,0,4.319,4.319,0,0,0,3.911-4.033h27.744V95.1H320.4A4.606,4.606,0,0,0,315.875,91.31Zm0,7.944a3.3,3.3,0,1,1,3.3-3.3A3.286,3.286,0,0,1,315.875,99.255Zm14.544,3.911a4.644,4.644,0,1,0-9.289,0,4.507,4.507,0,0,0,3.911,4.522v4.889a4.583,4.583,0,0,0-3.3,4.4,4.644,4.644,0,1,0,4.767-4.644v-4.644A4.507,4.507,0,0,0,330.419,103.166Zm-.856,13.811a3.3,3.3,0,1,1-3.3-3.3A3.363,3.363,0,0,1,329.564,116.976Zm-3.789-10.511a3.3,3.3,0,1,1,3.3-3.3A3.286,3.286,0,0,1,325.775,106.465Zm-137.5-49.132,3.422,3.422a4.635,4.635,0,1,0,7.333-1.1,4.5,4.5,0,0,0-6.478,0l-3.3-3.3a4.5,4.5,0,0,0-.489-5.989,4.667,4.667,0,0,0-6.6,6.6A4.968,4.968,0,0,0,188.278,57.333Zm5.133,3.3a3.284,3.284,0,1,1,0,4.644A3.178,3.178,0,0,1,193.411,60.633Zm-10.266-9.411a3.284,3.284,0,1,1,0,4.644A3.4,3.4,0,0,1,183.144,51.222ZM235.821,86.3a4.644,4.644,0,1,0,4.767-4.644V77.011a4.615,4.615,0,1,0-5.378-4.522,4.507,4.507,0,0,0,3.911,4.522V81.9A4.583,4.583,0,0,0,235.821,86.3Zm.733-13.811a3.3,3.3,0,1,1,3.3,3.3A3.286,3.286,0,0,1,236.554,72.488Zm3.911,10.633a3.3,3.3,0,1,1-3.3,3.3A3.286,3.286,0,0,1,240.465,83.122ZM259.043,52.2a4.594,4.594,0,0,0,4.522-3.544h32.144a4.6,4.6,0,0,0,4.4,4.033V54.4a4.622,4.622,0,0,0-3.3,4.522,4.584,4.584,0,0,0,9.167-.122,4.54,4.54,0,0,0-4.644-4.522V52.567a4.62,4.62,0,0,0,3.422-4.522,4.393,4.393,0,0,0-.244-1.344h-1.467a2.417,2.417,0,0,1,.244,1.344,3.3,3.3,0,0,1-6.6,0,4.395,4.395,0,0,1,.244-1.344h-1.467a5.3,5.3,0,0,0-.122.611H263.2a1.1,1.1,0,0,0-.122-.611h-.855a1.55,1.55,0,0,1,.122.733,3.3,3.3,0,0,1-6.6,0,1.55,1.55,0,0,1,.122-.733h-1.344c0,.244-.122.489-.122.733A4.748,4.748,0,0,0,259.043,52.2Zm42.41,3.422a3.239,3.239,0,1,1-3.178,3.3A3.262,3.262,0,0,1,301.453,55.622Zm27.5,152.9a4.6,4.6,0,1,0-5.867,7.089,9.111,9.111,0,0,0,1.467.856h3.055v-.122A5.119,5.119,0,0,0,329.564,215,4.421,4.421,0,0,0,328.953,208.519Zm-.367,5.622a3.294,3.294,0,1,1-.367-4.644A3.416,3.416,0,0,1,328.586,214.141Zm-84.7-159.008a4.64,4.64,0,0,0,9.044,1.467l35.077.244,14.178,14.178V78.6H267.109l-5.133,6.355a5.014,5.014,0,0,0-2.689-.856,4.644,4.644,0,0,0,0,9.289,4.4,4.4,0,0,0,2.689-.856l3.056,3.055a4.358,4.358,0,0,0-.978,2.811,4.507,4.507,0,0,0,3.911,4.522,4.137,4.137,0,0,0,1.344,0A4.3,4.3,0,0,0,273.22,98.4a4.642,4.642,0,0,0-4.644-4.644,5.014,5.014,0,0,0-2.689.856l-3.055-3.055a4.705,4.705,0,0,0,.978-2.933,4.358,4.358,0,0,0-.978-2.811l4.889-5.867h35.81V70.533L288.62,55.622l-35.444-.244v-.122a4.642,4.642,0,0,0-4.644-4.644,4.526,4.526,0,0,0-3.789,1.956l-5.622-5.744h-1.956l6.967,7.089A4.347,4.347,0,0,0,243.888,55.133ZM268.576,95.1a3.3,3.3,0,1,1-3.3,3.3A3.286,3.286,0,0,1,268.576,95.1Zm-6.722-4.522h0l-.856.856a2.945,2.945,0,0,1-1.833.489,3.3,3.3,0,1,1,3.3-3.3A3.381,3.381,0,0,1,261.854,90.577ZM248.532,51.955a3.3,3.3,0,1,1-3.3,3.3A3.366,3.366,0,0,1,248.532,51.955Zm89.832,34.222H307.442a4.615,4.615,0,1,0-4.522,5.378,4.508,4.508,0,0,0,4.522-3.911h40.7V86.177ZM302.92,90.088a3.3,3.3,0,1,1,3.3-3.3A3.286,3.286,0,0,1,302.92,90.088ZM182.778,172.342a5.373,5.373,0,0,0-4.278-5.255v1.467a4.074,4.074,0,0,1,0,7.822v1.344A5.509,5.509,0,0,0,182.778,172.342Zm.733-59.277a4.644,4.644,0,0,0,0-9.289,4.507,4.507,0,0,0-4.522,3.911h-.367v1.344h.367A4.512,4.512,0,0,0,183.511,113.065Zm0-7.944a3.3,3.3,0,1,1-3.3,3.3A3.286,3.286,0,0,1,183.511,105.121Zm-2.322-8.555a4.669,4.669,0,1,0,.244-1.467H178.5v1.344l2.689.122Zm4.644-3.178a3.3,3.3,0,1,1-3.3,3.3A3.286,3.286,0,0,1,185.833,93.388ZM324.553,61.977a4.6,4.6,0,0,0,5.867-7.089,5.315,5.315,0,0,0-2.567-1.1L327.73,46.7h-3.178a4.16,4.16,0,0,0,1.711.244l.122,6.967a4.8,4.8,0,0,0-2.567,1.589A4.644,4.644,0,0,0,324.553,61.977Zm.367-5.622A3.294,3.294,0,1,1,325.286,61,3.537,3.537,0,0,1,324.919,56.355Zm21.144-.733a4.165,4.165,0,0,0,.856-2.689,4.706,4.706,0,1,0-1.833,3.667l3.055,2.933V57.7Zm-3.667.489a3.3,3.3,0,1,1,3.3-3.3A3.286,3.286,0,0,1,342.4,56.111ZM190.844,74.688a4.644,4.644,0,1,0,4.644-4.644,4.9,4.9,0,0,0-2.811.978L178.5,57.578v1.833L191.7,72A5.014,5.014,0,0,0,190.844,74.688Zm4.644-3.178a3.3,3.3,0,1,1-3.3,3.3A3.286,3.286,0,0,1,195.489,71.511ZM182.9,79.7a4.644,4.644,0,1,0-4.4-6.111V76.4A4.583,4.583,0,0,0,182.9,79.7Zm-3.178-5.011a3.261,3.261,0,1,1,3.178,3.789,3.181,3.181,0,0,1-3.178-2.811Zm15.766,16.255a4.644,4.644,0,1,0,0-9.289,4.7,4.7,0,0,0-4.644,4.522H178.5v1.344h12.466A4.844,4.844,0,0,0,195.489,90.944Zm0-7.944a3.3,3.3,0,1,1-3.3,3.3A3.286,3.286,0,0,1,195.489,83Zm149.23-8.8a4.736,4.736,0,0,0-4.4-3.3,4.644,4.644,0,1,0,4.644,4.644h3.055a2.876,2.876,0,0,0,.244.978V73.711c0,.122-.122.367-.122.489h-3.422Zm-4.4,4.644a3.3,3.3,0,1,1,3.3-3.3A3.286,3.286,0,0,1,340.319,78.844Zm-26.277-.856a4.652,4.652,0,0,0,.367-9.289v-22h-1.344v22a4.7,4.7,0,0,0,.978,9.289Zm0-7.944a3.3,3.3,0,1,1-3.3,3.3A3.286,3.286,0,0,1,314.042,70.044ZM327,194.586a4.642,4.642,0,0,0-4.644,4.644,4.164,4.164,0,0,0,1.1,2.933L313.064,211.7v4.644h1.344v-4.033l10.022-9.289a4.519,4.519,0,0,0,2.567.733,4.584,4.584,0,1,0,0-9.166Zm0,7.944a3.382,3.382,0,0,1-1.956-.611l-.611-.611h0a3.084,3.084,0,0,1-.733-2.078,3.3,3.3,0,0,1,6.6,0A3.366,3.366,0,0,1,327,202.53Zm-95.82-100.709a4.7,4.7,0,0,0-3.667,4.522,4.652,4.652,0,0,0,9.289.367h42.41l28.844,29.455h22.122a4.419,4.419,0,0,0,3.911,3.911,4.137,4.137,0,0,0,1.344,0,4.3,4.3,0,0,0,3.911-4.522,4.61,4.61,0,0,0-9.167-.733H308.664L279.82,105.366H236.677a4.69,4.69,0,0,0-4.155-3.667L232.4,70.166,209.544,46.822h-1.956l23.466,23.955ZM334.7,132.254a3.3,3.3,0,1,1-3.3,3.3A3.366,3.366,0,0,1,334.7,132.254Zm-99.243-25.911a3.3,3.3,0,1,1-3.3-3.3A3.286,3.286,0,0,1,235.454,106.343Zm106.087,66a5.5,5.5,0,0,0,4.522,5.378v21.022l-6.722,6.722a4.519,4.519,0,0,0-2.567-.733,4.644,4.644,0,1,0,4.644,4.644,4.38,4.38,0,0,0-1.1-2.933l6.967-7.455V177.842c.244,0,.489-.122.733-.122v-1.344a3.767,3.767,0,0,1-1.222.122,4.033,4.033,0,0,1,0-8.067c.367,0,.856.122,1.222.122v-1.467a3.768,3.768,0,0,0-1.222-.122A5.4,5.4,0,0,0,341.541,172.342Zm-4.644,40.21a3.3,3.3,0,1,1,3.3-3.3A3.366,3.366,0,0,1,336.9,212.552Zm-36.544.611a4.583,4.583,0,0,0-4.4,3.3h1.467a3.24,3.24,0,0,1,2.933-1.956,3.057,3.057,0,0,1,2.933,1.956h1.467A4.476,4.476,0,0,0,300.353,213.163ZM225.677,52.078a5.014,5.014,0,0,0,2.689-.856L246.943,69.8V94.488a4.657,4.657,0,1,0,5.133,4.644,4.5,4.5,0,0,0-3.789-4.522v-25.3L229.221,50.367a4.358,4.358,0,0,0,.978-2.811v-.733h-1.344c0,.244.122.489.122.733a3.3,3.3,0,1,1-6.6,0,1.55,1.55,0,0,1,.122-.733h-1.344v.733A4.435,4.435,0,0,0,225.677,52.078ZM250.732,99.01a3.3,3.3,0,1,1-3.3-3.3A3.286,3.286,0,0,1,250.732,99.01ZM202.7,63.077a4.594,4.594,0,0,0,3.544,4.522v54.266a4.588,4.588,0,0,0-3.789,4.522,4.644,4.644,0,0,0,9.289,0,4.835,4.835,0,0,0-4.156-4.644V67.722a4.6,4.6,0,0,0,4.4-4.644,4.642,4.642,0,0,0-4.644-4.644,5.055,5.055,0,0,0-2.322.611L191.944,46.7h-1.956l13.933,13.2A4.737,4.737,0,0,0,202.7,63.077Zm7.578,63.432a3.3,3.3,0,1,1-3.3-3.3A3.286,3.286,0,0,1,210.277,126.51ZM207.222,59.9a3.286,3.286,0,0,1,3.3,3.3,3.325,3.325,0,0,1-3.056,3.3v-.122h-.978a3.271,3.271,0,0,1-2.567-3.178A3.452,3.452,0,0,1,207.222,59.9Zm-17.6,151.186a4.644,4.644,0,1,0-4.644,4.644,4.163,4.163,0,0,0,2.933-1.1l1.956,1.833h1.956l-3.056-2.811A4.306,4.306,0,0,0,189.622,211.086Zm-4.644,3.3a3.3,3.3,0,1,1,3.3-3.3A3.286,3.286,0,0,1,184.978,214.386Zm154.364-110a4.642,4.642,0,0,0-4.644,4.644,4.512,4.512,0,0,0,4.033,4.522v1.833a4.583,4.583,0,0,0-3.3,4.4,4.644,4.644,0,1,0,4.767-4.644v-1.711a4.6,4.6,0,0,0,3.911-4.522h4.278v-1.344h-4.4A5.267,5.267,0,0,0,339.341,104.388Zm3.911,15.522a3.3,3.3,0,1,1-3.3-3.3A3.366,3.366,0,0,1,343.252,119.91Zm-3.911-7.578a3.3,3.3,0,1,1,3.3-3.3A3.286,3.286,0,0,1,339.341,112.332ZM200.133,203.141a4.706,4.706,0,1,0-1.833,3.667l9.411,9.533h1.956L199.277,205.83A5.013,5.013,0,0,0,200.133,203.141Zm-4.644,3.3a3.3,3.3,0,1,1,3.3-3.3A3.286,3.286,0,0,1,195.489,206.441Zm36.177-2.2a4.644,4.644,0,1,0-4.644,4.644,6.432,6.432,0,0,0,2.2-.489l7.944,8.067h1.956l-8.8-8.922A4.722,4.722,0,0,0,231.666,204.241Zm-2.322,2.322h0l-.367.367a3.381,3.381,0,0,1-1.956.611,3.3,3.3,0,1,1,3.3-3.3A3.339,3.339,0,0,1,229.343,206.564Zm-3.667,5.867a4.507,4.507,0,0,0-4.522,3.911H222.5a3.271,3.271,0,0,1,3.178-2.567,3.172,3.172,0,0,1,3.178,2.567H230.2A4.6,4.6,0,0,0,225.677,212.43Zm33.366.122a4.606,4.606,0,0,0-4.522,3.789h1.344a3.166,3.166,0,0,1,3.178-2.444,3.3,3.3,0,0,1,3.178,2.444h1.344A4.509,4.509,0,0,0,259.043,212.552Z" transform="translate(-179.967 -84.221)" fill="#d6af88"/>
        </g>
      </g>
    </g>
    <g id="Grupo_1124283" data-name="Grupo 1124283" transform="translate(-4679.303 -7940.432) rotate(90)">
      <g id="Grupo_1124278" data-name="Grupo 1124278" transform="translate(7.5 22.906)">
        <g id="Grupo_1124277" data-name="Grupo 1124277" transform="translate(0 5.923)">
          <path id="Trazado_984779" data-name="Trazado 984779" d="M418.789,56.668h-5.854a.877.877,0,0,0-.877.877v8.9a.877.877,0,0,0,.877.877h5.854Z" transform="translate(-341.08 -56.668)" fill="#a79ba7"/>
          <path id="Trazado_984780" data-name="Trazado 984780" d="M412.057,94.326v3.161a.877.877,0,0,0,.877.877h5.854V94.319a.007.007,0,0,1-.007.007Z" transform="translate(-341.079 -87.713)" fill="#918291"/>
          <path id="Trazado_984781" data-name="Trazado 984781" d="M418.789,386.219h-5.854a.877.877,0,0,0-.877.877v8.9a.877.877,0,0,0,.877.877h5.854Z" transform="translate(-341.08 -328.401)" fill="#a79ba7"/>
          <path id="Trazado_984782" data-name="Trazado 984782" d="M412.057,423.878v3.161a.877.877,0,0,0,.877.877h5.854v-4.045a.007.007,0,0,1-.007.007Z" transform="translate(-341.079 -359.447)" fill="#918291"/>
          <g id="Grupo_1124276" data-name="Grupo 1124276" transform="translate(0 22.346)">
            <path id="Trazado_984787" data-name="Trazado 984787" d="M334.84,222.061l-2.1-2.115a.8.8,0,0,0-.57-.237h-7.628V228.8h7.628a.8.8,0,0,0,.57-.237l2.1-2.115a.8.8,0,0,0,.234-.567v-3.249A.8.8,0,0,0,334.84,222.061Z" transform="translate(-268.915 -213.45)" fill="#cbc4cc"/>
            <path id="Trazado_984788" data-name="Trazado 984788" d="M332.736,236.716a.8.8,0,0,1-.57.237h-7.628v3.991h7.628a.8.8,0,0,0,.57-.237l2.1-2.115a.8.8,0,0,0,.234-.567v-3.249a.8.8,0,0,0-.075-.334Z" transform="translate(-268.915 -225.597)" fill="#b5adb6"/>
            <path id="Trazado_984789" data-name="Trazado 984789" d="M295.687,206.966h-5.176v13.559h5.176a.97.97,0,0,0,.97-.97v-11.62A.969.969,0,0,0,295.687,206.966Z" transform="translate(-240.858 -202.943)" fill="#a79ba7"/>
            <g id="Grupo_1124275" data-name="Grupo 1124275" transform="translate(49.653 12.319)">
              <path id="Trazado_984790" data-name="Trazado 984790" d="M290.51,259.511h5.176a.969.969,0,0,0,.969-.97v-4.294H290.51v5.263Z" transform="translate(-290.51 -254.248)" fill="#918291"/>
            </g>
            <path id="Trazado_984791" data-name="Trazado 984791" d="M18.3,205.639H53.45a3.878,3.878,0,0,0,3.878-3.878v-13.85a3.878,3.878,0,0,0-3.878-3.878H18.3a10.8,10.8,0,0,0-10.8,10.8h0A10.8,10.8,0,0,0,18.3,205.639Z" transform="translate(-7.5 -184.033)" fill="#ffe177"/>
            <path id="Trazado_984792" data-name="Trazado 984792" d="M18.3,205.639H53.45a3.878,3.878,0,0,0,3.878-3.878v-13.85a3.878,3.878,0,0,0-3.878-3.878H18.3a10.8,10.8,0,0,0-10.8,10.8h0A10.8,10.8,0,0,0,18.3,205.639Z" transform="translate(-7.5 -184.033)" fill="#ffe177"/>
            <path id="Trazado_984793" data-name="Trazado 984793" d="M58.461,184.033H56.213V195.48a.869.869,0,0,1,.184.531v2.807a.877.877,0,0,1-.877.877H46.675a.87.87,0,0,1-.531-.184H13.577a10.8,10.8,0,0,0,9.737,6.126H58.461a3.878,3.878,0,0,0,3.878-3.878v-13.85A3.878,3.878,0,0,0,58.461,184.033Z" transform="translate(-12.511 -184.033)" fill="#ffd15b"/>
          </g>
        </g>
        <path id="Trazado_984794" data-name="Trazado 984794" d="M449.423,103.819V23.783a.877.877,0,0,1,.877-.877h7.909a.877.877,0,0,1,.877.877v80.036a.877.877,0,0,1-.877.877H450.3A.877.877,0,0,1,449.423,103.819Z" transform="translate(-371.89 -22.906)" fill="#cbc4cc"/>
        <path id="Trazado_984795" data-name="Trazado 984795" d="M458.209,22.906h-3.8v75.65a.877.877,0,0,1-.877.877h-4.107v4.386a.877.877,0,0,0,.877.877h7.909a.877.877,0,0,0,.877-.877V23.783A.877.877,0,0,0,458.209,22.906Z" transform="translate(-371.89 -22.906)" fill="#b5adb6"/>
        <path id="Trazado_984796" data-name="Trazado 984796" d="M206.949,251.871H198.1a.877.877,0,0,1-.877-.877v-2.807a.877.877,0,0,1,.877-.877h8.845a.877.877,0,0,1,.877.877v2.807A.877.877,0,0,1,206.949,251.871Z" transform="translate(-163.94 -207.939)" fill="#fff"/>
        <path id="Trazado_984797" data-name="Trazado 984797" d="M239.408,247.309h-2.815v4.562h2.815a.877.877,0,0,0,.877-.877v-2.807A.877.877,0,0,0,239.408,247.309Z" transform="translate(-196.4 -207.939)" fill="#f3f0f3"/>
      </g>
      <g id="Grupo_1124282" data-name="Grupo 1124282" transform="translate(7.5 22.906)">
        <path id="Trazado_984798" data-name="Trazado 984798" d="M418.613,56.668h-5.679a.877.877,0,0,0-.877.877v8.9a.877.877,0,0,0,.877.877h5.679Z" transform="translate(-341.079 -50.745)" fill="none" stroke="#000" stroke-linecap="round" stroke-linejoin="round" stroke-miterlimit="10" stroke-width="1"/>
        <path id="Trazado_984799" data-name="Trazado 984799" d="M418.613,386.219h-5.679a.877.877,0,0,0-.877.877v8.9a.877.877,0,0,0,.877.877h5.679Z" transform="translate(-341.079 -322.477)" fill="none" stroke="#000" stroke-linecap="round" stroke-linejoin="round" stroke-miterlimit="10" stroke-width="1"/>
        <path id="Trazado_984801" data-name="Trazado 984801" d="M335.665,222.061l-2.1-2.115a.8.8,0,0,0-.57-.237h-7.453V228.8h7.453a.8.8,0,0,0,.57-.237l2.1-2.115a.8.8,0,0,0,.234-.567v-3.249A.8.8,0,0,0,335.665,222.061Z" transform="translate(-269.74 -185.181)" fill="none" stroke="#000" stroke-linecap="round" stroke-linejoin="round" stroke-miterlimit="10" stroke-width="1"/>
        <g id="Grupo_1124279" data-name="Grupo 1124279" transform="translate(45.328 11.057)">
          <path id="Trazado_984802" data-name="Trazado 984802" d="M287.883,99.962,281.721,93.8h-7.988l-7.874-7.874" transform="translate(-265.859 -85.926)" fill="none" stroke="#000" stroke-linecap="round" stroke-linejoin="round" stroke-miterlimit="10" stroke-width="1"/>
          <path id="Trazado_984803" data-name="Trazado 984803" d="M265.859,339.321l6.162-6.162h7.988l7.874-7.874" transform="translate(-265.859 -283.291)" fill="none" stroke="#000" stroke-linecap="round" stroke-linejoin="round" stroke-miterlimit="10" stroke-width="1"/>
        </g>
        <path id="Trazado_984804" data-name="Trazado 984804" d="M296.511,206.966h-5v13.559h5a.97.97,0,0,0,.97-.97v-11.62A.969.969,0,0,0,296.511,206.966Z" transform="translate(-241.683 -174.674)" fill="none" stroke="#000" stroke-linecap="round" stroke-linejoin="round" stroke-miterlimit="10" stroke-width="1"/>
        <line id="Línea_610" data-name="Línea 610" x2="11.374" transform="translate(66.159 39.072)" fill="none" stroke="#000" stroke-linecap="round" stroke-linejoin="round" stroke-miterlimit="10" stroke-width="1"/>
        <g id="Grupo_1124280" data-name="Grupo 1124280" transform="translate(10.346 36.485)">
          <line id="Línea_611" data-name="Línea 611" y2="5.173" fill="none" stroke="#000" stroke-linecap="round" stroke-linejoin="round" stroke-miterlimit="10" stroke-width="1"/>
          <line id="Línea_612" data-name="Línea 612" y2="5.173" transform="translate(4.869)" fill="none" stroke="#000" stroke-linecap="round" stroke-linejoin="round" stroke-miterlimit="10" stroke-width="1"/>
          <line id="Línea_613" data-name="Línea 613" y2="5.173" transform="translate(9.738)" fill="none" stroke="#000" stroke-linecap="round" stroke-linejoin="round" stroke-miterlimit="10" stroke-width="1"/>
        </g>
        <g id="Grupo_1124281" data-name="Grupo 1124281" transform="translate(69.952 38.007)">
          <line id="Línea_614" data-name="Línea 614" y2="2.13" fill="none" stroke="#000" stroke-linecap="round" stroke-linejoin="round" stroke-miterlimit="10" stroke-width="1"/>
          <line id="Línea_615" data-name="Línea 615" y2="2.13" transform="translate(3.956)" fill="none" stroke="#000" stroke-linecap="round" stroke-linejoin="round" stroke-miterlimit="10" stroke-width="1"/>
        </g>
        <path id="Trazado_984805" data-name="Trazado 984805" d="M449.423,78.392v25.428a.877.877,0,0,0,.877.877h7.909a.877.877,0,0,0,.877-.877V23.783a.877.877,0,0,0-.877-.877H450.3a.877.877,0,0,0-.877.877V72.251" transform="translate(-371.89 -22.906)" fill="none" stroke="#000" stroke-linecap="round" stroke-linejoin="round" stroke-miterlimit="10" stroke-width="1"/>
        <path id="Trazado_984806" data-name="Trazado 984806" d="M39.934,184.033H18.3a10.8,10.8,0,0,0-10.8,10.8h0a10.8,10.8,0,0,0,10.8,10.8H53.45a3.878,3.878,0,0,0,3.878-3.878v-13.85a3.878,3.878,0,0,0-3.878-3.878H46.075" transform="translate(-7.5 -155.764)" fill="none" stroke="#000" stroke-linecap="round" stroke-linejoin="round" stroke-miterlimit="10" stroke-width="1"/>
        <path id="Trazado_984807" data-name="Trazado 984807" d="M206.949,251.871H198.1a.877.877,0,0,1-.877-.877v-2.807a.877.877,0,0,1,.877-.877h8.845a.877.877,0,0,1,.877.877v2.807A.877.877,0,0,1,206.949,251.871Z" transform="translate(-163.94 -207.939)" fill="none" stroke="#000" stroke-linecap="round" stroke-linejoin="round" stroke-miterlimit="10" stroke-width="1"/>
      </g>
    </g>
  </g>
</svg>
