<svg xmlns="http://www.w3.org/2000/svg" xmlns:xlink="http://www.w3.org/1999/xlink" width="217.634" height="215.572" viewBox="0 0 217.634 215.572">
  <defs>
    <clipPath id="clip-path">
      <path id="Trazado_984752" data-name="Trazado 984752" d="M297.59,143.735l-117.89-.51L204.756,77.4h65.825Z" transform="translate(-179.7 -77.4)"/>
    </clipPath>
  </defs>
  <g id="Grupo_1124287" data-name="Grupo 1124287" transform="translate(4851.638 7497.76)">
    <g id="_4" data-name="4" transform="translate(-4853.838 -7511.96)">
      <g id="Grupo_1124240" data-name="Grupo 1124240" transform="translate(10.844 14.2)">
        <path id="Trazado_984712" data-name="Trazado 984712" d="M22.847,14.2H199.055l5.12,6.117H15.2Z" transform="translate(-15.2 -14.2)" fill="#d1843f"/>
        <path id="Trazado_984713" data-name="Trazado 984713" d="M204.175,23.4l-32.582,77.731H54.1L15.2,23.4Z" transform="translate(-15.2 -17.283)" fill="#e5b7b7" opacity="0.43"/>
        <path id="Trazado_984714" data-name="Trazado 984714" d="M216.2,23.4,187.8,96.41H76.759L73.7,101.131H191.194L223.776,23.4Z" transform="translate(-34.801 -17.283)" fill="#ac6b28"/>
        <path id="Trazado_984715" data-name="Trazado 984715" d="M57.158,96.41,54.1,101.131,15.2,23.4l10.107.066Z" transform="translate(-15.2 -17.283)" fill="#e8a874"/>
        <path id="Trazado_984716" data-name="Trazado 984716" d="M30.4,23.466,201.688,23.4,173.3,96.41H62.25Z" transform="translate(-20.293 -17.283)" fill="#d8d8d8"/>
        <path id="Trazado_984717" data-name="Trazado 984717" d="M35.4,25.551,156.419,25.3,136.347,91.609H57.816Z" transform="translate(-0.092 -19.183)" fill="#282828"/>
      </g>
      <path id="Trazado_984718" data-name="Trazado 984718" d="M56.193,145.4H161.785l58.049,107.986H2.2Z" transform="translate(0 -43.96)" fill="#bc7b71"/>
      <path id="Trazado_984719" data-name="Trazado 984719" d="M60.775,151h103.93l53.261,101.536H12.9Z" transform="translate(-3.585 -45.837)" fill="#dcf4f2"/>
      <path id="Trazado_984720" data-name="Trazado 984720" d="M2.2,307.8l4.588,19.682,206.463.665,6.583-20.347Z" transform="translate(0 -98.374)" fill="#e2b98c"/>
      <path id="Trazado_984721" data-name="Trazado 984721" d="M247.652,140.3l-3.125,7.78-2.327-4.389,1.263-3.325Z" transform="translate(-80.415 -42.251)" fill="#512c0b"/>
      <path id="Trazado_984722" data-name="Trazado 984722" d="M73.7,140.3l4.056,8.245,2.394-4.854L77.823,140.3Z" transform="translate(-23.957 -42.251)" fill="#512c0b"/>
    </g>
    <g id="Grupo_1124285" data-name="Grupo 1124285" transform="translate(-4801.766 -7389.974)">
      <g id="Grupo_1124259" data-name="Grupo 1124259">
        <path id="Trazado_984750" data-name="Trazado 984750" d="M297.59,143.735l-117.89-.51L204.756,77.4h65.825Z" transform="translate(-179.7 -77.4)" fill="#54844f"/>
      </g>
      <g id="Grupo_1124261" data-name="Grupo 1124261">
        <g id="Grupo_1124260" data-name="Grupo 1124260" clip-path="url(#clip-path)">
          <path id="Trazado_984751" data-name="Trazado 984751" d="M271.249,104.2a3.228,3.228,0,0,0,0-6.455,2.944,2.944,0,0,0-2.208.934L247.977,77.447a3.029,3.029,0,0,0,.679-1.954,3.228,3.228,0,1,0-3.228,3.228,3.484,3.484,0,0,0,1.869-.595l21.149,21.319a3.179,3.179,0,0,0-.425,1.529A3.226,3.226,0,0,0,271.249,104.2Zm0-5.521a2.293,2.293,0,1,1-2.293,2.293A2.4,2.4,0,0,1,271.249,98.68ZM245.429,77.7a2.293,2.293,0,1,1,2.293-2.293A2.284,2.284,0,0,1,245.429,77.7Zm9.853-5.861a3.228,3.228,0,0,0,0,6.455,4.47,4.47,0,0,0,1.529-.34l10.362,10.532a3.052,3.052,0,0,0-.17.934,3.228,3.228,0,1,0,3.228-3.228,3.145,3.145,0,0,0-2.633,1.359L257.575,77.277a3.136,3.136,0,0,0,.934-2.293A3.209,3.209,0,0,0,255.282,71.841ZM256.9,76.6h0l-.255.255a2.35,2.35,0,0,1-1.359.425,2.293,2.293,0,1,1,2.293-2.293A2.833,2.833,0,0,1,256.9,76.6ZM270.23,87.129a2.293,2.293,0,1,1-2.293,2.293A2.284,2.284,0,0,1,270.23,87.129Zm-13.5,63.786,11.551.17a4.667,4.667,0,0,0,.595.764,3.243,3.243,0,1,0,0-4.587,2.98,2.98,0,0,0-.849,2.8l-11.042-.17a3.439,3.439,0,0,0-.934-2.293,3.243,3.243,0,1,0,0,4.587A6.069,6.069,0,0,0,256.725,150.916Zm12.74-3.058a2.282,2.282,0,1,1,0,3.228A2.362,2.362,0,0,1,269.466,147.858Zm-13.59,2.038v.34a2.519,2.519,0,0,1-.595,1.274,2.282,2.282,0,1,1,0-3.228,2.539,2.539,0,0,1,.595,1.614ZM235.492,62.838h15.543a3.222,3.222,0,1,0,3.143-3.907,3.23,3.23,0,0,0-3.228,2.888H235.407a3.268,3.268,0,0,0-3.143-2.548,3.228,3.228,0,0,0,0,6.455A3.1,3.1,0,0,0,235.492,62.838Zm18.686-2.888a2.293,2.293,0,1,1-2.293,2.293A2.284,2.284,0,0,1,254.177,59.95Zm-21.913,4.926a2.293,2.293,0,1,1,2.293-2.293A2.284,2.284,0,0,1,232.264,64.876Zm-5.1,29.3a3.228,3.228,0,0,0-6.455,0,3.361,3.361,0,0,0,2.8,3.228v30.322a3.222,3.222,0,1,0,3.907,3.143,3.23,3.23,0,0,0-2.888-3.228V97.322A3.123,3.123,0,0,0,227.168,94.179Zm-.68,36.692a2.293,2.293,0,1,1-2.293-2.293A2.284,2.284,0,0,1,226.488,130.871Zm-2.548-34.4a2.293,2.293,0,1,1,2.293-2.293A2.284,2.284,0,0,1,223.94,96.472Zm-9.088,45.186a3.36,3.36,0,0,0,3.228-2.888H246.7a3.311,3.311,0,1,0-.255-1.359v.34H217.995a3.189,3.189,0,0,0-3.143-2.633,3.27,3.27,0,0,0,0,6.54Zm34.739-6.455A2.293,2.293,0,1,1,247.3,137.5,2.284,2.284,0,0,1,249.591,135.2Zm-34.739.934a2.293,2.293,0,1,1-2.293,2.293A2.284,2.284,0,0,1,214.852,136.137Zm18.771,11.721a3.237,3.237,0,0,0,3.228-2.973h40.939a3.158,3.158,0,0,0,3.228,2.8,3.228,3.228,0,1,0-3.143-3.737H236.851a3.268,3.268,0,0,0-3.143-2.548,3.226,3.226,0,0,0-3.228,3.228A3.1,3.1,0,0,0,233.623,147.858Zm47.309-5.606a2.293,2.293,0,1,1-2.293,2.293A2.4,2.4,0,0,1,280.932,142.252Zm-47.309.17a2.293,2.293,0,1,1-2.293,2.293A2.4,2.4,0,0,1,233.623,142.422ZM217.655,100.8a3.158,3.158,0,0,0,2.8-3.228,3.228,3.228,0,1,0-3.822,3.143V123.4l-7.729,7.05a3.084,3.084,0,0,0-2.378-1.019,3.228,3.228,0,1,0,3.228,3.228,2.492,2.492,0,0,0-.34-1.359l8.154-7.474V100.8Zm-11.127,34.059a2.293,2.293,0,1,1,2.293-2.293A2.284,2.284,0,0,1,206.529,134.863Zm8.409-37.287a2.293,2.293,0,1,1,2.293,2.293A2.284,2.284,0,0,1,214.937,97.576Zm49.348,38.985h8.494a3.248,3.248,0,0,0,2.718,2.888,2.874,2.874,0,0,0,.934,0,2.99,2.99,0,0,0,2.718-3.143,3.226,3.226,0,0,0-3.228-3.228,3.268,3.268,0,0,0-3.143,2.548H264.2a3.765,3.765,0,0,0-3.737-3.312,3.737,3.737,0,1,0,0,7.474A3.6,3.6,0,0,0,264.285,136.562Zm11.721-2.548a2.293,2.293,0,1,1-2.293,2.293A2.339,2.339,0,0,1,276.006,134.014Zm-18.261,2.038a2.8,2.8,0,1,1,2.8,2.8A2.722,2.722,0,0,1,257.745,136.052Zm-8.494-22.168a3.228,3.228,0,1,0-3.228-3.228,3.4,3.4,0,0,0,.849,2.208l-3.652,3.143a3.028,3.028,0,0,0-1.954-.679,3.228,3.228,0,1,0,3.228,3.228,3.484,3.484,0,0,0-.595-1.869l3.737-3.228A3.513,3.513,0,0,0,249.251,113.884Zm-7.984,7.05a2.293,2.293,0,1,1,2.293-2.293A2.339,2.339,0,0,1,241.267,120.934Zm5.691-10.277a2.293,2.293,0,1,1,2.293,2.293A2.284,2.284,0,0,1,246.958,110.656ZM191.41,147.009a3.228,3.228,0,1,0-3.228-3.228,3.4,3.4,0,0,0,.849,2.208l-3.652,3.143a3.028,3.028,0,0,0-1.953-.679,3.228,3.228,0,1,0,3.228,3.228,3.484,3.484,0,0,0-.595-1.869l3.737-3.228A3.513,3.513,0,0,0,191.41,147.009Zm-7.984,6.965a2.293,2.293,0,1,1,2.293-2.293A2.284,2.284,0,0,1,183.426,153.973Zm5.691-10.192a2.293,2.293,0,1,1,2.293,2.293A2.284,2.284,0,0,1,189.117,143.781Zm19.111,3.143A3.228,3.228,0,1,0,205,143.7a3.4,3.4,0,0,0,.849,2.208l-3.652,3.143a3.028,3.028,0,0,0-1.953-.679,3.228,3.228,0,1,0,3.228,3.228,3.484,3.484,0,0,0-.595-1.869l3.737-3.228A3.513,3.513,0,0,0,208.227,146.924Zm-7.984,6.965a2.293,2.293,0,1,1,2.293-2.293A2.284,2.284,0,0,1,200.243,153.888Zm5.691-10.192a2.293,2.293,0,1,1,2.293,2.293A2.284,2.284,0,0,1,205.934,143.7ZM270.91,126.03a3.228,3.228,0,0,0,0-6.455,3.136,3.136,0,0,0-2.293.934l-18.941-18.346a3.14,3.14,0,0,0,.51-1.784,3.228,3.228,0,1,0-6.455,0,3.262,3.262,0,0,0,.764,2.123l-9,7.389v16.732l10.617.085,8.069-7.9a3.028,3.028,0,0,0,1.953.68,3.228,3.228,0,1,0-3.228-3.228,3.484,3.484,0,0,0,.595,1.869l-7.814,7.644-9.258-.085V110.317l8.748-7.22a3.094,3.094,0,0,0,3.737-.255l19.026,18.431a2.909,2.909,0,0,0-.34,1.529A3.357,3.357,0,0,0,270.91,126.03Zm0-5.521a2.293,2.293,0,1,1-2.293,2.293A2.4,2.4,0,0,1,270.91,120.509Zm-14.694-6.625a2.293,2.293,0,1,1-2.293,2.293A2.284,2.284,0,0,1,256.216,113.884Zm-9.173-11.3a2.293,2.293,0,1,1,2.293-2.293A2.339,2.339,0,0,1,247.043,102.587Zm-45.78,40.174a3.228,3.228,0,0,0,0-6.455,3.132,3.132,0,0,0-3.143,2.718h-3.737l-9.428-10.532a3.4,3.4,0,0,0,.849-2.208,3.209,3.209,0,1,0-1.614,2.8l9.768,10.872h4.162A3.136,3.136,0,0,0,201.263,142.762Zm0-5.436a2.293,2.293,0,1,1-2.293,2.293A2.284,2.284,0,0,1,201.263,137.326Zm-18.686-8.663a2.293,2.293,0,1,1,2.293-2.293A2.284,2.284,0,0,1,182.577,128.663Zm18.176-13.5a3.14,3.14,0,0,0-1.784-.51,3.228,3.228,0,1,0,3.228,3.228,3.044,3.044,0,0,0-.764-2.038l5.1-5.266v-20.3a3.207,3.207,0,1,0-3.737-3.143,3.132,3.132,0,0,0,2.718,3.143v19.96Zm-1.784,4.926a2.293,2.293,0,1,1,2.293-2.293A2.337,2.337,0,0,1,198.969,120.084Zm4.841-33.04a2.293,2.293,0,1,1,2.293,2.293A2.284,2.284,0,0,1,203.811,87.044ZM187.333,124.5a3.228,3.228,0,1,0,6.455,0,3.283,3.283,0,0,0-2.8-3.228V101.738a3.268,3.268,0,0,0,2.548-3.143,3.228,3.228,0,1,0-3.482,3.228v19.45A3.355,3.355,0,0,0,187.333,124.5Zm.679-25.82a2.293,2.293,0,1,1,2.293,2.293A2.284,2.284,0,0,1,188.013,98.68Zm2.208,23.612h.679a2.294,2.294,0,1,1-.679,0Zm-7.814-8.494a3.268,3.268,0,0,0-2.548,3.143,3.228,3.228,0,1,0,3.482-3.228V95.623l6.965-6.455a3.14,3.14,0,0,0,1.784.51,3.228,3.228,0,1,0-3.228-3.228,2.893,2.893,0,0,0,.764,2.038l-7.22,6.625Zm9.683-29.558a2.293,2.293,0,1,1,0,4.587,2.35,2.35,0,0,1-1.359-.425l-.425-.425h0a2.143,2.143,0,0,1-.51-1.444A2.284,2.284,0,0,1,192.09,84.241Zm-6.795,32.7A2.293,2.293,0,1,1,183,114.648,2.232,2.232,0,0,1,185.295,116.942Zm13.675,12.4a3.226,3.226,0,0,0,3.228-3.228,3.485,3.485,0,0,0-.595-1.869l9.428-9.768.425-48.243h-3.737a3.215,3.215,0,1,0,.17,1.019v-.085h2.633l-.425,46.969-9.173,9.513a3.193,3.193,0,1,0-1.954,5.691Zm5.691-59.879a2.293,2.293,0,1,1,2.293-2.293A2.284,2.284,0,0,1,204.66,69.463Zm-5.691,54.359a2.293,2.293,0,1,1-2.293,2.293A2.284,2.284,0,0,1,198.969,123.821ZM275.411,103.1a3.226,3.226,0,0,0,3.228,3.228,3.266,3.266,0,0,0,3.228-3.143h9.173l2.293,2.888v13.08l-6.03,6.54a3.029,3.029,0,0,0-1.954-.68,3.132,3.132,0,0,0-3.143,2.718H259.189l-5.011,3.652-20.13-.085-2.463-3.312V97.237a3.221,3.221,0,0,0,3.058-3.058h12.74l20.639,20.469h6.625a3.253,3.253,0,0,0,2.718,2.973,2.874,2.874,0,0,0,.934,0,3.045,3.045,0,0,0,1.953-.934l2.633,1.614a2.836,2.836,0,0,0-.255,1.274,3.132,3.132,0,0,0,2.718,3.143,2.875,2.875,0,0,0,.934,0A2.99,2.99,0,0,0,289,119.575a3.226,3.226,0,0,0-3.228-3.228,3.019,3.019,0,0,0-2.463,1.189l-2.548-1.614a3.968,3.968,0,0,0,.255-1.444,3.226,3.226,0,0,0-3.228-3.228,3.192,3.192,0,0,0-3.143,2.463h-6.285L247.722,93.245H234.557a3.192,3.192,0,0,0-3.143-2.463,3.226,3.226,0,0,0-3.228,3.228,3.192,3.192,0,0,0,2.463,3.143v31.171l2.973,3.907,20.979.085,5.011-3.652h22.678a3.2,3.2,0,0,0,6.37-.51,3.483,3.483,0,0,0-.595-1.869l6.285-6.88V105.56l-2.718-3.482H281.7a3.185,3.185,0,0,0-3.058-2.293A3.357,3.357,0,0,0,275.411,103.1Zm10.362,14.269a2.293,2.293,0,1,1-2.293,2.293A2.284,2.284,0,0,1,285.773,117.366Zm-7.984-5.1a2.284,2.284,0,0,1,2.293,2.293,2.352,2.352,0,0,1-.255,1.1l-.085.17a2.334,2.334,0,0,1-1.869,1.019,2.284,2.284,0,0,1-2.293-2.293A2.163,2.163,0,0,1,277.789,112.27ZM229.037,94.094a2.293,2.293,0,1,1,2.293,2.293A2.284,2.284,0,0,1,229.037,94.094Zm56.312,36.437a2.293,2.293,0,1,1,2.293-2.293A2.284,2.284,0,0,1,285.349,130.531Zm-6.71-29.727a2.293,2.293,0,1,1-2.293,2.293A2.284,2.284,0,0,1,278.639,100.8Zm-39.75,52.915a3.132,3.132,0,0,0-3.143,2.718h-1.784L224.535,145.9a3.4,3.4,0,0,0,.849-2.208,3.209,3.209,0,1,0-1.614,2.8l9.768,10.872h2.208a3.273,3.273,0,0,0,3.143,2.8,3.228,3.228,0,0,0,0-6.455Zm-16.732-7.729a2.293,2.293,0,1,1,2.293-2.293A2.284,2.284,0,0,1,222.157,145.989Zm16.732,13.165a2.293,2.293,0,1,1,2.293-2.293A2.284,2.284,0,0,1,238.889,159.154Zm42.468-89.947a3.226,3.226,0,0,0,3.228-3.228,3.484,3.484,0,0,0-.595-1.869l3.737-3.228a3.232,3.232,0,1,0-1.614-2.8,3.4,3.4,0,0,0,.849,2.208l-3.652,3.143a3.029,3.029,0,0,0-1.954-.679,3.228,3.228,0,0,0,0,6.455Zm7.9-13.42a2.293,2.293,0,1,1-2.293,2.293A2.4,2.4,0,0,1,289.256,55.788Zm-7.9,7.9a2.293,2.293,0,1,1-2.293,2.293A2.284,2.284,0,0,1,281.357,63.687Zm4.077,69.9a3.228,3.228,0,0,0,0,6.455,3.044,3.044,0,0,0,2.038-.764l3.737,3.652v3.737h-.255a3.226,3.226,0,0,0-3.228,3.228,3.132,3.132,0,0,0,2.718,3.143,2.875,2.875,0,0,0,.934,0A2.99,2.99,0,0,0,294.1,149.9a3.152,3.152,0,0,0-2.038-2.973v-4.332l-4.077-3.992a3.14,3.14,0,0,0,.51-1.784A2.987,2.987,0,0,0,285.434,133.589Zm0,5.521a2.293,2.293,0,1,1,2.293-2.293A2.284,2.284,0,0,1,285.434,139.11Zm7.814,10.787a2.293,2.293,0,1,1-2.293-2.293A2.284,2.284,0,0,1,293.248,149.9Zm-44.506,4.587a4.96,4.96,0,0,0-1.529.34l-3.143-3.058a3.456,3.456,0,0,0,.68-2.038,3.228,3.228,0,0,0-6.455,0,3.132,3.132,0,0,0,2.718,3.143,2.874,2.874,0,0,0,.934,0,3.752,3.752,0,0,0,1.359-.51l3.143,2.973a3.21,3.21,0,0,0,1.784,5.436,2.874,2.874,0,0,0,.934,0,2.99,2.99,0,0,0,2.718-3.143A3.082,3.082,0,0,0,248.742,154.483Zm-7.22-2.548a2.293,2.293,0,1,1,2.293-2.293A2.284,2.284,0,0,1,241.522,151.935Zm7.22,7.984a2.293,2.293,0,1,1,2.293-2.293A2.284,2.284,0,0,1,248.742,159.919Zm-22.678-3.058a3.029,3.029,0,0,0-1.954.679l-5.945-6.795a3.4,3.4,0,0,0,.849-2.208,3.209,3.209,0,1,0-1.614,2.8l5.945,6.88a3.484,3.484,0,0,0-.595,1.869,3.132,3.132,0,0,0,2.718,3.143,2.875,2.875,0,0,0,.934,0,3.205,3.205,0,0,0-.34-6.37Zm-10.277-6.03a2.293,2.293,0,1,1,2.293-2.293A2.284,2.284,0,0,1,215.787,150.831ZM226.064,162.3A2.293,2.293,0,1,1,228.357,160,2.284,2.284,0,0,1,226.064,162.3Zm42.128-7.559a3.132,3.132,0,0,0-3.143,2.718h-3.907a3.34,3.34,0,0,0-3.4-2.973,3.4,3.4,0,1,0,0,6.795,3.465,3.465,0,0,0,3.4-2.973h3.907a3.158,3.158,0,0,0,2.718,2.8,2.875,2.875,0,0,0,.934,0,2.99,2.99,0,0,0,2.718-3.143A3.226,3.226,0,0,0,268.192,154.738Zm-10.447,5.691a2.548,2.548,0,1,1,2.548-2.548A2.613,2.613,0,0,1,257.745,160.429Zm10.447-.255a2.293,2.293,0,1,1,2.293-2.293A2.284,2.284,0,0,1,268.192,160.174ZM273.967,77.7a3.226,3.226,0,0,0-3.228,3.228,3.132,3.132,0,0,0,2.718,3.143,2.874,2.874,0,0,0,.934,0,3,3,0,0,0,2.718-2.8h19.28v-.934H277.11A3.2,3.2,0,0,0,273.967,77.7Zm0,5.521a2.293,2.293,0,1,1,2.293-2.293A2.284,2.284,0,0,1,273.967,83.222Zm10.107,2.718a3.228,3.228,0,1,0-6.455,0,3.132,3.132,0,0,0,2.718,3.143v3.4a3.185,3.185,0,0,0-2.293,3.058,3.228,3.228,0,1,0,3.312-3.228V89.083A3.132,3.132,0,0,0,284.075,85.94Zm-.595,9.6a2.293,2.293,0,1,1-2.293-2.293A2.337,2.337,0,0,1,283.48,95.538Zm-2.633-7.3a2.293,2.293,0,1,1,2.293-2.293A2.284,2.284,0,0,1,280.847,88.233ZM185.295,54.089l2.378,2.378a3.221,3.221,0,1,0,5.1-.764,3.129,3.129,0,0,0-4.5,0l-2.293-2.293a3.128,3.128,0,0,0-.34-4.162,3.243,3.243,0,0,0-4.587,4.587A3.452,3.452,0,0,0,185.295,54.089Zm3.567,2.293a2.282,2.282,0,1,1,0,3.228A2.208,2.208,0,0,1,188.862,56.383Zm-7.135-6.54a2.282,2.282,0,1,1,0,3.228A2.362,2.362,0,0,1,181.728,49.843Zm36.607,24.376a3.228,3.228,0,1,0,3.312-3.228V67.764a3.207,3.207,0,1,0-3.737-3.143,3.132,3.132,0,0,0,2.718,3.143v3.4A3.185,3.185,0,0,0,218.335,74.219Zm.51-9.6a2.293,2.293,0,1,1,2.293,2.293A2.284,2.284,0,0,1,218.844,64.621Zm2.718,7.389a2.293,2.293,0,1,1-2.293,2.293A2.284,2.284,0,0,1,221.562,72.011Zm12.91-21.489a3.192,3.192,0,0,0,3.143-2.463h22.338a3.193,3.193,0,0,0,3.058,2.8v1.189a3.212,3.212,0,0,0-2.293,3.143,3.185,3.185,0,1,0,6.37-.085,3.155,3.155,0,0,0-3.228-3.143V50.777a3.211,3.211,0,0,0,2.378-3.143,3.053,3.053,0,0,0-.17-.934h-1.019a1.68,1.68,0,0,1,.17.934,2.293,2.293,0,0,1-4.587,0,3.054,3.054,0,0,1,.17-.934h-1.019a3.68,3.68,0,0,0-.085.425H237.36a.766.766,0,0,0-.085-.425h-.595a1.077,1.077,0,0,1,.085.51,2.293,2.293,0,0,1-4.587,0,1.077,1.077,0,0,1,.085-.51h-.934c0,.17-.085.34-.085.51A3.3,3.3,0,0,0,234.472,50.522ZM263.945,52.9a2.251,2.251,0,1,1-2.208,2.293A2.267,2.267,0,0,1,263.945,52.9Zm19.111,106.254a3.2,3.2,0,0,0-4.077,4.926,6.332,6.332,0,0,0,1.019.595h2.123v-.085a3.557,3.557,0,0,0,1.359-.934A3.072,3.072,0,0,0,283.056,159.154Zm-.255,3.907a2.289,2.289,0,1,1-.255-3.228A2.374,2.374,0,0,1,282.8,163.062Zm-58.86-110.5a3.225,3.225,0,0,0,6.285,1.019l24.376.17,9.853,9.853v5.266H240.078l-3.567,4.417a3.484,3.484,0,0,0-1.869-.595,3.228,3.228,0,0,0,0,6.455,3.057,3.057,0,0,0,1.869-.595l2.123,2.123a3.028,3.028,0,0,0-.68,1.954,3.132,3.132,0,0,0,2.718,3.143,2.875,2.875,0,0,0,.934,0,2.99,2.99,0,0,0,2.718-3.143A3.226,3.226,0,0,0,241.1,79.4a3.484,3.484,0,0,0-1.869.595l-2.123-2.123a3.27,3.27,0,0,0,.679-2.038,3.029,3.029,0,0,0-.679-1.954l3.4-4.077h24.886v-6.54L255.027,52.9,230.4,52.73v-.085a3.226,3.226,0,0,0-3.228-3.228,3.145,3.145,0,0,0-2.633,1.359l-3.907-3.992h-1.359l4.841,4.926A3.021,3.021,0,0,0,223.94,52.561ZM241.1,80.334a2.293,2.293,0,1,1-2.293,2.293A2.284,2.284,0,0,1,241.1,80.334Zm-4.672-3.143h0l-.595.595a2.047,2.047,0,0,1-1.274.34,2.293,2.293,0,1,1,2.293-2.293A2.35,2.35,0,0,1,236.426,77.192Zm-9.258-26.84a2.293,2.293,0,1,1-2.293,2.293A2.339,2.339,0,0,1,227.168,50.352ZM289.6,74.134H268.107a3.207,3.207,0,1,0-3.143,3.737,3.132,3.132,0,0,0,3.143-2.718H296.39V74.134Zm-24.631,2.718a2.293,2.293,0,1,1,2.293-2.293A2.284,2.284,0,0,1,264.964,76.852Zm-83.491,57.162a3.734,3.734,0,0,0-2.973-3.652v1.019a2.831,2.831,0,0,1,0,5.436v.934A3.829,3.829,0,0,0,181.473,134.014Zm.51-41.194a3.228,3.228,0,0,0,0-6.455,3.132,3.132,0,0,0-3.143,2.718h-.255v.934h.255A3.136,3.136,0,0,0,181.982,92.82Zm0-5.521a2.293,2.293,0,1,1-2.293,2.293A2.284,2.284,0,0,1,181.982,87.3Zm-1.614-5.945a3.245,3.245,0,1,0,.17-1.019H178.5v.934l1.869.085Zm3.228-2.208a2.293,2.293,0,1,1-2.293,2.293A2.284,2.284,0,0,1,183.6,79.145ZM280,57.317a3.2,3.2,0,0,0,4.077-4.926,3.694,3.694,0,0,0-1.784-.764l-.085-4.926H280a2.891,2.891,0,0,0,1.189.17l.085,4.841a3.338,3.338,0,0,0-1.784,1.1A3.227,3.227,0,0,0,280,57.317Zm.255-3.907a2.289,2.289,0,1,1,.255,3.228A2.458,2.458,0,0,1,280.253,53.41Zm14.694-.51a2.9,2.9,0,0,0,.595-1.869,3.27,3.27,0,1,0-1.274,2.548l2.123,2.038V54.344Zm-2.548.34a2.293,2.293,0,1,1,2.293-2.293A2.284,2.284,0,0,1,292.4,53.24ZM187.078,66.15a3.228,3.228,0,1,0,3.228-3.228,3.4,3.4,0,0,0-1.954.679L178.5,54.259v1.274l9.173,8.748A3.484,3.484,0,0,0,187.078,66.15Zm3.228-2.208a2.293,2.293,0,1,1-2.293,2.293A2.284,2.284,0,0,1,190.306,63.942Zm-8.748,5.691a3.228,3.228,0,1,0-3.058-4.247v1.954A3.185,3.185,0,0,0,181.558,69.633Zm-2.208-3.482a2.266,2.266,0,1,1,2.208,2.633,2.21,2.21,0,0,1-2.208-1.954Zm10.957,11.3a3.228,3.228,0,0,0,0-6.455,3.266,3.266,0,0,0-3.228,3.143H178.5v.934h8.663A3.366,3.366,0,0,0,190.306,77.447Zm0-5.521a2.293,2.293,0,1,1-2.293,2.293A2.284,2.284,0,0,1,190.306,71.926ZM294.012,65.81a3.291,3.291,0,0,0-3.058-2.293,3.228,3.228,0,1,0,3.228,3.228h2.123a2,2,0,0,0,.17.679V65.471c0,.085-.085.255-.085.34h-2.378Zm-3.058,3.228a2.293,2.293,0,1,1,2.293-2.293A2.284,2.284,0,0,1,290.954,69.038Zm-18.261-.595a3.233,3.233,0,0,0,.255-6.455V46.7h-.934V61.988a3.268,3.268,0,0,0,.679,6.455Zm0-5.521a2.293,2.293,0,1,1-2.293,2.293A2.284,2.284,0,0,1,272.693,62.923Zm9,86.549a3.226,3.226,0,0,0-3.228,3.228,2.893,2.893,0,0,0,.764,2.038l-7.219,6.625v3.228h.934v-2.8l6.965-6.455a3.14,3.14,0,0,0,1.784.51,3.185,3.185,0,1,0,0-6.37Zm0,5.521a2.35,2.35,0,0,1-1.359-.425l-.425-.425h0a2.143,2.143,0,0,1-.51-1.444,2.293,2.293,0,0,1,4.587,0A2.339,2.339,0,0,1,281.7,154.993ZM215.107,85.006a3.268,3.268,0,0,0-2.548,3.143,3.233,3.233,0,0,0,6.455.255h29.473l20.045,20.469H283.9a3.071,3.071,0,0,0,2.718,2.718,2.875,2.875,0,0,0,.934,0,2.99,2.99,0,0,0,2.718-3.143,3.2,3.2,0,0,0-6.37-.51H268.956L248.911,87.469H218.929a3.259,3.259,0,0,0-2.888-2.548l-.085-21.913L200.074,46.785h-1.359l16.308,16.647Zm71.94,21.149a2.293,2.293,0,1,1-2.293,2.293A2.339,2.339,0,0,1,287.047,106.155ZM218.08,88.148a2.293,2.293,0,1,1-2.293-2.293A2.284,2.284,0,0,1,218.08,88.148ZM291.8,134.014a3.824,3.824,0,0,0,3.143,3.737V152.36l-4.671,4.671a3.14,3.14,0,0,0-1.784-.51,3.228,3.228,0,1,0,3.228,3.228,3.044,3.044,0,0,0-.764-2.038l4.841-5.181V137.836c.17,0,.34-.085.51-.085v-.934a2.619,2.619,0,0,1-.849.085,2.8,2.8,0,1,1,0-5.606c.255,0,.595.085.849.085v-1.019a2.619,2.619,0,0,0-.849-.085A3.754,3.754,0,0,0,291.8,134.014Zm-3.228,27.944a2.293,2.293,0,1,1,2.293-2.293A2.339,2.339,0,0,1,288.576,161.957Zm-25.4.425a3.185,3.185,0,0,0-3.058,2.293h1.019a2.252,2.252,0,0,1,2.038-1.359,2.124,2.124,0,0,1,2.038,1.359h1.019A3.111,3.111,0,0,0,263.181,162.382Zm-51.9-111.945a3.484,3.484,0,0,0,1.869-.595l12.91,12.91V79.91a3.236,3.236,0,1,0,3.567,3.228A3.123,3.123,0,0,0,227,79.995V62.413l-13.25-13.165a3.029,3.029,0,0,0,.679-1.954v-.51h-.934c0,.17.085.34.085.51a2.293,2.293,0,1,1-4.586,0,1.077,1.077,0,0,1,.085-.51h-.934v.51A3.082,3.082,0,0,0,211.285,50.437ZM228.7,83.052a2.293,2.293,0,1,1-2.293-2.293A2.284,2.284,0,0,1,228.7,83.052Zm-33.38-24.971a3.192,3.192,0,0,0,2.463,3.143V98.935a3.189,3.189,0,0,0-2.633,3.143,3.228,3.228,0,0,0,6.455,0,3.36,3.36,0,0,0-2.888-3.228V61.309a3.194,3.194,0,0,0,3.058-3.228,3.226,3.226,0,0,0-3.228-3.228,3.513,3.513,0,0,0-1.614.425L187.843,46.7h-1.359l9.683,9.173A3.292,3.292,0,0,0,195.317,58.081Zm5.266,44.081a2.293,2.293,0,1,1-2.293-2.293A2.284,2.284,0,0,1,200.583,102.163Zm-2.123-46.29a2.284,2.284,0,0,1,2.293,2.293,2.311,2.311,0,0,1-2.123,2.293v-.085h-.679a2.273,2.273,0,0,1-1.784-2.208A2.4,2.4,0,0,1,198.46,55.873ZM186.229,160.938A3.228,3.228,0,1,0,183,164.166a2.893,2.893,0,0,0,2.038-.764l1.359,1.274h1.359l-2.123-1.953A2.992,2.992,0,0,0,186.229,160.938ZM183,163.231a2.293,2.293,0,1,1,2.293-2.293A2.284,2.284,0,0,1,183,163.231ZM290.275,86.79a3.226,3.226,0,0,0-3.228,3.228,3.136,3.136,0,0,0,2.8,3.143v1.274a3.185,3.185,0,0,0-2.293,3.058,3.228,3.228,0,1,0,3.312-3.228V93.075a3.2,3.2,0,0,0,2.718-3.143h2.973V89H293.5A3.66,3.66,0,0,0,290.275,86.79Zm2.718,10.787a2.293,2.293,0,1,1-2.293-2.293A2.339,2.339,0,0,1,292.993,97.576Zm-2.718-5.266a2.293,2.293,0,1,1,2.293-2.293A2.284,2.284,0,0,1,290.275,92.31Zm-96.741,63.107a3.27,3.27,0,1,0-1.274,2.548l6.54,6.625h1.359l-7.219-7.3A3.484,3.484,0,0,0,193.534,155.417Zm-3.228,2.293a2.293,2.293,0,1,1,2.293-2.293A2.284,2.284,0,0,1,190.306,157.711Zm25.141-1.529a3.228,3.228,0,1,0-3.228,3.228,4.47,4.47,0,0,0,1.529-.34l5.521,5.606h1.359l-6.115-6.2A3.282,3.282,0,0,0,215.447,156.182Zm-1.614,1.614h0l-.255.255a2.35,2.35,0,0,1-1.359.425,2.293,2.293,0,1,1,2.293-2.293A2.321,2.321,0,0,1,213.833,157.8Zm-2.548,4.077a3.132,3.132,0,0,0-3.143,2.718h.934a2.274,2.274,0,0,1,2.208-1.784,2.2,2.2,0,0,1,2.208,1.784h.934A3.2,3.2,0,0,0,211.285,161.872Zm23.187.085a3.2,3.2,0,0,0-3.143,2.633h.934a2.2,2.2,0,0,1,2.208-1.7,2.291,2.291,0,0,1,2.208,1.7h.934A3.134,3.134,0,0,0,234.472,161.957Z" transform="translate(-179.519 -72.775)" fill="#d6af88"/>
        </g>
      </g>
    </g>
  </g>
</svg>
