<svg xmlns="http://www.w3.org/2000/svg" width="73" height="73" viewBox="0 0 73 73">
  <g id="Grupo_1124167" data-name="Grupo 1124167" transform="translate(-327.051 -2548)">
    <rect id="Rectángulo_402373" data-name="Rectángulo 402373" width="73" height="73" transform="translate(327.051 2548)" fill="none"/>
    <g id="Grupo_1124166" data-name="Grupo 1124166" transform="translate(337.311 2556.78)">
      <g id="Grupo_1124164" data-name="Grupo 1124164" transform="translate(0 0)">
        <path id="Trazado_984485" data-name="Trazado 984485" d="M100.158,66.083H59.409A2.284,2.284,0,0,1,57.125,63.8V12.284A2.284,2.284,0,0,1,59.409,10h40.749a2.284,2.284,0,0,1,2.284,2.284V63.8A2.285,2.285,0,0,1,100.158,66.083Z" transform="translate(-53.58 -10)" fill="#7ddac2"/>
        <path id="Trazado_984486" data-name="Trazado 984486" d="M97.125,95.8V51.142A1.142,1.142,0,0,1,98.267,50h33.9a1.142,1.142,0,0,1,1.142,1.142V95.8a1.142,1.142,0,0,1-1.142,1.142h-33.9A1.142,1.142,0,0,1,97.125,95.8Z" transform="translate(-89.011 -45.431)" fill="#fff"/>
        <path id="Trazado_984487" data-name="Trazado 984487" d="M77.357,125.792H27.234a1.142,1.142,0,0,1-1.142-1.142v-6.738a1.142,1.142,0,0,1,1.142-1.142H77.357a1.142,1.142,0,0,1,1.142,1.142v6.738A1.142,1.142,0,0,1,77.357,125.792Z" transform="translate(-26.092 -104.575)" fill="#60a4ff"/>
        <path id="Trazado_984488" data-name="Trazado 984488" d="M88.264,195.76H38.748V199.2a1.142,1.142,0,0,0,1.142,1.142H87.121a1.142,1.142,0,0,0,1.142-1.142Z" transform="translate(-37.302 -174.542)" fill="#c0dbff"/>
        <path id="Trazado_984489" data-name="Trazado 984489" d="M165.115,235.867v11a2.581,2.581,0,1,0,5.162,0v6.243a2.581,2.581,0,1,0,5.162,0v-3.357a2.581,2.581,0,0,0,2.581,2.581h0a2.581,2.581,0,0,0,2.581-2.581v-4.189a2.581,2.581,0,0,0,5.162,0v-9.7H165.115Z" transform="translate(-149.236 -210.068)" fill="#ffcd69"/>
      </g>
      <g id="Grupo_1124165" data-name="Grupo 1124165" transform="translate(0 0)">
        <path id="Trazado_984490" data-name="Trazado 984490" d="M102.439,235.87v28a2.285,2.285,0,0,1-2.284,2.284H59.4a2.285,2.285,0,0,1-2.284-2.284v-28" transform="translate(-53.576 -210.071)" fill="none" stroke="#000" stroke-linecap="round" stroke-linejoin="round" stroke-miterlimit="10" stroke-width="2"/>
        <path id="Trazado_984491" data-name="Trazado 984491" d="M57.12,22.2V12.284A2.285,2.285,0,0,1,59.4,10h40.75a2.285,2.285,0,0,1,2.284,2.284V22.2" transform="translate(-53.576 -10)" fill="none" stroke="#000" stroke-linecap="round" stroke-linejoin="round" stroke-miterlimit="10" stroke-width="2"/>
        <path id="Trazado_984492" data-name="Trazado 984492" d="M133.3,235.87v24.573a1.143,1.143,0,0,1-1.142,1.142h-33.9a1.143,1.143,0,0,1-1.142-1.142V235.87" transform="translate(-89.007 -210.071)" fill="none" stroke="#000" stroke-linecap="round" stroke-linejoin="round" stroke-miterlimit="10" stroke-width="2"/>
        <path id="Trazado_984493" data-name="Trazado 984493" d="M97.12,57.627V51.142A1.143,1.143,0,0,1,98.262,50h33.9a1.143,1.143,0,0,1,1.142,1.142v6.484" transform="translate(-89.007 -45.431)" fill="none" stroke="#000" stroke-linecap="round" stroke-linejoin="round" stroke-miterlimit="10" stroke-width="2"/>
        <path id="Trazado_984494" data-name="Trazado 984494" d="M57.416,116.77H77.357a1.142,1.142,0,0,1,1.142,1.142v6.738a1.142,1.142,0,0,1-1.142,1.142H27.234a1.142,1.142,0,0,1-1.142-1.142v-6.738a1.142,1.142,0,0,1,1.142-1.142H47.155" transform="translate(-26.092 -104.575)" fill="none" stroke="#000" stroke-linecap="round" stroke-linejoin="round" stroke-miterlimit="10" stroke-width="2"/>
        <path id="Trazado_984495" data-name="Trazado 984495" d="M88.264,195.76H38.748V199.2a1.142,1.142,0,0,0,1.142,1.142H87.121a1.142,1.142,0,0,0,1.142-1.142Z" transform="translate(-37.302 -174.542)" fill="none" stroke="#000" stroke-linecap="round" stroke-linejoin="round" stroke-miterlimit="10" stroke-width="2"/>
        <path id="Trazado_984496" data-name="Trazado 984496" d="M165.115,235.867v11a2.581,2.581,0,1,0,5.162,0v6.243a2.581,2.581,0,0,0,2.581,2.581h0a2.581,2.581,0,0,0,2.581-2.581v-3.357a2.581,2.581,0,0,0,2.581,2.581h0a2.581,2.581,0,0,0,2.581-2.581v-4.189a2.581,2.581,0,0,0,5.162,0v-9.7" transform="translate(-149.236 -210.068)" fill="none" stroke="#000" stroke-linecap="round" stroke-linejoin="round" stroke-miterlimit="10" stroke-width="2"/>
        <line id="Línea_598" data-name="Línea 598" transform="translate(26.203 12.195)" fill="none" stroke="#000" stroke-linecap="round" stroke-linejoin="round" stroke-miterlimit="10" stroke-width="2"/>
      </g>
    </g>
  </g>
</svg>
