<svg xmlns="http://www.w3.org/2000/svg" width="97" height="97" viewBox="0 0 97 97">
  <g id="Grupo_1125743" data-name="Grupo 1125743" transform="translate(-407.051 -5352.374)">
    <rect id="Rectángulo_403103" data-name="Rectángulo 403103" width="97" height="97" rx="8" transform="translate(407.051 5352.374)" fill="#95dbb3"/>
    <g id="Layer_x0020_1" transform="translate(377.675 5363.374)">
      <path id="Trazado_986115" data-name="Trazado 986115" d="M55.244,20.274a1.428,1.428,0,0,1-1.428-1.428V7.4A1.406,1.406,0,0,0,51,7.415V18.846a1.428,1.428,0,1,1-2.855,0V10.782a1.406,1.406,0,1,0-2.813,0v28.5H65.163V33.207a1.426,1.426,0,0,1,.415-1.012l7.575-7.575a1.692,1.692,0,0,0,.5-1.2,1.668,1.668,0,0,0-.5-1.193,1.65,1.65,0,0,0-1.193-.5,1.692,1.692,0,0,0-1.2.5L67.6,25.377a1.43,1.43,0,0,1-2.44-1.012V8.885a1.406,1.406,0,1,0-2.813,0v9.961a1.433,1.433,0,0,1-2.866,0V4.272a1.4,1.4,0,1,0-2.8,0V18.846A1.437,1.437,0,0,1,55.244,20.274Zm45.63,55.484H81.26a1.428,1.428,0,0,1-1.428-1.428V67.139H75.827v7.191a1.43,1.43,0,0,1-1.438,1.428H54.775a1.424,1.424,0,0,1-1.119-.543l-6.286-7.98a1.418,1.418,0,0,1-.309-.884V58.563a1.407,1.407,0,0,1,.384-.969l5.156-5.54a1.454,1.454,0,0,1,1.044-.458H102a1.436,1.436,0,0,1,1.044.458l5.156,5.54a1.378,1.378,0,0,1,.384.969v7.788a1.474,1.474,0,0,1-.3.884L102,75.215A1.461,1.461,0,0,1,100.874,75.758ZM82.688,72.892h17.493l5.551-7.031V63.954h-4.2l-4.528,4.528a1.428,1.428,0,0,1-2.014-2.024l4.943-4.943a1.426,1.426,0,0,1,1.012-.415h4.783V59.128l-4.347-4.666H54.275l-4.357,4.666V61.1H54.7a1.426,1.426,0,0,1,1.012.415l4.954,4.943a1.428,1.428,0,0,1-1.012,2.44,1.418,1.418,0,0,1-1.012-.416l-4.528-4.528h-4.2v1.907l5.551,7.031H72.961V65.712a1.428,1.428,0,0,1,1.428-1.428H81.26a1.428,1.428,0,0,1,1.428,1.428Zm-.3-12.9H73.26a1.428,1.428,0,0,1,0-2.855h9.13a1.428,1.428,0,1,1,0,2.855Zm5.242-19.475V33.793l-7.159-7.159A4.55,4.55,0,0,1,86.907,20.2l.724.724V8.885a4.274,4.274,0,0,1,4.261-4.261,4.326,4.326,0,0,1,1.406.234V4.272a4.267,4.267,0,0,1,8.448-.852,4.352,4.352,0,0,1,1.492-.266,4.285,4.285,0,0,1,4.219,3.612,4.313,4.313,0,0,1,1.449-.256,4.269,4.269,0,0,1,4.261,4.272V40.516l2.056,7.585a1.436,1.436,0,0,1-1.385,1.811H86.96A1.436,1.436,0,0,1,85.586,48.1Zm2.855-1.236h19.826v-28.5a1.406,1.406,0,1,0-2.813,0v8.065a1.428,1.428,0,0,1-2.855,0V7.415a1.406,1.406,0,1,0-2.813,0V18.846a1.428,1.428,0,1,1-2.855,0V4.272a1.406,1.406,0,0,0-2.813,0V18.846a1.433,1.433,0,0,1-2.866,0V8.885a1.406,1.406,0,0,0-2.813,0v15.49a1.4,1.4,0,0,1-.874,1.31,1.429,1.429,0,0,1-1.566-.309l-3.153-3.153a1.685,1.685,0,0,0-2.4,0,1.658,1.658,0,0,0-.49,1.193,1.682,1.682,0,0,0,.49,1.2L90.071,32.2a1.426,1.426,0,0,1,.415,1.012Zm-1.662,7.767h23.15l-1.321-4.911h-20.5ZM42.481,40.516V10.782a4.269,4.269,0,0,1,4.261-4.272,4.424,4.424,0,0,1,1.46.256A4.266,4.266,0,0,1,53.9,3.42a4.267,4.267,0,0,1,8.448.852v.586a4.375,4.375,0,0,1,1.406-.234,4.274,4.274,0,0,1,4.261,4.261V20.924l.724-.724a4.55,4.55,0,0,1,6.435,6.435l-7.159,7.159v6.722l2.024,7.5a1.292,1.292,0,0,1,.075.458,1.437,1.437,0,0,1-1.428,1.438H41.81A1.436,1.436,0,0,1,40.425,48.1Zm1.193,6.531h23.15l-1.332-4.911H45.006Z" transform="translate(0 0)" fill-rule="evenodd"/>
      <path id="Trazado_986116" data-name="Trazado 986116" d="M515.908,286.408a1.428,1.428,0,0,1-1.428-1.428V273.538a1.406,1.406,0,0,0-2.813.011v11.431a1.428,1.428,0,1,1-2.855,0v-8.065a1.406,1.406,0,0,0-2.813,0v28.5h19.826v-6.073a1.426,1.426,0,0,1,.416-1.012l7.575-7.575a1.692,1.692,0,0,0,.5-1.2,1.668,1.668,0,0,0-.5-1.193,1.649,1.649,0,0,0-1.193-.5,1.692,1.692,0,0,0-1.2.5l-3.153,3.154a1.43,1.43,0,0,1-2.44-1.012v-15.48a1.406,1.406,0,1,0-2.813,0v9.961a1.433,1.433,0,0,1-2.866,0V270.406a1.4,1.4,0,1,0-2.8,0v14.574A1.437,1.437,0,0,1,515.908,286.408Z" transform="translate(-460.664 -266.134)" fill="#ffa721" fill-rule="evenodd"/>
      <path id="Trazado_986117" data-name="Trazado 986117" d="M3948.49,290.755l7.574,7.575a1.425,1.425,0,0,1,.416,1.012v6.073h19.827v-28.5a1.406,1.406,0,0,0-2.812,0v8.065a1.427,1.427,0,1,1-2.855,0V273.549a1.406,1.406,0,1,0-2.812,0v11.431a1.428,1.428,0,0,1-2.855,0V270.406a1.406,1.406,0,1,0-2.812,0v14.574a1.433,1.433,0,0,1-2.866,0v-9.961a1.406,1.406,0,0,0-2.813,0v15.49a1.4,1.4,0,0,1-.874,1.31,1.429,1.429,0,0,1-1.566-.309l-3.153-3.154a1.685,1.685,0,0,0-2.4,0,1.655,1.655,0,0,0-.49,1.193A1.68,1.68,0,0,0,3948.49,290.755Z" transform="translate(-3865.994 -266.134)" fill="#ffa721" fill-rule="evenodd"/>
      <path id="Trazado_986118" data-name="Trazado 986118" d="M4609.83,3955h-20.5l-1.332,4.911h23.15Z" transform="translate(-4499.175 -3912.865)" fill="#ff3131" fill-rule="evenodd"/>
      <path id="Trazado_986119" data-name="Trazado 986119" d="M373.15,3959.911,371.819,3955H351.332L350,3959.911Z" transform="translate(-306.326 -3912.865)" fill="#ff3131" fill-rule="evenodd"/>
      <path id="Trazado_986120" data-name="Trazado 986120" d="M987.468,5112H940.357L936,5116.667v1.971h4.783a1.427,1.427,0,0,1,1.012.416L946.75,5124a1.44,1.44,0,0,1,0,2.024,1.455,1.455,0,0,1-1.012.416,1.419,1.419,0,0,1-1.012-.416l-4.528-4.528H936v1.907l5.551,7.031h17.493v-7.18a1.428,1.428,0,0,1,1.428-1.428h6.872a1.428,1.428,0,0,1,1.428,1.428v7.18h17.493l5.551-7.031v-1.907h-4.2l-4.528,4.528a1.427,1.427,0,0,1-2.014-2.024l4.943-4.944a1.427,1.427,0,0,1,1.012-.416h4.784v-1.971Zm-19,5.529h-9.13a1.428,1.428,0,0,1,0-2.855h9.13a1.428,1.428,0,1,1,0,2.855Z" transform="translate(-886.083 -5057.539)" fill="#a7ffff" fill-rule="evenodd"/>
    </g>
  </g>
</svg>
