<svg xmlns="http://www.w3.org/2000/svg" xmlns:xlink="http://www.w3.org/1999/xlink" width="108.914" height="108.914" viewBox="0 0 108.914 108.914">
  <defs>
    <filter id="Trazado_874925" x="0" y="0" width="108.914" height="108.914" filterUnits="userSpaceOnUse">
      <feOffset dy="3" input="SourceAlpha"/>
      <feGaussianBlur stdDeviation="3" result="blur"/>
      <feFlood flood-opacity="0.161"/>
      <feComposite operator="in" in2="blur"/>
      <feComposite in="SourceGraphic"/>
    </filter>
  </defs>
  <g id="Grupo_1125656" data-name="Grupo 1125656" transform="translate(-1302 9940.012)">
    <g transform="matrix(1, 0, 0, 1, 1302, -9940.01)" filter="url(#Trazado_874925)">
      <g id="Trazado_874925-2" data-name="Trazado 874925" transform="translate(9 6)" fill="#ffd9ef" opacity="0.859">
        <path d="M 45.45676803588867 89.41407012939453 C 39.52198028564453 89.41407012939453 33.76551818847656 88.25206756591797 28.34726715087891 85.96034240722656 C 23.11311721801758 83.74648284912109 18.41204261779785 80.57682800292969 14.37464332580566 76.5394287109375 C 10.33724308013916 72.50202941894531 7.167593002319336 67.80095672607422 4.953730583190918 62.56679534912109 C 2.662005424499512 57.14855575561523 1.500005483627319 51.39208221435547 1.500005483627319 45.45729446411133 C 1.500005483627319 39.52198028564453 2.662005424499512 33.76551818847656 4.953730583190918 28.34726905822754 C 7.167593002319336 23.11310577392578 10.33724308013916 18.41203117370605 14.37464332580566 14.37464332580566 C 18.41204261779785 10.33724403381348 23.11311721801758 7.167593955993652 28.34726715087891 4.953731060028076 C 33.76551818847656 2.662006139755249 39.52198028564453 1.500006198883057 45.45676803588867 1.500006198883057 C 51.39155578613281 1.500006198883057 57.14802932739258 2.662006139755249 62.56626892089844 4.953731060028076 C 67.80043029785156 7.167593955993652 72.50150299072266 10.33724403381348 76.53890228271484 14.37464332580566 C 80.57630920410156 18.41203117370605 83.74595642089844 23.11310577392578 85.95981597900391 28.34726905822754 C 88.25154113769531 33.76551818847656 89.41354370117188 39.52198028564453 89.41354370117188 45.45676803588867 C 89.41354370117188 51.39208221435547 88.25154113769531 57.14855575561523 85.95981597900391 62.56679534912109 C 83.74595642089844 67.80095672607422 80.57630920410156 72.50202941894531 76.53890228271484 76.5394287109375 C 72.50150299072266 80.57682800292969 67.80043029785156 83.74648284912109 62.56626892089844 85.96034240722656 C 57.14802932739258 88.25206756591797 51.39155578613281 89.41407012939453 45.45676803588867 89.41407012939453 Z" stroke="none"/>
        <path d="M 45.45676803588867 3 C 39.72381210327148 3 34.1639404296875 4.12213134765625 28.93159484863281 6.335227966308594 C 23.87622833251953 8.473472595214844 19.33542633056641 11.53517150878906 15.43529510498047 15.435302734375 C 11.53517150878906 19.33543395996094 8.473464965820312 23.87622833251953 6.335227966308594 28.93160247802734 C 4.122123718261719 34.16394424438477 3 39.72381591796875 3 45.4572868347168 C 3 51.19024658203125 4.122123718261719 56.75011825561523 6.335227966308594 61.98246002197266 C 8.473464965820312 67.03782653808594 11.53517150878906 71.57862854003906 15.43529510498047 75.478759765625 C 19.33542633056641 79.37889099121094 23.87622833251953 82.44058990478516 28.93159484863281 84.57883453369141 C 34.1639404296875 86.79193115234375 39.72381210327148 87.9140625 45.45676803588867 87.9140625 C 51.18972396850586 87.9140625 56.74959564208984 86.79193115234375 61.98194122314453 84.57883453369141 C 67.03730773925781 82.44058990478516 71.57810974121094 79.37889099121094 75.47824096679688 75.478759765625 C 79.37837219238281 71.57862854003906 82.44007110595703 67.03782653808594 84.57830810546875 61.98246002197266 C 86.79141235351562 56.75011825561523 87.91353607177734 51.19024658203125 87.91353607177734 45.4567756652832 C 87.91353607177734 39.72381591796875 86.79141235351562 34.16394424438477 84.57830810546875 28.93160247802734 C 82.44007110595703 23.87622833251953 79.37837219238281 19.33543395996094 75.47824096679688 15.435302734375 C 71.57810974121094 11.53517150878906 67.03730773925781 8.473472595214844 61.98194122314453 6.335227966308594 C 56.74959564208984 4.12213134765625 51.18972396850586 3 45.45676803588867 3 M 45.45676803588867 0 C 70.56185150146484 0 90.91353607177734 20.35169219970703 90.91353607177734 45.4567756652832 L 90.91353607177734 45.4572868347168 C 90.91353607177734 70.5623779296875 70.56185150146484 90.9140625 45.45676803588867 90.9140625 C 20.3516845703125 90.9140625 0 70.5623779296875 0 45.4572868347168 L 0 45.4567756652832 C 0 20.35169219970703 20.3516845703125 0 45.45676803588867 0 Z" stroke="none" fill="#fff"/>
      </g>
    </g>
    <g id="Grupo_1125655" data-name="Grupo 1125655" transform="translate(1325.25 -9920.555)">
      <rect id="Rectángulo_415743" data-name="Rectángulo 415743" width="4" height="4" rx="2" transform="translate(5 20)" fill="#5f646e"/>
      <path id="Trazado_986355" data-name="Trazado 986355" d="M4,4V14a3,3,0,0,0,6,0V12.5a2.5,2.5,0,0,1,5,0V13a2,2,0,0,0,4,0V8.5a2,2,0,0,1,4,0,2.5,2.5,0,0,0,5,0V4Z" fill="#5f646e"/>
      <path id="Trazado_986356" data-name="Trazado 986356" d="M37.728,12.743,9.876,32.244a4,4,0,0,0-.982,5.571L23.234,58.294a4,4,0,0,0,5.571.982L58.294,38.627a4,4,0,0,0,.982-5.571L42.642,9.3a5,5,0,0,0-6.964-1.228L6.189,28.722a2.5,2.5,0,1,0,2.868,4.1l4.915-3.441" fill="#f0f4fa"/>
      <g id="Grupo_1125654" data-name="Grupo 1125654">
        <path id="Trazado_986357" data-name="Trazado 986357" d="M51.941,32.226l5.736,8.192A6,6,0,0,1,56.2,48.774l-12,8.4A8,8,0,0,1,38.228,58.5l-8.416-1.484a3.115,3.115,0,0,1-2.625-3.345,3,3,0,0,1,3.5-2.593l5.938,1.047-4.31-6.156" fill="#f5c939"/>
        <path id="Trazado_986358" data-name="Trazado 986358" d="M51.941,32.226l-4.027-5.75a2.98,2.98,0,0,0-4.882,3.418l4.027,5.75" fill="#f5c939"/>
        <path id="Trazado_986359" data-name="Trazado 986359" d="M47.026,35.668,39.558,25a2.98,2.98,0,1,0-4.882,3.418l7.468,10.665" fill="#f5c939"/>
        <path id="Trazado_986360" data-name="Trazado 986360" d="M42.111,39.109,34.643,28.444a2.98,2.98,0,1,0-4.882,3.418l7.468,10.665" fill="#f5c939"/>
        <path id="Trazado_986361" data-name="Trazado 986361" d="M37.2,42.551l-5.174-7.389a2.98,2.98,0,1,0-4.882,3.418l5.174,7.389" fill="#f5c939"/>
      </g>
      <path id="Trazado_986362" data-name="Trazado 986362" d="M7,25a3,3,0,1,0-3-3A3,3,0,0,0,7,25Zm0-4a1,1,0,1,1-1,1A1,1,0,0,1,7,21Z"/>
      <path id="Trazado_986363" data-name="Trazado 986363" d="M7,18a4,4,0,0,0,4-4V12.5a1.5,1.5,0,0,1,3,0V13a3,3,0,0,0,6,0V8.5a1,1,0,0,1,2,0,3.5,3.5,0,0,0,7,0V4a1,1,0,0,0-1-1H4A1,1,0,0,0,3,4V14A4,4,0,0,0,7,18ZM5,5H27V8.5a1.5,1.5,0,1,1-3,0,3,3,0,1,0-6,0V13a1,1,0,0,1-2,0v-.5a3.5,3.5,0,1,0-7,0V14a2,2,0,0,1-4,0Z"/>
      <path id="Trazado_986364" data-name="Trazado 986364" d="M60.1,32.484,43.463,8.729a6.008,6.008,0,0,0-8.357-1.474L5.617,27.9a3.5,3.5,0,0,0,1.4,6.315c.106.018.213.032.32.041a4.991,4.991,0,0,0,.739,4.131L22.415,58.868A5.005,5.005,0,0,0,29.379,60.1l2.4-1.683,6.077,1.071a9.057,9.057,0,0,0,1.583.14A8.937,8.937,0,0,0,44.584,58l12.03-8.424a7,7,0,0,0,1.72-9.749l.535-.375A5.006,5.006,0,0,0,60.1,32.484ZM57.523,44.705a4.966,4.966,0,0,1-2.057,3.228l-12.03,8.424a6.939,6.939,0,0,1-5.23,1.16l-8.416-1.483a2.119,2.119,0,0,1-1.806-2.239,2,2,0,0,1,2.333-1.73l5.938,1.047a1,1,0,0,0,.993-1.558L27.776,38.024a2,2,0,1,1,3.275-2.3L36.214,43.1a1,1,0,1,0,1.639-1.147L30.4,31.307a2,2,0,1,1,3.276-2.295L41.129,39.66a1,1,0,1,0,1.639-1.147L35.311,27.865a2,2,0,1,1,3.276-2.3l7.457,10.648a1,1,0,1,0,1.639-1.147l-4.017-5.736a2,2,0,1,1,3.277-2.293l9.751,13.925a4.969,4.969,0,0,1,.829,3.737Zm.2-6.9-.535.374L48.582,25.9a3.976,3.976,0,0,0-6.892.617l-1.464-2.091a3.982,3.982,0,0,0-7.235,1.869c-.088-.022-.171-.057-.262-.073a4,4,0,0,0-3.972,6.233l.318.454a3.986,3.986,0,0,0-2.938,6.264l8.088,11.551-3.561-.627A4,4,0,0,0,26,53.55a4.054,4.054,0,0,0,3.041,4.342l-.808.566a3,3,0,0,1-4.179-.736L9.714,37.243a3,3,0,0,1,.737-4.179L38.3,13.563a1,1,0,1,0-1.147-1.639L8.484,32a1.5,1.5,0,1,1-1.72-2.457L36.253,8.894a4,4,0,0,1,5.571.981L58.458,33.631a3,3,0,0,1-.737,4.179Z"/>
    </g>
  </g>
</svg>
