<svg xmlns="http://www.w3.org/2000/svg" width="87" height="87" viewBox="0 0 87 87">
  <g id="Grupo_1124234" data-name="Grupo 1124234" transform="translate(-279.051 -3476)">
    <g id="Grupo_1124191" data-name="Grupo 1124191" transform="translate(291.051 3488)">
      <g id="Grupo_1124189" data-name="Grupo 1124189">
        <g id="Grupo_1124182" data-name="Grupo 1124182">
          <path id="Trazado_984507" data-name="Trazado 984507" d="M60,10H50v2H44V10H20v2H14V10H4a2.006,2.006,0,0,0-2,2V52a2.006,2.006,0,0,0,2,2H14V52h6v2H44V52h6v2H60a2.006,2.006,0,0,0,2-2V12A2.006,2.006,0,0,0,60,10Z" fill="#5cd6b3"/>
        </g>
        <g id="Grupo_1124183" data-name="Grupo 1124183">
          <path id="Trazado_984508" data-name="Trazado 984508" d="M38,26V38H26V26Z" fill="#ffc729"/>
        </g>
        <g id="Grupo_1124184" data-name="Grupo 1124184">
          <path id="Trazado_984509" data-name="Trazado 984509" d="M30,30h4v4H30Z" fill="#fcd770"/>
        </g>
        <g id="Grupo_1124185" data-name="Grupo 1124185">
          <circle id="Elipse_12040" data-name="Elipse 12040" cx="2" cy="2" r="2" transform="translate(54 46)" fill="#ff826e"/>
        </g>
        <g id="Grupo_1124186" data-name="Grupo 1124186">
          <circle id="Elipse_12041" data-name="Elipse 12041" cx="2" cy="2" r="2" transform="translate(6 46)" fill="#ff826e"/>
        </g>
        <g id="Grupo_1124187" data-name="Grupo 1124187">
          <circle id="Elipse_12042" data-name="Elipse 12042" cx="2" cy="2" r="2" transform="translate(6 14)" fill="#ff826e"/>
        </g>
        <g id="Grupo_1124188" data-name="Grupo 1124188">
          <circle id="Elipse_12043" data-name="Elipse 12043" cx="2" cy="2" r="2" transform="translate(54 14)" fill="#ff826e"/>
        </g>
      </g>
      <g id="Grupo_1124190" data-name="Grupo 1124190">
        <path id="Trazado_984510" data-name="Trazado 984510" d="M60,9H49v2H45V9H19v2H15V9H4a3,3,0,0,0-3,3V52a3,3,0,0,0,3,3H15V53h4v2H45V53h4v2H60a3,3,0,0,0,3-3V12A3,3,0,0,0,60,9Zm1,43a1,1,0,0,1-1,1H51V51H43v2H21V51H13v2H4a1,1,0,0,1-1-1V12a1,1,0,0,1,1-1h9v2h8V11H43v2h8V11h9a1,1,0,0,1,1,1Z"/>
        <path id="Trazado_984511" data-name="Trazado 984511" d="M29,35h6V29H29Zm2-4h2v2H31Z"/>
        <path id="Trazado_984512" data-name="Trazado 984512" d="M25,39H39V25H25Zm2-12H37V37H27Z"/>
        <path id="Trazado_984513" data-name="Trazado 984513" d="M25,13h2v2H25Z"/>
        <path id="Trazado_984514" data-name="Trazado 984514" d="M25,17h2v6H25Z"/>
        <path id="Trazado_984515" data-name="Trazado 984515" d="M29,13h2v2H29Z"/>
        <path id="Trazado_984516" data-name="Trazado 984516" d="M29,17h2v6H29Z"/>
        <path id="Trazado_984517" data-name="Trazado 984517" d="M33,13h2v2H33Z"/>
        <path id="Trazado_984518" data-name="Trazado 984518" d="M33,17h2v6H33Z"/>
        <path id="Trazado_984519" data-name="Trazado 984519" d="M37,13h2v2H37Z"/>
        <path id="Trazado_984520" data-name="Trazado 984520" d="M37,17h2v6H37Z"/>
        <path id="Trazado_984521" data-name="Trazado 984521" d="M37,49h2v2H37Z"/>
        <path id="Trazado_984522" data-name="Trazado 984522" d="M37,41h2v6H37Z"/>
        <path id="Trazado_984523" data-name="Trazado 984523" d="M33,49h2v2H33Z"/>
        <path id="Trazado_984524" data-name="Trazado 984524" d="M33,41h2v6H33Z"/>
        <path id="Trazado_984525" data-name="Trazado 984525" d="M29,49h2v2H29Z"/>
        <path id="Trazado_984526" data-name="Trazado 984526" d="M29,41h2v6H29Z"/>
        <path id="Trazado_984527" data-name="Trazado 984527" d="M25,49h2v2H25Z"/>
        <path id="Trazado_984528" data-name="Trazado 984528" d="M25,41h2v6H25Z"/>
        <path id="Trazado_984529" data-name="Trazado 984529" d="M49,25h2v2H49Z"/>
        <path id="Trazado_984530" data-name="Trazado 984530" d="M41,25h6v2H41Z"/>
        <path id="Trazado_984531" data-name="Trazado 984531" d="M49,29h2v2H49Z"/>
        <path id="Trazado_984532" data-name="Trazado 984532" d="M41,29h6v2H41Z"/>
        <path id="Trazado_984533" data-name="Trazado 984533" d="M49,33h2v2H49Z"/>
        <path id="Trazado_984534" data-name="Trazado 984534" d="M41,33h6v2H41Z"/>
        <path id="Trazado_984535" data-name="Trazado 984535" d="M49,37h2v2H49Z"/>
        <path id="Trazado_984536" data-name="Trazado 984536" d="M41,37h6v2H41Z"/>
        <path id="Trazado_984537" data-name="Trazado 984537" d="M13,25h2v2H13Z"/>
        <path id="Trazado_984538" data-name="Trazado 984538" d="M17,25h6v2H17Z"/>
        <path id="Trazado_984539" data-name="Trazado 984539" d="M13,29h2v2H13Z"/>
        <path id="Trazado_984540" data-name="Trazado 984540" d="M17,29h6v2H17Z"/>
        <path id="Trazado_984541" data-name="Trazado 984541" d="M13,33h2v2H13Z"/>
        <path id="Trazado_984542" data-name="Trazado 984542" d="M17,33h6v2H17Z"/>
        <path id="Trazado_984543" data-name="Trazado 984543" d="M13,37h2v2H13Z"/>
        <path id="Trazado_984544" data-name="Trazado 984544" d="M17,37h6v2H17Z"/>
        <path id="Trazado_984545" data-name="Trazado 984545" d="M56,13a3,3,0,1,0,3,3A3,3,0,0,0,56,13Zm0,4a1,1,0,1,1,1-1A1,1,0,0,1,56,17Z"/>
        <path id="Trazado_984546" data-name="Trazado 984546" d="M8,13a3,3,0,1,0,3,3A3,3,0,0,0,8,13Zm0,4a1,1,0,1,1,1-1A1,1,0,0,1,8,17Z"/>
        <path id="Trazado_984547" data-name="Trazado 984547" d="M8,45a3,3,0,1,0,3,3A3,3,0,0,0,8,45Zm0,4a1,1,0,1,1,1-1A1,1,0,0,1,8,49Z"/>
        <path id="Trazado_984548" data-name="Trazado 984548" d="M56,45a3,3,0,1,0,3,3A3,3,0,0,0,56,45Zm0,4a1,1,0,1,1,1-1A1,1,0,0,1,56,49Z"/>
        <path id="Trazado_984549" data-name="Trazado 984549" d="M7,21H9V43H7Z"/>
        <path id="Trazado_984550" data-name="Trazado 984550" d="M55,21h2V43H55Z"/>
      </g>
    </g>
    <rect id="Rectángulo_415435" data-name="Rectángulo 415435" width="87" height="87" transform="translate(279.051 3476)" fill="none"/>
  </g>
</svg>
