<svg xmlns="http://www.w3.org/2000/svg" width="97" height="97" viewBox="0 0 97 97">
  <g id="Grupo_1125592" data-name="Grupo 1125592" transform="translate(-407.051 -5432)">
    <rect id="Rectángulo_403105" data-name="Rectángulo 403105" width="97" height="97" rx="8" transform="translate(407.051 5432)" fill="#95dbb3"/>
    <g id="Grupo_1125591" data-name="Grupo 1125591" transform="translate(422.717 5446.667)">
      <circle id="Elipse_12088" data-name="Elipse 12088" cx="32.357" cy="32.357" r="32.357" transform="translate(0.977 0.977)" fill="#ffc344"/>
      <path id="Trazado_986121" data-name="Trazado 986121" d="M154.243,24.511a32.366,32.366,0,0,1-28.788,57.68,32.363,32.363,0,1,0,28.788-57.68Z" transform="translate(-109.12 -21.319)" fill="#feb237"/>
      <path id="Trazado_986122" data-name="Trazado 986122" d="M187.006,80.343A4.251,4.251,0,0,0,181.2,81.9l-.905,1.568V68.635a2.7,2.7,0,0,0-5.39,0V65.417a2.7,2.7,0,0,0-5.39,0v3.218a2.7,2.7,0,0,0-2.771-2.694,2.732,2.732,0,0,0-2.619,2.75v3.545a2.7,2.7,0,0,0-5.39,0V91.364a10.734,10.734,0,0,0,2.264,6.61,6.47,6.47,0,0,1,1.351,3.971v9.2a.122.122,0,0,0,.122.122h14.088a.122.122,0,0,0,.122-.122v-9.206a6.419,6.419,0,0,1,1.337-3.952,10.79,10.79,0,0,0,1-1.526L187.421,81.9a1.138,1.138,0,0,0-.414-1.555Z" transform="translate(-138.062 -54.555)" fill="#ffeee6"/>
      <ellipse id="Elipse_12089" data-name="Elipse 12089" cx="11.684" cy="7.79" rx="11.684" ry="7.79" transform="translate(42.322 50.111)" fill="#fdf6ec"/>
      <path id="Trazado_986123" data-name="Trazado 986123" d="M366.909,386.751a18.3,18.3,0,0,1,4.176,4.938c0-.018-4.125,7.79-11.684,7.79a10.768,10.768,0,0,1-2.3-.247,11.826,11.826,0,0,0,7.508,2.852c7.559,0,11.684-7.808,11.684-7.79S373,388.08,366.909,386.751Z" transform="translate(-310.603 -336.393)" fill="#fef1da"/>
      <circle id="Elipse_12090" data-name="Elipse 12090" cx="4.794" cy="4.794" r="4.794" transform="translate(49.212 53.107)" fill="#537983"/>
      <path id="Trazado_986124" data-name="Trazado 986124" d="M404.516,448.333a4.794,4.794,0,0,0,4.794-4.794q0-.086,0-.17a14.993,14.993,0,0,1-6.325,4.713A4.787,4.787,0,0,0,404.516,448.333Z" transform="translate(-350.51 -385.638)" fill="#3e5959"/>
      <path id="Trazado_986125" data-name="Trazado 986125" d="M173.769,68.378a.977.977,0,0,0,.977-.977V62.111a3.671,3.671,0,0,0-5.39-3.244,3.672,3.672,0,0,0-7.343,0,3.652,3.652,0,0,0-1.821-.423,3.725,3.725,0,0,0-3.569,3.726v.3a3.671,3.671,0,0,0-5.39,3.244V84.84A11.644,11.644,0,0,0,153.7,92.05a5.517,5.517,0,0,1,1.145,3.372v9.206a1.1,1.1,0,0,0,1.1,1.1h14.088a1.1,1.1,0,0,0,1.1-1.1V95.42a5.465,5.465,0,0,1,1.13-3.352,11.809,11.809,0,0,0,1.079-1.651l8.4-14.556a2.117,2.117,0,0,0-.772-2.889,5.235,5.235,0,0,0-6.227.741V71.959a.977.977,0,1,0-1.953,0v4.72L171.3,79.266a6.37,6.37,0,0,0-7.335,10.212.977.977,0,1,0,1.381-1.381,4.416,4.416,0,0,1,5.725-6.691.977.977,0,0,0,1.422-.3l3.028-5.244a3.274,3.274,0,0,1,4.475-1.2.162.162,0,0,1,.058.221c-8.677,15.029-8.414,14.573-8.425,14.594a9.843,9.843,0,0,1-.906,1.388,7.425,7.425,0,0,0-1.543,4.553v8.352H156.8v-8.35a7.48,7.48,0,0,0-1.556-4.571,9.708,9.708,0,0,1-2.058-6.011V65.712a1.719,1.719,0,0,1,3.437,0v7.651a.977.977,0,0,0,1.953,0v-11.2a1.759,1.759,0,0,1,1.67-1.774,1.719,1.719,0,0,1,1.768,1.718V73.362a.977.977,0,1,0,1.953,0V58.893a1.719,1.719,0,0,1,3.437,0v14.47a.977.977,0,0,0,1.953,0V62.111a1.719,1.719,0,0,1,3.437,0V67.4A.976.976,0,0,0,173.769,68.378Z" transform="translate(-131.539 -48.031)"/>
      <path id="Trazado_986126" data-name="Trazado 986126" d="M66.526,57.394a18.99,18.99,0,0,0-5.261-5.862A33.337,33.337,0,0,0,13.885,6.259a.977.977,0,0,0,1.141,1.585A31.385,31.385,0,0,1,59.6,50.516a11.971,11.971,0,0,0-11.443.151l-.8-.8a.977.977,0,1,0-1.381,1.381l.5.5q-.118.087-.235.177a.977.977,0,0,0,1.191,1.548q.22-.169.443-.327L49.3,54.571a5.768,5.768,0,0,0,8.04,8.04L58.4,63.678a10,10,0,0,1-4.4,1.035c-5.8,0-9.5-5.141-10.548-6.815.213-.342.516-.8.914-1.319A.977.977,0,0,0,42.819,55.4a18.146,18.146,0,0,0-1.335,2,.977.977,0,0,0,0,1,19.546,19.546,0,0,0,3.245,4.179A31.4,31.4,0,0,1,1.953,33.333a31.113,31.113,0,0,1,9.681-22.669.977.977,0,0,0-1.351-1.411,33.341,33.341,0,0,0,36.11,54.757,12.574,12.574,0,0,0,7.613,2.656,12.109,12.109,0,0,0,5.86-1.525l.49.49a.977.977,0,0,0,1.381-1.381l-.188-.188a19.1,19.1,0,0,0,4.976-5.656l0-.005a.977.977,0,0,0,0-1Zm-12.52,4.323a3.816,3.816,0,0,1-3.3-5.735L55.924,61.2A3.8,3.8,0,0,1,54.006,61.718Zm3.3-1.9L52.088,54.6a3.816,3.816,0,0,1,5.217,5.217Zm2.83,2.83L58.716,61.23a5.768,5.768,0,0,0-8.04-8.04L49.6,52.117a10.022,10.022,0,0,1,4.4-1.03c5.8,0,9.5,5.137,10.547,6.813a17.255,17.255,0,0,1-4.418,4.748Z" transform="translate(0)"/>
    </g>
  </g>
</svg>
