<svg xmlns="http://www.w3.org/2000/svg" width="87" height="87" viewBox="0 0 87 87">
  <g id="Grupo_1124235" data-name="Grupo 1124235" transform="translate(-606.051 -3476)">
    <g id="Grupo_1124213" data-name="Grupo 1124213" transform="translate(553.401 3452.42)">
      <g id="Grupo_1124192" data-name="Grupo 1124192" transform="translate(81.522 39.813)">
        <path id="Trazado_984551" data-name="Trazado 984551" d="M156.644,84.005l15.1-15.1h-5.882L153.7,81.065a2.08,2.08,0,1,0,2.942,2.94Z" transform="translate(-153.092 -68.91)" fill="#dffcff" fill-rule="evenodd"/>
      </g>
      <g id="Grupo_1124193" data-name="Grupo 1124193" transform="translate(73.881 75.617)">
        <path id="Trazado_984552" data-name="Trazado 984552" d="M113.668,304.412a2.078,2.078,0,0,0-2.94,0l-7.757,7.757v5.881l10.7-10.7a2.079,2.079,0,0,0,0-2.939Z" transform="translate(-102.97 -303.802)" fill="#dffcff" fill-rule="evenodd"/>
      </g>
      <g id="Grupo_1124194" data-name="Grupo 1124194" transform="translate(110.983 47.54)">
        <path id="Trazado_984553" data-name="Trazado 984553" d="M346.37,130.534l2.942,2.94,7.993-7.993V119.6Z" transform="translate(-346.37 -119.6)" fill="#dffcff" fill-rule="evenodd"/>
      </g>
      <g id="Grupo_1124195" data-name="Grupo 1124195" transform="translate(111.012 35.458)">
        <path id="Trazado_984554" data-name="Trazado 984554" d="M349.374,46.234l1.54,2.814,1.54-2.814,2.815-1.54-2.815-1.54-1.54-2.815-1.54,2.815-2.814,1.54Z" transform="translate(-346.56 -40.34)" fill="#ffc107" fill-rule="evenodd"/>
      </g>
      <g id="Grupo_1124196" data-name="Grupo 1124196" transform="translate(69.528 65.976)">
        <path id="Trazado_984555" data-name="Trazado 984555" d="M83.118,244.9l-2.815-1.54-1.54-2.814-1.54,2.814L74.41,244.9l2.814,1.54,1.54,2.815,1.54-2.815Z" transform="translate(-74.41 -240.55)" fill="#ffc107" fill-rule="evenodd"/>
      </g>
      <g id="Grupo_1124197" data-name="Grupo 1124197" transform="translate(94.264 60.213)">
        <path id="Trazado_984556" data-name="Trazado 984556" d="M237.108,209.5l7.827,7.827-3.454-2.4a1.638,1.638,0,0,0-2.091.184,1.7,1.7,0,0,0-.187.224,1.635,1.635,0,0,0,.409,2.277l5.276,4.372a7.379,7.379,0,1,0,10.435-10.435l-8.39-8.39a1.429,1.429,0,0,0-2.021,2.021l-1.759-1.759a1.43,1.43,0,0,0-2.023,2.021l-.957-.957a1.429,1.429,0,0,0-2.021,2.021l.974.974a1.427,1.427,0,1,0-2.017,2.02Z" transform="translate(-236.69 -202.745)" fill="#f9c5b8" fill-rule="evenodd"/>
      </g>
      <g id="Grupo_1124198" data-name="Grupo 1124198" transform="translate(83.076 50.105)">
        <path id="Trazado_984557" data-name="Trazado 984557" d="M182.674,165.78l-5.276-4.372a1.635,1.635,0,0,1-.409-2.277,1.589,1.589,0,0,1,.188-.224,1.638,1.638,0,0,1,2.091-.184l3.454,2.4L174.9,153.3a1.428,1.428,0,1,1,2.02-2.02l-.974-.974a1.429,1.429,0,0,1,2.021-2.021l.957.957a1.43,1.43,0,0,1,2.023-2.021l1.759,1.759a1.429,1.429,0,1,1,2.021-2.021l8.39,8.39a7.339,7.339,0,0,1,1.982,3.6l3.209-3.209a2.713,2.713,0,0,0,0-3.837l-4.163-4.163-2.942-2.94-7.573-7.573a2.713,2.713,0,0,0-3.837,0l-15.706,15.706a2.713,2.713,0,0,0,0,3.837l14.676,14.676a2.713,2.713,0,0,0,3.837,0l3.678-3.678a7.341,7.341,0,0,1-3.6-1.983Z" transform="translate(-163.288 -136.428)" fill="#fe715f" fill-rule="evenodd"/>
      </g>
      <g id="Grupo_1124199" data-name="Grupo 1124199" transform="translate(73.881 39.811)">
        <path id="Trazado_984558" data-name="Trazado 984558" d="M127.635,114.207,112.959,99.531a2.713,2.713,0,0,1,0-3.837l15.7-15.7a2.713,2.713,0,0,1,3.837,0l7.573,7.573,10.935-10.934V68.9h-2.2l-2.815,1.54-1.54,2.814-1.54-2.814L140.1,68.9H129.256L114.161,84a2.08,2.08,0,0,1-2.942-2.942L123.374,68.9h-20.4V95.063l1.54,2.814,2.815,1.54-2.815,1.54-1.54,2.815v9.3l7.757-7.757a2.079,2.079,0,0,1,2.94,2.94l-10.7,10.7v8.516h48.037V82.509L143.013,90.5l4.163,4.163a2.713,2.713,0,0,1,0,3.837l-3.209,3.209a7.379,7.379,0,0,1-8.818,8.818l-3.678,3.678a2.713,2.713,0,0,1-3.837,0Z" transform="translate(-102.97 -68.9)" fill="#b5fcff" fill-rule="evenodd"/>
      </g>
      <g id="Grupo_1124212" data-name="Grupo 1124212" transform="translate(68.65 34.58)">
        <g id="Grupo_1124200" data-name="Grupo 1124200" transform="translate(4.353 4.355)">
          <path id="Trazado_984559" data-name="Trazado 984559" d="M98.088,91.071a.878.878,0,0,1-.878-.878V64.028a.878.878,0,0,1,.878-.878H135.22a.878.878,0,0,1,0,1.756H98.966V90.193A.878.878,0,0,1,98.088,91.071Z" transform="translate(-97.21 -63.15)"/>
        </g>
        <g id="Grupo_1124201" data-name="Grupo 1124201" transform="translate(4.353 4.355)">
          <path id="Trazado_984560" data-name="Trazado 984560" d="M146.125,123.474H98.088a.878.878,0,0,1-.878-.878V98.9a.878.878,0,0,1,1.756,0v22.819h46.281V64.906h-1.32a.878.878,0,0,1,0-1.756h2.2a.878.878,0,0,1,.878.878V122.6a.878.878,0,0,1-.878.878Z" transform="translate(-97.21 -63.15)"/>
        </g>
        <g id="Grupo_1124202" data-name="Grupo 1124202" transform="translate(25.783 26.085)">
          <path id="Trazado_984561" data-name="Trazado 984561" d="M247.891,218.7a.871.871,0,0,1-.62-.258l-8.8-8.8a2.307,2.307,0,0,1,3.262-3.262l8.8,8.8a.878.878,0,1,1-1.242,1.242l-8.8-8.8a.551.551,0,0,0-.779.779l8.8,8.8a.877.877,0,0,1-.62,1.5Z" transform="translate(-237.795 -205.705)"/>
        </g>
        <g id="Grupo_1124203" data-name="Grupo 1124203" transform="translate(24.735 24.759)">
          <path id="Trazado_984562" data-name="Trazado 984562" d="M245.215,220.167a8.2,8.2,0,0,1-5.809-2.389l-5.219-4.326a2.517,2.517,0,0,1-.595-3.475,2.593,2.593,0,0,1,.287-.343,2.506,2.506,0,0,1,1.381-.7l-3.664-3.664a2.305,2.305,0,1,1,3.26-3.26.878.878,0,1,1-1.242,1.242.55.55,0,1,0-.777.777l7.827,7.827a.878.878,0,0,1-1.122,1.341l-3.454-2.4a.758.758,0,0,0-.969.084.846.846,0,0,0-.088.105.759.759,0,0,0,.189,1.055c.02.014.04.029.058.044l5.276,4.372c.021.017.041.037.061.055a6.5,6.5,0,1,0,9.193-9.193l-8.39-8.39a.566.566,0,0,0-.779,0,.552.552,0,0,0,0,.78.878.878,0,0,1-1.242,1.242,2.307,2.307,0,0,1,3.262-3.262l8.4,8.387a8.257,8.257,0,0,1-5.838,14.1Z" transform="translate(-230.92 -197.01)"/>
        </g>
        <g id="Grupo_1124204" data-name="Grupo 1124204" transform="translate(28.76 25.02)">
          <path id="Trazado_984563" data-name="Trazado 984563" d="M268.471,208.721a.871.871,0,0,1-.62-.258l-7.827-7.827a.566.566,0,0,0-.779,0,.553.553,0,0,0,0,.78A.878.878,0,0,1,258,202.659a2.308,2.308,0,0,1,3.263-3.264l7.827,7.827a.877.877,0,0,1-.62,1.5Z" transform="translate(-257.326 -198.72)"/>
        </g>
        <g id="Grupo_1124205" data-name="Grupo 1124205" transform="translate(13.546 14.647)">
          <path id="Trazado_984564" data-name="Trazado 984564" d="M175.787,168.233a3.569,3.569,0,0,1-2.539-1.052l-14.676-14.676a3.592,3.592,0,0,1,0-5.079l15.7-15.7a3.592,3.592,0,0,1,5.079,0L194.031,146.4a3.592,3.592,0,0,1,0,5.079l-3.209,3.209a.878.878,0,1,1-1.242-1.242l3.209-3.209a1.833,1.833,0,0,0,0-2.594l-14.677-14.676a1.839,1.839,0,0,0-2.6,0l-15.7,15.7a1.833,1.833,0,0,0,0,2.594l14.676,14.676a1.833,1.833,0,0,0,2.594,0l3.678-3.678A.878.878,0,0,1,182,163.5l-3.678,3.678a3.566,3.566,0,0,1-2.539,1.052Z" transform="translate(-157.52 -130.67)"/>
        </g>
        <g id="Grupo_1124206" data-name="Grupo 1124206" transform="translate(0 30.518)">
          <path id="Trazado_984565" data-name="Trazado 984565" d="M73.881,245.254a.876.876,0,0,1-.77-.457l-1.416-2.59-2.588-1.416a.877.877,0,0,1,0-1.54l2.588-1.416,1.416-2.588a.877.877,0,0,1,1.54,0l1.416,2.588,2.59,1.416a.877.877,0,0,1,0,1.54l-2.59,1.416-1.416,2.59A.876.876,0,0,1,73.881,245.254Zm-2.524-5.233,1.405.77a.874.874,0,0,1,.349.349l.77,1.407.77-1.407a.874.874,0,0,1,.349-.349l1.407-.77L75,239.253a.874.874,0,0,1-.349-.349l-.77-1.405-.77,1.405a.874.874,0,0,1-.349.349Z" transform="translate(-68.65 -234.79)"/>
        </g>
        <g id="Grupo_1124207" data-name="Grupo 1124207" transform="translate(41.484 0)">
          <path id="Trazado_984566" data-name="Trazado 984566" d="M346.031,45.044a.876.876,0,0,1-.77-.457L343.846,42l-2.588-1.416a.877.877,0,0,1,0-1.54l2.588-1.416,1.416-2.59a.876.876,0,0,1,1.539,0l1.416,2.59,2.59,1.416a.877.877,0,0,1,0,1.54L348.217,42,346.8,44.587a.876.876,0,0,1-.77.457Zm-2.524-5.231,1.405.77a.874.874,0,0,1,.349.349l.77,1.405.768-1.405a.874.874,0,0,1,.349-.349l1.407-.77-1.407-.77a.874.874,0,0,1-.349-.349l-.768-1.407-.77,1.407a.874.874,0,0,1-.349.349Z" transform="translate(-340.8 -34.58)"/>
        </g>
        <g id="Grupo_1124208" data-name="Grupo 1124208" transform="translate(11.995 4.355)">
          <path id="Trazado_984567" data-name="Trazado 984567" d="M150.3,80.613a2.958,2.958,0,0,1-2.091-5.048L160.361,63.41a.878.878,0,0,1,1.242,1.242L149.448,76.807a1.2,1.2,0,0,0,1.7,1.7l15.1-15.1a.878.878,0,0,1,1.242,1.242l-15.1,15.1A2.955,2.955,0,0,1,150.3,80.613Z" transform="translate(-147.34 -63.153)"/>
        </g>
        <g id="Grupo_1124209" data-name="Grupo 1124209" transform="translate(41.455 12.08)">
          <path id="Trazado_984568" data-name="Trazado 984568" d="M341.49,126.523a.879.879,0,0,1-.62-1.5L351.8,114.09a.878.878,0,0,1,1.242,1.242l-10.935,10.934A.877.877,0,0,1,341.49,126.523Z" transform="translate(-340.612 -113.832)"/>
        </g>
        <g id="Grupo_1124210" data-name="Grupo 1124210" transform="translate(44.397 17.96)">
          <path id="Trazado_984569" data-name="Trazado 984569" d="M360.79,162.155a.879.879,0,0,1-.62-1.5l7.993-7.995a.878.878,0,0,1,1.242,1.242l-7.993,7.995A.88.88,0,0,1,360.79,162.155Z" transform="translate(-359.913 -152.403)"/>
        </g>
        <g id="Grupo_1124211" data-name="Grupo 1124211" transform="translate(4.354 40.159)">
          <path id="Trazado_984570" data-name="Trazado 984570" d="M98.09,314.044a.879.879,0,0,1-.62-1.5l10.7-10.7a1.2,1.2,0,1,0-1.7-1.7L98.714,307.9a.878.878,0,0,1-1.242-1.242l7.757-7.757a2.957,2.957,0,0,1,4.181,4.181l-10.7,10.7A.874.874,0,0,1,98.09,314.044Z" transform="translate(-97.212 -298.04)"/>
        </g>
      </g>
    </g>
    <rect id="Rectángulo_415436" data-name="Rectángulo 415436" width="87" height="87" transform="translate(606.051 3476)" fill="none"/>
  </g>
</svg>
