<svg xmlns="http://www.w3.org/2000/svg" width="97" height="97" viewBox="0 0 97 97">
  <g id="Grupo_1125594" data-name="Grupo 1125594" transform="translate(-407.051 -5575)">
    <rect id="Rectángulo_403107" data-name="Rectángulo 403107" width="97" height="97" rx="8" transform="translate(407.051 5575)" fill="#95dbb3"/>
    <g id="Layer_81" transform="translate(418.073 5586.023)">
      <g id="Grupo_1125593" data-name="Grupo 1125593" transform="translate(-0.022 -0.021)">
        <path id="Trazado_986127" data-name="Trazado 986127" d="M45.97,145H3.7a1.188,1.188,0,0,0-1.2,1.2v.088l1.933,27.037a3.716,3.716,0,0,0,3.72,3.457H41.459a3.738,3.738,0,0,0,3.72-3.457l1.933-27.037A1.207,1.207,0,0,0,46,145H45.97Z" transform="translate(-1.761 -102.519)" fill="#edf4fc"/>
        <path id="Trazado_986128" data-name="Trazado 986128" d="M126.7,32.608l21.589,17.9a2.539,2.539,0,0,0,3.457-.205l11.248-11.746a2.564,2.564,0,0,0,.059-3.457L144.276,14.3Z" transform="translate(-89.58 -10.105)" fill="#cbeff7"/>
        <path id="Trazado_986129" data-name="Trazado 986129" d="M120.708,76.8l-2.373,4.833a1.017,1.017,0,0,0,.469,1.377,1.189,1.189,0,0,0,.557.117l8.143-.7Z" transform="translate(-83.588 -54.297)" fill="#fed690"/>
        <path id="Trazado_986130" data-name="Trazado 986130" d="M205.452,11.508,195.083,3.57a5.082,5.082,0,0,0-6.767.527L186.5,6l2.343,2.607,1.992-2.08a1.574,1.574,0,0,1,2.109-.146l10.34,7.938a1.748,1.748,0,0,0,2.314-.176.514.514,0,0,0,.117-.146A1.735,1.735,0,0,0,205.452,11.508Z" transform="translate(-131.863 -1.777)" fill="#9be5f9"/>
        <path id="Trazado_986131" data-name="Trazado 986131" d="M45.313,207.738c-2.959,0-2.959-2.138-5.917-2.138s-2.959,2.138-5.917,2.138S30.52,205.6,27.562,205.6s-2.959,2.138-5.917,2.138-2.959-2.138-5.917-2.138-2.959,2.138-5.917,2.138a5.081,5.081,0,0,1-3.31-1.289l.7,9.725a3.716,3.716,0,0,0,3.72,3.457H44.229a3.738,3.738,0,0,0,3.72-3.457l.7-9.813A4.926,4.926,0,0,1,45.313,207.738Z" transform="translate(-4.59 -145.368)" fill="#fed690"/>
        <path id="Trazado_986132" data-name="Trazado 986132" d="M47.566,238.344H11.156A4.381,4.381,0,0,1,8.9,237.7l.088,1.172a3.716,3.716,0,0,0,3.72,3.457H46.014a3.738,3.738,0,0,0,3.72-3.457l.088-1.172A4.381,4.381,0,0,1,47.566,238.344Z" transform="translate(-6.286 -168.065)" fill="#feb872"/>
        <path id="Trazado_986133" data-name="Trazado 986133" d="M178.1,89.453a4.169,4.169,0,0,1-1.318.234c-2.49,0-2.49-1.787-4.98-1.787s-2.49,1.787-4.98,1.787-2.49-1.787-4.98-1.787-2.49,1.787-4.98,1.787-2.49-1.787-4.98-1.787c-2.373,0-2.49,1.64-4.687,1.787l15.525,12.889a2.539,2.539,0,0,0,3.457-.205L177.43,90.624A2.511,2.511,0,0,0,178.1,89.453Z" transform="translate(-104.075 -62.146)" fill="#fed690"/>
        <path id="Trazado_986134" data-name="Trazado 986134" d="M46.28,124.445c2.959,0,2.959-2.138,5.917-2.138h.059c-.264-16.843,6.21-26.774,12.3-31.46a1.04,1.04,0,0,1-.674-1.318c.029-.059.029-.088.059-.146l.791-1.582C43.848,95.826,41.505,116.067,41.3,122.395c2.08.381,2.373,2.051,4.98,2.051Z" transform="translate(-29.196 -62.075)" fill="#fce4be"/>
        <path id="Trazado_986135" data-name="Trazado 986135" d="M38.967,82.834a2.284,2.284,0,0,1-1.816-1.787c0-.029-.088-.029-.088,0a2.284,2.284,0,0,1-1.816,1.787c-.029,0-.029.059,0,.088a2.283,2.283,0,0,1,1.816,1.787c0,.029.088.029.088,0a2.283,2.283,0,0,1,1.816-1.787C39,82.892,39,82.834,38.967,82.834Z" transform="translate(-24.9 -57.284)" fill="#f5c84c"/>
        <path id="Trazado_986136" data-name="Trazado 986136" d="M62.734,30.086h.674v.674a.938.938,0,0,0,.908.937h.029a.959.959,0,0,0,.937-.908v-.7h.674a.938.938,0,0,0,.937-.908v-.029a.959.959,0,0,0-.908-.937h-.7v-.674a.938.938,0,0,0-.908-.937h-.029a.959.959,0,0,0-.937.908v.7h-.674a.938.938,0,0,0-.937.908v.029a.912.912,0,0,0,.879.937Z" transform="translate(-43.687 -18.802)" fill="#70d6f9"/>
        <circle id="Elipse_12091" data-name="Elipse 12091" cx="0.996" cy="0.996" r="0.996" transform="translate(54.491 59.324)" fill="#87d147"/>
        <circle id="Elipse_12092" data-name="Elipse 12092" cx="0.996" cy="0.996" r="0.996" transform="translate(36.622 6.743)" fill="#87d147"/>
        <path id="Trazado_986137" data-name="Trazado 986137" d="M217.694,169.942a3.251,3.251,0,0,0,2.607-2.548c0-.059.117-.059.117,0a3.251,3.251,0,0,0,2.607,2.548c.059,0,.059.088,0,.117a3.251,3.251,0,0,0-2.607,2.548c0,.059-.117.059-.117,0a3.251,3.251,0,0,0-2.607-2.548C217.635,170.03,217.635,169.942,217.694,169.942Z" transform="translate(-153.888 -118.322)" fill="#f5c84c"/>
        <path id="Trazado_986138" data-name="Trazado 986138" d="M39.705,175.818H6.4a4.472,4.472,0,0,1-4.453-4.13L-.016,144.65A1.911,1.911,0,0,1,1.771,142.6H44.187a1.931,1.931,0,0,1,1.933,1.933v.146l-1.933,27.037A4.518,4.518,0,0,1,39.705,175.818ZM1.918,144.035a.463.463,0,0,0-.469.469v.029l1.933,27.037a3.025,3.025,0,0,0,2.988,2.783H39.676a3,3,0,0,0,2.988-2.783L44.6,144.533a.463.463,0,0,0-.439-.5H1.918Z" transform="translate(0.022 -100.822)"/>
        <path id="Trazado_986139" data-name="Trazado 986139" d="M148.127,50.027a3.2,3.2,0,0,1-2.08-.762l-21.589-17.9a.712.712,0,0,1-.088-1.025l.029-.029,17.546-18.279a.734.734,0,0,1,.527-.234.686.686,0,0,1,.527.234l18.777,20.8a3.29,3.29,0,0,1-.059,4.452L150.47,49A3.152,3.152,0,0,1,148.127,50.027ZM126.011,30.752l20.974,17.4a1.843,1.843,0,0,0,2.461-.146l11.248-11.746a1.807,1.807,0,0,0,.029-2.461L142.473,13.587Z" transform="translate(-87.807 -8.337)"/>
        <path id="Trazado_986140" data-name="Trazado 986140" d="M117.458,82.124a1.769,1.769,0,0,1-1.758-1.787,1.709,1.709,0,0,1,.176-.762l2.373-4.833a.727.727,0,0,1,.967-.322c.059.029.088.059.146.088l6.8,5.595a.712.712,0,0,1,.088,1.025.758.758,0,0,1-.5.264l-8.143.7A.22.22,0,0,1,117.458,82.124Zm1.7-5.917-1.963,4.013a.325.325,0,0,0,.029.322.279.279,0,0,0,.293.117l6.357-.557Z" transform="translate(-81.802 -52.562)"/>
        <path id="Trazado_986141" data-name="Trazado 986141" d="M202.627,13.577a2.407,2.407,0,0,1-1.523-.527l-10.34-7.938a.856.856,0,0,0-1.142.088l-1.992,2.08a.734.734,0,0,1-.527.234.686.686,0,0,1-.527-.234l-2.343-2.607a.7.7,0,0,1,.029-1l1.816-1.9a5.8,5.8,0,0,1,7.733-.586l10.34,7.938a2.506,2.506,0,0,1,.469,3.486c-.059.059-.117.146-.176.205A2.678,2.678,0,0,1,202.627,13.577ZM190.266,3.471a2.453,2.453,0,0,1,1.406.469l10.34,7.938a1.026,1.026,0,0,0,1.347-.088l.088-.088a1.025,1.025,0,0,0-.176-1.435L192.9,2.358a4.318,4.318,0,0,0-5.771.439L185.784,4.2l1.377,1.523L188.625,4.2a2.153,2.153,0,0,1,1.64-.732Z" transform="translate(-130.121 0.021)"/>
        <path id="Trazado_986142" data-name="Trazado 986142" d="M42.757,218.6H9.451A4.472,4.472,0,0,1,5,214.466l-.7-9.725a.728.728,0,0,1,.674-.791.86.86,0,0,1,.469.117,2.443,2.443,0,0,0,.352.234,3.8,3.8,0,0,0,2.519.937,3.736,3.736,0,0,0,2.519-.937,5.2,5.2,0,0,1,3.369-1.2,5.137,5.137,0,0,1,3.369,1.2,3.8,3.8,0,0,0,2.519.937A3.736,3.736,0,0,0,22.6,204.3a5.2,5.2,0,0,1,3.369-1.2,5.137,5.137,0,0,1,3.369,1.2,3.8,3.8,0,0,0,2.519.937,3.736,3.736,0,0,0,2.519-.937,5.2,5.2,0,0,1,3.369-1.2,5.137,5.137,0,0,1,3.369,1.2,3.8,3.8,0,0,0,2.519.937,3.736,3.736,0,0,0,2.519-.937c.176-.117.322-.234.527-.352a.747.747,0,0,1,1.025.205.827.827,0,0,1,.117.439l-.7,9.813a4.34,4.34,0,0,1-4.365,4.189ZM5.848,206.117l.586,8.231a3.025,3.025,0,0,0,2.988,2.783H42.727a3,3,0,0,0,2.988-2.783l.586-8.319a4.822,4.822,0,0,1-2.607.674,5.137,5.137,0,0,1-3.369-1.2,3.8,3.8,0,0,0-2.519-.937,3.737,3.737,0,0,0-2.519.937,5.2,5.2,0,0,1-3.369,1.2,5.137,5.137,0,0,1-3.369-1.2,3.8,3.8,0,0,0-2.519-.937,3.737,3.737,0,0,0-2.519.937,5.2,5.2,0,0,1-3.369,1.2,5.137,5.137,0,0,1-3.369-1.2,3.8,3.8,0,0,0-2.519-.937,3.737,3.737,0,0,0-2.519.937,5.2,5.2,0,0,1-3.369,1.2,4.921,4.921,0,0,1-2.519-.586Z" transform="translate(-3.029 -143.6)"/>
        <path id="Trazado_986143" data-name="Trazado 986143" d="M44.241,241.293H10.936a4.472,4.472,0,0,1-4.453-4.13L6.4,235.991a.728.728,0,0,1,.674-.791.763.763,0,0,1,.439.117,3.485,3.485,0,0,0,1.875.527h36.44a3.485,3.485,0,0,0,1.875-.527.714.714,0,0,1,1,.234.827.827,0,0,1,.117.439l-.088,1.172A4.52,4.52,0,0,1,44.241,241.293ZM7.948,237.1a2.994,2.994,0,0,0,2.988,2.724H44.241a3.018,3.018,0,0,0,2.988-2.724,4.726,4.726,0,0,1-1.435.205H9.383a5.854,5.854,0,0,1-1.435-.205Z" transform="translate(-4.514 -166.297)"/>
        <path id="Trazado_986144" data-name="Trazado 986144" d="M162.763,101.908a3.2,3.2,0,0,1-2.08-.762L145.158,88.258a.733.733,0,0,1,.439-1.289,2.955,2.955,0,0,0,1.816-.762,4.63,4.63,0,0,1,5.829,0,3.1,3.1,0,0,0,2.051.762,2.962,2.962,0,0,0,2.05-.762,4.63,4.63,0,0,1,5.829,0,3.1,3.1,0,0,0,2.051.762,2.962,2.962,0,0,0,2.051-.762,4.63,4.63,0,0,1,5.829,0,3.1,3.1,0,0,0,2.051.762,3.5,3.5,0,0,0,1.084-.176.727.727,0,0,1,.937.439.754.754,0,0,1,.029.439,3.267,3.267,0,0,1-.82,1.494l-11.248,11.746a3.351,3.351,0,0,1-2.373,1ZM147.18,88.082l14.412,11.951a1.843,1.843,0,0,0,2.461-.146l10.955-11.453a4.484,4.484,0,0,1-2.812-1.025,3.1,3.1,0,0,0-2.05-.762,2.962,2.962,0,0,0-2.051.762,4.63,4.63,0,0,1-5.829,0,3.1,3.1,0,0,0-2.051-.762,2.963,2.963,0,0,0-2.051.762,4.63,4.63,0,0,1-5.829,0,3.1,3.1,0,0,0-2.051-.762,2.962,2.962,0,0,0-2.051.762A4.962,4.962,0,0,1,147.18,88.082Z" transform="translate(-102.443 -60.219)"/>
        <path id="Trazado_986145" data-name="Trazado 986145" d="M44.507,123.507a5.137,5.137,0,0,1-3.369-1.2,3.94,3.94,0,0,0-1.758-.849.7.7,0,0,1-.586-.732c.205-6.181,2.548-27.037,23.874-35.239a.737.737,0,0,1,.937.41.8.8,0,0,1-.029.586l-.791,1.582a.28.28,0,0,0,0,.264.342.342,0,0,0,.176.176.723.723,0,0,1,.469.908,1.053,1.053,0,0,1-.234.352c-3.72,2.871-12.3,11.629-12.01,30.875a.725.725,0,0,1-.732.732h-.059a3.8,3.8,0,0,0-2.519.937A5.073,5.073,0,0,1,44.507,123.507Zm-4.218-3.339a6.7,6.7,0,0,1,1.728.967,3.8,3.8,0,0,0,2.519.937,3.736,3.736,0,0,0,2.519-.937,5.1,5.1,0,0,1,2.695-1.172,47.541,47.541,0,0,1,3.837-19.89,30.957,30.957,0,0,1,8.026-10.9,1.369,1.369,0,0,1-.146-.293,1.855,1.855,0,0,1-.029-1.318C43.159,95.62,40.611,113.781,40.289,120.167Z" transform="translate(-27.423 -60.404)"/>
      </g>
    </g>
  </g>
</svg>
