<svg xmlns="http://www.w3.org/2000/svg" xmlns:xlink="http://www.w3.org/1999/xlink" width="286.305" height="201.168" viewBox="0 0 286.305 201.168">
  <defs>
    <clipPath id="clip-path">
      <path id="Trazado_984752" data-name="Trazado 984752" d="M267.123,126.591l-87.423-.378L198.281,77.4h48.813Z" transform="translate(-179.7 -77.4)"/>
    </clipPath>
    <clipPath id="clip-path-2">
      <path id="path4170" d="M108.3-682.665H0v108.3H108.3Z" transform="translate(0 682.665)"/>
    </clipPath>
  </defs>
  <g id="Grupo_1124286" data-name="Grupo 1124286" transform="translate(6180 7928.751)">
    <g id="_5" data-name="5" transform="translate(-6199.771 -7867.009)">
      <g id="Grupo_1124258" data-name="Grupo 1124258" transform="translate(19.771 23.079)">
        <g id="Grupo_1124257" data-name="Grupo 1124257">
          <g id="Grupo_1124250" data-name="Grupo 1124250" transform="translate(6.543 32.127)">
            <g id="Grupo_1124248" data-name="Grupo 1124248">
              <path id="Trazado_984736" data-name="Trazado 984736" d="M295.652,154.318a6.536,6.536,0,0,0,.756-2.2l6.8-19.651h-11.9l-18.14-44.593c-5.1-13.857-15.053-12.975-15.053-12.975H74.89s-9.952-.882-15.053,12.975L41.7,132.462H30.8l5.795,19.9a4.72,4.72,0,0,0,.315,1.008h0c1.008,2.771,3.527,4.85,8.629,4.85H287.464c4.535,0,6.991-1.575,8.188-3.905Z" transform="translate(-30.396 -74.381)" fill="#bebebe"/>
              <path id="Trazado_984737" data-name="Trazado 984737" d="M287.227,158.306H45.238c-4.724,0-7.747-1.7-8.944-5.1a6.883,6.883,0,0,1-.315-1.071l-5.795-19.9a.416.416,0,0,1,.063-.378.346.346,0,0,1,.315-.189H41.207L59.284,87.322c1.953-5.291,4.787-9.07,8.5-11.274a12.877,12.877,0,0,1,6.928-1.953H258.254c1.7,0,10.393.63,15.053,13.227l18.077,44.342h11.652a.346.346,0,0,1,.315.189.8.8,0,0,1,.063.378l-6.8,19.651a8.825,8.825,0,0,1-.819,2.267C294.344,156.92,291.51,158.306,287.227,158.306ZM31.066,132.545l5.669,19.4a4.72,4.72,0,0,0,.315,1.008c1.071,3.023,3.842,4.535,8.251,4.535H287.29c3.905,0,6.55-1.26,7.81-3.653a7.342,7.342,0,0,0,.693-2.079v-.063l6.613-19.147h-11.4a.425.425,0,0,1-.378-.252L272.488,87.7c-1.89-5.1-4.6-8.755-8.188-10.9a12.463,12.463,0,0,0-6.11-1.827H74.211c-1.575,0-9.826.63-14.3,12.723l-18.14,44.593a.425.425,0,0,1-.378.252Z" transform="translate(-30.159 -74.086)" fill="#696969"/>
            </g>
            <path id="Trazado_984738" data-name="Trazado 984738" d="M36.91,153.373h0a2.237,2.237,0,0,0,.252.567c5.543-1.2,11.022-2.33,16.565-3.4,13.29-2.582,26.706-4.409,40.122-5.669a568.287,568.287,0,0,1,64.686-2.267c21.478.378,42.956,1.449,64.308,3.338,20.911,1.89,41.57,5.039,62.229,8.818,2.96.567,5.921,1.071,8.881,1.638a6.9,6.9,0,0,0,1.764-2.079h0a6.536,6.536,0,0,0,.756-2.2l6.8-19.651h-11.9L273.23,87.868c-5.1-13.857-15.053-12.975-15.053-12.975H74.89s-9.952-.882-15.053,12.975L41.7,132.462H30.8l5.795,19.9A4.72,4.72,0,0,0,36.91,153.373Z" transform="translate(-30.396 -74.381)" fill="#bebebe"/>
            <g id="Grupo_1124249" data-name="Grupo 1124249" transform="translate(0.404 57.829)">
              <path id="Trazado_984739" data-name="Trazado 984739" d="M291.181,165.9H41.822l-.126.315H30.8l2.582,8.944a4.844,4.844,0,0,1,4.346-2.708H290.8s5.228.756,3.653,5.669l-4.346,13.6a7.238,7.238,0,0,0,5.543-3.653h0a6.536,6.536,0,0,0,.756-2.2l6.8-19.651h-11.9Z" transform="translate(-30.8 -165.9)" fill="#ccc"/>
            </g>
          </g>
          <g id="Grupo_1124256" data-name="Grupo 1124256">
            <g id="Grupo_1124251" data-name="Grupo 1124251">
              <path id="Trazado_984740" data-name="Trazado 984740" d="M301.882,92.546l-21.793-54.23c-5.606-15.431-16.5-14.424-16.5-14.424H62.728s-10.9-1.008-16.5,14.424L24.433,92.546s-12.282,24,6.047,24H295.836C314.1,116.543,301.882,92.546,301.882,92.546Z" transform="translate(-20.005 -23.375)" fill="#bebebe"/>
              <path id="Trazado_984741" data-name="Trazado 984741" d="M295.6,116.625H30.245c-4.346,0-7.432-1.386-9.07-4.031-4.22-6.865,2.393-20.029,2.645-20.6l21.73-54.23c2.141-5.858,5.228-10.078,9.322-12.534a13.8,13.8,0,0,1,7.621-2.141h201.3c1.827,0,11.4.693,16.439,14.676L302.026,92c.252.5,6.865,13.668,2.645,20.533C302.97,115.3,299.947,116.625,295.6,116.625ZM62.052,23.974c-1.764,0-10.833.693-15.683,14.172L24.576,92.439c-.063.189-6.676,13.29-2.708,19.84,1.512,2.393,4.283,3.653,8.377,3.653H295.6c4.094,0,6.865-1.2,8.377-3.653,3.968-6.487-2.645-19.651-2.708-19.777L279.477,38.146c-2.079-5.732-5.1-9.763-8.944-12.156a13.356,13.356,0,0,0-6.739-2.016H62.052Z" transform="translate(-19.771 -23.079)" fill="#696969"/>
            </g>
            <g id="Grupo_1124254" data-name="Grupo 1124254" transform="translate(3.354 1.259)">
              <g id="Grupo_1124252" data-name="Grupo 1124252">
                <path id="Trazado_984742" data-name="Trazado 984742" d="M301.236,92.153,279.884,39.813c-5.48-14.864-16.124-13.92-16.124-13.92H67.057s-10.644-.945-16.124,13.92L29.581,92.153s-12.03,23.179,5.921,23.179h1.827a40.076,40.076,0,0,1,1.7-3.905l19.84-48.688c5.1-13.857,14.99-12.912,14.99-12.912h183.1s9.952-.882,14.99,12.912l19.84,48.688a40.077,40.077,0,0,1,1.7,3.905h1.827C313.2,115.332,301.236,92.153,301.236,92.153Z" transform="translate(-25.295 -25.375)" fill="#f0f0f0"/>
                <path id="Trazado_984743" data-name="Trazado 984743" d="M295.116,115.413h-1.827a.425.425,0,0,1-.378-.252,32.131,32.131,0,0,0-1.7-3.905l-19.84-48.75c-1.89-5.1-4.6-8.755-8.125-10.9a12.463,12.463,0,0,0-6.11-1.827H73.345c-1.575,0-9.826.63-14.3,12.66L39.207,111.13c0,.063-.819,1.638-1.7,3.905a.425.425,0,0,1-.378.252H35.3c-4.283,0-7.306-1.323-8.881-3.968-4.031-6.676,2.393-19.273,2.645-19.777L50.355,39.264c2.079-5.669,5.165-9.7,9.133-12.093a13.371,13.371,0,0,1,7.432-2.079H264c1.827,0,11.148.693,16.124,14.172L301.414,91.6c.252.5,6.676,13.1,2.645,19.777C302.422,114.09,299.461,115.413,295.116,115.413Zm-1.575-.819h1.575c4.031,0,6.8-1.2,8.251-3.59,3.842-6.3-2.582-18.9-2.645-19.022L279.369,39.642c-2.016-5.48-4.976-9.448-8.755-11.715A13.238,13.238,0,0,0,264,25.974H66.479c-1.7,0-10.581.63-15.368,13.668L29.759,91.982c-.063.189-6.55,12.786-2.708,19.084,1.449,2.393,4.22,3.59,8.251,3.59h1.575a26.426,26.426,0,0,1,1.638-3.716l19.84-48.688c1.953-5.291,4.787-9.07,8.5-11.274a12.877,12.877,0,0,1,6.928-1.953H257.2c1.7,0,10.393.63,14.99,13.227l19.84,48.688C291.966,110.941,292.722,112.452,293.541,114.594Z" transform="translate(-25.095 -25.078)" fill="#696969"/>
              </g>
              <path id="Trazado_984744" data-name="Trazado 984744" d="M301.236,92.153,279.884,39.813c-5.48-14.864-16.124-13.92-16.124-13.92H67.057s-10.644-.945-16.124,13.92L29.581,92.153s-12.03,23.179,5.921,23.179h1.827a40.076,40.076,0,0,1,1.7-3.905l19.84-48.688c5.1-13.857,14.99-12.912,14.99-12.912h183.1s9.952-.882,14.99,12.912l19.84,48.688a40.077,40.077,0,0,1,1.7,3.905h1.827C313.2,115.332,301.236,92.153,301.236,92.153Z" transform="translate(-25.295 -25.375)" fill="#a5a5a5"/>
              <path id="Trazado_984745" data-name="Trazado 984745" d="M301.963,92.2,280.611,39.857C276.454,28.519,269.274,26.378,266.062,26c-5.354.945-10.77,1.764-15.872,3.842-4.283,1.7-8.5,3.275-11.967,6.424a11.975,11.975,0,0,1-4.346,2.9,31.239,31.239,0,0,1-6.361,1.071,12.767,12.767,0,0,1-3.464.063c-.945-.189-2.96-.5-3.212.882a4.793,4.793,0,0,1-2.33,3.527A4.241,4.241,0,0,1,214.1,43.7c-.756-1.008-1.89-1.008-3.086-.882a15.925,15.925,0,0,1-3.464,0,29.628,29.628,0,0,1-13.731-5.606c-1.386-1.008-2.834-2.016-3.023-3.842a2.4,2.4,0,0,0-.5-1.071,3,3,0,0,0-1.953-.189c-1.512.5-2.456,1.953-3.338,3.212-.378.567-.882,1.638-1.575,1.008a5.112,5.112,0,0,0-5.984-.441c-2.33,1.26-4.283,3.149-6.55,4.472a20.766,20.766,0,0,1-7.306,2.834c-3.086.441-6.11.882-9.2,1.2-6.362.756-12.723,1.26-19.085,1.575a78.85,78.85,0,0,1-9.448-.189c-3.149-.252-6.3-.693-9.448-.819-3.023-.126-6.11.063-9.133-.315a51.824,51.824,0,0,1-7.621-1.89,71.9,71.9,0,0,1-7.369-2.393,17.172,17.172,0,0,1-5.921-3.59c-1.512-1.638-2.456-3.968-4.346-5.228-1.827-1.2-4.409-.378-6.424-.315-3.086.063-6.047,1.2-9.133.945-2.834-.189-6.236-.945-8.125,1.827a16.179,16.179,0,0,0-1.575,3.338A21.6,21.6,0,0,1,55,40.424a59.854,59.854,0,0,0-3.968,7.747c-2.456,5.795-5.1,11.526-7.81,17.258C40.7,70.719,39.5,76.514,36.922,81.8a43.072,43.072,0,0,0-3.275,8.755c-.756,2.9-1.071,5.858-1.827,8.755a119.537,119.537,0,0,1-4.22,12.093c1.323,2.393,3.968,4.031,8.692,4.031h1.827a40.079,40.079,0,0,1,1.7-3.905l19.84-48.688c5.1-13.857,14.99-12.912,14.99-12.912h183.1s9.952-.882,14.99,12.912l19.84,48.688a40.083,40.083,0,0,1,1.7,3.905h1.827C313.93,115.376,301.963,92.2,301.963,92.2Z" transform="translate(-26.022 -25.419)" fill="#ccc"/>
              <g id="Grupo_1124253" data-name="Grupo 1124253" transform="translate(11.34 23.876)">
                <path id="Trazado_984746" data-name="Trazado 984746" d="M278.32,76.7c-5.1-13.857-14.99-12.912-14.99-12.912H80.231S70.28,62.91,65.241,76.7L45.4,125.391a40.078,40.078,0,0,0-1.7,3.905H299.861a40.073,40.073,0,0,0-1.7-3.905Z" transform="translate(-43.322 -63.279)" fill="#f0f0f0"/>
                <path id="Trazado_984747" data-name="Trazado 984747" d="M299.638,129.444H43.478a.346.346,0,0,1-.315-.189.8.8,0,0,1-.063-.378c.882-2.33,1.7-3.905,1.7-3.968l19.84-48.687c1.953-5.291,4.787-9.07,8.5-11.274a12.877,12.877,0,0,1,6.928-1.953H263.485a13.062,13.062,0,0,1,6.55,1.953c3.716,2.2,6.55,5.984,8.5,11.274l19.84,48.687c0,.063.819,1.638,1.7,3.968a.416.416,0,0,1-.063.378A.544.544,0,0,1,299.638,129.444Zm-255.594-.819H299.072a32.572,32.572,0,0,0-1.449-3.338l-19.84-48.75c-1.89-5.1-4.6-8.755-8.125-10.9a12.462,12.462,0,0,0-6.11-1.827H79.757a12.3,12.3,0,0,0-6.11,1.827c-3.527,2.079-6.3,5.732-8.125,10.833l-19.84,48.688A15.811,15.811,0,0,0,44.045,128.625Z" transform="translate(-43.1 -62.986)" fill="#5c2f10"/>
              </g>
              <path id="Trazado_984748" data-name="Trazado 984748" d="M278.32,76.7c-5.1-13.857-14.99-12.912-14.99-12.912H80.231S70.28,62.91,65.241,76.7L45.4,125.391a40.078,40.078,0,0,0-1.7,3.905H299.861a40.073,40.073,0,0,0-1.7-3.905Z" transform="translate(-31.982 -39.403)" fill="#ccc"/>
            </g>
            <g id="Grupo_1124255" data-name="Grupo 1124255" transform="translate(13.56 1.763)">
              <path id="Trazado_984749" data-name="Trazado 984749" d="M273.841,46.929s2.519-6.613,5.165-9.952,5.228,0,5.228,0h0c-5.669-11.9-14.927-11.022-14.927-11.022h-3.023c5.669.252,4.346,4.22,4.346,4.22s-4.346,10.33-6.11,14.235c-1.764,3.968-6.928,3.149-6.928,3.149H80.855c-5.165.378-5.543-2.2-5.543-2.2s-2.771-12.471-3.527-15.431c-.756-2.771,6.173-3.905,7.054-4.031H72.6s-8.818-.819-14.487,10.2a2.354,2.354,0,0,1,2.834,0c2.393,2.2,4.724,11.463,4.724,11.463a11.449,11.449,0,0,1,0,7.432C64.6,58.14,48.291,98.136,41.3,115.268h1.575a40.079,40.079,0,0,1,1.7-3.905l19.84-48.688c5.1-13.857,14.99-12.912,14.99-12.912H262.5s9.952-.882,14.99,12.912l19.84,48.688a40.086,40.086,0,0,1,1.7,3.905h2.2c-7.621-18.455-24.312-58.639-26.076-61.788C272.9,49.448,273.841,46.929,273.841,46.929Z" transform="translate(-41.3 -25.878)" fill="#ccc"/>
            </g>
          </g>
        </g>
      </g>
      <g id="Grupo_1124262" data-name="Grupo 1124262" transform="translate(120.502 57.293)">
        <g id="Grupo_1124259" data-name="Grupo 1124259">
          <path id="Trazado_984750" data-name="Trazado 984750" d="M267.123,126.591l-87.423-.378L198.281,77.4h48.813Z" transform="translate(-179.7 -77.4)" fill="#54844f"/>
        </g>
        <g id="Grupo_1124261" data-name="Grupo 1124261">
          <g id="Grupo_1124260" data-name="Grupo 1124260" clip-path="url(#clip-path)">
            <path id="Trazado_984751" data-name="Trazado 984751" d="M247.28,89.341a2.393,2.393,0,0,0,0-4.787,2.184,2.184,0,0,0-1.638.693L230.022,69.5a2.246,2.246,0,0,0,.5-1.449,2.393,2.393,0,1,0-2.393,2.393A2.584,2.584,0,0,0,229.518,70L245.2,85.814a2.357,2.357,0,0,0-.315,1.134A2.392,2.392,0,0,0,247.28,89.341Zm0-4.094a1.7,1.7,0,1,1-1.7,1.7A1.779,1.779,0,0,1,247.28,85.247ZM228.132,69.69a1.7,1.7,0,1,1,1.7-1.7A1.694,1.694,0,0,1,228.132,69.69Zm7.306-4.346a2.393,2.393,0,0,0,0,4.787,3.314,3.314,0,0,0,1.134-.252l7.684,7.81a2.264,2.264,0,0,0-.126.693,2.393,2.393,0,1,0,2.393-2.393A2.332,2.332,0,0,0,244.571,77l-7.432-7.621a2.326,2.326,0,0,0,.693-1.7A2.38,2.38,0,0,0,235.439,65.344Zm1.2,3.527h0l-.189.189a1.743,1.743,0,0,1-1.008.315,1.7,1.7,0,1,1,1.7-1.7A2.1,2.1,0,0,1,236.635,68.871Zm9.889,7.81a1.7,1.7,0,1,1-1.7,1.7A1.694,1.694,0,0,1,246.524,76.681Zm-10.015,47.3,8.566.126a3.461,3.461,0,0,0,.441.567,2.405,2.405,0,1,0,0-3.4,2.21,2.21,0,0,0-.63,2.079l-8.188-.126a2.55,2.55,0,0,0-.693-1.7,2.405,2.405,0,1,0,0,3.4A4.5,4.5,0,0,0,236.509,123.983Zm9.448-2.267a1.692,1.692,0,1,1,0,2.393A1.752,1.752,0,0,1,245.957,121.715Zm-10.078,1.512v.252a1.868,1.868,0,0,1-.441.945,1.692,1.692,0,1,1,0-2.393,1.883,1.883,0,0,1,.441,1.2Zm-15.116-64.56h11.526a2.389,2.389,0,1,0,2.33-2.9,2.4,2.4,0,0,0-2.393,2.141H220.7a2.423,2.423,0,0,0-2.33-1.89,2.393,2.393,0,0,0,0,4.787A2.3,2.3,0,0,0,220.763,58.667Zm13.857-2.141a1.7,1.7,0,1,1-1.7,1.7A1.694,1.694,0,0,1,234.62,56.526Zm-16.25,3.653a1.7,1.7,0,1,1,1.7-1.7A1.694,1.694,0,0,1,218.37,60.179Zm-3.779,21.73a2.393,2.393,0,0,0-4.787,0,2.493,2.493,0,0,0,2.079,2.393v22.486a2.389,2.389,0,1,0,2.9,2.33,2.4,2.4,0,0,0-2.141-2.393V84.239A2.316,2.316,0,0,0,214.59,81.909Zm-.5,27.21a1.7,1.7,0,1,1-1.7-1.7A1.694,1.694,0,0,1,214.087,109.118ZM212.2,83.609a1.7,1.7,0,1,1,1.7-1.7A1.694,1.694,0,0,1,212.2,83.609Zm-6.739,33.508a2.492,2.492,0,0,0,2.393-2.141h21.226a2.456,2.456,0,1,0-.189-1.008v.252h-21.1a2.365,2.365,0,0,0-2.33-1.953,2.425,2.425,0,0,0,0,4.85Zm25.761-4.787a1.7,1.7,0,1,1-1.7,1.7A1.694,1.694,0,0,1,231.219,112.33Zm-25.761.693a1.7,1.7,0,1,1-1.7,1.7A1.694,1.694,0,0,1,205.458,113.023Zm13.92,8.692a2.4,2.4,0,0,0,2.393-2.2H252.13a2.342,2.342,0,0,0,2.393,2.079,2.394,2.394,0,1,0-2.33-2.771H221.771a2.423,2.423,0,0,0-2.33-1.89,2.392,2.392,0,0,0-2.393,2.393A2.3,2.3,0,0,0,219.377,121.715Zm35.083-4.157a1.7,1.7,0,1,1-1.7,1.7A1.779,1.779,0,0,1,254.46,117.558Zm-35.083.126a1.7,1.7,0,1,1-1.7,1.7A1.779,1.779,0,0,1,219.377,117.684ZM207.536,86.822a2.342,2.342,0,0,0,2.079-2.393,2.394,2.394,0,1,0-2.834,2.33v16.817l-5.732,5.228a2.287,2.287,0,0,0-1.764-.756,2.393,2.393,0,1,0,2.393,2.393,1.848,1.848,0,0,0-.252-1.008l6.047-5.543V86.822Zm-8.251,25.257a1.7,1.7,0,1,1,1.7-1.7A1.694,1.694,0,0,1,199.285,112.079Zm6.236-27.65a1.7,1.7,0,1,1,1.7,1.7A1.694,1.694,0,0,1,205.521,84.428Zm36.594,28.91h6.3a2.409,2.409,0,0,0,2.016,2.141,2.132,2.132,0,0,0,.693,0,2.217,2.217,0,0,0,2.016-2.33,2.392,2.392,0,0,0-2.393-2.393,2.423,2.423,0,0,0-2.33,1.89h-6.362a2.792,2.792,0,0,0-2.771-2.456,2.771,2.771,0,1,0,0,5.543A2.667,2.667,0,0,0,242.115,113.338Zm8.692-1.89a1.7,1.7,0,1,1-1.7,1.7A1.735,1.735,0,0,1,250.807,111.449Zm-13.542,1.512a2.079,2.079,0,1,1,2.079,2.079A2.019,2.019,0,0,1,237.265,112.96Zm-6.3-16.439a2.393,2.393,0,1,0-2.393-2.393,2.518,2.518,0,0,0,.63,1.638l-2.708,2.33a2.246,2.246,0,0,0-1.449-.5,2.393,2.393,0,1,0,2.393,2.393A2.584,2.584,0,0,0,227,98.6l2.771-2.393A2.605,2.605,0,0,0,230.967,96.521Zm-5.921,5.228a1.7,1.7,0,1,1,1.7-1.7A1.735,1.735,0,0,1,225.046,101.749Zm4.22-7.621a1.7,1.7,0,1,1,1.7,1.7A1.694,1.694,0,0,1,229.266,94.128Zm-41.192,26.958a2.393,2.393,0,1,0-2.393-2.393,2.518,2.518,0,0,0,.63,1.638l-2.708,2.33a2.246,2.246,0,0,0-1.449-.5,2.393,2.393,0,1,0,2.393,2.393,2.584,2.584,0,0,0-.441-1.386l2.771-2.393A2.605,2.605,0,0,0,188.074,121.085Zm-5.921,5.165a1.7,1.7,0,1,1,1.7-1.7A1.694,1.694,0,0,1,182.153,126.25Zm4.22-7.558a1.7,1.7,0,1,1,1.7,1.7A1.694,1.694,0,0,1,186.373,118.692Zm14.172,2.33a2.393,2.393,0,1,0-2.393-2.393,2.518,2.518,0,0,0,.63,1.638l-2.708,2.33a2.246,2.246,0,0,0-1.449-.5,2.393,2.393,0,1,0,2.393,2.393,2.584,2.584,0,0,0-.441-1.386l2.771-2.393A2.605,2.605,0,0,0,200.545,121.022Zm-5.921,5.165a1.7,1.7,0,1,1,1.7-1.7A1.694,1.694,0,0,1,194.624,126.187Zm4.22-7.558a1.7,1.7,0,1,1,1.7,1.7A1.694,1.694,0,0,1,198.844,118.629Zm48.184-13.1a2.393,2.393,0,0,0,0-4.787,2.326,2.326,0,0,0-1.7.693l-14.046-13.6a2.329,2.329,0,0,0,.378-1.323,2.393,2.393,0,1,0-4.787,0,2.419,2.419,0,0,0,.567,1.575l-6.676,5.48v12.408l7.873.063,5.984-5.858a2.246,2.246,0,0,0,1.449.5,2.393,2.393,0,1,0-2.393-2.393,2.584,2.584,0,0,0,.441,1.386l-5.795,5.669-6.865-.063v-11.4l6.487-5.354a2.294,2.294,0,0,0,2.771-.189L244.823,102a2.157,2.157,0,0,0-.252,1.134A2.489,2.489,0,0,0,247.028,105.528Zm0-4.094a1.7,1.7,0,1,1-1.7,1.7A1.779,1.779,0,0,1,247.028,101.434Zm-10.9-4.913a1.7,1.7,0,1,1-1.7,1.7A1.694,1.694,0,0,1,236.131,96.521Zm-6.8-8.377a1.7,1.7,0,1,1,1.7-1.7A1.735,1.735,0,0,1,229.329,88.144ZM195.38,117.936a2.393,2.393,0,0,0,0-4.787,2.323,2.323,0,0,0-2.33,2.016h-2.771l-6.991-7.81a2.518,2.518,0,0,0,.63-1.638,2.38,2.38,0,1,0-1.2,2.079l7.243,8.062h3.086A2.325,2.325,0,0,0,195.38,117.936Zm0-4.031a1.7,1.7,0,1,1-1.7,1.7A1.694,1.694,0,0,1,195.38,113.905Zm-13.857-6.424a1.7,1.7,0,1,1,1.7-1.7A1.694,1.694,0,0,1,181.523,107.481ZM195,97.466a2.329,2.329,0,0,0-1.323-.378,2.393,2.393,0,1,0,2.393,2.393,2.257,2.257,0,0,0-.567-1.512l3.779-3.905V79.011a2.378,2.378,0,1,0-2.771-2.33,2.323,2.323,0,0,0,2.016,2.33v14.8Zm-1.323,3.653a1.7,1.7,0,1,1,1.7-1.7A1.733,1.733,0,0,1,193.679,101.119Zm3.59-24.5a1.7,1.7,0,1,1,1.7,1.7A1.694,1.694,0,0,1,197.27,76.618ZM185.05,104.394a2.393,2.393,0,0,0,4.787,0A2.434,2.434,0,0,0,187.759,102V87.514a2.423,2.423,0,0,0,1.89-2.33,2.393,2.393,0,1,0-2.582,2.393V102A2.488,2.488,0,0,0,185.05,104.394Zm.5-19.147a1.7,1.7,0,1,1,1.7,1.7A1.694,1.694,0,0,1,185.554,85.247Zm1.638,17.51h.5a1.7,1.7,0,1,1-.5,0Zm-5.795-6.3a2.423,2.423,0,0,0-1.89,2.33A2.393,2.393,0,1,0,182.09,96.4V82.979l5.165-4.787a2.328,2.328,0,0,0,1.323.378,2.393,2.393,0,1,0-2.393-2.393,2.146,2.146,0,0,0,.567,1.512L181.4,82.6Zm7.18-21.919a1.7,1.7,0,1,1,0,3.4,1.743,1.743,0,0,1-1.008-.315l-.315-.315h0a1.589,1.589,0,0,1-.378-1.071A1.694,1.694,0,0,1,188.578,74.539Zm-5.039,24.249a1.7,1.7,0,1,1-1.7-1.7A1.655,1.655,0,0,1,183.539,98.789Zm10.141,9.2a2.392,2.392,0,0,0,2.393-2.393,2.584,2.584,0,0,0-.441-1.386l6.991-7.243.315-35.776h-2.771a2.384,2.384,0,1,0,.126.756v-.063h1.953L201.93,96.71l-6.8,7.054a2.368,2.368,0,1,0-1.449,4.22Zm4.22-44.4a1.7,1.7,0,1,1,1.7-1.7A1.694,1.694,0,0,1,197.9,63.58Zm-4.22,40.31a1.7,1.7,0,1,1-1.7,1.7A1.694,1.694,0,0,1,193.679,103.89Zm56.687-15.368a2.392,2.392,0,0,0,2.393,2.393,2.422,2.422,0,0,0,2.393-2.33h6.8l1.7,2.141v9.7l-4.472,4.85a2.246,2.246,0,0,0-1.449-.5,2.323,2.323,0,0,0-2.33,2.016H238.336L234.62,109.5l-14.927-.063-1.827-2.456v-22.8a2.389,2.389,0,0,0,2.267-2.267h9.448l15.305,15.179H249.8a2.412,2.412,0,0,0,2.016,2.2,2.132,2.132,0,0,0,.693,0,2.258,2.258,0,0,0,1.449-.693l1.953,1.2a2.1,2.1,0,0,0-.189.945,2.323,2.323,0,0,0,2.016,2.33,2.132,2.132,0,0,0,.693,0,2.217,2.217,0,0,0,2.016-2.33,2.392,2.392,0,0,0-2.393-2.393,2.239,2.239,0,0,0-1.827.882l-1.89-1.2a2.942,2.942,0,0,0,.189-1.071,2.392,2.392,0,0,0-2.393-2.393A2.367,2.367,0,0,0,249.8,96.4h-4.661L229.833,81.216H220.07a2.367,2.367,0,0,0-2.33-1.827,2.392,2.392,0,0,0-2.393,2.393,2.367,2.367,0,0,0,1.827,2.33v23.116l2.2,2.9,15.557.063,3.716-2.708h16.817a2.376,2.376,0,0,0,4.724-.378,2.583,2.583,0,0,0-.441-1.386l4.661-5.1V90.349L262.4,87.766h-7.369a2.362,2.362,0,0,0-2.267-1.7A2.489,2.489,0,0,0,250.366,88.522ZM258.05,99.1a1.7,1.7,0,1,1-1.7,1.7A1.694,1.694,0,0,1,258.05,99.1Zm-5.921-3.779a1.694,1.694,0,0,1,1.7,1.7,1.744,1.744,0,0,1-.189.819l-.063.126a1.731,1.731,0,0,1-1.386.756,1.694,1.694,0,0,1-1.7-1.7A1.6,1.6,0,0,1,252.13,95.325ZM215.976,81.846a1.7,1.7,0,1,1,1.7,1.7A1.694,1.694,0,0,1,215.976,81.846Zm41.759,27.021a1.7,1.7,0,1,1,1.7-1.7A1.694,1.694,0,0,1,257.735,108.866Zm-4.976-22.045a1.7,1.7,0,1,1-1.7,1.7A1.694,1.694,0,0,1,252.759,86.822Zm-29.477,39.24a2.323,2.323,0,0,0-2.33,2.016h-1.323l-6.991-7.81a2.518,2.518,0,0,0,.63-1.638,2.38,2.38,0,1,0-1.2,2.079l7.243,8.062h1.638a2.427,2.427,0,0,0,2.33,2.079,2.393,2.393,0,0,0,0-4.787Zm-12.408-5.732a1.7,1.7,0,1,1,1.7-1.7A1.694,1.694,0,0,1,210.874,120.33Zm12.408,9.763a1.7,1.7,0,1,1,1.7-1.7A1.694,1.694,0,0,1,223.282,130.092Zm31.493-66.7A2.392,2.392,0,0,0,257.168,61a2.584,2.584,0,0,0-.441-1.386l2.771-2.393a2.4,2.4,0,1,0-1.2-2.079,2.518,2.518,0,0,0,.63,1.638l-2.708,2.33a2.246,2.246,0,0,0-1.449-.5,2.393,2.393,0,0,0,0,4.787Zm5.858-9.952a1.7,1.7,0,1,1-1.7,1.7A1.779,1.779,0,0,1,260.633,53.439ZM254.775,59.3a1.7,1.7,0,1,1-1.7,1.7A1.694,1.694,0,0,1,254.775,59.3Zm3.023,51.837a2.393,2.393,0,0,0,0,4.787,2.257,2.257,0,0,0,1.512-.567l2.771,2.708v2.771h-.189a2.392,2.392,0,0,0-2.393,2.393,2.323,2.323,0,0,0,2.016,2.33,2.132,2.132,0,0,0,.693,0,2.217,2.217,0,0,0,2.016-2.33,2.337,2.337,0,0,0-1.512-2.2V117.81l-3.023-2.96a2.329,2.329,0,0,0,.378-1.323A2.215,2.215,0,0,0,257.8,111.134Zm0,4.094a1.7,1.7,0,1,1,1.7-1.7A1.694,1.694,0,0,1,257.8,115.228Zm5.795,8a1.7,1.7,0,1,1-1.7-1.7A1.694,1.694,0,0,1,263.593,123.227Zm-33,3.4a3.678,3.678,0,0,0-1.134.252l-2.33-2.267a2.563,2.563,0,0,0,.5-1.512,2.393,2.393,0,1,0-4.787,0,2.323,2.323,0,0,0,2.016,2.33,2.132,2.132,0,0,0,.693,0,2.783,2.783,0,0,0,1.008-.378l2.33,2.2a2.38,2.38,0,0,0,1.323,4.031,2.132,2.132,0,0,0,.693,0,2.217,2.217,0,0,0,2.016-2.33A2.286,2.286,0,0,0,230.589,126.628Zm-5.354-1.89a1.7,1.7,0,1,1,1.7-1.7A1.694,1.694,0,0,1,225.235,124.739Zm5.354,5.921a1.7,1.7,0,1,1,1.7-1.7A1.694,1.694,0,0,1,230.589,130.659Zm-16.817-2.267a2.246,2.246,0,0,0-1.449.5l-4.409-5.039a2.518,2.518,0,0,0,.63-1.638,2.38,2.38,0,1,0-1.2,2.079l4.409,5.1a2.584,2.584,0,0,0-.441,1.386,2.323,2.323,0,0,0,2.016,2.33,2.131,2.131,0,0,0,.693,0,2.377,2.377,0,0,0-.252-4.724Zm-7.621-4.472a1.7,1.7,0,1,1,1.7-1.7A1.694,1.694,0,0,1,206.15,123.92Zm7.621,8.5a1.7,1.7,0,1,1,1.7-1.7A1.694,1.694,0,0,1,213.772,132.423Zm31.241-5.606a2.323,2.323,0,0,0-2.33,2.016h-2.9a2.477,2.477,0,0,0-2.519-2.2,2.519,2.519,0,1,0,0,5.039,2.57,2.57,0,0,0,2.519-2.2h2.9a2.342,2.342,0,0,0,2.016,2.079,2.132,2.132,0,0,0,.693,0,2.217,2.217,0,0,0,2.016-2.33A2.392,2.392,0,0,0,245.012,126.817Zm-7.747,4.22a1.89,1.89,0,1,1,1.89-1.89A1.937,1.937,0,0,1,237.265,131.037Zm7.747-.189a1.7,1.7,0,1,1,1.7-1.7A1.694,1.694,0,0,1,245.012,130.848ZM249.3,69.69a2.392,2.392,0,0,0-2.393,2.393,2.323,2.323,0,0,0,2.016,2.33,2.132,2.132,0,0,0,.693,0,2.226,2.226,0,0,0,2.016-2.079h14.3v-.693h-14.3A2.374,2.374,0,0,0,249.3,69.69Zm0,4.094a1.7,1.7,0,1,1,1.7-1.7A1.694,1.694,0,0,1,249.3,73.784Zm7.5,2.016a2.393,2.393,0,1,0-4.787,0,2.323,2.323,0,0,0,2.016,2.33v2.519a2.362,2.362,0,0,0-1.7,2.267,2.393,2.393,0,1,0,2.456-2.393V78.13A2.323,2.323,0,0,0,256.79,75.8Zm-.441,7.117a1.7,1.7,0,1,1-1.7-1.7A1.733,1.733,0,0,1,256.35,82.916ZM254.4,77.5a1.7,1.7,0,1,1,1.7-1.7A1.694,1.694,0,0,1,254.4,77.5ZM183.539,52.18l1.764,1.764a2.388,2.388,0,1,0,3.779-.567,2.32,2.32,0,0,0-3.338,0l-1.7-1.7a2.32,2.32,0,0,0-.252-3.086,2.405,2.405,0,0,0-3.4,3.4A2.56,2.56,0,0,0,183.539,52.18Zm2.645,1.7a1.692,1.692,0,1,1,0,2.393A1.638,1.638,0,0,1,186.184,53.88Zm-5.291-4.85a1.692,1.692,0,1,1,0,2.393A1.752,1.752,0,0,1,180.893,49.03ZM208.04,67.107a2.393,2.393,0,1,0,2.456-2.393V62.32a2.378,2.378,0,1,0-2.771-2.33,2.323,2.323,0,0,0,2.016,2.33V64.84A2.362,2.362,0,0,0,208.04,67.107Zm.378-7.117a1.7,1.7,0,1,1,1.7,1.7A1.694,1.694,0,0,1,208.418,59.99Zm2.016,5.48a1.7,1.7,0,1,1-1.7,1.7A1.694,1.694,0,0,1,210.433,65.47Zm9.574-15.935a2.367,2.367,0,0,0,2.33-1.827H238.9a2.368,2.368,0,0,0,2.267,2.079v.882a2.382,2.382,0,0,0-1.7,2.33,2.362,2.362,0,1,0,4.724-.063,2.339,2.339,0,0,0-2.393-2.33v-.882a2.381,2.381,0,0,0,1.764-2.33,2.264,2.264,0,0,0-.126-.693h-.756a1.246,1.246,0,0,1,.126.693,1.7,1.7,0,0,1-3.4,0,2.264,2.264,0,0,1,.126-.693h-.756a2.728,2.728,0,0,0-.063.315H222.149a.568.568,0,0,0-.063-.315h-.441a.8.8,0,0,1,.063.378,1.7,1.7,0,1,1-3.4,0,.8.8,0,0,1,.063-.378h-.693c0,.126-.063.252-.063.378A2.447,2.447,0,0,0,220.007,49.534ZM241.863,51.3a1.669,1.669,0,1,1-1.638,1.7A1.681,1.681,0,0,1,241.863,51.3Zm14.172,78.794a2.371,2.371,0,1,0-3.023,3.653,4.7,4.7,0,0,0,.756.441h1.575v-.063a2.638,2.638,0,0,0,1.008-.693A2.278,2.278,0,0,0,256.035,130.092Zm-.189,2.9a1.7,1.7,0,1,1-.189-2.393A1.76,1.76,0,0,1,255.846,132.99ZM212.2,51.046a2.391,2.391,0,0,0,4.661.756l18.077.126,7.306,7.306v3.905H224.164l-2.645,3.275a2.584,2.584,0,0,0-1.386-.441,2.393,2.393,0,0,0,0,4.787,2.267,2.267,0,0,0,1.386-.441l1.575,1.575a2.246,2.246,0,0,0-.5,1.449,2.323,2.323,0,0,0,2.016,2.33,2.132,2.132,0,0,0,.693,0,2.217,2.217,0,0,0,2.016-2.33,2.392,2.392,0,0,0-2.393-2.393,2.584,2.584,0,0,0-1.386.441l-1.575-1.575a2.425,2.425,0,0,0,.5-1.512,2.246,2.246,0,0,0-.5-1.449l2.519-3.023h18.455v-4.85L235.25,51.3l-18.266-.126v-.063a2.392,2.392,0,0,0-2.393-2.393,2.332,2.332,0,0,0-1.953,1.008l-2.9-2.96h-1.008l3.59,3.653A2.24,2.24,0,0,0,212.2,51.046Zm12.723,20.6a1.7,1.7,0,1,1-1.7,1.7A1.694,1.694,0,0,1,224.92,71.642Zm-3.464-2.33h0l-.441.441a1.518,1.518,0,0,1-.945.252,1.7,1.7,0,1,1,1.7-1.7A1.743,1.743,0,0,1,221.456,69.312Zm-6.865-19.9a1.7,1.7,0,1,1-1.7,1.7A1.735,1.735,0,0,1,214.59,49.408Zm46.294,17.636H244.949a2.378,2.378,0,1,0-2.33,2.771,2.323,2.323,0,0,0,2.33-2.016h20.974v-.756ZM242.619,69.06a1.7,1.7,0,1,1,1.7-1.7A1.694,1.694,0,0,1,242.619,69.06ZM180.7,111.449a2.769,2.769,0,0,0-2.2-2.708v.756a2.1,2.1,0,0,1,0,4.031v.693A2.839,2.839,0,0,0,180.7,111.449Zm.378-30.548a2.393,2.393,0,0,0,0-4.787,2.323,2.323,0,0,0-2.33,2.016h-.189v.693h.189A2.325,2.325,0,0,0,181.082,80.9Zm0-4.094a1.7,1.7,0,1,1-1.7,1.7A1.694,1.694,0,0,1,181.082,76.807Zm-1.2-4.409a2.406,2.406,0,1,0,.126-.756H178.5v.693l1.386.063Zm2.393-1.638a1.7,1.7,0,1,1-1.7,1.7A1.694,1.694,0,0,1,182.279,70.76Zm71.488-16.187a2.371,2.371,0,1,0,3.023-3.653,2.739,2.739,0,0,0-1.323-.567L255.4,46.7h-1.638a2.144,2.144,0,0,0,.882.126l.063,3.59a2.475,2.475,0,0,0-1.323.819A2.393,2.393,0,0,0,253.767,54.573Zm.189-2.9a1.7,1.7,0,1,1,.189,2.393A1.823,1.823,0,0,1,253.956,51.676Zm10.9-.378a2.146,2.146,0,0,0,.441-1.386,2.425,2.425,0,1,0-.945,1.89l1.575,1.512v-.945Zm-1.89.252a1.7,1.7,0,1,1,1.7-1.7A1.694,1.694,0,0,1,262.963,51.55Zm-78.1,9.574a2.393,2.393,0,1,0,2.393-2.393,2.523,2.523,0,0,0-1.449.5L178.5,52.306v.945l6.8,6.487A2.584,2.584,0,0,0,184.861,61.124Zm2.393-1.638a1.7,1.7,0,1,1-1.7,1.7A1.694,1.694,0,0,1,187.255,59.486Zm-6.487,4.22a2.393,2.393,0,1,0-2.267-3.149v1.449A2.362,2.362,0,0,0,180.767,63.706Zm-1.638-2.582a1.68,1.68,0,1,1,1.638,1.953,1.639,1.639,0,0,1-1.638-1.449Zm8.125,8.377a2.393,2.393,0,1,0,0-4.787,2.422,2.422,0,0,0-2.393,2.33H178.5v.693h6.424A2.5,2.5,0,0,0,187.255,69.5Zm0-4.094a1.7,1.7,0,1,1-1.7,1.7A1.694,1.694,0,0,1,187.255,65.407Zm76.9-4.535a2.441,2.441,0,0,0-2.267-1.7,2.393,2.393,0,1,0,2.393,2.393h1.575a1.482,1.482,0,0,0,.126.5V60.62c0,.063-.063.189-.063.252H264.16Zm-2.267,2.393a1.7,1.7,0,1,1,1.7-1.7A1.694,1.694,0,0,1,261.892,63.265Zm-13.542-.441a2.4,2.4,0,0,0,.189-4.787V46.7h-.693V58.037a2.423,2.423,0,0,0,.5,4.787Zm0-4.094a1.7,1.7,0,1,1-1.7,1.7A1.694,1.694,0,0,1,248.35,58.73Zm6.676,64.182a2.392,2.392,0,0,0-2.393,2.393,2.146,2.146,0,0,0,.567,1.512l-5.354,4.913v2.393h.693v-2.079l5.165-4.787a2.329,2.329,0,0,0,1.323.378,2.362,2.362,0,1,0,0-4.724Zm0,4.094a1.743,1.743,0,0,1-1.008-.315l-.315-.315h0a1.589,1.589,0,0,1-.378-1.071,1.7,1.7,0,0,1,3.4,0A1.735,1.735,0,0,1,255.027,127.006Zm-49.38-51.9a2.423,2.423,0,0,0-1.89,2.33,2.4,2.4,0,0,0,4.787.189H230.4l14.865,15.179h11.4a2.277,2.277,0,0,0,2.016,2.016,2.132,2.132,0,0,0,.693,0,2.217,2.217,0,0,0,2.016-2.33,2.376,2.376,0,0,0-4.724-.378H245.579L230.715,76.933H208.481a2.417,2.417,0,0,0-2.141-1.89l-.063-16.25L194.5,46.763H193.49l12.093,12.345ZM258.995,90.79a1.7,1.7,0,1,1-1.7,1.7A1.735,1.735,0,0,1,258.995,90.79ZM207.851,77.437a1.7,1.7,0,1,1-1.7-1.7A1.694,1.694,0,0,1,207.851,77.437Zm54.671,34.012a2.835,2.835,0,0,0,2.33,2.771v10.833l-3.464,3.464a2.329,2.329,0,0,0-1.323-.378,2.393,2.393,0,1,0,2.393,2.393,2.257,2.257,0,0,0-.567-1.512l3.59-3.842v-10.9c.126,0,.252-.063.378-.063v-.693a1.942,1.942,0,0,1-.63.063,2.079,2.079,0,1,1,0-4.157c.189,0,.441.063.63.063v-.756a1.942,1.942,0,0,0-.63-.063A2.784,2.784,0,0,0,262.522,111.449Zm-2.393,20.722a1.7,1.7,0,1,1,1.7-1.7A1.735,1.735,0,0,1,260.129,132.171Zm-18.833.315a2.362,2.362,0,0,0-2.267,1.7h.756a1.67,1.67,0,0,1,1.512-1.008,1.575,1.575,0,0,1,1.512,1.008h.756A2.307,2.307,0,0,0,241.3,132.486ZM202.812,49.471a2.584,2.584,0,0,0,1.386-.441l9.574,9.574V71.327a2.4,2.4,0,1,0,2.645,2.393,2.316,2.316,0,0,0-1.953-2.33V58.352l-9.826-9.763a2.246,2.246,0,0,0,.5-1.449v-.378h-.693c0,.126.063.252.063.378a1.7,1.7,0,1,1-3.4,0,.8.8,0,0,1,.063-.378h-.693v.378A2.286,2.286,0,0,0,202.812,49.471Zm12.912,24.186a1.7,1.7,0,1,1-1.7-1.7A1.694,1.694,0,0,1,215.724,73.658ZM190.971,55.14a2.367,2.367,0,0,0,1.827,2.33V85.436a2.364,2.364,0,0,0-1.953,2.33,2.393,2.393,0,1,0,4.787,0,2.492,2.492,0,0,0-2.142-2.393V57.533a2.368,2.368,0,0,0,2.267-2.393,2.392,2.392,0,0,0-2.393-2.393,2.605,2.605,0,0,0-1.2.315L185.428,46.7h-1.008l7.18,6.8A2.441,2.441,0,0,0,190.971,55.14Zm3.905,32.689a1.7,1.7,0,1,1-1.7-1.7A1.694,1.694,0,0,1,194.876,87.829ZM193.3,53.5a1.694,1.694,0,0,1,1.7,1.7,1.714,1.714,0,0,1-1.575,1.7v-.063h-.5A1.686,1.686,0,0,1,191.6,55.2,1.779,1.779,0,0,1,193.3,53.5Zm-9.07,77.913a2.393,2.393,0,1,0-2.393,2.393,2.146,2.146,0,0,0,1.512-.567l1.008.945h1.008l-1.575-1.449A2.219,2.219,0,0,0,184.232,131.415Zm-2.393,1.7a1.7,1.7,0,1,1,1.7-1.7A1.694,1.694,0,0,1,181.838,133.116Zm79.55-56.687a2.392,2.392,0,0,0-2.393,2.393,2.325,2.325,0,0,0,2.078,2.33V82.1a2.362,2.362,0,0,0-1.7,2.267,2.393,2.393,0,1,0,2.456-2.393V81.09a2.371,2.371,0,0,0,2.016-2.33h2.2v-.693h-2.267A2.714,2.714,0,0,0,261.388,76.429Zm2.016,8a1.7,1.7,0,1,1-1.7-1.7A1.735,1.735,0,0,1,263.4,84.428Zm-2.016-3.905a1.7,1.7,0,1,1,1.7-1.7A1.694,1.694,0,0,1,261.388,80.523Zm-71.74,46.8a2.425,2.425,0,1,0-.945,1.89l4.85,4.913h1.008l-5.354-5.417A2.584,2.584,0,0,0,189.648,127.321Zm-2.393,1.7a1.7,1.7,0,1,1,1.7-1.7A1.694,1.694,0,0,1,187.255,129.022Zm18.644-1.134a2.393,2.393,0,1,0-2.393,2.393,3.315,3.315,0,0,0,1.134-.252l4.094,4.157h1.008l-4.535-4.6A2.434,2.434,0,0,0,205.9,127.888Zm-1.2,1.2h0l-.189.189a1.742,1.742,0,0,1-1.008.315,1.7,1.7,0,1,1,1.7-1.7A1.721,1.721,0,0,1,204.7,129.085Zm-1.89,3.023a2.323,2.323,0,0,0-2.33,2.016h.693a1.686,1.686,0,0,1,1.638-1.323,1.635,1.635,0,0,1,1.638,1.323h.693A2.371,2.371,0,0,0,202.812,132.108Zm17.195.063a2.373,2.373,0,0,0-2.33,1.953h.693a1.631,1.631,0,0,1,1.638-1.26,1.7,1.7,0,0,1,1.638,1.26h.693A2.324,2.324,0,0,0,220.007,132.171Z" transform="translate(-179.256 -66.036)" fill="#d6af88"/>
          </g>
        </g>
      </g>
    </g>
    <g id="g4164" transform="translate(-6091 -7928.75)">
      <g id="g4166" transform="translate(0)">
        <g id="g4168" transform="translate(0 0)" clip-path="url(#clip-path-2)">
          <g id="g4174" transform="translate(45.256 1.586)">
            <path id="path4176" d="M-232.424,0h39.217V5.6h-39.217a9.194,9.194,0,0,0-9.184,9.183v8.073a2.8,2.8,0,0,1-2.8,2.8,2.8,2.8,0,0,1-2.8-2.8V14.779A14.8,14.8,0,0,1-232.424,0" transform="translate(247.203)" fill="#cae5e7"/>
          </g>
          <g id="g4178" transform="translate(45.256 1.586)">
            <path id="path4180" d="M54-29.679H14.779A9.194,9.194,0,0,0,5.6-20.5v8.073a2.8,2.8,0,0,1-2.8,2.8,2.8,2.8,0,0,1-2.8-2.8V-20.5A14.8,14.8,0,0,1,14.779-35.275H54" transform="translate(0 35.275)" fill="none" stroke="#000" stroke-linecap="round" stroke-linejoin="round" stroke-miterlimit="10" stroke-width="1"/>
          </g>
          <g id="g4182" transform="translate(39.595 18.749)">
            <path id="path4184" d="M-107.68-15.9v5.127H-90.6V-15.9a3,3,0,0,0-3-3H-104.68a3,3,0,0,0-3,3" transform="translate(107.68 18.893)" fill="#8fbac5"/>
          </g>
          <g id="g4186" transform="translate(39.595 18.749)">
            <path id="path4188" d="M-42.333-15.9v5.127h6.716a10.655,10.655,0,0,1-2.122-8.125h-1.595a3,3,0,0,0-3,3" transform="translate(42.333 18.893)" fill="#7ca2b1"/>
          </g>
          <g id="g4190" transform="translate(39.596 18.749)">
            <path id="path4192" d="M-107.67-43.088v-5.125a3,3,0,0,1,3-3h11.084a3,3,0,0,1,3,3v5.125Z" transform="translate(107.67 51.212)" fill="none" stroke="#000" stroke-linecap="round" stroke-linejoin="round" stroke-miterlimit="10" stroke-width="1"/>
          </g>
          <g id="g4194" transform="translate(11.42 26.874)">
            <path id="path4196" d="M-462.879-88.656h73.432a8.522,8.522,0,0,0-6.229-8.207l-16.262-4.539-11.93-3.329-2.3-.641-14.293,3.989-16.194,4.52a8.5,8.5,0,0,0-4.495,3.056,8.5,8.5,0,0,0-1.734,5.151" transform="translate(462.879 105.373)" fill="#fddeb0"/>
          </g>
          <g id="g4198" transform="translate(33.844 26.874)">
            <path id="path4200" d="M-179.76-21.157a4,4,0,0,0,3.587,2.236h21.334a4,4,0,0,0,3.6-2.255l-11.93-3.329-2.3-.641Z" transform="translate(179.76 25.147)" fill="#fccd80"/>
          </g>
          <g id="g4202" transform="translate(11.42 26.874)">
            <path id="path4204" d="M-245.906-88.656h8.493C-228.5-96.4-216.2-101.6-206.9-104.732l-2.3-.641-30.487,8.51a8.5,8.5,0,0,0-4.495,3.056,8.5,8.5,0,0,0-1.734,5.151" transform="translate(245.906 105.373)" fill="#fccd80"/>
          </g>
          <g id="g4206" transform="translate(11.42 33.798)">
            <path id="path4208" d="M-75.081-51.939a8.521,8.521,0,0,1,6.23-8.207l5.681-1.586" transform="translate(75.081 61.732)" fill="none" stroke="#000" stroke-linecap="round" stroke-linejoin="round" stroke-miterlimit="10" stroke-width="1"/>
          </g>
          <g id="g4210" transform="translate(30.515 26.873)">
            <path id="path4212" d="M-342.519-26.091l17.621-4.92,30.487,8.511a8.521,8.521,0,0,1,6.23,8.207" transform="translate(342.519 31.011)" fill="none" stroke="#000" stroke-linecap="round" stroke-linejoin="round" stroke-miterlimit="10" stroke-width="1"/>
          </g>
          <g id="g4214" transform="translate(14.496 49.113)">
            <path id="path4216" d="M-423.626,0V5.734a2.072,2.072,0,0,0,2.073,2.073h63.059a2.074,2.074,0,0,0,2.073-2.073V0Z" transform="translate(423.626)" fill="#8fbac5"/>
          </g>
          <path id="path4218" d="M167.666-368.392h67.2v-4.687h-67.2Z" transform="translate(-153.171 422.192)" fill="#7ca2b1"/>
          <g id="g4220" transform="translate(14.495 49.113)">
            <path id="path4222" d="M-408.491-41.413h63.059a2.074,2.074,0,0,0,2.073-2.074v-5.735h-67.206v5.735A2.074,2.074,0,0,0-408.491-41.413Z" transform="translate(410.564 49.221)" fill="none" stroke="#000" stroke-linecap="round" stroke-linejoin="round" stroke-miterlimit="10" stroke-width="1"/>
          </g>
          <g id="g4224" transform="translate(9.047 42.683)">
            <path id="path4226" d="M-492.319-10.994v4.01a2.074,2.074,0,0,0,2.073,2.073h73.957a2.074,2.074,0,0,0,2.073-2.073v-4.01a2.074,2.074,0,0,0-2.073-2.073h-73.957a2.074,2.074,0,0,0-2.073,2.073" transform="translate(492.319 13.067)" fill="#eff5f6"/>
          </g>
          <g id="g4228" transform="translate(9.047 42.683)">
            <path id="path4230" d="M-45.08-10.994v4.01A2.074,2.074,0,0,0-43.007-4.91h4.823c-1.347-2.784-.588-6,.256-8.156h-5.079a2.074,2.074,0,0,0-2.073,2.073" transform="translate(45.08 13.067)" fill="#cae5e7"/>
          </g>
          <g id="g4232" transform="translate(31.735 42.683)">
            <path id="path4234" d="M-73.288,0h15.548a2.074,2.074,0,0,1,2.074,2.074V6.082a2.074,2.074,0,0,1-2.074,2.074h-53.34" transform="translate(111.08)" fill="none" stroke="#000" stroke-linecap="round" stroke-linejoin="round" stroke-miterlimit="10" stroke-width="1"/>
          </g>
          <g id="g4236" transform="translate(9.047 42.683)">
            <path id="path4238" d="M-223.021-43.255h-13.128a2.074,2.074,0,0,1-2.073-2.074v-4.009a2.074,2.074,0,0,1,2.073-2.074h50.92" transform="translate(238.222 51.411)" fill="none" stroke="#000" stroke-linecap="round" stroke-linejoin="round" stroke-miterlimit="10" stroke-width="1"/>
          </g>
          <g id="g4240" transform="translate(36.395 24.16)">
            <path id="path4242" d="M-147.546-5.5v3.9A1.035,1.035,0,0,0-146.51-.556h21.334a1.035,1.035,0,0,0,1.036-1.036V-5.5a1.035,1.035,0,0,0-1.036-1.036H-146.51A1.035,1.035,0,0,0-147.546-5.5" transform="translate(147.546 6.533)" fill="#eff5f6"/>
          </g>
          <g id="g4244" transform="translate(36.395 24.16)">
            <path id="path4246" d="M-36.093-5.5v3.9A1.035,1.035,0,0,0-35.057-.556h4.689a8.963,8.963,0,0,1-1.675-5.978h-3.014A1.035,1.035,0,0,0-36.093-5.5" transform="translate(36.093 6.533)" fill="#cae5e7"/>
          </g>
          <g id="g4248" transform="translate(36.394 24.159)">
            <path id="path4250" d="M-139.983-31.712h21.335a1.037,1.037,0,0,0,1.037-1.037v-3.906a1.037,1.037,0,0,0-1.037-1.037h-21.335a1.037,1.037,0,0,0-1.037,1.037v3.906A1.037,1.037,0,0,0-139.983-31.712Z" transform="translate(141.02 37.692)" fill="none" stroke="#000" stroke-linecap="round" stroke-linejoin="round" stroke-miterlimit="10" stroke-width="1"/>
          </g>
          <g id="g4252" transform="translate(76.774 56.919)">
            <path id="path4254" d="M0,0V4.2" transform="translate(0)" fill="none" stroke="#000" stroke-linecap="round" stroke-linejoin="round" stroke-miterlimit="10" stroke-width="1"/>
          </g>
          <g id="g4256" transform="translate(76.774 66.956)">
            <path id="path4258" d="M0,0V4.2" transform="translate(0)" fill="none" stroke="#000" stroke-linecap="round" stroke-linejoin="round" stroke-miterlimit="10" stroke-width="1"/>
          </g>
          <g id="g4260" transform="translate(76.774 76.993)">
            <path id="path4262" d="M0,0V4.2" transform="translate(0)" fill="none" stroke="#000" stroke-linecap="round" stroke-linejoin="round" stroke-miterlimit="10" stroke-width="1"/>
          </g>
          <g id="g4264" transform="translate(76.774 87.03)">
            <path id="path4266" d="M0,0V4.2" transform="translate(0)" fill="none" stroke="#000" stroke-linecap="round" stroke-linejoin="round" stroke-miterlimit="10" stroke-width="1"/>
          </g>
          <g id="g4268" transform="translate(76.774 97.067)">
            <path id="path4270" d="M0,0V4.2" transform="translate(0)" fill="none" stroke="#000" stroke-linecap="round" stroke-linejoin="round" stroke-miterlimit="10" stroke-width="1"/>
          </g>
          <g id="g4272" transform="translate(69.605 62.364)">
            <path id="path4274" d="M0,0V4.2" transform="translate(0)" fill="none" stroke="#000" stroke-linecap="round" stroke-linejoin="round" stroke-miterlimit="10" stroke-width="1"/>
          </g>
          <g id="g4276" transform="translate(69.605 72.401)">
            <path id="path4278" d="M0,0V4.2" transform="translate(0)" fill="none" stroke="#000" stroke-linecap="round" stroke-linejoin="round" stroke-miterlimit="10" stroke-width="1"/>
          </g>
          <g id="g4280" transform="translate(69.605 82.438)">
            <path id="path4282" d="M0,0V4.2" transform="translate(0)" fill="none" stroke="#000" stroke-linecap="round" stroke-linejoin="round" stroke-miterlimit="10" stroke-width="1"/>
          </g>
          <g id="g4284" transform="translate(69.605 92.475)">
            <path id="path4286" d="M0,0V4.2" transform="translate(0)" fill="none" stroke="#000" stroke-linecap="round" stroke-linejoin="round" stroke-miterlimit="10" stroke-width="1"/>
          </g>
          <g id="g4288" transform="translate(69.605 102.512)">
            <path id="path4290" d="M0,0V4.2" transform="translate(0)" fill="none" stroke="#000" stroke-linecap="round" stroke-linejoin="round" stroke-miterlimit="10" stroke-width="1"/>
          </g>
          <g id="g4292" transform="translate(62.436 56.919)">
            <path id="path4294" d="M0,0V4.2" transform="translate(0)" fill="none" stroke="#000" stroke-linecap="round" stroke-linejoin="round" stroke-miterlimit="10" stroke-width="1"/>
          </g>
          <g id="g4296" transform="translate(62.436 66.956)">
            <path id="path4298" d="M0,0V4.2" transform="translate(0)" fill="none" stroke="#000" stroke-linecap="round" stroke-linejoin="round" stroke-miterlimit="10" stroke-width="1"/>
          </g>
          <g id="g4300" transform="translate(62.436 76.993)">
            <path id="path4302" d="M0,0V4.2" transform="translate(0)" fill="none" stroke="#000" stroke-linecap="round" stroke-linejoin="round" stroke-miterlimit="10" stroke-width="1"/>
          </g>
          <g id="g4304" transform="translate(62.436 87.03)">
            <path id="path4306" d="M0,0V4.2" transform="translate(0)" fill="none" stroke="#000" stroke-linecap="round" stroke-linejoin="round" stroke-miterlimit="10" stroke-width="1"/>
          </g>
          <g id="g4308" transform="translate(62.436 97.067)">
            <path id="path4310" d="M0,0V4.2" transform="translate(0)" fill="none" stroke="#000" stroke-linecap="round" stroke-linejoin="round" stroke-miterlimit="10" stroke-width="1"/>
          </g>
          <g id="g4312" transform="translate(55.267 62.364)">
            <path id="path4314" d="M0,0V4.2" transform="translate(0)" fill="none" stroke="#000" stroke-linecap="round" stroke-linejoin="round" stroke-miterlimit="10" stroke-width="1"/>
          </g>
          <g id="g4316" transform="translate(55.267 72.401)">
            <path id="path4318" d="M0,0V4.2" transform="translate(0)" fill="none" stroke="#000" stroke-linecap="round" stroke-linejoin="round" stroke-miterlimit="10" stroke-width="1"/>
          </g>
          <g id="g4320" transform="translate(55.267 82.438)">
            <path id="path4322" d="M0,0V4.2" transform="translate(0)" fill="none" stroke="#000" stroke-linecap="round" stroke-linejoin="round" stroke-miterlimit="10" stroke-width="1"/>
          </g>
          <g id="g4324" transform="translate(55.267 92.475)">
            <path id="path4326" d="M0,0V4.2" transform="translate(0)" fill="none" stroke="#000" stroke-linecap="round" stroke-linejoin="round" stroke-miterlimit="10" stroke-width="1"/>
          </g>
          <g id="g4328" transform="translate(55.267 102.512)">
            <path id="path4330" d="M0,0V4.2" transform="translate(0)" fill="none" stroke="#000" stroke-linecap="round" stroke-linejoin="round" stroke-miterlimit="10" stroke-width="1"/>
          </g>
          <g id="g4332" transform="translate(48.098 56.919)">
            <path id="path4334" d="M0,0V4.2" transform="translate(0)" fill="none" stroke="#000" stroke-linecap="round" stroke-linejoin="round" stroke-miterlimit="10" stroke-width="1"/>
          </g>
          <g id="g4336" transform="translate(48.098 66.956)">
            <path id="path4338" d="M0,0V4.2" transform="translate(0)" fill="none" stroke="#000" stroke-linecap="round" stroke-linejoin="round" stroke-miterlimit="10" stroke-width="1"/>
          </g>
          <g id="g4340" transform="translate(48.098 76.993)">
            <path id="path4342" d="M0,0V4.2" transform="translate(0)" fill="none" stroke="#000" stroke-linecap="round" stroke-linejoin="round" stroke-miterlimit="10" stroke-width="1"/>
          </g>
          <g id="g4344" transform="translate(48.098 87.03)">
            <path id="path4346" d="M0,0V4.2" transform="translate(0)" fill="none" stroke="#000" stroke-linecap="round" stroke-linejoin="round" stroke-miterlimit="10" stroke-width="1"/>
          </g>
          <g id="g4348" transform="translate(48.098 97.067)">
            <path id="path4350" d="M0,0V4.2" transform="translate(0)" fill="none" stroke="#000" stroke-linecap="round" stroke-linejoin="round" stroke-miterlimit="10" stroke-width="1"/>
          </g>
          <g id="g4352" transform="translate(40.929 62.364)">
            <path id="path4354" d="M0,0V4.2" transform="translate(0)" fill="none" stroke="#000" stroke-linecap="round" stroke-linejoin="round" stroke-miterlimit="10" stroke-width="1"/>
          </g>
          <g id="g4356" transform="translate(40.929 72.401)">
            <path id="path4358" d="M0,0V4.2" transform="translate(0)" fill="none" stroke="#000" stroke-linecap="round" stroke-linejoin="round" stroke-miterlimit="10" stroke-width="1"/>
          </g>
          <g id="g4360" transform="translate(40.929 82.438)">
            <path id="path4362" d="M0,0V4.2" transform="translate(0)" fill="none" stroke="#000" stroke-linecap="round" stroke-linejoin="round" stroke-miterlimit="10" stroke-width="1"/>
          </g>
          <g id="g4364" transform="translate(40.929 92.475)">
            <path id="path4366" d="M0,0V4.2" transform="translate(0)" fill="none" stroke="#000" stroke-linecap="round" stroke-linejoin="round" stroke-miterlimit="10" stroke-width="1"/>
          </g>
          <g id="g4368" transform="translate(40.929 102.512)">
            <path id="path4370" d="M0,0V4.2" transform="translate(0)" fill="none" stroke="#000" stroke-linecap="round" stroke-linejoin="round" stroke-miterlimit="10" stroke-width="1"/>
          </g>
          <g id="g4372" transform="translate(33.76 56.919)">
            <path id="path4374" d="M0,0V4.2" transform="translate(0)" fill="none" stroke="#000" stroke-linecap="round" stroke-linejoin="round" stroke-miterlimit="10" stroke-width="1"/>
          </g>
          <g id="g4376" transform="translate(33.76 66.956)">
            <path id="path4378" d="M0,0V4.2" transform="translate(0)" fill="none" stroke="#000" stroke-linecap="round" stroke-linejoin="round" stroke-miterlimit="10" stroke-width="1"/>
          </g>
          <g id="g4380" transform="translate(33.76 76.993)">
            <path id="path4382" d="M0,0V4.2" transform="translate(0)" fill="none" stroke="#000" stroke-linecap="round" stroke-linejoin="round" stroke-miterlimit="10" stroke-width="1"/>
          </g>
          <g id="g4384" transform="translate(33.76 87.03)">
            <path id="path4386" d="M0,0V4.2" transform="translate(0)" fill="none" stroke="#000" stroke-linecap="round" stroke-linejoin="round" stroke-miterlimit="10" stroke-width="1"/>
          </g>
          <g id="g4388" transform="translate(33.76 97.067)">
            <path id="path4390" d="M0,0V4.2" transform="translate(0)" fill="none" stroke="#000" stroke-linecap="round" stroke-linejoin="round" stroke-miterlimit="10" stroke-width="1"/>
          </g>
          <g id="g4392" transform="translate(26.591 62.364)">
            <path id="path4394" d="M0,0V4.2" transform="translate(0)" fill="none" stroke="#000" stroke-linecap="round" stroke-linejoin="round" stroke-miterlimit="10" stroke-width="1"/>
          </g>
          <g id="g4396" transform="translate(26.591 72.401)">
            <path id="path4398" d="M0,0V4.2" transform="translate(0)" fill="none" stroke="#000" stroke-linecap="round" stroke-linejoin="round" stroke-miterlimit="10" stroke-width="1"/>
          </g>
          <g id="g4400" transform="translate(26.591 82.438)">
            <path id="path4402" d="M0,0V4.2" transform="translate(0)" fill="none" stroke="#000" stroke-linecap="round" stroke-linejoin="round" stroke-miterlimit="10" stroke-width="1"/>
          </g>
          <g id="g4404" transform="translate(26.591 92.475)">
            <path id="path4406" d="M0,0V4.2" transform="translate(0)" fill="none" stroke="#000" stroke-linecap="round" stroke-linejoin="round" stroke-miterlimit="10" stroke-width="1"/>
          </g>
          <g id="g4408" transform="translate(26.591 102.512)">
            <path id="path4410" d="M0,0V4.2" transform="translate(0)" fill="none" stroke="#000" stroke-linecap="round" stroke-linejoin="round" stroke-miterlimit="10" stroke-width="1"/>
          </g>
          <g id="g4412" transform="translate(19.422 56.919)">
            <path id="path4414" d="M0,0V4.2" transform="translate(0)" fill="none" stroke="#000" stroke-linecap="round" stroke-linejoin="round" stroke-miterlimit="10" stroke-width="1"/>
          </g>
          <g id="g4416" transform="translate(19.422 66.956)">
            <path id="path4418" d="M0,0V4.2" transform="translate(0)" fill="none" stroke="#000" stroke-linecap="round" stroke-linejoin="round" stroke-miterlimit="10" stroke-width="1"/>
          </g>
          <g id="g4420" transform="translate(19.422 76.993)">
            <path id="path4422" d="M0,0V4.2" transform="translate(0)" fill="none" stroke="#000" stroke-linecap="round" stroke-linejoin="round" stroke-miterlimit="10" stroke-width="1"/>
          </g>
          <g id="g4424" transform="translate(19.422 87.03)">
            <path id="path4426" d="M0,0V4.2" transform="translate(0)" fill="none" stroke="#000" stroke-linecap="round" stroke-linejoin="round" stroke-miterlimit="10" stroke-width="1"/>
          </g>
          <g id="g4428" transform="translate(19.422 97.067)">
            <path id="path4430" d="M0,0V4.2" transform="translate(0)" fill="none" stroke="#000" stroke-linecap="round" stroke-linejoin="round" stroke-miterlimit="10" stroke-width="1"/>
          </g>
        </g>
      </g>
    </g>
  </g>
</svg>
