<svg xmlns="http://www.w3.org/2000/svg" width="97" height="97" viewBox="0 0 97 97">
  <g id="Grupo_1125604" data-name="Grupo 1125604" transform="translate(-407.051 -5718)">
    <rect id="Rectángulo_403109" data-name="Rectángulo 403109" width="97" height="97" rx="8" transform="translate(407.051 5718)" fill="#95dbb3"/>
    <g id="Grupo_1125603" data-name="Grupo 1125603" transform="translate(415.564 5720.651)">
      <g id="Grupo_1125601" data-name="Grupo 1125601" transform="translate(15.382 16.227)">
        <path id="Trazado_986146" data-name="Trazado 986146" d="M57.943,173.816h-6.29l-.257.013a2.735,2.735,0,0,0-1.708,4.628l-8.926-4.48a3.237,3.237,0,0,0-2.985,5.745l13.567,7.289H70.474V174.685a10.6,10.6,0,0,0-12.531-.869Z" transform="translate(-36.072 -130.703)" fill="#f8af23"/>
        <g id="Grupo_1125595" data-name="Grupo 1125595" transform="translate(0 42.929)">
          <path id="Trazado_986147" data-name="Trazado 986147" d="M40.41,179.37a3.218,3.218,0,0,1,.915-1.029l-.563-.283a3.237,3.237,0,0,0-2.984,5.745l13.567,7.289H55.27L41.7,183.8a3.237,3.237,0,0,1-1.293-4.433Z" transform="translate(-36.071 -177.713)" fill="#f87023"/>
        </g>
        <path id="Trazado_986148" data-name="Trazado 986148" d="M164.6,181.649H179.41v12.326H164.6Z" transform="translate(-130.199 -137.667)" fill="#cecece"/>
        <path id="Trazado_986149" data-name="Trazado 986149" d="M104.652,63.793H86.81a2.078,2.078,0,0,1-2.061-1.818L80.823,30.86H110.64l-3.926,31.115A2.078,2.078,0,0,1,104.652,63.793Z" transform="translate(-68.845 -27.238)" fill="#63bce7"/>
        <g id="Grupo_1125596" data-name="Grupo 1125596" transform="translate(11.978 3.622)">
          <path id="Trazado_986150" data-name="Trazado 986150" d="M88.675,61.975,84.748,30.86H80.823l3.926,31.115a2.078,2.078,0,0,0,2.061,1.818h3.926A2.078,2.078,0,0,1,88.675,61.975Z" transform="translate(-80.823 -30.86)" fill="#6377e7"/>
        </g>
        <path id="Trazado_986151" data-name="Trazado 986151" d="M104.138,17.326h-31.6a1.811,1.811,0,0,0,0,3.622h31.6a1.811,1.811,0,1,0,0-3.622Z" transform="translate(-61.454 -17.326)" fill="#cecece"/>
        <g id="Grupo_1125597" data-name="Grupo 1125597" transform="translate(9.277 0)">
          <path id="Trazado_986152" data-name="Trazado 986152" d="M74.656,19.137a1.811,1.811,0,0,1,1.811-1.811H72.542a1.811,1.811,0,0,0,0,3.622h3.926A1.811,1.811,0,0,1,74.656,19.137Z" transform="translate(-70.731 -17.326)" fill="#afafaf"/>
        </g>
        <g id="Grupo_1125599" data-name="Grupo 1125599" transform="translate(18.055 9.269)">
          <circle id="Elipse_12093" data-name="Elipse 12093" cx="8.831" cy="8.831" r="8.831" fill="#f8af23"/>
          <g id="Grupo_1125598" data-name="Grupo 1125598" transform="translate(3.099 3.694)">
            <path id="Trazado_986153" data-name="Trazado 986153" d="M130.516,67.977a.184.184,0,0,0-.222-.049l-.32.123-.986-2.18a.186.186,0,0,0-.172-.111h-3.2a.176.176,0,0,0-.148.074L123.655,68a.162.162,0,0,0-.037.148.293.293,0,0,0,.074.135l1.811,1.343a.194.194,0,0,0,.271-.037l1.182-1.6.567,1.01-.357.185a.174.174,0,0,0-.1.185.183.183,0,0,0,.148.16l2.02.493h.049a.21.21,0,0,0,.16-.086l1.084-1.737A.184.184,0,0,0,130.516,67.977Z" transform="translate(-121.337 -65.76)" fill="#3f3679"/>
            <path id="Trazado_986154" data-name="Trazado 986154" d="M120.024,83.805l-2-.086.517-1.035.345.2a.186.186,0,0,0,.222-.025.171.171,0,0,0,.049-.209l-.727-1.946a.19.19,0,0,0-.185-.123l-2.057.074a.185.185,0,0,0-.172.135A.2.2,0,0,0,116.1,81l.283.2-1.244,2.045a.212.212,0,0,0,0,.209l1.38,2.032.53.8a.21.21,0,0,0,.16.086h2.808a.194.194,0,0,0,.2-.2V84A.21.21,0,0,0,120.024,83.805Z" transform="translate(-115.107 -76.612)" fill="#3f3679"/>
            <path id="Trazado_986155" data-name="Trazado 986155" d="M143.07,83.01l-1.232-2.537a.175.175,0,0,0-.111-.1.163.163,0,0,0-.148.025l-1.971,1.1a.2.2,0,0,0-.074.259l.961,1.737-1.158.1-.012-.394a.185.185,0,0,0-.135-.172.194.194,0,0,0-.209.062L137.7,84.722a.207.207,0,0,0-.012.222l1.146,1.7a.206.206,0,0,0,.16.086.191.191,0,0,0,.185-.185l.012-.345h2.39a.193.193,0,0,0,.172-.111l1.318-2.919a.184.184,0,0,0,0-.16Z" transform="translate(-131.625 -76.457)" fill="#3f3679"/>
          </g>
        </g>
        <path id="Trazado_986156" data-name="Trazado 986156" d="M55.92,117.34c.063.176.135.346.213.514l-1.58,1.58,3.106,3.106,1.58-1.58c.168.078.339.15.514.213v2.235h4.392v-2.235c.175-.063.346-.135.514-.213l1.58,1.58,3.106-3.106-1.58-1.58c.078-.168.15-.338.213-.514h2.235v-4.392H67.977c-.063-.175-.135-.346-.213-.514l1.58-1.58-3.106-3.106-1.58,1.581c-.168-.078-.339-.151-.514-.214v-2.233H59.752v2.233c-.175.063-.346.136-.514.214l-1.58-1.581-3.106,3.106,1.58,1.58c-.078.168-.15.339-.213.514H53.686v4.392Z" transform="translate(-48.971 -82.912)" fill="#9e9e9e"/>
        <circle id="Elipse_12094" data-name="Elipse 12094" cx="2.797" cy="2.797" r="2.797" transform="translate(10.181 29.436)" fill="#f46275"/>
        <g id="Grupo_1125600" data-name="Grupo 1125600" transform="translate(10.181 29.436)">
          <path id="Trazado_986157" data-name="Trazado 986157" d="M78.035,130.1a2.788,2.788,0,0,1,.834-1.991,2.8,2.8,0,1,0,0,3.982A2.789,2.789,0,0,1,78.035,130.1Z" transform="translate(-74.109 -127.303)" fill="#f43075"/>
        </g>
      </g>
      <g id="Grupo_1125602" data-name="Grupo 1125602" transform="translate(7.82 15.825)">
        <path id="Trazado_986158" data-name="Trazado 986158" d="M171.578,209.775a1.809,1.809,0,1,0,1.809,1.809A1.811,1.811,0,0,0,171.578,209.775Zm0,2.816a1.006,1.006,0,1,1,1.006-1.006A1.008,1.008,0,0,1,171.578,212.591Z" transform="translate(-126.422 -157.863)" fill="#3f3679"/>
        <path id="Trazado_986159" data-name="Trazado 986159" d="M111.261,68.921a9.232,9.232,0,1,0-9.232-9.232,9.242,9.242,0,0,0,9.232,9.232Zm0-17.661a8.429,8.429,0,1,1-8.429,8.429A8.439,8.439,0,0,1,111.261,51.26Z" transform="translate(-76.813 -41.188)" fill="#3f3679"/>
        <path id="Trazado_986160" data-name="Trazado 986160" d="M52.589,51.056h1.958l.009.023-1.385,1.385a.4.4,0,0,0,0,.568l3.106,3.106a.4.4,0,0,0,.568,0l1.386-1.385.023.01v1.96a.4.4,0,0,0,.4.4h4.391a.4.4,0,0,0,.4-.4v-1.96l.023-.01,1.386,1.385a.4.4,0,0,0,.568,0l2.955-2.955h15.3a2.484,2.484,0,0,0,2.46-2.169L90.022,20.25h.536a2.213,2.213,0,1,0,0-4.425h-31.6a2.213,2.213,0,1,0,0,4.425H59.5L61.964,39.8H58.655a.4.4,0,0,0-.4.4v1.959l-.023.01L56.845,40.78a.4.4,0,0,0-.568,0l-3.106,3.106a.4.4,0,0,0,0,.568l1.385,1.385-.009.023H52.589a.4.4,0,0,0-.4.4v4.392a.4.4,0,0,0,.4.4Zm32.755-.142a1.68,1.68,0,0,1-1.663,1.466H68.446l-1.3-1.3.009-.023h1.96a.4.4,0,0,0,.4-.4V49.206H85.559ZM57.617,18.439H78.251a.4.4,0,0,0,0-.8H57.617a1.407,1.407,0,0,1,1.344-1.008h31.6a1.41,1.41,0,1,1,0,2.819h-31.6A1.408,1.408,0,0,1,57.617,18.439Zm2.689,1.811H89.213L85.66,48.4H69.516v-2.14a.4.4,0,0,0-.4-.4h-1.96l-.009-.023,1.385-1.385a.4.4,0,0,0,0-.568L65.424,40.78a.4.4,0,0,0-.568,0l-1.385,1.386-.023-.01V40.2a.4.4,0,0,0-.4-.4h-.273ZM52.99,46.665h1.832A.4.4,0,0,0,55.2,46.4c.057-.157.124-.319.2-.481a.4.4,0,0,0-.08-.453l-1.3-1.3,2.538-2.538,1.3,1.3a.4.4,0,0,0,.453.08c.174-.081.332-.147.481-.2a.4.4,0,0,0,.265-.378V40.6h3.588V42.43a.4.4,0,0,0,.265.378c.149.054.307.12.481.2a.4.4,0,0,0,.453-.08l1.3-1.3,2.538,2.538-1.3,1.3a.4.4,0,0,0-.08.453c.076.162.143.324.2.481a.4.4,0,0,0,.377.265h1.833v3.589H66.879a.4.4,0,0,0-.378.266c-.055.153-.12.31-.2.48a.4.4,0,0,0,.08.453l1.3,1.3L65.14,55.286l-1.3-1.3a.4.4,0,0,0-.453-.08c-.161.075-.323.142-.481.2a.4.4,0,0,0-.265.378v1.833H59.056V54.488a.4.4,0,0,0-.265-.378c-.158-.057-.32-.124-.481-.2a.4.4,0,0,0-.453.08l-1.3,1.3-2.538-2.538,1.3-1.3A.4.4,0,0,0,55.4,51c-.079-.17-.144-.327-.2-.48a.4.4,0,0,0-.378-.266H52.99V46.665Z" transform="translate(-40.312 -15.825)" fill="#3f3679"/>
        <path id="Trazado_986161" data-name="Trazado 986161" d="M75.808,132.2a3.2,3.2,0,1,0-3.2-3.2A3.2,3.2,0,0,0,75.808,132.2Zm0-5.593a2.4,2.4,0,1,1-2.4,2.4A2.4,2.4,0,0,1,75.808,126.605Z" transform="translate(-55.269 -96.366)" fill="#3f3679"/>
        <path id="Trazado_986162" data-name="Trazado 986162" d="M13.04,237.174H8.221a.4.4,0,1,0,0,.8H13.04a.4.4,0,1,0,0-.8Z" transform="translate(-7.82 -177.929)" fill="#3f3679"/>
        <path id="Trazado_986163" data-name="Trazado 986163" d="M232.4,237.174h-4.819a.4.4,0,1,0,0,.8H232.4a.4.4,0,1,0,0-.8Z" transform="translate(-168.465 -177.929)" fill="#3f3679"/>
        <path id="Trazado_986164" data-name="Trazado 986164" d="M84.857,237.174H36.422a.4.4,0,1,0,0,.8H84.857a.4.4,0,1,0,0-.8Z" transform="translate(-28.473 -177.929)" fill="#3f3679"/>
        <path id="Trazado_986165" data-name="Trazado 986165" d="M8.222,186.364h63.53a.4.4,0,1,0,0-.8H64.994V173.636a.4.4,0,0,0-.4-.4H49.922a11.048,11.048,0,0,0-12.786-.87H30.942l-.274.014a3.14,3.14,0,0,0-2.7,4.061l-7.714-3.872a3.639,3.639,0,0,0-3.355,6.458l12.162,6.534H8.222a.4.4,0,0,0,0,.8Zm41.964-12.326h5.582v11.523H50.185Zm14.006,11.523H56.57V174.038h7.621Zm-46.914-7.241a2.836,2.836,0,0,1,2.614-5.033l8.926,4.48a.805.805,0,0,0,.124.036l.055.006h5.345a.4.4,0,1,0,0-.8H29.178a2.331,2.331,0,0,1,1.548-3.825l6.527-.013a.4.4,0,0,0,.226-.069,10.1,10.1,0,0,1,11.9.728v11.734H30.756Z" transform="translate(-7.82 -129.253)" fill="#3f3679"/>
      </g>
    </g>
  </g>
</svg>
