<svg xmlns="http://www.w3.org/2000/svg" width="87" height="87" viewBox="0 0 87 87">
  <g id="Grupo_1124236" data-name="Grupo 1124236" transform="translate(-916.051 -3486)">
    <rect id="Rectángulo_415437" data-name="Rectángulo 415437" width="87" height="87" transform="translate(916.051 3486)" fill="none"/>
    <g id="Grupo_1124272" data-name="Grupo 1124272" transform="translate(914.742 3438.634)">
      <g id="Grupo_1124268" data-name="Grupo 1124268" transform="translate(9.823 63.672)">
        <path id="Trazado_984753" data-name="Trazado 984753" d="M7.5,111.5h47v47H7.5Z" transform="translate(-6.451 -103.738)" fill="#ffe462"/>
        <path id="Trazado_984754" data-name="Trazado 984754" d="M39.5,111.5H82.027v42.527H39.5Z" transform="translate(-33.974 -103.738)" fill="#ffbf5d"/>
        <path id="Trazado_984755" data-name="Trazado 984755" d="M55.5,63.5h47v47h-47Z" transform="translate(-47.736 -62.453)" fill="#49f0f6"/>
        <path id="Trazado_984756" data-name="Trazado 984756" d="M55.5,375.5h47v3.357h-47Z" transform="translate(-47.736 -330.806)" fill="#54d3f5"/>
        <path id="Trazado_984757" data-name="Trazado 984757" d="M375.5,63.5h2.238v47H375.5Z" transform="translate(-322.97 -62.453)" fill="#54d3f5"/>
        <g id="Grupo_1124265" data-name="Grupo 1124265" transform="translate(21.194 17.836)">
          <g id="Grupo_1124264" data-name="Grupo 1124264">
            <path id="Trazado_984758" data-name="Trazado 984758" d="M163.811,215.5H153.738L151.5,217.74l2.238,2.238h10.072Z" transform="translate(-151.5 -211.025)" fill="#a7c4d9"/>
            <path id="Trazado_984759" data-name="Trazado 984759" d="M313.573,183.5v4.477H303.5v4.477h10.073v4.477h17.906V183.5Z" transform="translate(-282.236 -183.502)" fill="#a7c4d9"/>
          </g>
          <path id="Trazado_984760" data-name="Trazado 984760" d="M407.505,215.5h8.953v4.477h-8.953Z" transform="translate(-371.692 -211.025)" fill="#fff"/>
        </g>
        <g id="Grupo_1124266" data-name="Grupo 1124266" transform="translate(33.504 18.955)">
          <path id="Trazado_984761" data-name="Trazado 984761" d="M239.5,191.5h8.953v11.191H239.5Z" transform="translate(-239.5 -191.502)" fill="#49f0f6"/>
          <path id="Trazado_984762" data-name="Trazado 984762" d="M239.5,255.5h8.953v2.238H239.5Z" transform="translate(-239.5 -246.549)" fill="#54d3f5"/>
        </g>
        <g id="Grupo_1124267" data-name="Grupo 1124267" transform="translate(0 0)">
          <path id="Trazado_984763" data-name="Trazado 984763" d="M96,103.5h2.1v2.238H96Z" transform="translate(-82.57 -96.857)"/>
          <path id="Trazado_984764" data-name="Trazado 984764" d="M96,343.5h2.1v2.238H96Z" transform="translate(-82.57 -303.283)"/>
          <path id="Trazado_984765" data-name="Trazado 984765" d="M144,343.5h2.1v2.238H144Z" transform="translate(-123.855 -303.283)"/>
          <path id="Trazado_984766" data-name="Trazado 984766" d="M192,343.5h2.1v2.238H192Z" transform="translate(-165.141 -303.283)"/>
          <path id="Trazado_984767" data-name="Trazado 984767" d="M240,343.5h2.1v2.238H240Z" transform="translate(-206.426 -303.283)"/>
          <path id="Trazado_984768" data-name="Trazado 984768" d="M288,343.5h2.1v2.238H288Z" transform="translate(-247.711 -303.283)"/>
          <path id="Trazado_984769" data-name="Trazado 984769" d="M96,295.5h2.1v2.238H96Z" transform="translate(-82.57 -261.998)"/>
          <path id="Trazado_984770" data-name="Trazado 984770" d="M96,247.5h2.1v2.238H96Z" transform="translate(-82.57 -220.713)"/>
          <path id="Trazado_984771" data-name="Trazado 984771" d="M96,199.5h2.1v2.238H96Z" transform="translate(-82.57 -179.427)"/>
          <path id="Trazado_984772" data-name="Trazado 984772" d="M96,151.5h2.1v2.238H96Z" transform="translate(-82.57 -138.142)"/>
          <path id="Trazado_984773" data-name="Trazado 984773" d="M336,343.5h2.1v2.238H336Z" transform="translate(-288.996 -303.283)"/>
          <path id="Trazado_984774" data-name="Trazado 984774" d="M71.486,88.317V72.789H62.532V67.123a2.171,2.171,0,0,0-2.168-2.168H55.817V56H6.715v6.715H0v15.6H2.1v-13.5H6.715V105.1H47v4.616H2.1V80.553H0v31.266H49.1V105.1h6.715V90.625h-2.1v12.381H8.813V58.1H53.719V72.789H51.481v4.477H43.507V74.957h-2.1V86.149h2.1V83.841h7.975v4.477h8.952v3.427A2.171,2.171,0,0,0,62.6,93.913h6.715a.07.07,0,0,1,.07.07V97.34h2.1V93.983a2.171,2.171,0,0,0-2.168-2.168H62.6a.07.07,0,0,1-.07-.07V88.317ZM55.817,67.054h4.547a.07.07,0,0,1,.07.07v5.666H55.817ZM53.58,86.219V81.742H43.507V79.364H53.58V74.888H69.388V86.219H62.532V83.841h4.477V77.266H55.958v6.575h4.476v2.378Zm8.952-6.855h2.379v2.378H62.532Zm-2.1,2.378H58.056V79.364h2.377Z" transform="translate(0 -56.002)"/>
          <path id="Trazado_984775" data-name="Trazado 984775" d="M155.737,202.693V191.5h-2.1v6.785h-8.588l-1.189-1.189,1.189-1.189h6.28v-2.1h-7.149l-3.288,3.287,3.288,3.288h9.458v2.308Z" transform="translate(-121.184 -172.547)"/>
          <path id="Trazado_984776" data-name="Trazado 984776" d="M264,191.5h2.1v11.191H264Z" transform="translate(-227.068 -172.547)"/>
        </g>
      </g>
      <g id="Grupo_1124271" data-name="Grupo 1124271" transform="translate(55.939 63.672)">
        <g id="Grupo_1124269" data-name="Grupo 1124269" transform="translate(5.875)">
          <path id="Trazado_984777" data-name="Trazado 984777" d="M344,103.5h2.754v2.938H344Z" transform="translate(-344 -103.502)" fill="#fff"/>
        </g>
        <g id="Grupo_1124270" data-name="Grupo 1124270">
          <path id="Trazado_984778" data-name="Trazado 984778" d="M312,103.5h2.754v2.938H312Z" transform="translate(-312 -103.502)"/>
        </g>
      </g>
    </g>
  </g>
</svg>
