<svg xmlns="http://www.w3.org/2000/svg" width="123" height="123" viewBox="0 0 123 123">
  <g id="Grupo_1125709" data-name="Grupo 1125709" transform="translate(-1164.051 -3780)">
    <rect id="Rectángulo_415769" data-name="Rectángulo 415769" width="123" height="123" transform="translate(1164.051 3780)" fill="none"/>
    <g id="Grupo_1125708" data-name="Grupo 1125708" transform="translate(1089.163 3793.557)">
      <g id="Grupo_1125704" data-name="Grupo 1125704" transform="translate(115.768 7.156)">
        <g id="Grupo_1125703" data-name="Grupo 1125703" transform="translate(4.184 36.242)">
          <path id="Trazado_986677" data-name="Trazado 986677" d="M181.021,236.294a2.794,2.794,0,1,0,5.588,0V233.5h-5.588Z" transform="translate(-181.021 -233.502)" fill="#f05475"/>
          <path id="Trazado_986678" data-name="Trazado 986678" d="M240.979,236.294a2.794,2.794,0,0,0,5.588,0V233.5h-5.588Z" transform="translate(-229.835 -233.502)" fill="#f05475"/>
          <path id="Trazado_986679" data-name="Trazado 986679" d="M300.936,233.5v2.792a2.794,2.794,0,1,0,5.588,0V233.5Z" transform="translate(-278.649 -233.502)" fill="#f05475"/>
        </g>
        <rect id="Rectángulo_415765" data-name="Rectángulo 415765" width="36.242" height="36.242" fill="#57758d"/>
        <path id="Trazado_986680" data-name="Trazado 986680" d="M162.716,70.532V38.5h-4.205V74.744h36.242V70.532Z" transform="translate(-158.511 -38.502)" fill="#4b6276"/>
        <path id="Trazado_986681" data-name="Trazado 986681" d="M211.447,203.748H191.09l-2.42,5.53h25.055Z" transform="translate(-183.065 -173.036)" fill="#c3f839"/>
        <rect id="Rectángulo_415766" data-name="Rectángulo 415766" width="11.151" height="11.151" transform="translate(19.509 5.586)" fill="#f88fa4"/>
        <path id="Trazado_986682" data-name="Trazado 986682" d="M267.532,75.655v-7.1h-4.053V79.708H274.63V75.655Z" transform="translate(-243.97 -62.971)" fill="#f05475"/>
        <line id="Línea_654" data-name="Línea 654" y2="2.788" transform="translate(5.605 4.182)" fill="none" stroke="#fff" stroke-miterlimit="10" stroke-width="2"/>
        <line id="Línea_655" data-name="Línea 655" y2="2.788" transform="translate(11.157 4.182)" fill="none" stroke="#fff" stroke-miterlimit="10" stroke-width="2"/>
      </g>
      <g id="Grupo_1125707" data-name="Grupo 1125707" transform="translate(106.011)">
        <rect id="Rectángulo_415767" data-name="Rectángulo 415767" width="36.242" height="36.242" transform="translate(9.757 7.156)" fill="none" stroke="#000" stroke-miterlimit="10" stroke-width="2"/>
        <rect id="Rectángulo_415768" data-name="Rectángulo 415768" width="11.151" height="11.151" transform="translate(29.266 12.742)" fill="none" stroke="#000" stroke-miterlimit="10" stroke-width="2"/>
        <path id="Trazado_986683" data-name="Trazado 986683" d="M241.011,203.748H254.06l2.278,5.53" transform="translate(-215.921 -165.88)" fill="none" stroke="#000" stroke-miterlimit="10" stroke-width="2"/>
        <path id="Trazado_986684" data-name="Trazado 986684" d="M188.67,209.278l2.42-5.53h4.52" transform="translate(-173.307 -165.88)" fill="none" stroke="#000" stroke-miterlimit="10" stroke-width="2"/>
        <line id="Línea_656" data-name="Línea 656" y1="7.156" transform="translate(15.363)" fill="none" stroke="#000" stroke-miterlimit="10" stroke-width="2"/>
        <line id="Línea_657" data-name="Línea 657" y1="7.156" transform="translate(23.691)" fill="none" stroke="#000" stroke-miterlimit="10" stroke-width="2"/>
        <line id="Línea_658" data-name="Línea 658" y1="7.156" transform="translate(32.09)" fill="none" stroke="#000" stroke-miterlimit="10" stroke-width="2"/>
        <line id="Línea_659" data-name="Línea 659" y1="7.156" transform="translate(40.418)" fill="none" stroke="#000" stroke-miterlimit="10" stroke-width="2"/>
        <line id="Línea_660" data-name="Línea 660" x1="6.969" transform="translate(2.788 37.792)" fill="none" stroke="#000" stroke-miterlimit="10" stroke-width="2"/>
        <line id="Línea_661" data-name="Línea 661" x1="6.969" transform="translate(2.788 29.464)" fill="none" stroke="#000" stroke-miterlimit="10" stroke-width="2"/>
        <line id="Línea_662" data-name="Línea 662" x1="6.969" transform="translate(2.788 21.065)" fill="none" stroke="#000" stroke-miterlimit="10" stroke-width="2"/>
        <line id="Línea_663" data-name="Línea 663" x1="6.969" transform="translate(2.788 12.737)" fill="none" stroke="#000" stroke-miterlimit="10" stroke-width="2"/>
        <line id="Línea_664" data-name="Línea 664" x2="6.969" transform="translate(45.999 12.761)" fill="none" stroke="#000" stroke-miterlimit="10" stroke-width="2"/>
        <line id="Línea_665" data-name="Línea 665" x2="6.969" transform="translate(45.999 21.089)" fill="none" stroke="#000" stroke-miterlimit="10" stroke-width="2"/>
        <line id="Línea_666" data-name="Línea 666" x2="6.969" transform="translate(45.999 29.488)" fill="none" stroke="#000" stroke-miterlimit="10" stroke-width="2"/>
        <line id="Línea_667" data-name="Línea 667" x2="6.969" transform="translate(45.999 37.816)" fill="none" stroke="#000" stroke-miterlimit="10" stroke-width="2"/>
        <path id="Trazado_986685" data-name="Trazado 986685" d="M181.021,233.5v2.792a2.794,2.794,0,0,0,2.794,2.794h0a2.794,2.794,0,0,0,2.794-2.794V233.5" transform="translate(-167.08 -190.104)" fill="none" stroke="#000" stroke-miterlimit="10" stroke-width="2"/>
        <path id="Trazado_986686" data-name="Trazado 986686" d="M240.979,233.5v2.792a2.794,2.794,0,0,0,2.794,2.794h0a2.794,2.794,0,0,0,2.794-2.794V233.5" transform="translate(-215.895 -190.104)" fill="none" stroke="#000" stroke-miterlimit="10" stroke-width="2"/>
        <path id="Trazado_986687" data-name="Trazado 986687" d="M300.936,233.5v2.792a2.794,2.794,0,0,0,2.794,2.794h0a2.794,2.794,0,0,0,2.794-2.794V233.5" transform="translate(-264.708 -190.104)" fill="none" stroke="#000" stroke-miterlimit="10" stroke-width="2"/>
        <line id="Línea_668" data-name="Línea 668" y2="46.175" transform="translate(16.735 48.983)" fill="none" stroke="#000" stroke-miterlimit="10" stroke-width="2"/>
        <line id="Línea_669" data-name="Línea 669" y2="46.175" transform="translate(27.878 48.983)" fill="none" stroke="#000" stroke-miterlimit="10" stroke-width="2"/>
        <line id="Línea_670" data-name="Línea 670" y2="22.532" transform="translate(39.022 72.626)" fill="none" stroke="#000" stroke-miterlimit="10" stroke-width="2"/>
        <line id="Línea_671" data-name="Línea 671" y2="20.891" transform="translate(39.022 48.983)" fill="none" stroke="#000" stroke-miterlimit="10" stroke-width="2"/>
        <g id="Grupo_1125705" data-name="Grupo 1125705" transform="translate(45.759 60.914)">
          <line id="Línea_672" data-name="Línea 672" x2="8.363" transform="translate(1.631 10.413)" fill="none" stroke="#000" stroke-miterlimit="10" stroke-width="2"/>
          <line id="Línea_673" data-name="Línea 673" y1="5.376" x2="6.407" fill="none" stroke="#000" stroke-miterlimit="10" stroke-width="2"/>
          <line id="Línea_674" data-name="Línea 674" x1="6.407" y1="5.376" transform="translate(0 15.451)" fill="none" stroke="#000" stroke-miterlimit="10" stroke-width="2"/>
        </g>
        <g id="Grupo_1125706" data-name="Grupo 1125706" transform="translate(0 60.914)">
          <line id="Línea_675" data-name="Línea 675" x1="8.363" transform="translate(0 10.413)" fill="none" stroke="#000" stroke-miterlimit="10" stroke-width="2"/>
          <line id="Línea_676" data-name="Línea 676" x1="6.407" y1="5.376" transform="translate(3.587)" fill="none" stroke="#000" stroke-miterlimit="10" stroke-width="2"/>
          <line id="Línea_677" data-name="Línea 677" y1="5.376" x2="6.407" transform="translate(3.587 15.451)" fill="none" stroke="#000" stroke-miterlimit="10" stroke-width="2"/>
        </g>
      </g>
    </g>
  </g>
</svg>
