<svg xmlns="http://www.w3.org/2000/svg" width="123" height="123" viewBox="0 0 123 123">
  <g id="Grupo_1125727" data-name="Grupo 1125727" transform="translate(-1164.051 -4147)">
    <g id="Layer_1" transform="translate(1184.881 4148.83)">
      <g id="Grupo_1125726" data-name="Grupo 1125726" transform="translate(-5.83 23.17)">
        <g id="Grupo_1125724" data-name="Grupo 1125724" transform="translate(0.944 0.942)">
          <g id="Grupo_1125713" data-name="Grupo 1125713" transform="translate(0 2.77)">
            <path id="Trazado_986688" data-name="Trazado 986688" d="M98.563,43.888v63.953a1.889,1.889,0,0,1-1.888,1.888H9.558a1.889,1.889,0,0,1-1.888-1.888V43.888A1.889,1.889,0,0,1,9.558,42h4.91V72.135H35.177V42H57.641v2.519a1.889,1.889,0,0,0,1.888,1.888H69.863a1.889,1.889,0,0,0,1.888-1.888V42h5.193v2.519a1.889,1.889,0,0,0,1.888,1.888H88.989a1.889,1.889,0,0,0,1.888-1.888V42h5.8A1.888,1.888,0,0,1,98.563,43.888Z" transform="translate(-7.67 -42)" fill="#13bf6d"/>
          </g>
          <g id="Grupo_1125714" data-name="Grupo 1125714" transform="translate(9.032 54.849)">
            <path id="Trazado_986689" data-name="Trazado 986689" d="M31.584,179.89h16.24v6.748H31.584Z" transform="translate(-31.584 -179.89)" fill="#afafaf"/>
          </g>
          <g id="Grupo_1125719" data-name="Grupo 1125719" transform="translate(49.97 13.974)">
            <g id="Grupo_1125715" data-name="Grupo 1125715">
              <path id="Trazado_986690" data-name="Trazado 986690" d="M139.977,71.665h33.236V104.9H139.977Z" transform="translate(-139.977 -71.665)" fill="#efefef"/>
            </g>
            <g id="Grupo_1125718" data-name="Grupo 1125718" transform="translate(7.239 7.239)">
              <g id="Grupo_1125716" data-name="Grupo 1125716">
                <path id="Trazado_986691" data-name="Trazado 986691" d="M159.143,92.72V107.7a1.889,1.889,0,0,0,1.888,1.888h14.981A1.889,1.889,0,0,0,177.9,107.7V92.72a1.889,1.889,0,0,0-1.888-1.888H161.031A1.888,1.888,0,0,0,159.143,92.72Z" transform="translate(-159.143 -90.832)" fill="#72c1e8"/>
              </g>
              <g id="Grupo_1125717" data-name="Grupo 1125717" transform="translate(3.903 3.903)">
                <path id="Trazado_986692" data-name="Trazado 986692" d="M169.477,101.165H180.43v10.953H169.477Z" transform="translate(-169.477 -101.165)" fill="#f0c020"/>
              </g>
            </g>
          </g>
          <g id="Grupo_1125720" data-name="Grupo 1125720" transform="translate(6.798 0.002)">
            <path id="Trazado_986693" data-name="Trazado 986693" d="M25.67,34.67H46.378v32.9H25.67Z" transform="translate(-25.67 -34.67)" fill="#f0c020"/>
          </g>
          <g id="Grupo_1125721" data-name="Grupo 1125721" transform="translate(69.275)">
            <path id="Trazado_986694" data-name="Trazado 986694" d="M205.023,34.665v5.288a1.889,1.889,0,0,1-1.888,1.888H192.98a1.889,1.889,0,0,1-1.888-1.888V34.665Z" transform="translate(-191.092 -34.665)" fill="#afafaf"/>
          </g>
          <g id="Grupo_1125722" data-name="Grupo 1125722" transform="translate(49.97)">
            <path id="Trazado_986695" data-name="Trazado 986695" d="M154.089,34.665v5.288a1.889,1.889,0,0,1-1.888,1.888H141.865a1.889,1.889,0,0,1-1.888-1.888V34.665Z" transform="translate(-139.977 -34.665)" fill="#afafaf"/>
          </g>
          <g id="Grupo_1125723" data-name="Grupo 1125723" transform="translate(32.668 53.754)">
            <circle id="Elipse_12113" data-name="Elipse 12113" cx="4.469" cy="4.469" r="4.469" fill="#afafaf"/>
          </g>
        </g>
        <g id="Grupo_1125725" data-name="Grupo 1125725" transform="translate(27.507 10.511)">
          <path id="Trazado_986696" data-name="Trazado 986696" d="M138.24,117.408H84.609a.944.944,0,0,1,0-1.888H137.3V60.944a.944.944,0,0,1,1.888,0v55.519A.944.944,0,0,1,138.24,117.408Zm-57.408,0H78.944a.944.944,0,0,1,0-1.888h1.888a.944.944,0,1,1,0,1.888Z" transform="translate(-78 -60)" fill="#76ffba"/>
        </g>
        <path id="Trazado_986697" data-name="Trazado 986697" d="M42.865,183.708a.945.945,0,0,0,.944-.944v-2.636h2.455a.946.946,0,0,0,.944-.944v-6.749a.943.943,0,0,0-.944-.944H43.81v-2.636a.944.944,0,1,0-1.888,0v2.636H39.089v-2.636a.944.944,0,1,0-1.888,0v2.636H34.368v-2.636a.944.944,0,1,0-1.888,0v2.636H30.024a.948.948,0,0,0-.944.944v6.749a.952.952,0,0,0,.944.944h2.455v2.636a.944.944,0,1,0,1.888,0v-2.636H37.2v2.636a.944.944,0,1,0,1.888,0v-2.636h2.833v2.636A.947.947,0,0,0,42.865,183.708Zm-11.9-10.33H45.32v4.861H30.968Z" transform="translate(-20.05 -116.643)"/>
        <path id="Trazado_986698" data-name="Trazado 986698" d="M178.877,98.67H167.924a.94.94,0,0,0-.944.944v10.949a.94.94,0,0,0,.944.944h10.953a.943.943,0,0,0,.944-.944V99.614A.943.943,0,0,0,178.877,98.67Zm-.944,10.953h-9.064v-9.068h9.064Z" transform="translate(-105.867 -73.554)"/>
        <path id="Trazado_986699" data-name="Trazado 986699" d="M174.595,89.829a.944.944,0,0,0,0-1.888h-1.756V86.713a2.839,2.839,0,0,0-2.833-2.833h-1.227V82.124a.944.944,0,0,0-1.888,0V83.88H163.46V82.124a.944.944,0,0,0-1.888,0V83.88h-3.433V82.124a.944.944,0,1,0-1.888,0V83.88h-1.227a2.838,2.838,0,0,0-2.833,2.833V87.94h-1.756a.944.944,0,0,0,0,1.888h1.756v3.429h-1.756a.944.944,0,0,0,0,1.888h1.756V98.58h-1.756a.944.944,0,0,0,0,1.888h1.756V101.7a2.838,2.838,0,0,0,2.833,2.833h1.227v1.756a.944.944,0,1,0,1.888,0v-1.756h3.433v1.756a.944.944,0,1,0,1.888,0v-1.756h3.429v1.756a.944.944,0,1,0,1.888,0v-1.756h1.227a2.838,2.838,0,0,0,2.833-2.833v-1.227h1.756a.944.944,0,0,0,0-1.888h-1.756V95.147h1.756a.944.944,0,0,0,0-1.888h-1.756V89.829ZM170.95,101.7a.947.947,0,0,1-.944.944H155.023a.952.952,0,0,1-.944-.944V86.713a.949.949,0,0,1,.944-.944h14.983a.945.945,0,0,1,.944.944Z" transform="translate(-94.983 -62.67)"/>
        <path id="Trazado_986700" data-name="Trazado 986700" d="M172.6,70.108a.949.949,0,0,0-.944-.948H138.424a.947.947,0,0,0-.944.948V103.34a.948.948,0,0,0,.944.948H171.66a.951.951,0,0,0,.944-.948V87.481a.944.944,0,1,0-1.888-.008V102.4H139.368V71.048h31.348v8.876a.944.944,0,1,0,1.888,0Z" transform="translate(-87.509 -55.19)"/>
        <path id="Trazado_986701" data-name="Trazado 986701" d="M226.424,105.16a.944.944,0,1,0,.944.948A.948.948,0,0,0,226.424,105.16Z" transform="translate(-142.273 -77.593)"/>
        <path id="Trazado_986702" data-name="Trazado 986702" d="M138.424,179.278H171.66a.944.944,0,0,0,0-1.888H138.424a.944.944,0,1,0,0,1.888Z" transform="translate(-87.509 -122.543)"/>
        <path id="Trazado_986703" data-name="Trazado 986703" d="M138.424,193.388H171.66a.944.944,0,0,0,0-1.888H138.424a.944.944,0,1,0,0,1.888Z" transform="translate(-87.509 -131.324)"/>
        <circle id="Elipse_12114" data-name="Elipse 12114" cx="0.944" cy="0.944" r="0.944" transform="translate(20.603 17.49)"/>
        <path id="Trazado_986704" data-name="Trazado 986704" d="M102.934,71.727a.945.945,0,0,0,.944-.944V70.11a.944.944,0,0,0-1.888,0v.672A.945.945,0,0,0,102.934,71.727Z" transform="translate(-65.423 -55.196)"/>
        <path id="Trazado_986705" data-name="Trazado 986705" d="M101.99,92.336a.944.944,0,1,0,1.888,0v-.672a.944.944,0,1,0-1.888,0Z" transform="translate(-65.423 -68.607)"/>
        <path id="Trazado_986706" data-name="Trazado 986706" d="M101.99,113.893a.944.944,0,1,0,1.888,0v-.669a.944.944,0,0,0-1.888,0Z" transform="translate(-65.423 -82.024)"/>
        <path id="Trazado_986707" data-name="Trazado 986707" d="M101.99,135.446a.944.944,0,1,0,1.888,0v-.672a.944.944,0,1,0-1.888,0Z" transform="translate(-65.423 -95.435)"/>
        <path id="Trazado_986708" data-name="Trazado 986708" d="M101.99,157a.944.944,0,1,0,1.888,0v-.669a.944.944,0,1,0-1.888,0Z" transform="translate(-65.423 -108.852)"/>
        <path id="Trazado_986709" data-name="Trazado 986709" d="M114.434,82.787a.945.945,0,0,0,.944-.944v-.668a.944.944,0,1,0-1.888,0v.668A.945.945,0,0,0,114.434,82.787Z" transform="translate(-72.579 -62.079)"/>
        <path id="Trazado_986710" data-name="Trazado 986710" d="M113.49,103.4a.944.944,0,1,0,1.888,0v-.672a.944.944,0,0,0-1.888,0Z" transform="translate(-72.579 -75.496)"/>
        <path id="Trazado_986711" data-name="Trazado 986711" d="M113.49,124.956a.944.944,0,1,0,1.888,0v-.672a.944.944,0,1,0-1.888,0Z" transform="translate(-72.579 -88.907)"/>
        <path id="Trazado_986712" data-name="Trazado 986712" d="M113.49,146.513a.944.944,0,1,0,1.888,0v-.669a.944.944,0,1,0-1.888,0Z" transform="translate(-72.579 -102.324)"/>
        <path id="Trazado_986713" data-name="Trazado 986713" d="M91.67,179.9a5.412,5.412,0,1,0,5.412-5.412A5.42,5.42,0,0,0,91.67,179.9Zm5.412-3.524a3.526,3.526,0,1,1-3.524,3.524A3.537,3.537,0,0,1,97.082,176.378Z" transform="translate(-59 -120.738)"/>
        <path id="Trazado_986714" data-name="Trazado 986714" d="M45.767,149.774a.947.947,0,0,0-.944-.944H24.114a.944.944,0,1,0,0,1.888H44.823A.945.945,0,0,0,45.767,149.774Z" transform="translate(-16.372 -104.77)"/>
        <circle id="Elipse_12115" data-name="Elipse 12115" cx="0.944" cy="0.944" r="0.944" transform="translate(76.156 70.498)"/>
        <path id="Trazado_986715" data-name="Trazado 986715" d="M5.17,101.724A2.836,2.836,0,0,0,8,104.557H78.493a.944.944,0,0,0,0-1.888H8a.945.945,0,0,1-.944-.944V37.771A.945.945,0,0,1,8,36.827h3.966V66.018a.943.943,0,0,0,.944.944H15.42v2.787a.944.944,0,0,0,1.888,0V66.962h5.012v2.787a.944.944,0,0,0,1.888,0V66.962h5.016v2.787a.944.944,0,0,0,1.888,0V66.962h2.508a.942.942,0,0,0,.944-.944V36.827H55.141V38.4a2.836,2.836,0,0,0,2.833,2.833H68.307A2.839,2.839,0,0,0,71.14,38.4V36.827h3.3V38.4a2.839,2.839,0,0,0,2.833,2.833H87.433A2.839,2.839,0,0,0,90.266,38.4V36.827h4.853a.945.945,0,0,1,.944.944v63.953a.945.945,0,0,1-.944.944H86.047a.944.944,0,0,0,0,1.888h9.072a2.836,2.836,0,0,0,2.833-2.833V37.771a2.839,2.839,0,0,0-2.833-2.833H90.266V33.114a.941.941,0,0,0-.944-.944H75.389a.941.941,0,0,0-.944.944v1.824h-3.3V33.114a.943.943,0,0,0-.944-.944H56.085a.941.941,0,0,0-.944.944v1.824H34.565V33.114a.943.943,0,0,0-.944-.944H12.912a.94.94,0,0,0-.944.944v1.824H8A2.839,2.839,0,0,0,5.17,37.771ZM76.333,34.055H88.377V38.4a.952.952,0,0,1-.944.944H77.277a.952.952,0,0,1-.944-.944Zm-19.3,0H69.251V38.4a.95.95,0,0,1-.944.948H57.974a.95.95,0,0,1-.944-.948ZM26.717,47.772a.945.945,0,0,0,.944-.944V34.055h5.016V65.074H27.661V54.381a.944.944,0,0,0-1.888,0v10.7H20.757V34.055h5.016V46.828A.945.945,0,0,0,26.717,47.772ZM13.857,34.055h5.012V65.074H13.857Z" transform="translate(-5.17 -32.17)"/>
      </g>
    </g>
    <rect id="Rectángulo_415770" data-name="Rectángulo 415770" width="123" height="123" transform="translate(1164.051 4147)" fill="none"/>
  </g>
</svg>
