<svg xmlns="http://www.w3.org/2000/svg" width="123" height="123" viewBox="0 0 123 123">
  <g id="Grupo_1125730" data-name="Grupo 1125730" transform="translate(-317.051 -4361)">
    <g id="Grupo_1125729" data-name="Grupo 1125729" transform="translate(324.469 4307.113)">
      <path id="Trazado_986716" data-name="Trazado 986716" d="M101.8,152.687a1.492,1.492,0,0,1-1.493,1.493H88.973a1.492,1.492,0,0,1-1.493-1.493v-5.836a1.5,1.5,0,0,1,1.493-1.493H100.31a1.5,1.5,0,0,1,1.493,1.493Zm-18.751-11.2v8.282a1.493,1.493,0,0,1-2.987,0v-8.282H77.387v8.282a1.493,1.493,0,0,1-2.987,0v-8.282H71.72v8.282a1.493,1.493,0,0,1-2.987,0v-8.282H65.742a3.079,3.079,0,0,1-3.077-3.077v-2.992H54.383a1.493,1.493,0,1,1,0-2.987h8.282v-2.679H54.383a1.493,1.493,0,1,1,0-2.987h8.282v-2.679H54.383a1.493,1.493,0,0,1,0-2.987h8.282v-2.992a3.082,3.082,0,0,1,3.077-3.077h2.992v-8.282a1.493,1.493,0,1,1,2.987,0v8.282H74.4v-8.282a1.493,1.493,0,1,1,2.987,0v8.282h2.679v-8.282a1.493,1.493,0,1,1,2.987,0v8.282h2.992a3.078,3.078,0,0,1,3.071,3.077V121.1H97.4a1.493,1.493,0,0,1,0,2.987H89.116v2.679H97.4a1.493,1.493,0,1,1,0,2.987H89.116v2.679H97.4a1.493,1.493,0,0,1,0,2.987H89.116v2.992a3.075,3.075,0,0,1-3.071,3.077ZM58.09,105.881A5.113,5.113,0,1,1,52.98,111,5.122,5.122,0,0,1,58.09,105.881Zm-8.806,33.271a3.458,3.458,0,0,1-3.453,3.458H43.788a3.458,3.458,0,0,1-3.453-3.458V114.47a3.458,3.458,0,0,1,3.453-3.458h2.044a3.458,3.458,0,0,1,3.453,3.458Zm-3.59,13.535A1.492,1.492,0,0,1,44.2,154.18H32.863a1.492,1.492,0,0,1-1.493-1.493v-5.836a1.5,1.5,0,0,1,1.493-1.493H44.2a1.5,1.5,0,0,1,1.493,1.493ZM27.78,139.152V114.47a3.458,3.458,0,0,1,3.453-3.458h2.044a3.458,3.458,0,0,1,3.453,3.458v24.682a3.458,3.458,0,0,1-3.453,3.458H31.232A3.458,3.458,0,0,1,27.78,139.152Zm81.289-40.277h-6.958V106.8a1.5,1.5,0,0,1-.763,1.308l-3.294,1.822A5.053,5.053,0,0,1,98.166,111a5.124,5.124,0,1,1-1.562-3.675l2.526-1.4V98.875h-50.6a10.105,10.105,0,0,1-19.99,0H24.751a1.182,1.182,0,0,0-1.181,1.181v56.406a1.2,1.2,0,0,0,1.181,1.181H49.025V149.07a1.492,1.492,0,0,1,.768-1.3l3.3-1.827a5.04,5.04,0,0,1-.111-1.064,5.115,5.115,0,1,1,1.562,3.675l-2.531,1.4v7.694h57.058a1.2,1.2,0,0,0,1.186-1.181v-8.637h-1.716a5.9,5.9,0,0,1-5.894-5.888V114.581a5.9,5.9,0,0,1,5.894-5.888h1.716v-8.637a1.19,1.19,0,0,0-1.186-1.181Z" transform="translate(-13.001 -13.001)" fill="#6cf4c2"/>
      <path id="Trazado_986717" data-name="Trazado 986717" d="M265.795,216.107a2.2,2.2,0,0,1-2.2,2.2h-9.034a2.2,2.2,0,0,1-2.2-2.2v-9.034a2.2,2.2,0,0,1,2.2-2.2H263.6a2.2,2.2,0,0,1,2.2,2.2Zm3.437-14.758h-20.3a.1.1,0,0,0-.09.09v20.3a.093.093,0,0,0,.09.09h20.3a.092.092,0,0,0,.085-.09v-20.3A.1.1,0,0,0,269.231,201.349Z" transform="translate(-196.188 -96.332)" fill="#ffee93"/>
      <path id="Trazado_986718" data-name="Trazado 986718" d="M81.312,363.688h8.351v2.849H81.312Z" transform="translate(-59.957 -228.345)" fill="#ffee93"/>
      <path id="Trazado_986719" data-name="Trazado 986719" d="M283.7,236.214h7.456v7.456H283.7Z" transform="translate(-224.541 -124.684)" fill="#82ffd1"/>
      <path id="Trazado_986720" data-name="Trazado 986720" d="M65.068,204.986V180.3a.475.475,0,0,0-.466-.471H62.558a.475.475,0,0,0-.466.471v24.682a.471.471,0,0,0,.466.471H64.6A.471.471,0,0,0,65.068,204.986Z" transform="translate(-44.327 -78.836)" fill="#ffee93"/>
      <path id="Trazado_986721" data-name="Trazado 986721" d="M131.811,179.833h-2.044a.475.475,0,0,0-.466.471v24.682a.471.471,0,0,0,.466.471h2.044a.471.471,0,0,0,.466-.471V180.3A.475.475,0,0,0,131.811,179.833Z" transform="translate(-98.981 -78.836)" fill="#ffee93"/>
      <path id="Trazado_986722" data-name="Trazado 986722" d="M199.116,156.618a2.126,2.126,0,1,0-2.123-2.123A2.128,2.128,0,0,0,199.116,156.618Z" transform="translate(-154.027 -56.5)" fill="#ffee93"/>
      <path id="Trazado_986723" data-name="Trazado 986723" d="M381.67,363.688h8.351v2.849H381.67Z" transform="translate(-304.205 -228.345)" fill="#ffee93"/>
      <path id="Trazado_986724" data-name="Trazado 986724" d="M201.245,335.877A2.126,2.126,0,1,0,199.116,338,2.128,2.128,0,0,0,201.245,335.877Z" transform="translate(-154.027 -204.003)" fill="#ffee93"/>
      <path id="Trazado_986725" data-name="Trazado 986725" d="M384.137,154.495a2.126,2.126,0,1,0,2.123-2.129A2.127,2.127,0,0,0,384.137,154.495Z" transform="translate(-306.211 -56.5)" fill="#ffee93"/>
      <g id="Grupo_1125728" data-name="Grupo 1125728" transform="translate(7.582 82.887)">
        <path id="Trazado_986726" data-name="Trazado 986726" d="M377.021,353.536h-8.351v-2.849h8.351Zm1.493-5.836H367.177a1.5,1.5,0,0,0-1.493,1.493v5.836a1.492,1.492,0,0,0,1.493,1.493h11.337a1.492,1.492,0,0,0,1.493-1.493v-5.836A1.5,1.5,0,0,0,378.515,347.7Z" transform="translate(-298.787 -298.231)" fill="#030403"/>
        <path id="Trazado_986727" data-name="Trazado 986727" d="M186.116,139.365a2.126,2.126,0,1,1-2.123,2.129A2.132,2.132,0,0,1,186.116,139.365Zm0,7.239a5.113,5.113,0,1,0-5.11-5.11A5.118,5.118,0,0,0,186.116,146.6Z" transform="translate(-148.609 -126.385)" fill="#030403"/>
        <path id="Trazado_986728" data-name="Trazado 986728" d="M278.16,230.669H270.7v-7.456h7.456Zm.789-10.442h-9.034a2.2,2.2,0,0,0-2.2,2.2v9.034a2.2,2.2,0,0,0,2.2,2.2h9.034a2.2,2.2,0,0,0,2.2-2.2v-9.034A2.2,2.2,0,0,0,278.949,220.227Z" transform="translate(-219.122 -194.571)" fill="#030403"/>
        <path id="Trazado_986729" data-name="Trazado 986729" d="M213.761,166.186a.092.092,0,0,1-.085.09h-20.3a.093.093,0,0,1-.09-.09v-20.3a.1.1,0,0,1,.09-.09h20.3a.1.1,0,0,1,.085.09Zm2.987,0v-2.992h8.282a1.493,1.493,0,0,0,0-2.987h-8.282v-2.679h8.282a1.493,1.493,0,1,0,0-2.987h-8.282v-2.679h8.282a1.493,1.493,0,1,0,0-2.987h-8.282v-2.992a3.078,3.078,0,0,0-3.071-3.077h-2.992v-8.282a1.493,1.493,0,1,0-2.987,0v8.282h-2.679v-8.282a1.493,1.493,0,1,0-2.987,0v8.282h-2.68v-8.282a1.493,1.493,0,1,0-2.987,0v8.282h-2.992a3.082,3.082,0,0,0-3.077,3.077v2.992h-8.282a1.493,1.493,0,1,0,0,2.987H190.3v2.679h-8.282a1.493,1.493,0,0,0,0,2.987H190.3v2.679h-8.282a1.493,1.493,0,1,0,0,2.987H190.3v2.992a3.079,3.079,0,0,0,3.077,3.077h2.992v8.282a1.493,1.493,0,1,0,2.987,0v-8.282h2.68v8.282a1.493,1.493,0,0,0,2.987,0v-8.282H207.7v8.282a1.493,1.493,0,1,0,2.987,0v-8.282h2.992A3.075,3.075,0,0,0,216.747,166.186Z" transform="translate(-148.215 -123.664)" fill="#030403"/>
        <path id="Trazado_986730" data-name="Trazado 986730" d="M119.277,191.986a.471.471,0,0,1-.466.471h-2.044a.471.471,0,0,1-.466-.471V167.3a.475.475,0,0,1,.466-.471h2.044a.475.475,0,0,1,.466.471Zm-.466-28.14h-2.044a3.458,3.458,0,0,0-3.453,3.458v24.682a3.458,3.458,0,0,0,3.453,3.458h2.044a3.458,3.458,0,0,0,3.453-3.458V167.3A3.458,3.458,0,0,0,118.811,163.846Z" transform="translate(-93.562 -148.722)" fill="#030403"/>
        <path id="Trazado_986731" data-name="Trazado 986731" d="M82.178,98a2.126,2.126,0,1,1-2.129-2.129A2.128,2.128,0,0,1,82.178,98Zm-39.212,33.88A2.126,2.126,0,1,1,45.089,134,2.127,2.127,0,0,1,42.966,131.875ZM97.254,95.691H95.538a5.9,5.9,0,0,0-5.894,5.888v27.356a5.9,5.9,0,0,0,5.894,5.888h1.716v8.637a1.2,1.2,0,0,1-1.186,1.181H39.01v-7.694l2.531-1.4a5.088,5.088,0,1,0-1.451-2.61l-3.3,1.827a1.492,1.492,0,0,0-.768,1.3v8.573H11.749a1.2,1.2,0,0,1-1.181-1.181V87.055a1.182,1.182,0,0,1,1.181-1.181h3.786a10.105,10.105,0,0,0,19.99,0h50.6v7.048L83.6,94.32a5.089,5.089,0,1,0,1.451,2.611l3.294-1.822a1.5,1.5,0,0,0,.763-1.308V85.874h6.958a1.19,1.19,0,0,1,1.186,1.181Zm-1.186-12.8H34.144a1.492,1.492,0,0,0-1.493,1.493,7.12,7.12,0,1,1-14.239,0,1.492,1.492,0,0,0-1.493-1.493H11.749a4.172,4.172,0,0,0-4.168,4.168v56.406a4.172,4.172,0,0,0,4.168,4.168H96.067a4.168,4.168,0,0,0,4.168-4.168v-10.13a1.5,1.5,0,0,0-1.5-1.493h-3.2a2.906,2.906,0,0,1-2.9-2.9V101.58a2.906,2.906,0,0,1,2.9-2.9h3.2a1.5,1.5,0,0,0,1.5-1.493V87.055a4.169,4.169,0,0,0-4.168-4.168Z" transform="translate(-7.582 -82.887)" fill="#030403"/>
        <path id="Trazado_986732" data-name="Trazado 986732" d="M49.091,191.986V167.3a.475.475,0,0,1,.466-.471H51.6a.475.475,0,0,1,.466.471v24.682a.471.471,0,0,1-.466.471H49.557A.471.471,0,0,1,49.091,191.986Zm5.963,0V167.3a3.458,3.458,0,0,0-3.453-3.458H49.557A3.458,3.458,0,0,0,46.1,167.3v24.682a3.458,3.458,0,0,0,3.453,3.458H51.6A3.458,3.458,0,0,0,55.053,191.986Z" transform="translate(-38.908 -148.722)" fill="#030403"/>
        <path id="Trazado_986733" data-name="Trazado 986733" d="M76.662,353.536H68.312v-2.849h8.351Zm1.493-5.836H66.818a1.5,1.5,0,0,0-1.493,1.493v5.836a1.492,1.492,0,0,0,1.493,1.493H78.156a1.492,1.492,0,0,0,1.493-1.493v-5.836A1.5,1.5,0,0,0,78.156,347.7Z" transform="translate(-54.538 -298.231)" fill="#030403"/>
      </g>
    </g>
    <rect id="Rectángulo_415771" data-name="Rectángulo 415771" width="123" height="123" transform="translate(317.051 4361)" fill="none"/>
  </g>
</svg>
