<svg xmlns="http://www.w3.org/2000/svg" width="123" height="123" viewBox="0 0 123 123">
  <g id="Grupo_1125733" data-name="Grupo 1125733" transform="translate(-1053.051 -4730)">
    <rect id="Rectángulo_415772" data-name="Rectángulo 415772" width="123" height="123" transform="translate(1053.051 4730)" fill="none"/>
    <g id="Layer_2" data-name="Layer 2" transform="matrix(0.695, 0.719, -0.719, 0.695, 1148.323, 4740.004)">
      <g id="Capa_2" data-name="Capa 2" transform="translate(0 -0.006)">
        <g id="cutter">
          <path id="Trazado_986734" data-name="Trazado 986734" d="M.285,124.173V60.519a1.251,1.251,0,0,1,.354-.862,1.258,1.258,0,0,1,.855-.348H1.209a1.244,1.244,0,0,0-.848.348A1.258,1.258,0,0,0,0,60.519v64.363a1.314,1.314,0,0,0,.063.361c0-.118,0-.229,0-.348a1.21,1.21,0,0,1,.222-.723Z" transform="translate(0 -18.082)" fill="#060200"/>
          <path id="Trazado_986735" data-name="Trazado 986735" d="M7.56,45.1h4.476a1.244,1.244,0,0,1,.855.348,1.23,1.23,0,0,1,.361.862V63.918h5.839V12.72L7.56,24.334Z" transform="translate(-2.305 -3.875)" fill="#bababa"/>
          <path id="Trazado_986736" data-name="Trazado 986736" d="M15.76,99.92H21.6v36.136H15.76Z" transform="translate(-4.806 -30.466)" fill="#bababa"/>
          <g id="Grupo_1125732" data-name="Grupo 1125732" transform="translate(0 0.004)">
            <path id="Trazado_986737" data-name="Trazado 986737" fill="#060200"/>
            <path id="Trazado_986738" data-name="Trazado 986738" fill="#060200"/>
            <path id="Trazado_986739" data-name="Trazado 986739" d="M31.53.39h.042Z" transform="translate(-9.615 -0.119)" fill="#060200"/>
            <path id="Trazado_986740" data-name="Trazado 986740" d="M32.77,0Z" transform="translate(-9.993)" fill="#060200"/>
            <path id="Trazado_986741" data-name="Trazado 986741" fill="#060200"/>
            <path id="Trazado_986742" data-name="Trazado 986742" d="M33.266.12H33.21Z" transform="translate(-10.127 -0.037)" fill="#060200"/>
            <path id="Trazado_986743" data-name="Trazado 986743" d="M6.5,43.5V22.73L18.037,11.116V8.155a1.189,1.189,0,0,1,.209-.7L4.434,21.361a1.251,1.251,0,0,0-.354.862V43.5Z" transform="translate(-1.244 -2.275)" fill="#060200"/>
          </g>
          <path id="Trazado_986744" data-name="Trazado 986744" d="M29.892,5.951V5.93L27.64,8.189V43.032h2.252Z" transform="translate(-8.429 -1.804)" fill="#e1e1e1"/>
          <path id="Trazado_986745" data-name="Trazado 986745" d="M30.666.172,30.527.089h-.056L30.3.033h-.139V0a1.3,1.3,0,0,0-.7.139.612.612,0,0,0-.132.083H29.3A.563.563,0,0,1,29.2.3L24.514,5.017a1.934,1.934,0,0,0-.146.188,1.189,1.189,0,0,0-.209.7V42.432a1.2,1.2,0,0,1,1.216-1.209h1.2V6.379l2.252-2.252v37.1H31.25V1.215A1.2,1.2,0,0,0,30.666.172Z" transform="translate(-7.367 0.006)" fill="#060200"/>
          <path id="Trazado_986746" data-name="Trazado 986746" d="M27.64,124.032v.7h5.825V62.79H27.64v61.242Z" transform="translate(-8.429 -19.143)" fill="#e63c35"/>
          <path id="Trazado_986747" data-name="Trazado 986747" d="M28.822,59.31H25.346a1.2,1.2,0,0,0-1.216,1.209V78.125h1.216a1.175,1.175,0,0,1,.848.354,1.2,1.2,0,0,1,.354.855V61.729H32.38v61.944h1.05a1.216,1.216,0,0,1,.862.361,1.175,1.175,0,0,1,.348.862v.619a1.175,1.175,0,0,0,.181-.632V60.519a1.244,1.244,0,0,0-.348-.862,1.279,1.279,0,0,0-.862-.348Z" transform="translate(-7.358 -18.082)" fill="#060200"/>
          <path id="Trazado_986748" data-name="Trazado 986748" d="M26.579,98.18a1.209,1.209,0,0,1-1.2,1.209H24.16v36.143h2.419Z" transform="translate(-7.367 -29.935)" fill="#060200"/>
          <path id="Trazado_986749" data-name="Trazado 986749" d="M9.715,80.4V62.79H3.89v61.944H9.715ZM6.851,118.847a1.209,1.209,0,0,1-2.419,0V75.934a1.209,1.209,0,0,1,2.419,0Z" transform="translate(-1.186 -19.143)" fill="#e63c35"/>
          <path id="Trazado_986750" data-name="Trazado 986750" d="M.41,60.519v63.654a.752.752,0,0,1,.111-.139,1.23,1.23,0,0,1,.862-.361H2.829V61.729H8.653V79.335a1.223,1.223,0,0,1,.354-.855,1.168,1.168,0,0,1,.848-.354h1.216V60.519a1.23,1.23,0,0,0-.361-.862,1.244,1.244,0,0,0-.855-.348H1.619a1.258,1.258,0,0,0-.855.348,1.251,1.251,0,0,0-.354.862Z" transform="translate(-0.125 -18.082)" fill="#060200"/>
          <path id="Trazado_986751" data-name="Trazado 986751" d="M13.469,99.389a1.2,1.2,0,0,1-.855-.354,1.237,1.237,0,0,1-.354-.855v37.346h2.426V99.382Z" transform="translate(-3.739 -29.935)" fill="#060200"/>
          <path id="Trazado_986752" data-name="Trazado 986752" d="M19.131,155.39H3.68a10.746,10.746,0,0,0,3.225,6.374,11.42,11.42,0,0,0,15.778,0,10.7,10.7,0,0,0,3.225-6.374Zm3.441,2.641H7.753a1.209,1.209,0,1,1,0-2.419H22.572a1.209,1.209,0,1,1,0,2.419Z" transform="translate(-1.122 -47.381)" fill="#9c9c9c"/>
          <path id="Trazado_986753" data-name="Trazado 986753" d="M26.972,152.271a1.216,1.216,0,0,0-.862-.361H1.282a1.23,1.23,0,0,0-.862.361.752.752,0,0,0-.111.139,1.209,1.209,0,0,0-.229.7v.348a13.137,13.137,0,0,0,4.045,8.959,13.818,13.818,0,0,0,19.128,0,13.109,13.109,0,0,0,4.038-8.688v-.619a1.175,1.175,0,0,0-.32-.834ZM13.7,163.865a11.371,11.371,0,0,1-7.9-3.163,10.746,10.746,0,0,1-3.225-6.374H24.824a10.7,10.7,0,0,1-3.253,6.374A11.35,11.35,0,0,1,13.7,163.865Z" transform="translate(-0.024 -46.319)" fill="#060200"/>
          <path id="Trazado_986754" data-name="Trazado 986754" d="M15.76,89.85H21.6v4.587H15.76Z" transform="translate(-4.806 -27.395)" fill="#f7ad46"/>
          <path id="Trazado_986755" data-name="Trazado 986755" d="M13.469,86.38a1.168,1.168,0,0,0-.855.354,1.223,1.223,0,0,0-.354.855v6.992a1.237,1.237,0,0,0,.354.855,1.2,1.2,0,0,0,.855.354h8.271a1.209,1.209,0,0,0,1.2-1.209V87.589a1.2,1.2,0,0,0-.354-.855,1.175,1.175,0,0,0-.848-.354Zm7.062,7H14.693V88.792h5.838Z" transform="translate(-3.739 -26.337)" fill="#060200"/>
          <path id="Trazado_986756" data-name="Trazado 986756" d="M5.879,80A1.209,1.209,0,0,0,4.67,81.182v42.913a1.209,1.209,0,1,0,2.419,0V81.182A1.223,1.223,0,0,0,5.879,80Z" transform="translate(-1.424 -24.391)" fill="#ee7869"/>
          <path id="Trazado_986757" data-name="Trazado 986757" d="M23.828,155.71H9.009a1.209,1.209,0,0,0,0,2.419H23.828a1.209,1.209,0,0,0,0-2.419Z" transform="translate(-2.379 -47.478)" fill="#c7c7c7"/>
        </g>
      </g>
    </g>
  </g>
</svg>
