<svg xmlns="http://www.w3.org/2000/svg" width="123" height="123" viewBox="0 0 123 123">
  <g id="Grupo_1125736" data-name="Grupo 1125736" transform="translate(-1057.051 -4931)">
    <g id="Grupo_1125735" data-name="Grupo 1125735" transform="translate(1078.051 4952)">
      <path id="Trazado_986758" data-name="Trazado 986758" d="M80.753,16.7a3.4,3.4,0,0,0,2.406,5.809h2V83.594a1.563,1.563,0,0,1-1.563,1.563H9.062A1.563,1.563,0,0,1,7.5,83.594V22.509h2a3.4,3.4,0,0,0,0-6.806h-2V9.062A1.563,1.563,0,0,1,9.062,7.5H83.594a1.563,1.563,0,0,1,1.563,1.563V15.7h-2a3.393,3.393,0,0,0-2.406,1Zm0,0" transform="translate(-6.328 -6.328)" fill="#94deb8"/>
      <path id="Trazado_986759" data-name="Trazado 986759" d="M29.406,140.951a3.911,3.911,0,0,1-3.906-3.906V96.7a3.911,3.911,0,0,1,3.906-3.906h9.385l.835-1.842a3.914,3.914,0,0,1,3.558-2.293H79.848a3.914,3.914,0,0,1,3.558,2.294l.835,1.841h9.384A3.911,3.911,0,0,1,97.532,96.7v40.348a3.911,3.911,0,0,1-3.906,3.906Zm0,0" transform="translate(-21.515 -74.803)" fill="#5ed398"/>
      <path id="Trazado_986760" data-name="Trazado 986760" d="M95.387,107.791l-1.459-3.218a1.562,1.562,0,0,0-1.423-.917H55.841a1.562,1.562,0,0,0-1.423.917l-1.459,3.218h-10.9a1.562,1.562,0,0,0-1.563,1.563V149.7a1.562,1.562,0,0,0,1.563,1.563h64.219a1.562,1.562,0,0,0,1.563-1.563V109.354a1.562,1.562,0,0,0-1.563-1.563Zm0,0" transform="translate(-34.172 -87.46)" fill="#ffc783"/>
      <g id="Grupo_1125734" data-name="Grupo 1125734" transform="translate(6.328 21.859)">
        <path id="Trazado_986761" data-name="Trazado 986761" d="M206.442,176.181H187.751a1.562,1.562,0,0,1-1.563-1.563V141.461a1.562,1.562,0,0,1,1.563-1.562h18.692A1.562,1.562,0,0,1,208,141.461v33.157A1.562,1.562,0,0,1,206.442,176.181Zm0,0" transform="translate(-163.424 -139.899)" fill="#0097a4"/>
        <path id="Trazado_986762" data-name="Trazado 986762" d="M436,176.551h5.547v11.32H436Zm0,0" transform="translate(-374.203 -170.824)" fill="#0097a4"/>
        <path id="Trazado_986763" data-name="Trazado 986763" d="M436,288.191h5.547v5.66H436Zm0,0" transform="translate(-374.203 -265.02)" fill="#0097a4"/>
        <path id="Trazado_986764" data-name="Trazado 986764" d="M40.5,288.191h5.547v5.66H40.5Zm0,0" transform="translate(-40.5 -265.02)" fill="#0097a4"/>
      </g>
      <path id="Trazado_986765" data-name="Trazado 986765" d="M102.688,143.373V103.026a2.738,2.738,0,0,0-2.734-2.734H89.814l-1.147-2.53a2.74,2.74,0,0,0-2.491-1.605H49.512a2.74,2.74,0,0,0-2.491,1.605l-1.147,2.53H35.735A2.738,2.738,0,0,0,33,103.026v40.348a2.738,2.738,0,0,0,2.734,2.734h7.938a1.172,1.172,0,1,0,0-2.344H35.735a.391.391,0,0,1-.391-.391V132.994h4.375a1.172,1.172,0,0,0,1.172-1.172v-5.66a1.172,1.172,0,0,0-1.172-1.172H35.344V103.026a.391.391,0,0,1,.391-.391h10.9a1.172,1.172,0,0,0,1.067-.688l1.459-3.218a.391.391,0,0,1,.356-.229H86.176a.39.39,0,0,1,.356.229l1.459,3.218a1.172,1.172,0,0,0,1.068.688H99.954a.391.391,0,0,1,.391.391v4.52H95.97a1.172,1.172,0,0,0-1.172,1.172v11.32a1.172,1.172,0,0,0,1.172,1.172h4.375v3.78H95.97a1.172,1.172,0,0,0-1.172,1.172v5.66a1.172,1.172,0,0,0,1.172,1.172h4.375v10.379a.391.391,0,0,1-.391.391H49.2a1.172,1.172,0,1,0,0,2.344h50.75a2.738,2.738,0,0,0,2.734-2.734ZM38.547,127.334v3.317h-3.2v-3.317Zm58.594-8.467V109.89h3.2v8.977Zm0,11.784v-3.317h3.2v3.317Zm0,0" transform="translate(-27.844 -81.132)"/>
      <path id="Trazado_986766" data-name="Trazado 986766" d="M76.832,10.547h2A1.172,1.172,0,0,0,80,9.375V2.734A2.738,2.738,0,0,0,77.266,0H64.641a1.172,1.172,0,0,0,0,2.344H77.266a.391.391,0,0,1,.391.391V8.2h-.825a4.575,4.575,0,0,0,0,9.15h.825V77.266a.391.391,0,0,1-.391.391H2.735a.391.391,0,0,1-.391-.391V17.353h.825a4.575,4.575,0,0,0,0-9.15H2.344V2.735a.391.391,0,0,1,.391-.391H59.11A1.172,1.172,0,0,0,59.11,0H2.735A2.738,2.738,0,0,0,0,2.735V9.375a1.172,1.172,0,0,0,1.172,1.172h2a2.231,2.231,0,0,1,0,4.462h-2A1.172,1.172,0,0,0,0,16.181V77.266A2.738,2.738,0,0,0,2.735,80H77.266A2.738,2.738,0,0,0,80,77.266V16.181a1.172,1.172,0,0,0-1.172-1.172h-2a2.231,2.231,0,0,1,0-4.462Zm0,0"/>
      <path id="Trazado_986767" data-name="Trazado 986767" d="M91.117,37.688a1.172,1.172,0,0,0-1.172,1.172v.018a1.172,1.172,0,1,0,2.344,0v-.018A1.172,1.172,0,0,0,91.117,37.688Zm0,0" transform="translate(-75.891 -31.799)"/>
      <path id="Trazado_986768" data-name="Trazado 986768" d="M116.473,37.688a1.172,1.172,0,0,0-1.172,1.172v.018a1.172,1.172,0,1,0,2.344,0v-.018A1.172,1.172,0,0,0,116.473,37.688Zm0,0" transform="translate(-97.285 -31.799)"/>
      <path id="Trazado_986769" data-name="Trazado 986769" d="M141.828,37.688a1.172,1.172,0,0,0-1.172,1.172v.018a1.172,1.172,0,1,0,2.344,0v-.018A1.172,1.172,0,0,0,141.828,37.688Zm0,0" transform="translate(-118.678 -31.799)"/>
      <path id="Trazado_986770" data-name="Trazado 986770" d="M167.184,37.688a1.172,1.172,0,0,0-1.172,1.172v.018a1.172,1.172,0,1,0,2.344,0v-.018A1.172,1.172,0,0,0,167.184,37.688Zm0,0" transform="translate(-140.072 -31.799)"/>
      <path id="Trazado_986771" data-name="Trazado 986771" d="M192.535,37.688a1.172,1.172,0,0,0-1.172,1.172v.018a1.172,1.172,0,1,0,2.344,0v-.018A1.172,1.172,0,0,0,192.535,37.688Zm0,0" transform="translate(-161.462 -31.799)"/>
      <path id="Trazado_986772" data-name="Trazado 986772" d="M217.891,37.688a1.172,1.172,0,0,0-1.172,1.172v.018a1.172,1.172,0,1,0,2.344,0v-.018A1.172,1.172,0,0,0,217.891,37.688Zm0,0" transform="translate(-182.856 -31.799)"/>
      <path id="Trazado_986773" data-name="Trazado 986773" d="M243.246,37.688a1.172,1.172,0,0,0-1.172,1.172v.018a1.172,1.172,0,1,0,2.344,0v-.018A1.172,1.172,0,0,0,243.246,37.688Zm0,0" transform="translate(-204.249 -31.799)"/>
      <path id="Trazado_986774" data-name="Trazado 986774" d="M102.8,60.41v.018a1.172,1.172,0,0,0,2.344,0V60.41a1.172,1.172,0,0,0-2.344,0Zm0,0" transform="translate(-86.738 -49.982)"/>
      <path id="Trazado_986775" data-name="Trazado 986775" d="M128.156,60.41v.018a1.172,1.172,0,1,0,2.344,0V60.41a1.172,1.172,0,1,0-2.344,0Zm0,0" transform="translate(-108.131 -49.982)"/>
      <path id="Trazado_986776" data-name="Trazado 986776" d="M153.512,60.41v.018a1.172,1.172,0,1,0,2.344,0V60.41a1.172,1.172,0,1,0-2.344,0Zm0,0" transform="translate(-129.525 -49.982)"/>
      <path id="Trazado_986777" data-name="Trazado 986777" d="M178.863,60.41v.018a1.172,1.172,0,1,0,2.344,0V60.41a1.172,1.172,0,1,0-2.344,0Zm0,0" transform="translate(-150.915 -49.982)"/>
      <path id="Trazado_986778" data-name="Trazado 986778" d="M204.219,60.41v.018a1.172,1.172,0,1,0,2.344,0V60.41a1.172,1.172,0,1,0-2.344,0Zm0,0" transform="translate(-172.309 -49.982)"/>
      <path id="Trazado_986779" data-name="Trazado 986779" d="M229.574,60.41v.018a1.172,1.172,0,1,0,2.344,0V60.41a1.172,1.172,0,1,0-2.344,0Zm0,0" transform="translate(-193.703 -49.982)"/>
      <path id="Trazado_986780" data-name="Trazado 986780" d="M254.926,60.41v.018a1.172,1.172,0,1,0,2.344,0V60.41a1.172,1.172,0,1,0-2.344,0Zm0,0" transform="translate(-215.093 -49.982)"/>
      <path id="Trazado_986781" data-name="Trazado 986781" d="M268.6,37.688a1.172,1.172,0,0,0-1.172,1.172v.018a1.172,1.172,0,1,0,2.344,0v-.018A1.172,1.172,0,0,0,268.6,37.688Zm0,0" transform="translate(-225.64 -31.799)"/>
      <path id="Trazado_986782" data-name="Trazado 986782" d="M293.953,37.688a1.172,1.172,0,0,0-1.172,1.172v.018a1.172,1.172,0,1,0,2.344,0v-.018A1.172,1.172,0,0,0,293.953,37.688Zm0,0" transform="translate(-247.033 -31.799)"/>
      <path id="Trazado_986783" data-name="Trazado 986783" d="M319.309,37.688a1.172,1.172,0,0,0-1.172,1.172v.018a1.172,1.172,0,1,0,2.344,0v-.018A1.172,1.172,0,0,0,319.309,37.688Zm0,0" transform="translate(-268.428 -31.799)"/>
      <path id="Trazado_986784" data-name="Trazado 986784" d="M344.66,37.688a1.172,1.172,0,0,0-1.172,1.172v.018a1.172,1.172,0,1,0,2.344,0v-.018A1.172,1.172,0,0,0,344.66,37.688Zm0,0" transform="translate(-289.817 -31.799)"/>
      <path id="Trazado_986785" data-name="Trazado 986785" d="M370.016,40.05a1.172,1.172,0,0,0,1.172-1.172v-.018a1.172,1.172,0,0,0-2.344,0v.018A1.172,1.172,0,0,0,370.016,40.05Zm0,0" transform="translate(-311.212 -31.799)"/>
      <path id="Trazado_986786" data-name="Trazado 986786" d="M395.371,40.05a1.172,1.172,0,0,0,1.172-1.172v-.018a1.172,1.172,0,1,0-2.344,0v.018A1.172,1.172,0,0,0,395.371,40.05Zm0,0" transform="translate(-332.605 -31.799)"/>
      <path id="Trazado_986787" data-name="Trazado 986787" d="M280.281,60.41v.018a1.172,1.172,0,1,0,2.344,0V60.41a1.172,1.172,0,1,0-2.344,0Zm0,0" transform="translate(-236.487 -49.982)"/>
      <path id="Trazado_986788" data-name="Trazado 986788" d="M305.637,60.41v.018a1.172,1.172,0,0,0,2.344,0V60.41a1.172,1.172,0,0,0-2.344,0Zm0,0" transform="translate(-257.881 -49.982)"/>
      <path id="Trazado_986789" data-name="Trazado 986789" d="M330.988,60.41v.018a1.172,1.172,0,0,0,2.344,0V60.41a1.172,1.172,0,0,0-2.344,0Zm0,0" transform="translate(-279.271 -49.982)"/>
      <path id="Trazado_986790" data-name="Trazado 986790" d="M356.344,60.41v.018a1.172,1.172,0,1,0,2.344,0V60.41a1.172,1.172,0,1,0-2.344,0Zm0,0" transform="translate(-300.665 -49.982)"/>
      <path id="Trazado_986791" data-name="Trazado 986791" d="M381.7,60.41v.018a1.172,1.172,0,0,0,2.344,0V60.41a1.172,1.172,0,0,0-2.344,0Zm0,0" transform="translate(-322.058 -49.982)"/>
      <path id="Trazado_986792" data-name="Trazado 986792" d="M408.227,59.238a1.172,1.172,0,0,0-1.172,1.172v.018a1.172,1.172,0,1,0,2.344,0V60.41A1.172,1.172,0,0,0,408.227,59.238Zm0,0" transform="translate(-343.452 -49.982)"/>
      <path id="Trazado_986793" data-name="Trazado 986793" d="M92.289,438.817a1.172,1.172,0,0,0-2.344,0v.018a1.172,1.172,0,0,0,2.344,0Zm0,0" transform="translate(-75.891 -369.263)"/>
      <path id="Trazado_986794" data-name="Trazado 986794" d="M117.645,438.835v-.018a1.172,1.172,0,0,0-2.344,0v.018a1.172,1.172,0,0,0,2.344,0Zm0,0" transform="translate(-97.285 -369.262)"/>
      <path id="Trazado_986795" data-name="Trazado 986795" d="M143,438.835v-.018a1.172,1.172,0,0,0-2.344,0v.018a1.172,1.172,0,0,0,2.344,0Zm0,0" transform="translate(-118.678 -369.262)"/>
      <path id="Trazado_986796" data-name="Trazado 986796" d="M168.356,438.835v-.018a1.172,1.172,0,0,0-2.344,0v.018a1.172,1.172,0,0,0,2.344,0Zm0,0" transform="translate(-140.072 -369.262)"/>
      <path id="Trazado_986797" data-name="Trazado 986797" d="M193.707,438.835v-.018a1.172,1.172,0,0,0-2.344,0v.018a1.172,1.172,0,0,0,2.344,0Zm0,0" transform="translate(-161.462 -369.262)"/>
      <path id="Trazado_986798" data-name="Trazado 986798" d="M219.063,438.835v-.018a1.172,1.172,0,0,0-2.344,0v.018a1.172,1.172,0,0,0,2.344,0Zm0,0" transform="translate(-182.856 -369.262)"/>
      <path id="Trazado_986799" data-name="Trazado 986799" d="M244.418,438.835v-.018a1.172,1.172,0,0,0-2.344,0v.018a1.172,1.172,0,0,0,2.344,0Zm0,0" transform="translate(-204.249 -369.262)"/>
      <path id="Trazado_986800" data-name="Trazado 986800" d="M103.973,461.561a1.172,1.172,0,0,0,1.172-1.172v-.018a1.172,1.172,0,0,0-2.344,0v.018A1.172,1.172,0,0,0,103.973,461.561Zm0,0" transform="translate(-86.738 -387.449)"/>
      <path id="Trazado_986801" data-name="Trazado 986801" d="M129.328,461.561a1.172,1.172,0,0,0,1.172-1.172v-.018a1.172,1.172,0,0,0-2.344,0v.018A1.172,1.172,0,0,0,129.328,461.561Zm0,0" transform="translate(-108.131 -387.449)"/>
      <path id="Trazado_986802" data-name="Trazado 986802" d="M154.684,461.561a1.172,1.172,0,0,0,1.172-1.172v-.018a1.172,1.172,0,0,0-2.344,0v.018A1.172,1.172,0,0,0,154.684,461.561Zm0,0" transform="translate(-129.525 -387.449)"/>
      <path id="Trazado_986803" data-name="Trazado 986803" d="M180.035,461.561a1.172,1.172,0,0,0,1.172-1.172v-.018a1.172,1.172,0,0,0-2.344,0v.018A1.172,1.172,0,0,0,180.035,461.561Zm0,0" transform="translate(-150.915 -387.449)"/>
      <path id="Trazado_986804" data-name="Trazado 986804" d="M205.391,461.561a1.172,1.172,0,0,0,1.172-1.172v-.018a1.172,1.172,0,0,0-2.344,0v.018A1.172,1.172,0,0,0,205.391,461.561Zm0,0" transform="translate(-172.309 -387.449)"/>
      <path id="Trazado_986805" data-name="Trazado 986805" d="M230.746,461.561a1.172,1.172,0,0,0,1.172-1.172v-.018a1.172,1.172,0,0,0-2.344,0v.018A1.172,1.172,0,0,0,230.746,461.561Zm0,0" transform="translate(-193.703 -387.449)"/>
      <path id="Trazado_986806" data-name="Trazado 986806" d="M256.1,461.561a1.172,1.172,0,0,0,1.172-1.172v-.018a1.172,1.172,0,1,0-2.344,0v.018A1.172,1.172,0,0,0,256.1,461.561Zm0,0" transform="translate(-215.093 -387.449)"/>
      <path id="Trazado_986807" data-name="Trazado 986807" d="M269.77,438.835v-.018a1.172,1.172,0,0,0-2.344,0v.018a1.172,1.172,0,0,0,2.344,0Zm0,0" transform="translate(-225.64 -369.262)"/>
      <path id="Trazado_986808" data-name="Trazado 986808" d="M295.125,438.835v-.018a1.172,1.172,0,0,0-2.344,0v.018a1.172,1.172,0,0,0,2.344,0Zm0,0" transform="translate(-247.033 -369.262)"/>
      <path id="Trazado_986809" data-name="Trazado 986809" d="M320.481,438.835v-.018a1.172,1.172,0,0,0-2.344,0v.018a1.172,1.172,0,0,0,2.344,0Zm0,0" transform="translate(-268.428 -369.262)"/>
      <path id="Trazado_986810" data-name="Trazado 986810" d="M345.832,438.835v-.018a1.172,1.172,0,0,0-2.344,0v.018a1.172,1.172,0,0,0,2.344,0Zm0,0" transform="translate(-289.817 -369.262)"/>
      <path id="Trazado_986811" data-name="Trazado 986811" d="M371.188,438.835v-.018a1.172,1.172,0,0,0-2.344,0v.018a1.172,1.172,0,0,0,2.344,0Zm0,0" transform="translate(-311.212 -369.262)"/>
      <path id="Trazado_986812" data-name="Trazado 986812" d="M396.543,438.835v-.018a1.172,1.172,0,0,0-2.344,0v.018a1.172,1.172,0,0,0,2.344,0Zm0,0" transform="translate(-332.605 -369.262)"/>
      <path id="Trazado_986813" data-name="Trazado 986813" d="M281.453,461.561a1.172,1.172,0,0,0,1.172-1.172v-.018a1.172,1.172,0,0,0-2.344,0v.018A1.172,1.172,0,0,0,281.453,461.561Zm0,0" transform="translate(-236.487 -387.449)"/>
      <path id="Trazado_986814" data-name="Trazado 986814" d="M306.809,461.561a1.172,1.172,0,0,0,1.172-1.172v-.018a1.172,1.172,0,0,0-2.344,0v.018A1.172,1.172,0,0,0,306.809,461.561Zm0,0" transform="translate(-257.881 -387.449)"/>
      <path id="Trazado_986815" data-name="Trazado 986815" d="M332.16,461.561a1.172,1.172,0,0,0,1.172-1.172v-.018a1.172,1.172,0,0,0-2.344,0v.018A1.172,1.172,0,0,0,332.16,461.561Zm0,0" transform="translate(-279.271 -387.449)"/>
      <path id="Trazado_986816" data-name="Trazado 986816" d="M357.516,461.561a1.172,1.172,0,0,0,1.172-1.172v-.018a1.172,1.172,0,0,0-2.344,0v.018A1.172,1.172,0,0,0,357.516,461.561Zm0,0" transform="translate(-300.665 -387.449)"/>
      <path id="Trazado_986817" data-name="Trazado 986817" d="M382.871,461.561a1.172,1.172,0,0,0,1.172-1.172v-.018a1.172,1.172,0,0,0-2.344,0v.018A1.172,1.172,0,0,0,382.871,461.561Zm0,0" transform="translate(-322.058 -387.449)"/>
      <path id="Trazado_986818" data-name="Trazado 986818" d="M408.227,461.561a1.172,1.172,0,0,0,1.172-1.172v-.018a1.172,1.172,0,0,0-2.344,0v.018A1.172,1.172,0,0,0,408.227,461.561Zm0,0" transform="translate(-343.452 -387.449)"/>
      <path id="Trazado_986819" data-name="Trazado 986819" d="M201.676,157.306a1.172,1.172,0,0,0,1.172-1.172v-21a2.738,2.738,0,0,0-2.734-2.734H181.422a2.738,2.738,0,0,0-2.734,2.734V168.29a2.738,2.738,0,0,0,2.734,2.734h18.692a2.738,2.738,0,0,0,2.734-2.734v-6.626a1.172,1.172,0,0,0-2.344,0v6.626a.391.391,0,0,1-.391.391H181.422a.391.391,0,0,1-.391-.391V135.133a.391.391,0,0,1,.391-.391h18.692a.391.391,0,0,1,.391.391v21a1.172,1.172,0,0,0,1.172,1.172Zm0,0" transform="translate(-150.768 -111.712)"/>
      <path id="Trazado_986820" data-name="Trazado 986820" d="M216.063,165.336a1.172,1.172,0,1,0-2.344,0v1.232a1.172,1.172,0,1,0,2.344,0Zm0,0" transform="translate(-180.325 -138.513)"/>
      <path id="Trazado_986821" data-name="Trazado 986821" d="M216.063,198.563a1.172,1.172,0,1,0-2.344,0v1.232a1.172,1.172,0,1,0,2.344,0Zm0,0" transform="translate(-180.325 -166.548)"/>
      <path id="Trazado_986822" data-name="Trazado 986822" d="M216.063,231.785a1.172,1.172,0,1,0-2.344,0v1.232a1.172,1.172,0,1,0,2.344,0Zm0,0" transform="translate(-180.325 -194.579)"/>
      <path id="Trazado_986823" data-name="Trazado 986823" d="M214.891,263.84a1.172,1.172,0,0,0-1.172,1.172v1.232a1.172,1.172,0,1,0,2.344,0v-1.232A1.172,1.172,0,0,0,214.891,263.84Zm0,0" transform="translate(-180.325 -222.615)"/>
      <path id="Trazado_986824" data-name="Trazado 986824" d="M241.844,165.336a1.172,1.172,0,1,0-2.344,0v1.232a1.172,1.172,0,1,0,2.344,0Zm0,0" transform="translate(-202.078 -138.513)"/>
      <path id="Trazado_986825" data-name="Trazado 986825" d="M240.672,197.391a1.172,1.172,0,0,0-1.172,1.172v1.232a1.172,1.172,0,0,0,2.344,0v-1.232A1.172,1.172,0,0,0,240.672,197.391Zm0,0" transform="translate(-202.078 -166.548)"/>
      <path id="Trazado_986826" data-name="Trazado 986826" d="M351.457,214.821h.018a1.172,1.172,0,0,0,0-2.344h-.018a1.172,1.172,0,0,0,0,2.344Zm0,0" transform="translate(-295.552 -179.277)"/>
      <path id="Trazado_986827" data-name="Trazado 986827" d="M351.457,240.172h.018a1.172,1.172,0,0,0,0-2.344h-.018a1.172,1.172,0,0,0,0,2.344Zm0,0" transform="translate(-295.552 -200.667)"/>
      <path id="Trazado_986828" data-name="Trazado 986828" d="M351.457,265.528h.018a1.172,1.172,0,0,0,0-2.344h-.018a1.172,1.172,0,0,0,0,2.344Zm0,0" transform="translate(-295.552 -222.061)"/>
      <path id="Trazado_986829" data-name="Trazado 986829" d="M351.457,290.883h.018a1.172,1.172,0,0,0,0-2.344h-.018a1.172,1.172,0,0,0,0,2.344Zm0,0" transform="translate(-295.552 -243.454)"/>
      <path id="Trazado_986830" data-name="Trazado 986830" d="M351.457,341.59h.018a1.172,1.172,0,0,0,0-2.344h-.018a1.172,1.172,0,0,0,0,2.344Zm0,0" transform="translate(-295.552 -286.238)"/>
      <path id="Trazado_986831" data-name="Trazado 986831" d="M351.457,366.946h.018a1.172,1.172,0,0,0,0-2.344h-.018a1.172,1.172,0,0,0,0,2.344Zm0,0" transform="translate(-295.552 -307.633)"/>
      <path id="Trazado_986832" data-name="Trazado 986832" d="M128.473,183.395h2.009a1.172,1.172,0,0,0,0-2.344h-2.009a1.172,1.172,0,0,0,0,2.344Zm0,0" transform="translate(-107.41 -152.762)"/>
      <path id="Trazado_986833" data-name="Trazado 986833" d="M128.473,210.617h2.009a1.172,1.172,0,0,0,0-2.344h-2.009a1.172,1.172,0,0,0,0,2.344Zm0,0" transform="translate(-107.41 -175.73)"/>
      <path id="Trazado_986834" data-name="Trazado 986834" d="M128.473,237.844h2.009a1.172,1.172,0,0,0,0-2.344h-2.009a1.172,1.172,0,1,0,0,2.344Zm0,0" transform="translate(-107.41 -198.703)"/>
    </g>
    <rect id="Rectángulo_415773" data-name="Rectángulo 415773" width="123" height="123" transform="translate(1057.051 4931)" fill="none"/>
  </g>
</svg>
