<svg xmlns="http://www.w3.org/2000/svg" width="93" height="69" viewBox="0 0 93 69">
  <g id="Grupo_1125668" data-name="Grupo 1125668" transform="translate(-820.051 -5304.841)">
    <rect id="Rectángulo_404438" data-name="Rectángulo 404438" width="93" height="69" rx="12" transform="translate(820.051 5304.841)" fill="#008db6"/>
    <g id="Grupo_1125658" data-name="Grupo 1125658" transform="translate(826.72 5234.113)">
      <path id="Trazado_986365" data-name="Trazado 986365" d="M78.029,136.334a1.038,1.038,0,0,1-1.04,1.04H69.1a1.038,1.038,0,0,1-1.04-1.04v-4.062a1.041,1.041,0,0,1,1.04-1.04H76.99a1.041,1.041,0,0,1,1.04,1.04Zm-13.053-7.8V134.3a1.04,1.04,0,0,1-2.079,0v-5.765H61.032V134.3a1.04,1.04,0,0,1-2.079,0v-5.765H57.088V134.3a1.04,1.04,0,0,1-2.079,0v-5.765H52.926a2.143,2.143,0,0,1-2.142-2.142v-2.083H45.019a1.04,1.04,0,1,1,0-2.079h5.765v-1.865H45.019a1.04,1.04,0,1,1,0-2.079h5.765v-1.865H45.019a1.04,1.04,0,1,1,0-2.079h5.765v-2.083a2.146,2.146,0,0,1,2.142-2.142h2.083v-5.765a1.04,1.04,0,0,1,2.079,0v5.765h1.865v-5.765a1.04,1.04,0,0,1,2.079,0v5.765H62.9v-5.765a1.04,1.04,0,0,1,2.079,0v5.765h2.083a2.143,2.143,0,0,1,2.138,2.142v2.083h5.765a1.04,1.04,0,0,1,0,2.079H69.2v1.865h5.765a1.04,1.04,0,1,1,0,2.079H69.2v1.865h5.765a1.04,1.04,0,1,1,0,2.079H69.2V126.4a2.14,2.14,0,0,1-2.138,2.142ZM47.6,103.752a3.559,3.559,0,1,1-3.557,3.561A3.566,3.566,0,0,1,47.6,103.752Zm-6.13,23.16a2.407,2.407,0,0,1-2.4,2.407H37.644a2.407,2.407,0,0,1-2.4-2.407V109.731a2.407,2.407,0,0,1,2.4-2.407h1.423a2.407,2.407,0,0,1,2.4,2.407Zm-2.5,9.422a1.038,1.038,0,0,1-1.04,1.04H30.039a1.038,1.038,0,0,1-1.04-1.04v-4.062a1.041,1.041,0,0,1,1.04-1.04h7.892a1.041,1.041,0,0,1,1.04,1.04ZM26.5,126.912V109.731a2.407,2.407,0,0,1,2.4-2.407h1.423a2.407,2.407,0,0,1,2.4,2.407v17.181a2.407,2.407,0,0,1-2.4,2.407H28.9A2.407,2.407,0,0,1,26.5,126.912ZM83.087,98.875H78.243v5.518a1.041,1.041,0,0,1-.531.91l-2.293,1.268a3.518,3.518,0,0,1,.077.741,3.567,3.567,0,1,1-1.087-2.558l1.758-.973V98.875H40.943a7.035,7.035,0,0,1-13.915,0H24.392a.823.823,0,0,0-.822.822v39.265a.832.832,0,0,0,.822.822h16.9v-5.968a1.039,1.039,0,0,1,.534-.907l2.3-1.272a3.509,3.509,0,0,1-.077-.741,3.56,3.56,0,1,1,1.087,2.558l-1.762.973v5.356H83.087a.836.836,0,0,0,.826-.822V132.95H82.718a4.108,4.108,0,0,1-4.1-4.1V109.808a4.108,4.108,0,0,1,4.1-4.1h1.194V99.7a.828.828,0,0,0-.826-.822Z" transform="translate(-13.909 -13.909)" fill="#6cf4c2"/>
      <path id="Trazado_986366" data-name="Trazado 986366" d="M260.642,211.622a1.531,1.531,0,0,1-1.53,1.53h-6.289a1.531,1.531,0,0,1-1.53-1.53v-6.289a1.533,1.533,0,0,1,1.53-1.53h6.289a1.533,1.533,0,0,1,1.53,1.53Zm2.392-10.273H248.9a.067.067,0,0,0-.063.063v14.133a.065.065,0,0,0,.063.063h14.133a.064.064,0,0,0,.059-.063V201.412A.067.067,0,0,0,263.034,201.349Z" transform="translate(-209.884 -103.057)" fill="#ffee93"/>
      <path id="Trazado_986367" data-name="Trazado 986367" d="M81.312,363.688h5.813v1.983H81.312Z" transform="translate(-64.142 -244.286)" fill="#ffee93"/>
      <path id="Trazado_986368" data-name="Trazado 986368" d="M283.7,236.214h5.19v5.19H283.7Z" transform="translate(-240.216 -133.388)" fill="#82ffd1"/>
      <path id="Trazado_986369" data-name="Trazado 986369" d="M64.164,197.342V180.161a.33.33,0,0,0-.324-.328H62.416a.33.33,0,0,0-.324.328v17.181a.328.328,0,0,0,.324.328h1.423A.328.328,0,0,0,64.164,197.342Z" transform="translate(-47.422 -84.339)" fill="#ffee93"/>
      <path id="Trazado_986370" data-name="Trazado 986370" d="M131.048,179.833h-1.423a.33.33,0,0,0-.324.328v17.181a.328.328,0,0,0,.324.328h1.423a.328.328,0,0,0,.324-.328V180.161A.33.33,0,0,0,131.048,179.833Z" transform="translate(-105.891 -84.339)" fill="#ffee93"/>
      <path id="Trazado_986371" data-name="Trazado 986371" d="M198.471,155.326a1.48,1.48,0,1,0-1.478-1.478A1.481,1.481,0,0,0,198.471,155.326Z" transform="translate(-164.78 -60.444)" fill="#ffee93"/>
      <path id="Trazado_986372" data-name="Trazado 986372" d="M381.67,363.688h5.813v1.983H381.67Z" transform="translate(-325.442 -244.286)" fill="#ffee93"/>
      <path id="Trazado_986373" data-name="Trazado 986373" d="M199.953,335.232a1.48,1.48,0,1,0-1.482,1.478A1.481,1.481,0,0,0,199.953,335.232Z" transform="translate(-164.78 -218.244)" fill="#ffee93"/>
      <path id="Trazado_986374" data-name="Trazado 986374" d="M384.137,153.848a1.48,1.48,0,1,0,1.478-1.482A1.48,1.48,0,0,0,384.137,153.848Z" transform="translate(-327.588 -60.444)" fill="#ffee93"/>
      <g id="Grupo_1125657" data-name="Grupo 1125657" transform="translate(7.582 82.887)">
        <path id="Trazado_986375" data-name="Trazado 986375" d="M373.576,351.762h-5.813v-1.983h5.813Zm1.04-4.062h-7.892a1.041,1.041,0,0,0-1.04,1.04V352.8a1.038,1.038,0,0,0,1.04,1.04h7.892a1.038,1.038,0,0,0,1.04-1.04V348.74A1.041,1.041,0,0,0,374.615,347.7Z" transform="translate(-319.117 -313.264)" fill="#030403"/>
        <path id="Trazado_986376" data-name="Trazado 986376" d="M184.563,138.457a1.48,1.48,0,1,1-1.478,1.482A1.484,1.484,0,0,1,184.563,138.457Zm0,5.039a3.559,3.559,0,1,0-3.557-3.557A3.562,3.562,0,0,0,184.563,143.5Z" transform="translate(-158.454 -129.422)" fill="#030403"/>
        <path id="Trazado_986377" data-name="Trazado 986377" d="M274.987,227.5H269.8v-5.19h5.19Zm.549-7.269h-6.289a1.533,1.533,0,0,0-1.53,1.53v6.289a1.531,1.531,0,0,0,1.53,1.53h6.289a1.531,1.531,0,0,0,1.53-1.53v-6.289A1.533,1.533,0,0,0,275.536,220.227Z" transform="translate(-233.89 -202.367)" fill="#030403"/>
        <path id="Trazado_986378" data-name="Trazado 986378" d="M203.66,156.11a.064.064,0,0,1-.059.063H189.468a.065.065,0,0,1-.063-.063V141.978a.067.067,0,0,1,.063-.063H203.6a.067.067,0,0,1,.059.063Zm2.079,0v-2.083H211.5a1.04,1.04,0,1,0,0-2.079h-5.765v-1.865H211.5a1.04,1.04,0,1,0,0-2.079h-5.765v-1.865H211.5a1.04,1.04,0,0,0,0-2.079h-5.765v-2.083a2.143,2.143,0,0,0-2.138-2.142h-2.083v-5.765a1.04,1.04,0,0,0-2.079,0v5.765h-1.865v-5.765a1.04,1.04,0,1,0-2.079,0v5.765h-1.865v-5.765a1.04,1.04,0,0,0-2.079,0v5.765h-2.083a2.146,2.146,0,0,0-2.142,2.142v2.083h-5.765a1.04,1.04,0,0,0,0,2.079h5.765V148h-5.765a1.04,1.04,0,1,0,0,2.079h5.765v1.865h-5.765a1.04,1.04,0,1,0,0,2.079h5.765v2.083a2.143,2.143,0,0,0,2.142,2.142h2.083v5.765a1.04,1.04,0,1,0,2.079,0v-5.765h1.865v5.765a1.04,1.04,0,1,0,2.079,0v-5.765h1.865v5.765a1.04,1.04,0,1,0,2.079,0v-5.765H203.6A2.14,2.14,0,0,0,205.739,156.11Z" transform="translate(-158.032 -126.51)" fill="#030403"/>
        <path id="Trazado_986379" data-name="Trazado 986379" d="M117.465,183.434a.328.328,0,0,1-.324.328h-1.423a.328.328,0,0,1-.324-.328V166.253a.33.33,0,0,1,.324-.328h1.423a.33.33,0,0,1,.324.328Zm-.324-19.588h-1.423a2.407,2.407,0,0,0-2.4,2.407v17.181a2.407,2.407,0,0,0,2.4,2.407h1.423a2.407,2.407,0,0,0,2.4-2.407V166.253A2.407,2.407,0,0,0,117.14,163.846Z" transform="translate(-99.565 -153.318)" fill="#030403"/>
        <path id="Trazado_986380" data-name="Trazado 986380" d="M59.509,93.4a1.48,1.48,0,1,1-1.482-1.482A1.481,1.481,0,0,1,59.509,93.4Zm-27.3,23.584a1.48,1.48,0,1,1,1.478,1.478A1.48,1.48,0,0,1,32.213,116.988ZM70,91.8H68.809a4.108,4.108,0,0,0-4.1,4.1v19.043a4.108,4.108,0,0,0,4.1,4.1H70v6.012a.836.836,0,0,1-.826.822H29.459v-5.356l1.762-.973a3.542,3.542,0,1,0-1.01-1.817L27.915,119a1.039,1.039,0,0,0-.534.907v5.968h-16.9a.832.832,0,0,1-.822-.822V85.788a.823.823,0,0,1,.822-.822h2.636a7.035,7.035,0,0,0,13.915,0H62.259v4.906l-1.758.973a3.542,3.542,0,1,0,1.01,1.817L63.8,91.395a1.041,1.041,0,0,0,.531-.91V84.966h4.844a.828.828,0,0,1,.826.822Zm-.826-8.913H26.072a1.038,1.038,0,0,0-1.04,1.04,4.956,4.956,0,1,1-9.912,0,1.038,1.038,0,0,0-1.04-1.04h-3.6a2.9,2.9,0,0,0-2.9,2.9v39.265a2.9,2.9,0,0,0,2.9,2.9H69.178a2.9,2.9,0,0,0,2.9-2.9V118a1.044,1.044,0,0,0-1.043-1.04H68.809a2.023,2.023,0,0,1-2.02-2.02V95.9a2.023,2.023,0,0,1,2.02-2.02h2.226a1.041,1.041,0,0,0,1.043-1.04V85.788a2.9,2.9,0,0,0-2.9-2.9Z" transform="translate(-7.582 -82.887)" fill="#030403"/>
        <path id="Trazado_986381" data-name="Trazado 986381" d="M48.183,183.434V166.253a.33.33,0,0,1,.324-.328H49.93a.33.33,0,0,1,.324.328v17.181a.328.328,0,0,1-.324.328H48.508A.328.328,0,0,1,48.183,183.434Zm4.151,0V166.253a2.407,2.407,0,0,0-2.4-2.407H48.507a2.407,2.407,0,0,0-2.4,2.407v17.181a2.407,2.407,0,0,0,2.4,2.407H49.93A2.407,2.407,0,0,0,52.334,183.434Z" transform="translate(-41.095 -153.318)" fill="#030403"/>
        <path id="Trazado_986382" data-name="Trazado 986382" d="M73.217,351.762H67.4v-1.983h5.813Zm1.04-4.062H66.365a1.041,1.041,0,0,0-1.04,1.04V352.8a1.038,1.038,0,0,0,1.04,1.04h7.892a1.038,1.038,0,0,0,1.04-1.04V348.74A1.041,1.041,0,0,0,74.257,347.7Z" transform="translate(-57.816 -313.264)" fill="#030403"/>
      </g>
    </g>
  </g>
</svg>
