<svg xmlns="http://www.w3.org/2000/svg" xmlns:xlink="http://www.w3.org/1999/xlink" width="93" height="69" viewBox="0 0 93 69">
  <defs>
    <clipPath id="clip-path">
      <path id="path9003" d="M0-682.665H56v56H0Z" transform="translate(0 682.665)"/>
    </clipPath>
  </defs>
  <g id="Grupo_1125667" data-name="Grupo 1125667" transform="translate(-820.051 -5401)">
    <rect id="Rectángulo_404456" data-name="Rectángulo 404456" width="93" height="69" rx="12" transform="translate(820.051 5401)" fill="#008db6"/>
    <g id="g8997" transform="translate(839.051 6089.665)">
      <g id="g8999" transform="translate(0 -682.665)">
        <g id="g9001" clip-path="url(#clip-path)">
          <g id="g9007" transform="translate(0.82 1.81)">
            <path id="path9009" d="M-417.683-586.161h-34.969a2.355,2.355,0,0,1-2.355-2.355v-47.669a2.355,2.355,0,0,1,2.355-2.354h34.969a2.355,2.355,0,0,1,2.355,2.354v47.669a2.355,2.355,0,0,1-2.355,2.355" transform="translate(455.007 638.54)" fill="#bbec6c"/>
          </g>
          <g id="g9011" transform="translate(35.306 1.809)">
            <path id="path9013" d="M-58.106-26.353V21.316a2.355,2.355,0,0,1-2.355,2.355H-63.3a2.355,2.355,0,0,0,2.355-2.355V-26.353A2.355,2.355,0,0,0-63.3-28.708h2.837a2.355,2.355,0,0,1,2.355,2.355" transform="translate(63.299 28.708)" fill="#a2e62e"/>
          </g>
          <g id="g9015" transform="translate(4.664 8.679)">
            <path id="path9017" d="M-32.667-16.335a1.46,1.46,0,0,1-1.46,1.46,1.46,1.46,0,0,1-1.46-1.46,1.46,1.46,0,0,1,1.46-1.46,1.46,1.46,0,0,1,1.46,1.46" transform="translate(35.587 17.795)" fill="#8379c1"/>
          </g>
          <g id="g9019" transform="translate(14.571 39.581)">
            <path id="path9021" d="M-32.667-16.335a1.46,1.46,0,0,1-1.46,1.46,1.46,1.46,0,0,1-1.46-1.46,1.46,1.46,0,0,1,1.46-1.46,1.46,1.46,0,0,1,1.46,1.46" transform="translate(35.587 17.795)" fill="#8379c1"/>
          </g>
          <g id="g9023" transform="translate(14.571 46.898)">
            <path id="path9025" d="M-32.667-16.334a1.46,1.46,0,0,1-1.46,1.46,1.46,1.46,0,0,1-1.46-1.46,1.46,1.46,0,0,1,1.46-1.46,1.46,1.46,0,0,1,1.46,1.46" transform="translate(35.587 17.793)" fill="#8379c1"/>
          </g>
          <g id="g9027" transform="translate(14.571 8.679)">
            <path id="path9029" d="M-32.667-16.335a1.46,1.46,0,0,1-1.46,1.46,1.46,1.46,0,0,1-1.46-1.46,1.46,1.46,0,0,1,1.46-1.46,1.46,1.46,0,0,1,1.46,1.46" transform="translate(35.587 17.795)" fill="#8379c1"/>
          </g>
          <g id="g9031" transform="translate(4.664 16.061)">
            <path id="path9033" d="M-32.667-16.335a1.46,1.46,0,0,1-1.46,1.46,1.46,1.46,0,0,1-1.46-1.46,1.46,1.46,0,0,1,1.46-1.46,1.46,1.46,0,0,1,1.46,1.46" transform="translate(35.587 17.795)" fill="#8379c1"/>
          </g>
          <path id="path9035" d="M64.766-393.956H56.855v-2.919h7.911Z" transform="translate(-52.191 420.318)" fill="#8379c1"/>
          <path id="path9037" d="M327.91-195.725H317.183v-4.419H327.91Z" transform="translate(-291.165 239.724)" fill="#8379c1"/>
          <path id="path9039" d="M420.708-195.721h-2.434v-4.418h2.434Z" transform="translate(-383.963 239.72)" fill="#6e61b6"/>
          <path id="path9041" d="M281.259-497.456h-17.1v-12.018h17.1Z" transform="translate(-242.493 523.681)" fill="#ffaf9e"/>
          <g id="g9043" transform="translate(33.512 13.444)">
            <path id="path9045" d="M-160.494-157.667l-12.34-7.624-.767-2.476-1.235-3.989h9.98l1.235,3.989Z" transform="translate(174.836 171.756)" fill="#ffcebf"/>
          </g>
          <g id="g9047" transform="translate(14.315 13.444)">
            <path id="path9049" d="M-249.647,0h-15.165a3.435,3.435,0,0,0-2.755,1.383l-3.957,5.311a2.179,2.179,0,0,0,.207,2.843,2.18,2.18,0,0,0,3.082,0l3.377-3.377a2.106,2.106,0,0,1,1.489-.617h13.721Z" transform="translate(271.955)" fill="#ffcebf"/>
          </g>
          <g id="g9051" transform="translate(16.353 9.526)">
            <path id="path9053" d="M-160.747-8.65-173.43,4.032l-1.682,1.682,4.736,4.736,14.364-14.364a2.639,2.639,0,0,0,0-3.732l-1-1a2.639,2.639,0,0,0-3.732,0" transform="translate(175.112 9.423)" fill="#8ebac5"/>
          </g>
          <g id="g9055" transform="translate(28.947 9.526)">
            <path id="path9057" d="M-72.812-61.644l-1.794,1.794a2.638,2.638,0,0,0,0-3.732l-1-1a2.64,2.64,0,0,0-3.709-.023l1.77-1.77a2.638,2.638,0,0,1,3.732,0l1,1a2.638,2.638,0,0,1,0,3.732" transform="translate(79.318 67.152)" fill="#7ca1b1"/>
          </g>
          <g id="g9059" transform="translate(6.123 25.24)">
            <path id="path9061" d="M-120.94,0l-7.82,7.82.59.59-3.521,5.421c-.226.348.286.852.628.618l5.3-3.635.59.59,7.82-7.82Z" transform="translate(131.747)" fill="#deecf1"/>
          </g>
          <g id="g9063" transform="translate(15.132 25.24)">
            <path id="path9065" d="M-60.214-40.1l-1.8,1.8-3.582-3.582,1.8-1.8Z" transform="translate(65.595 43.681)" fill="#a8d3d8"/>
          </g>
          <g id="g9067" transform="translate(25.948 17.427)">
            <path id="path9069" d="M-245.139-113.1l-3.127-10.1-9.966-.007h-6.595a2.218,2.218,0,0,0-2.218,2.218,2.218,2.218,0,0,0,1.986,2.206l6.714.78a2.763,2.763,0,0,1,2.321,1.928A4.214,4.214,0,0,0-252-113.1Z" transform="translate(267.045 123.202)" fill="#ffcebf"/>
          </g>
          <path id="path9071" d="M501.7-504.678h2.338v-14.089H501.7Z" transform="translate(-460.544 532.211)" fill="#ffaf9e"/>
          <path id="path9073" d="M530.2-518.767h11.686v17.28H530.2Z" transform="translate(-486.71 532.211)" fill="#deecf1"/>
          <path id="path9075" d="M641.084-501.487h-2.822v-17.281h2.822Z" transform="translate(-585.907 532.212)" fill="#a8d3d8"/>
          <g id="g9077" transform="translate(4.664 8.679)">
            <path id="path9079" d="M-32.667-16.335a1.46,1.46,0,0,1-1.46,1.46,1.46,1.46,0,0,1-1.46-1.46,1.46,1.46,0,0,1,1.46-1.46A1.46,1.46,0,0,1-32.667-16.335Z" transform="translate(35.587 17.795)" fill="none" stroke="#000" stroke-linecap="round" stroke-linejoin="round" stroke-miterlimit="10" stroke-width="2"/>
          </g>
          <g id="g9081" transform="translate(14.571 39.581)">
            <path id="path9083" d="M-32.667-16.335a1.46,1.46,0,0,1-1.46,1.46,1.46,1.46,0,0,1-1.46-1.46,1.46,1.46,0,0,1,1.46-1.46A1.46,1.46,0,0,1-32.667-16.335Z" transform="translate(35.587 17.795)" fill="none" stroke="#000" stroke-linecap="round" stroke-linejoin="round" stroke-miterlimit="10" stroke-width="2"/>
          </g>
          <g id="g9085" transform="translate(14.571 46.898)">
            <path id="path9087" d="M-32.667-16.334a1.46,1.46,0,0,1-1.46,1.46,1.46,1.46,0,0,1-1.46-1.46,1.46,1.46,0,0,1,1.46-1.46A1.46,1.46,0,0,1-32.667-16.334Z" transform="translate(35.587 17.793)" fill="none" stroke="#000" stroke-linecap="round" stroke-linejoin="round" stroke-miterlimit="10" stroke-width="2"/>
          </g>
          <g id="g9089" transform="translate(14.571 8.679)">
            <path id="path9091" d="M-32.667-16.335a1.46,1.46,0,0,1-1.46,1.46,1.46,1.46,0,0,1-1.46-1.46,1.46,1.46,0,0,1,1.46-1.46A1.46,1.46,0,0,1-32.667-16.335Z" transform="translate(35.587 17.795)" fill="none" stroke="#000" stroke-linecap="round" stroke-linejoin="round" stroke-miterlimit="10" stroke-width="2"/>
          </g>
          <g id="g9093" transform="translate(4.664 16.061)">
            <path id="path9095" d="M-32.667-16.335a1.46,1.46,0,0,1-1.46,1.46,1.46,1.46,0,0,1-1.46-1.46,1.46,1.46,0,0,1,1.46-1.46A1.46,1.46,0,0,1-32.667-16.335Z" transform="translate(35.587 17.795)" fill="none" stroke="#000" stroke-linecap="round" stroke-linejoin="round" stroke-miterlimit="10" stroke-width="2"/>
          </g>
          <g id="g9097" transform="translate(7.583 10.139)">
            <path id="path9099" d="M0,0H6.988" transform="translate(0 0)" fill="none" stroke="#000" stroke-linecap="round" stroke-linejoin="round" stroke-miterlimit="10" stroke-width="2"/>
          </g>
          <path id="path9101" d="M64.766-393.956H56.855v-2.919h7.911Z" transform="translate(-52.191 420.318)" fill="none" stroke="#000" stroke-linecap="round" stroke-linejoin="round" stroke-miterlimit="10" stroke-width="2"/>
          <path id="path9103" d="M327.91-195.725H317.183v-4.419H327.91Z" transform="translate(-291.165 239.724)" fill="none" stroke="#000" stroke-linecap="round" stroke-linejoin="round" stroke-miterlimit="10" stroke-width="2"/>
          <g id="g9105" transform="translate(7.583 17.521)">
            <path id="path9107" d="M0,0H3.046V5.922" fill="none" stroke="#000" stroke-linecap="round" stroke-linejoin="round" stroke-miterlimit="10" stroke-width="2"/>
          </g>
          <g id="g9109" transform="translate(17.49 41.04)">
            <path id="path9111" d="M0,0H8.528" fill="none" stroke="#000" stroke-linecap="round" stroke-linejoin="round" stroke-miterlimit="10" stroke-width="2"/>
          </g>
          <g id="g9113" transform="translate(34.566 43.999)">
            <path id="path9115" d="M0,0V2.1" fill="none" stroke="#000" stroke-linecap="round" stroke-linejoin="round" stroke-miterlimit="10" stroke-width="2"/>
          </g>
          <g id="g9117" transform="translate(17.49 43.999)">
            <path id="path9119" d="M0-48.775H8.528l2.179-2.255v-2.1" transform="translate(0 53.133)" fill="none" stroke="#000" stroke-linecap="round" stroke-linejoin="round" stroke-miterlimit="10" stroke-width="2"/>
          </g>
          <g id="g9121" transform="translate(5.247 47.482)">
            <path id="path9123" d="M-19.6-9.8a.876.876,0,0,1-.876.876.876.876,0,0,1-.876-.876.876.876,0,0,1,.876-.876A.876.876,0,0,1-19.6-9.8" transform="translate(21.352 10.676)"/>
          </g>
          <g id="g9125" transform="translate(9.113 47.482)">
            <path id="path9127" d="M-19.6-9.8a.876.876,0,0,1-.876.876.876.876,0,0,1-.876-.876.876.876,0,0,1,.876-.876A.876.876,0,0,1-19.6-9.8" transform="translate(21.352 10.676)"/>
          </g>
          <g id="g9129" transform="translate(5.247 44.175)">
            <path id="path9131" d="M-19.6-9.8a.876.876,0,0,1-.876.876.876.876,0,0,1-.876-.876.876.876,0,0,1,.876-.876A.876.876,0,0,1-19.6-9.8" transform="translate(21.352 10.676)"/>
          </g>
          <g id="g9133" transform="translate(9.113 44.175)">
            <path id="path9135" d="M-19.6-9.8a.876.876,0,0,1-.876.876.876.876,0,0,1-.876-.876.876.876,0,0,1,.876-.876A.876.876,0,0,1-19.6-9.8" transform="translate(21.352 10.676)"/>
          </g>
          <g id="g9137" transform="translate(0.82 1.81)">
            <path id="path9139" d="M-444.034-331.635v20.39a2.355,2.355,0,0,1-2.355,2.355h-34.969a2.355,2.355,0,0,1-2.355-2.355v-47.669a2.355,2.355,0,0,1,2.355-2.355h34.969a2.355,2.355,0,0,1,2.355,2.355v9.28" transform="translate(483.712 361.27)" fill="none" stroke="#000" stroke-linecap="round" stroke-linejoin="round" stroke-miterlimit="10" stroke-width="2"/>
          </g>
          <g id="g9141" transform="translate(24.264 26.225)">
            <path id="path9143" d="M-153.156,0h-13.686" transform="translate(166.842 0)" fill="none" stroke="#000" stroke-linecap="round" stroke-linejoin="round" stroke-miterlimit="10" stroke-width="2"/>
          </g>
          <g id="g9145" transform="translate(36.212 13.444)">
            <path id="path9147" d="M0,0H7.28" transform="translate(0 0)" fill="none" stroke="#000" stroke-linecap="round" stroke-linejoin="round" stroke-miterlimit="10" stroke-width="2"/>
          </g>
          <g id="g9149" transform="translate(14.315 13.444)">
            <path id="path9151" d="M-148.367,0h-6.114a3.435,3.435,0,0,0-2.755,1.383l-3.957,5.311a2.18,2.18,0,0,0,.207,2.843,2.18,2.18,0,0,0,3.082,0l3.377-3.377" transform="translate(161.625)" fill="none" stroke="#000" stroke-linecap="round" stroke-linejoin="round" stroke-miterlimit="10" stroke-width="2"/>
          </g>
          <g id="g9153" transform="translate(16.353 9.526)">
            <path id="path9155" d="M-186.98-88.417l2.392-2.392a2.639,2.639,0,0,0,0-3.732l-1-1a2.639,2.639,0,0,0-3.732,0l-12.682,12.682-1.682,1.682,4.736,4.736,7.475-7.475" transform="translate(203.689 96.317)" fill="none" stroke="#000" stroke-linecap="round" stroke-linejoin="round" stroke-miterlimit="10" stroke-width="2"/>
          </g>
          <g id="g9157" transform="translate(6.123 25.24)">
            <path id="path9159" d="M-120.94,0l-7.82,7.82.59.59-3.521,5.421c-.226.348.286.852.628.618l5.3-3.635.59.59,5.13-5.13" transform="translate(131.747)" fill="none" stroke="#000" stroke-linecap="round" stroke-linejoin="round" stroke-miterlimit="10" stroke-width="2"/>
          </g>
          <g id="g9161" transform="translate(25.948 17.428)">
            <path id="path9163" d="M-79.606,0h-4.9A2.218,2.218,0,0,0-86.72,2.218a2.218,2.218,0,0,0,1.986,2.206l6.714.78A2.763,2.763,0,0,1-75.7,7.132,4.214,4.214,0,0,0-71.674,10.1l2.5,0" transform="translate(86.72)" fill="none" stroke="#000" stroke-linecap="round" stroke-linejoin="round" stroke-miterlimit="10" stroke-width="2"/>
          </g>
          <g id="g9165" transform="translate(43.492 13.444)">
            <path id="path9167" d="M-130.778-159.532v3.025h-11.686v-17.28h11.686v10.419" transform="translate(142.464 173.788)" fill="none" stroke="#000" stroke-linecap="round" stroke-linejoin="round" stroke-miterlimit="10" stroke-width="2"/>
          </g>
          <g id="g9169" transform="translate(9.7 33.65)">
            <path id="path9171" d="M0,0,2.4,2.4" fill="none" stroke="#000" stroke-linecap="round" stroke-linejoin="round" stroke-miterlimit="10" stroke-width="2"/>
          </g>
          <g id="g9173" transform="translate(34.952 6.293)">
            <path id="path9175" d="M0-50.447l2.786-2.786c1.1-1.1,1.892-1.722,2.761-1.722H20.226" transform="translate(0 54.955)" fill="none" stroke="#000" stroke-linecap="round" stroke-linejoin="round" stroke-miterlimit="10" stroke-width="2"/>
          </g>
          <g id="g9177" transform="translate(45.955 26.709)">
            <path id="path9179" d="M-18.359-9.18a.82.82,0,0,1-.82.82A.82.82,0,0,1-20-9.18a.82.82,0,0,1,.82-.82.82.82,0,0,1,.82.82" transform="translate(20 10)"/>
          </g>
        </g>
      </g>
    </g>
  </g>
</svg>
