<svg xmlns="http://www.w3.org/2000/svg" width="93" height="69" viewBox="0 0 93 69">
  <g id="Grupo_1125665" data-name="Grupo 1125665" transform="translate(-820.051 -5590)">
    <rect id="Rectángulo_404459" data-name="Rectángulo 404459" width="93" height="69" rx="12" transform="translate(820.051 5590)" fill="#008db6"/>
    <g id="Grupo_1125664" data-name="Grupo 1125664" transform="translate(837.051 5595)">
      <path id="Trazado_986406" data-name="Trazado 986406" d="M60.612,14.17a2.467,2.467,0,0,0,1.744,4.212H63.8v44.29A1.133,1.133,0,0,1,62.672,63.8H8.633A1.133,1.133,0,0,1,7.5,62.672V18.382H8.948a2.467,2.467,0,0,0,0-4.935H7.5V8.633A1.133,1.133,0,0,1,8.633,7.5H62.672A1.133,1.133,0,0,1,63.8,8.633v4.815H62.357a2.46,2.46,0,0,0-1.744.723Zm0,0" transform="translate(-6.65 -6.65)" fill="#94deb8"/>
      <path id="Trazado_986407" data-name="Trazado 986407" d="M28.332,126.573a2.835,2.835,0,0,1-2.832-2.832V94.487a2.835,2.835,0,0,1,2.832-2.832h6.8l.605-1.336a2.838,2.838,0,0,1,2.58-1.663H64.9a2.838,2.838,0,0,1,2.58,1.663l.605,1.335h6.8a2.835,2.835,0,0,1,2.832,2.832v29.254a2.835,2.835,0,0,1-2.832,2.832Zm0,0" transform="translate(-22.611 -78.612)" fill="#5ed398"/>
      <path id="Trazado_986408" data-name="Trazado 986408" d="M80.3,106.654l-1.058-2.334a1.133,1.133,0,0,0-1.032-.665H51.623a1.133,1.133,0,0,0-1.032.665l-1.058,2.334h-7.9a1.133,1.133,0,0,0-1.133,1.133v29.254a1.133,1.133,0,0,0,1.133,1.133H88.2a1.133,1.133,0,0,0,1.133-1.133V107.787a1.133,1.133,0,0,0-1.133-1.133Zm0,0" transform="translate(-35.912 -91.913)" fill="#ffc783"/>
      <g id="Grupo_1125663" data-name="Grupo 1125663" transform="translate(4.588 15.849)">
        <path id="Trazado_986409" data-name="Trazado 986409" d="M200.873,166.205H187.321a1.133,1.133,0,0,1-1.133-1.133v-24.04a1.133,1.133,0,0,1,1.133-1.133h13.552a1.133,1.133,0,0,1,1.133,1.133v24.04A1.133,1.133,0,0,1,200.873,166.205Zm0,0" transform="translate(-169.683 -139.899)" fill="#0097a4"/>
        <path id="Trazado_986410" data-name="Trazado 986410" d="M436,176.551h4.022v8.208H436Zm0,0" transform="translate(-391.194 -172.399)" fill="#0097a4"/>
        <path id="Trazado_986411" data-name="Trazado 986411" d="M436,288.191h4.022v4.1H436Zm0,0" transform="translate(-391.194 -271.391)" fill="#0097a4"/>
        <path id="Trazado_986412" data-name="Trazado 986412" d="M40.5,288.191h4.022v4.1H40.5Zm0,0" transform="translate(-40.5 -271.391)" fill="#0097a4"/>
      </g>
      <path id="Trazado_986413" data-name="Trazado 986413" d="M83.528,130.391V101.137a1.985,1.985,0,0,0-1.983-1.983H74.193l-.832-1.834a1.987,1.987,0,0,0-1.806-1.164H44.973a1.987,1.987,0,0,0-1.806,1.164l-.832,1.834H34.983A1.985,1.985,0,0,0,33,101.137v29.254a1.985,1.985,0,0,0,1.983,1.983h5.755a.85.85,0,0,0,0-1.7H34.983a.283.283,0,0,1-.283-.283v-7.525h3.172a.85.85,0,0,0,.85-.85v-4.1a.85.85,0,0,0-.85-.85H34.7V101.137a.283.283,0,0,1,.283-.283h7.9a.85.85,0,0,0,.774-.5l1.058-2.334a.284.284,0,0,1,.258-.166H71.556a.283.283,0,0,1,.258.166l1.058,2.333a.85.85,0,0,0,.774.5h7.9a.283.283,0,0,1,.283.283v3.277H78.656a.85.85,0,0,0-.85.85v8.208a.85.85,0,0,0,.85.85h3.172v2.741H78.656a.85.85,0,0,0-.85.85v4.1a.85.85,0,0,0,.85.85h3.172v7.525a.283.283,0,0,1-.283.283h-36.8a.85.85,0,1,0,0,1.7h36.8a1.985,1.985,0,0,0,1.983-1.983ZM37.022,118.762v2.4H34.7v-2.4Zm42.484-6.139v-6.508h2.322v6.508Zm0,8.544v-2.4h2.322v2.4Zm0,0" transform="translate(-29.262 -85.263)"/>
      <path id="Trazado_986414" data-name="Trazado 986414" d="M55.707,7.647h1.448A.85.85,0,0,0,58,6.8V1.983A1.985,1.985,0,0,0,56.022,0H46.868a.85.85,0,0,0,0,1.7h9.154a.283.283,0,0,1,.283.283V5.948h-.6a3.317,3.317,0,0,0,0,6.635h.6v43.44a.283.283,0,0,1-.283.283H1.983a.283.283,0,0,1-.283-.283V12.582h.6a3.317,3.317,0,0,0,0-6.634H1.7V1.983A.283.283,0,0,1,1.983,1.7H42.858a.85.85,0,0,0,0-1.7H1.983A1.985,1.985,0,0,0,0,1.983V6.8a.85.85,0,0,0,.85.85H2.3a1.618,1.618,0,0,1,0,3.235H.85a.85.85,0,0,0-.85.85v44.29A1.985,1.985,0,0,0,1.983,58H56.022A1.985,1.985,0,0,0,58,56.022V11.732a.85.85,0,0,0-.85-.85H55.707a1.618,1.618,0,0,1,0-3.235Zm0,0" transform="translate(0)"/>
      <path id="Trazado_986415" data-name="Trazado 986415" d="M90.795,37.688a.85.85,0,0,0-.85.85v.013a.85.85,0,1,0,1.7,0v-.013A.85.85,0,0,0,90.795,37.688Zm0,0" transform="translate(-79.755 -33.418)"/>
      <path id="Trazado_986416" data-name="Trazado 986416" d="M116.151,37.688a.85.85,0,0,0-.85.85v.013a.85.85,0,1,0,1.7,0v-.013A.85.85,0,0,0,116.151,37.688Zm0,0" transform="translate(-102.238 -33.418)"/>
      <path id="Trazado_986417" data-name="Trazado 986417" d="M141.506,37.688a.85.85,0,0,0-.85.85v.013a.85.85,0,1,0,1.7,0v-.013A.85.85,0,0,0,141.506,37.688Zm0,0" transform="translate(-124.721 -33.418)"/>
      <path id="Trazado_986418" data-name="Trazado 986418" d="M166.862,37.688a.85.85,0,0,0-.85.85v.013a.85.85,0,1,0,1.7,0v-.013A.85.85,0,0,0,166.862,37.688Zm0,0" transform="translate(-147.204 -33.418)"/>
      <path id="Trazado_986419" data-name="Trazado 986419" d="M192.213,37.688a.85.85,0,0,0-.85.85v.013a.85.85,0,1,0,1.7,0v-.013A.85.85,0,0,0,192.213,37.688Zm0,0" transform="translate(-169.683 -33.418)"/>
      <path id="Trazado_986420" data-name="Trazado 986420" d="M217.569,37.688a.85.85,0,0,0-.85.85v.013a.85.85,0,0,0,1.7,0v-.013A.85.85,0,0,0,217.569,37.688Zm0,0" transform="translate(-192.167 -33.418)"/>
      <path id="Trazado_986421" data-name="Trazado 986421" d="M242.924,37.688a.85.85,0,0,0-.85.85v.013a.85.85,0,0,0,1.7,0v-.013A.85.85,0,0,0,242.924,37.688Zm0,0" transform="translate(-214.649 -33.418)"/>
      <path id="Trazado_986422" data-name="Trazado 986422" d="M102.8,60.088V60.1a.85.85,0,1,0,1.7,0v-.013a.85.85,0,1,0-1.7,0Zm0,0" transform="translate(-91.154 -52.527)"/>
      <path id="Trazado_986423" data-name="Trazado 986423" d="M128.156,60.088V60.1a.85.85,0,0,0,1.7,0v-.013a.85.85,0,1,0-1.7,0Zm0,0" transform="translate(-113.637 -52.527)"/>
      <path id="Trazado_986424" data-name="Trazado 986424" d="M153.512,60.088V60.1a.85.85,0,0,0,1.7,0v-.013a.85.85,0,1,0-1.7,0Zm0,0" transform="translate(-136.12 -52.527)"/>
      <path id="Trazado_986425" data-name="Trazado 986425" d="M178.863,60.088V60.1a.85.85,0,1,0,1.7,0v-.013a.85.85,0,1,0-1.7,0Zm0,0" transform="translate(-158.599 -52.527)"/>
      <path id="Trazado_986426" data-name="Trazado 986426" d="M204.219,60.088V60.1a.85.85,0,0,0,1.7,0v-.013a.85.85,0,1,0-1.7,0Zm0,0" transform="translate(-181.083 -52.527)"/>
      <path id="Trazado_986427" data-name="Trazado 986427" d="M229.574,60.088V60.1a.85.85,0,0,0,1.7,0v-.013a.85.85,0,1,0-1.7,0Zm0,0" transform="translate(-203.565 -52.527)"/>
      <path id="Trazado_986428" data-name="Trazado 986428" d="M254.926,60.088V60.1a.85.85,0,1,0,1.7,0v-.013a.85.85,0,1,0-1.7,0Zm0,0" transform="translate(-226.045 -52.527)"/>
      <path id="Trazado_986429" data-name="Trazado 986429" d="M268.276,37.688a.85.85,0,0,0-.85.85v.013a.85.85,0,1,0,1.7,0v-.013A.85.85,0,0,0,268.276,37.688Zm0,0" transform="translate(-237.129 -33.418)"/>
      <path id="Trazado_986430" data-name="Trazado 986430" d="M293.631,37.688a.85.85,0,0,0-.85.85v.013a.85.85,0,0,0,1.7,0v-.013A.85.85,0,0,0,293.631,37.688Zm0,0" transform="translate(-259.612 -33.418)"/>
      <path id="Trazado_986431" data-name="Trazado 986431" d="M318.987,37.688a.85.85,0,0,0-.85.85v.013a.85.85,0,1,0,1.7,0v-.013A.85.85,0,0,0,318.987,37.688Zm0,0" transform="translate(-282.095 -33.418)"/>
      <path id="Trazado_986432" data-name="Trazado 986432" d="M344.338,37.688a.85.85,0,0,0-.85.85v.013a.85.85,0,0,0,1.7,0v-.013A.85.85,0,0,0,344.338,37.688Zm0,0" transform="translate(-304.574 -33.418)"/>
      <path id="Trazado_986433" data-name="Trazado 986433" d="M369.694,39.4a.85.85,0,0,0,.85-.85v-.013a.85.85,0,1,0-1.7,0v.013A.85.85,0,0,0,369.694,39.4Zm0,0" transform="translate(-327.057 -33.418)"/>
      <path id="Trazado_986434" data-name="Trazado 986434" d="M395.049,39.4a.85.85,0,0,0,.85-.85v-.013a.85.85,0,1,0-1.7,0v.013A.85.85,0,0,0,395.049,39.4Zm0,0" transform="translate(-349.54 -33.418)"/>
      <path id="Trazado_986435" data-name="Trazado 986435" d="M280.281,60.088V60.1a.85.85,0,1,0,1.7,0v-.013a.85.85,0,1,0-1.7,0Zm0,0" transform="translate(-248.528 -52.527)"/>
      <path id="Trazado_986436" data-name="Trazado 986436" d="M305.637,60.088V60.1a.85.85,0,0,0,1.7,0v-.013a.85.85,0,0,0-1.7,0Zm0,0" transform="translate(-271.011 -52.527)"/>
      <path id="Trazado_986437" data-name="Trazado 986437" d="M330.988,60.088V60.1a.85.85,0,1,0,1.7,0v-.013a.85.85,0,1,0-1.7,0Zm0,0" transform="translate(-293.49 -52.527)"/>
      <path id="Trazado_986438" data-name="Trazado 986438" d="M356.344,60.088V60.1a.85.85,0,0,0,1.7,0v-.013a.85.85,0,0,0-1.7,0Zm0,0" transform="translate(-315.974 -52.527)"/>
      <path id="Trazado_986439" data-name="Trazado 986439" d="M381.7,60.088V60.1a.85.85,0,0,0,1.7,0v-.013a.85.85,0,0,0-1.7,0Zm0,0" transform="translate(-338.456 -52.527)"/>
      <path id="Trazado_986440" data-name="Trazado 986440" d="M407.9,59.238a.85.85,0,0,0-.85.85V60.1a.85.85,0,1,0,1.7,0v-.013A.85.85,0,0,0,407.9,59.238Zm0,0" transform="translate(-360.94 -52.527)"/>
      <path id="Trazado_986441" data-name="Trazado 986441" d="M91.644,438.495a.85.85,0,0,0-1.7,0v.013a.85.85,0,0,0,1.7,0Zm0,0" transform="translate(-79.755 -388.064)"/>
      <path id="Trazado_986442" data-name="Trazado 986442" d="M117,438.508v-.013a.85.85,0,0,0-1.7,0v.013a.85.85,0,0,0,1.7,0Zm0,0" transform="translate(-102.238 -388.064)"/>
      <path id="Trazado_986443" data-name="Trazado 986443" d="M142.355,438.508v-.013a.85.85,0,1,0-1.7,0v.013a.85.85,0,0,0,1.7,0Zm0,0" transform="translate(-124.721 -388.064)"/>
      <path id="Trazado_986444" data-name="Trazado 986444" d="M167.711,438.508v-.013a.85.85,0,0,0-1.7,0v.013a.85.85,0,1,0,1.7,0Zm0,0" transform="translate(-147.204 -388.064)"/>
      <path id="Trazado_986445" data-name="Trazado 986445" d="M193.062,438.508v-.013a.85.85,0,1,0-1.7,0v.013a.85.85,0,1,0,1.7,0Zm0,0" transform="translate(-169.683 -388.064)"/>
      <path id="Trazado_986446" data-name="Trazado 986446" d="M218.418,438.508v-.013a.85.85,0,0,0-1.7,0v.013a.85.85,0,0,0,1.7,0Zm0,0" transform="translate(-192.167 -388.064)"/>
      <path id="Trazado_986447" data-name="Trazado 986447" d="M243.773,438.508v-.013a.85.85,0,0,0-1.7,0v.013a.85.85,0,0,0,1.7,0Zm0,0" transform="translate(-214.649 -388.064)"/>
      <path id="Trazado_986448" data-name="Trazado 986448" d="M103.651,460.912a.85.85,0,0,0,.85-.85v-.013a.85.85,0,0,0-1.7,0v.013A.85.85,0,0,0,103.651,460.912Zm0,0" transform="translate(-91.154 -407.177)"/>
      <path id="Trazado_986449" data-name="Trazado 986449" d="M129.006,460.912a.85.85,0,0,0,.85-.85v-.013a.85.85,0,0,0-1.7,0v.013A.85.85,0,0,0,129.006,460.912Zm0,0" transform="translate(-113.637 -407.177)"/>
      <path id="Trazado_986450" data-name="Trazado 986450" d="M154.362,460.912a.85.85,0,0,0,.85-.85v-.013a.85.85,0,0,0-1.7,0v.013A.85.85,0,0,0,154.362,460.912Zm0,0" transform="translate(-136.12 -407.177)"/>
      <path id="Trazado_986451" data-name="Trazado 986451" d="M179.713,460.912a.85.85,0,0,0,.85-.85v-.013a.85.85,0,0,0-1.7,0v.013A.85.85,0,0,0,179.713,460.912Zm0,0" transform="translate(-158.599 -407.177)"/>
      <path id="Trazado_986452" data-name="Trazado 986452" d="M205.069,460.912a.85.85,0,0,0,.85-.85v-.013a.85.85,0,0,0-1.7,0v.013A.85.85,0,0,0,205.069,460.912Zm0,0" transform="translate(-181.083 -407.177)"/>
      <path id="Trazado_986453" data-name="Trazado 986453" d="M230.424,460.912a.85.85,0,0,0,.85-.85v-.013a.85.85,0,0,0-1.7,0v.013A.85.85,0,0,0,230.424,460.912Zm0,0" transform="translate(-203.565 -407.177)"/>
      <path id="Trazado_986454" data-name="Trazado 986454" d="M255.776,460.912a.85.85,0,0,0,.85-.85v-.013a.85.85,0,1,0-1.7,0v.013A.85.85,0,0,0,255.776,460.912Zm0,0" transform="translate(-226.045 -407.177)"/>
      <path id="Trazado_986455" data-name="Trazado 986455" d="M269.125,438.508v-.013a.85.85,0,0,0-1.7,0v.013a.85.85,0,0,0,1.7,0Zm0,0" transform="translate(-237.129 -388.064)"/>
      <path id="Trazado_986456" data-name="Trazado 986456" d="M294.48,438.508v-.013a.85.85,0,0,0-1.7,0v.013a.85.85,0,0,0,1.7,0Zm0,0" transform="translate(-259.612 -388.064)"/>
      <path id="Trazado_986457" data-name="Trazado 986457" d="M319.836,438.508v-.013a.85.85,0,0,0-1.7,0v.013a.85.85,0,0,0,1.7,0Zm0,0" transform="translate(-282.095 -388.064)"/>
      <path id="Trazado_986458" data-name="Trazado 986458" d="M345.187,438.508v-.013a.85.85,0,0,0-1.7,0v.013a.85.85,0,0,0,1.7,0Zm0,0" transform="translate(-304.574 -388.064)"/>
      <path id="Trazado_986459" data-name="Trazado 986459" d="M370.543,438.508v-.013a.85.85,0,1,0-1.7,0v.013a.85.85,0,0,0,1.7,0Zm0,0" transform="translate(-327.057 -388.064)"/>
      <path id="Trazado_986460" data-name="Trazado 986460" d="M395.9,438.508v-.013a.85.85,0,0,0-1.7,0v.013a.85.85,0,0,0,1.7,0Zm0,0" transform="translate(-349.54 -388.064)"/>
      <path id="Trazado_986461" data-name="Trazado 986461" d="M281.131,460.912a.85.85,0,0,0,.85-.85v-.013a.85.85,0,0,0-1.7,0v.013A.85.85,0,0,0,281.131,460.912Zm0,0" transform="translate(-248.528 -407.177)"/>
      <path id="Trazado_986462" data-name="Trazado 986462" d="M306.487,460.912a.85.85,0,0,0,.85-.85v-.013a.85.85,0,0,0-1.7,0v.013A.85.85,0,0,0,306.487,460.912Zm0,0" transform="translate(-271.011 -407.177)"/>
      <path id="Trazado_986463" data-name="Trazado 986463" d="M331.838,460.912a.85.85,0,0,0,.85-.85v-.013a.85.85,0,1,0-1.7,0v.013A.85.85,0,0,0,331.838,460.912Zm0,0" transform="translate(-293.49 -407.177)"/>
      <path id="Trazado_986464" data-name="Trazado 986464" d="M357.194,460.912a.85.85,0,0,0,.85-.85v-.013a.85.85,0,0,0-1.7,0v.013A.85.85,0,0,0,357.194,460.912Zm0,0" transform="translate(-315.974 -407.177)"/>
      <path id="Trazado_986465" data-name="Trazado 986465" d="M382.549,460.912a.85.85,0,0,0,.85-.85v-.013a.85.85,0,0,0-1.7,0v.013A.85.85,0,0,0,382.549,460.912Zm0,0" transform="translate(-338.456 -407.177)"/>
      <path id="Trazado_986466" data-name="Trazado 986466" d="M407.9,460.912a.85.85,0,0,0,.85-.85v-.013a.85.85,0,0,0-1.7,0v.013A.85.85,0,0,0,407.9,460.912Zm0,0" transform="translate(-360.94 -407.177)"/>
      <path id="Trazado_986467" data-name="Trazado 986467" d="M195.356,150.458a.85.85,0,0,0,.85-.85V134.382a1.985,1.985,0,0,0-1.983-1.983H180.671a1.985,1.985,0,0,0-1.983,1.983v24.04a1.985,1.985,0,0,0,1.983,1.983h13.552a1.985,1.985,0,0,0,1.983-1.983v-4.8a.85.85,0,1,0-1.7,0v4.8a.283.283,0,0,1-.283.283H180.671a.283.283,0,0,1-.283-.283v-24.04a.283.283,0,0,1,.283-.283h13.552a.283.283,0,0,1,.283.283v15.226a.85.85,0,0,0,.85.85Zm0,0" transform="translate(-158.444 -117.4)"/>
      <path id="Trazado_986468" data-name="Trazado 986468" d="M215.418,165.014a.85.85,0,0,0-1.7,0v.893a.85.85,0,0,0,1.7,0Zm0,0" transform="translate(-189.507 -145.566)"/>
      <path id="Trazado_986469" data-name="Trazado 986469" d="M215.418,198.241a.85.85,0,1,0-1.7,0v.893a.85.85,0,0,0,1.7,0Zm0,0" transform="translate(-189.507 -175.029)"/>
      <path id="Trazado_986470" data-name="Trazado 986470" d="M215.418,231.463a.85.85,0,0,0-1.7,0v.893a.85.85,0,0,0,1.7,0Zm0,0" transform="translate(-189.507 -204.487)"/>
      <path id="Trazado_986471" data-name="Trazado 986471" d="M214.569,263.84a.85.85,0,0,0-.85.85v.893a.85.85,0,0,0,1.7,0v-.893A.85.85,0,0,0,214.569,263.84Zm0,0" transform="translate(-189.507 -233.95)"/>
      <path id="Trazado_986472" data-name="Trazado 986472" d="M241.2,165.014a.85.85,0,0,0-1.7,0v.893a.85.85,0,0,0,1.7,0Zm0,0" transform="translate(-212.367 -145.566)"/>
      <path id="Trazado_986473" data-name="Trazado 986473" d="M240.35,197.391a.85.85,0,0,0-.85.85v.893a.85.85,0,0,0,1.7,0v-.893A.85.85,0,0,0,240.35,197.391Zm0,0" transform="translate(-212.367 -175.029)"/>
      <path id="Trazado_986474" data-name="Trazado 986474" d="M351.135,214.176h.013a.85.85,0,0,0,0-1.7h-.013a.85.85,0,0,0,0,1.7Zm0,0" transform="translate(-310.601 -188.406)"/>
      <path id="Trazado_986475" data-name="Trazado 986475" d="M351.135,239.527h.013a.85.85,0,0,0,0-1.7h-.013a.85.85,0,0,0,0,1.7Zm0,0" transform="translate(-310.601 -210.884)"/>
      <path id="Trazado_986476" data-name="Trazado 986476" d="M351.135,264.883h.013a.85.85,0,1,0,0-1.7h-.013a.85.85,0,0,0,0,1.7Zm0,0" transform="translate(-310.601 -233.368)"/>
      <path id="Trazado_986477" data-name="Trazado 986477" d="M351.135,290.238h.013a.85.85,0,0,0,0-1.7h-.013a.85.85,0,1,0,0,1.7Zm0,0" transform="translate(-310.601 -255.85)"/>
      <path id="Trazado_986478" data-name="Trazado 986478" d="M351.135,340.945h.013a.85.85,0,1,0,0-1.7h-.013a.85.85,0,0,0,0,1.7Zm0,0" transform="translate(-310.601 -300.813)"/>
      <path id="Trazado_986479" data-name="Trazado 986479" d="M351.135,366.3h.013a.85.85,0,0,0,0-1.7h-.013a.85.85,0,0,0,0,1.7Zm0,0" transform="translate(-310.601 -323.296)"/>
      <path id="Trazado_986480" data-name="Trazado 986480" d="M128.151,182.75h1.456a.85.85,0,0,0,0-1.7h-1.456a.85.85,0,1,0,0,1.7Zm0,0" transform="translate(-112.879 -160.54)"/>
      <path id="Trazado_986481" data-name="Trazado 986481" d="M128.151,209.972h1.456a.85.85,0,0,0,0-1.7h-1.456a.85.85,0,0,0,0,1.7Zm0,0" transform="translate(-112.879 -184.678)"/>
      <path id="Trazado_986482" data-name="Trazado 986482" d="M128.151,237.2h1.456a.85.85,0,0,0,0-1.7h-1.456a.85.85,0,0,0,0,1.7Zm0,0" transform="translate(-112.879 -208.82)"/>
    </g>
  </g>
</svg>
