<svg xmlns="http://www.w3.org/2000/svg" width="72" height="72" viewBox="0 0 72 72">
  <g id="Grupo_1114904" data-name="Grupo 1114904" transform="translate(-320.16 -1522.688)">
    <path id="Trazado_824488" data-name="Trazado 824488" d="M36,0A36,36,0,1,1,0,36,36,36,0,0,1,36,0Z" transform="translate(320.16 1522.688)" fill="#dde9f7"/>
    <g id="Grupo_1114903" data-name="Grupo 1114903" transform="translate(305.274 1532.754)">
      <path id="Trazado_901074" data-name="Trazado 901074" d="M73.3,337.986H40.86l-5.51,9.543a.554.554,0,0,0,.48.831h42.5a.554.554,0,0,0,.48-.831Z" transform="translate(-6.75 -303.745)" fill="#f6e266"/>
      <path id="Trazado_901075" data-name="Trazado 901075" d="M122.842,40.981a4.85,4.85,0,0,1-.65-2.425v-8.5a15.577,15.577,0,0,0-10.705-14.8.311.311,0,0,1-.185-.44,5.155,5.155,0,1,0-9.375-.035.355.355,0,0,1-.216.491A15.576,15.576,0,0,0,91.053,30.052v8.5a4.851,4.851,0,0,1-.65,2.426ZM104.8,12.655a1.827,1.827,0,1,1,1.827,1.827A1.827,1.827,0,0,1,104.8,12.655Z" transform="translate(-56.293 -6.74)" fill="#f1d333"/>
      <path id="Trazado_901076" data-name="Trazado 901076" d="M78.81,347.529l-5.51-9.543H70.418l1.007,1.745a4.4,4.4,0,0,1-3.812,6.6H36.042l-.69,1.2a.554.554,0,0,0,.48.831h42.5a.554.554,0,0,0,.48-.831Z" transform="translate(-6.751 -303.745)" fill="#f4dd45"/>
      <path id="Trazado_901077" data-name="Trazado 901077" d="M298.419,84.037a15.552,15.552,0,0,1,6.663,12.772v8.5a4.852,4.852,0,0,0,.65,2.426l1.17,2.026h2.883a4.851,4.851,0,0,1-.65-2.426v-8.5a15.577,15.577,0,0,0-10.705-14.8Z" transform="translate(-243.235 -75.523)" fill="#ecc32e"/>
      <circle id="Elipse_11549" data-name="Elipse 11549" cx="7.611" cy="7.611" r="7.611" transform="translate(58.027 3.256)" fill="#80e29d"/>
      <path id="Trazado_901078" data-name="Trazado 901078" d="M356.044,33.1a7.611,7.611,0,0,1-5.274,13.1,7.673,7.673,0,0,1-1.222-.1,7.611,7.611,0,1,0,6.5-13Z" transform="translate(-289.184 -29.75)" fill="#78d090"/>
      <path id="Trazado_901079" data-name="Trazado 901079" d="M366.611,77.368l-1.438-1.438a.387.387,0,0,0-.547,0l-2.783,2.783a.387.387,0,0,1-.547,0l-1.336-1.336a.387.387,0,0,0-.547,0l-1.438,1.438a.387.387,0,0,0,0,.547l3.322,3.322a.387.387,0,0,0,.547,0l4.768-4.768A.387.387,0,0,0,366.611,77.368Z" transform="translate(-296.654 -68.135)" fill="#f6f9f9"/>
      <path id="Trazado_901080" data-name="Trazado 901080" d="M434.486,83.537q.009.188.009.378a7.619,7.619,0,0,1-.253,1.952l1.013-1.013a.387.387,0,0,0,0-.547Z" transform="translate(-365.299 -75.074)" fill="#e7ecf1"/>
      <path id="Trazado_901081" data-name="Trazado 901081" d="M220.678,440.386h-6.627l-.367,2.126a3.734,3.734,0,1,0,7.36,0Z" transform="translate(-167.035 -395.771)" fill="#f1d333"/>
      <path id="Trazado_901082" data-name="Trazado 901082" d="M221.672,442.412l-.349-2.026H214.7l-.349,2.026Z" transform="translate(-167.679 -395.771)" fill="#ecc32e"/>
      <path id="Trazado_901083" data-name="Trazado 901083" d="M30.529,40.443a.76.76,0,0,0-1.038.278L27.942,43.4a1.314,1.314,0,0,0,1.138,1.971H46.114L45.9,46.612a4.494,4.494,0,1,0,8.858,0l-.213-1.237H71.579A1.314,1.314,0,0,0,72.717,43.4l-5.51-9.543a4.093,4.093,0,0,1-.548-2.046v-8.5a16.344,16.344,0,0,0-.517-4.089A8.371,8.371,0,1,0,57.56,8.668a16.25,16.25,0,0,0-1.678-.717A5.915,5.915,0,1,0,44.414,5.914a5.86,5.86,0,0,0,.361,2.036,16.259,16.259,0,0,0-7.622,5.712.76.76,0,0,0,1.225.9,14.749,14.749,0,0,1,7.278-5.308,1.114,1.114,0,0,0,.668-1.526,4.351,4.351,0,0,1-.392-1.813A4.4,4.4,0,1,1,54.318,7.76a1.09,1.09,0,0,0-.013.892,1.074,1.074,0,0,0,.652.588,14.705,14.705,0,0,1,2.334,1,8.382,8.382,0,0,0,7.261,8.93,14.808,14.808,0,0,1,.588,4.144v8.5a5.617,5.617,0,0,0,.253,1.666h-4.2a.76.76,0,1,0,0,1.52H66.11l5.112,8.854H29.436l1.371-2.374a.759.759,0,0,0-.278-1.038ZM58.787,10.867a6.851,6.851,0,1,1,6.851,6.851A6.859,6.859,0,0,1,58.787,10.867Zm-5.526,36a2.975,2.975,0,1,1-5.863,0l.258-1.5H53Z" transform="translate(0)"/>
      <path id="Trazado_901084" data-name="Trazado 901084" d="M227.553,38.024a2.587,2.587,0,1,0-2.587-2.587A2.59,2.59,0,0,0,227.553,38.024Zm0-3.654a1.067,1.067,0,1,1-1.068,1.067A1.068,1.068,0,0,1,227.553,34.37Z" transform="translate(-177.224 -29.522)"/>
      <path id="Trazado_901085" data-name="Trazado 901085" d="M65.8,169.58a14.72,14.72,0,0,1,1.165-5.767.76.76,0,1,0-1.4-.592,16.233,16.233,0,0,0-1.285,6.359v8.5a4.1,4.1,0,0,1-.535,2.024l-.013.022-2.172,3.763a.76.76,0,0,0,1.316.76l1.953-3.383h23.1a.76.76,0,1,0,0-1.52H65.547a5.622,5.622,0,0,0,.253-1.666Z" transform="translate(-30.28 -146.268)"/>
      <path id="Trazado_901086" data-name="Trazado 901086" d="M220.7,97.014a.76.76,0,0,0,.348,1.017,5.927,5.927,0,0,0,5.184.01.76.76,0,0,0-.664-1.367,4.407,4.407,0,0,1-3.85-.008A.76.76,0,0,0,220.7,97.014Z" transform="translate(-173.316 -86.804)"/>
      <path id="Trazado_901087" data-name="Trazado 901087" d="M355.637,76.486l4.768-4.768a1.146,1.146,0,0,0,0-1.622l-1.438-1.438a1.148,1.148,0,0,0-1.622,0l-2.519,2.519L353.753,70.1a1.148,1.148,0,0,0-1.622,0l-1.438,1.438a1.146,1.146,0,0,0,0,1.622l3.322,3.322A1.149,1.149,0,0,0,355.637,76.486Zm-3.606-4.133.911-.911,1.073,1.073a1.148,1.148,0,0,0,1.622,0L358.156,70l.911.911-4.241,4.241Z" transform="translate(-289.911 -61.4)"/>
    </g>
  </g>
</svg>
