<svg xmlns="http://www.w3.org/2000/svg" xmlns:xlink="http://www.w3.org/1999/xlink" width="108.914" height="108.914" viewBox="0 0 108.914 108.914">
  <defs>
    <filter id="Trazado_874925" x="0" y="0" width="108.914" height="108.914" filterUnits="userSpaceOnUse">
      <feOffset dy="3" input="SourceAlpha"/>
      <feGaussianBlur stdDeviation="3" result="blur"/>
      <feFlood flood-opacity="0.161"/>
      <feComposite operator="in" in2="blur"/>
      <feComposite in="SourceGraphic"/>
    </filter>
  </defs>
  <g id="Grupo_1125628" data-name="Grupo 1125628" transform="translate(-860.051 -1668)">
    <g transform="matrix(1, 0, 0, 1, 860.05, 1668)" filter="url(#Trazado_874925)">
      <g id="Trazado_874925-2" data-name="Trazado 874925" transform="translate(9 6)" fill="#ffd9ef" opacity="0.859">
        <path d="M 45.45676803588867 89.41407012939453 C 39.52198028564453 89.41407012939453 33.76551818847656 88.25206756591797 28.34726715087891 85.96034240722656 C 23.11311721801758 83.74648284912109 18.41204261779785 80.57682800292969 14.37464332580566 76.5394287109375 C 10.33724308013916 72.50202941894531 7.167593002319336 67.80095672607422 4.953730583190918 62.56679534912109 C 2.662005424499512 57.14855575561523 1.500005483627319 51.39208221435547 1.500005483627319 45.45729446411133 C 1.500005483627319 39.52198028564453 2.662005424499512 33.76551818847656 4.953730583190918 28.34726905822754 C 7.167593002319336 23.11310577392578 10.33724308013916 18.41203117370605 14.37464332580566 14.37464332580566 C 18.41204261779785 10.33724403381348 23.11311721801758 7.167593955993652 28.34726715087891 4.953731060028076 C 33.76551818847656 2.662006139755249 39.52198028564453 1.500006198883057 45.45676803588867 1.500006198883057 C 51.39155578613281 1.500006198883057 57.14802932739258 2.662006139755249 62.56626892089844 4.953731060028076 C 67.80043029785156 7.167593955993652 72.50150299072266 10.33724403381348 76.53890228271484 14.37464332580566 C 80.57630920410156 18.41203117370605 83.74595642089844 23.11310577392578 85.95981597900391 28.34726905822754 C 88.25154113769531 33.76551818847656 89.41354370117188 39.52198028564453 89.41354370117188 45.45676803588867 C 89.41354370117188 51.39208221435547 88.25154113769531 57.14855575561523 85.95981597900391 62.56679534912109 C 83.74595642089844 67.80095672607422 80.57630920410156 72.50202941894531 76.53890228271484 76.5394287109375 C 72.50150299072266 80.57682800292969 67.80043029785156 83.74648284912109 62.56626892089844 85.96034240722656 C 57.14802932739258 88.25206756591797 51.39155578613281 89.41407012939453 45.45676803588867 89.41407012939453 Z" stroke="none"/>
        <path d="M 45.45676803588867 3 C 39.72381210327148 3 34.1639404296875 4.12213134765625 28.93159484863281 6.335227966308594 C 23.87622833251953 8.473472595214844 19.33542633056641 11.53517150878906 15.43529510498047 15.435302734375 C 11.53517150878906 19.33543395996094 8.473464965820312 23.87622833251953 6.335227966308594 28.93160247802734 C 4.122123718261719 34.16394424438477 3 39.72381591796875 3 45.4572868347168 C 3 51.19024658203125 4.122123718261719 56.75011825561523 6.335227966308594 61.98246002197266 C 8.473464965820312 67.03782653808594 11.53517150878906 71.57862854003906 15.43529510498047 75.478759765625 C 19.33542633056641 79.37889099121094 23.87622833251953 82.44058990478516 28.93159484863281 84.57883453369141 C 34.1639404296875 86.79193115234375 39.72381210327148 87.9140625 45.45676803588867 87.9140625 C 51.18972396850586 87.9140625 56.74959564208984 86.79193115234375 61.98194122314453 84.57883453369141 C 67.03730773925781 82.44058990478516 71.57810974121094 79.37889099121094 75.47824096679688 75.478759765625 C 79.37837219238281 71.57862854003906 82.44007110595703 67.03782653808594 84.57830810546875 61.98246002197266 C 86.79141235351562 56.75011825561523 87.91353607177734 51.19024658203125 87.91353607177734 45.4567756652832 C 87.91353607177734 39.72381591796875 86.79141235351562 34.16394424438477 84.57830810546875 28.93160247802734 C 82.44007110595703 23.87622833251953 79.37837219238281 19.33543395996094 75.47824096679688 15.435302734375 C 71.57810974121094 11.53517150878906 67.03730773925781 8.473472595214844 61.98194122314453 6.335227966308594 C 56.74959564208984 4.12213134765625 51.18972396850586 3 45.45676803588867 3 M 45.45676803588867 0 C 70.56185150146484 0 90.91353607177734 20.35169219970703 90.91353607177734 45.4567756652832 L 90.91353607177734 45.4572868347168 C 90.91353607177734 70.5623779296875 70.56185150146484 90.9140625 45.45676803588867 90.9140625 C 20.3516845703125 90.9140625 0 70.5623779296875 0 45.4572868347168 L 0 45.4567756652832 C 0 20.35169219970703 20.3516845703125 0 45.45676803588867 0 Z" stroke="none" fill="#fff"/>
      </g>
    </g>
    <g id="Grupo_1125627" data-name="Grupo 1125627" transform="translate(882.051 1687)">
      <g id="color">
        <g id="Grupo_1125616" data-name="Grupo 1125616">
          <path id="Trazado_986226" data-name="Trazado 986226" d="M52,41a20.331,20.331,0,0,1-3,10.58A24.449,24.449,0,0,1,28,63,24.449,24.449,0,0,1,7,51.58,20.331,20.331,0,0,1,4,41Z" fill="#e6e6e6"/>
          <path id="Trazado_986227" data-name="Trazado 986227" d="M49,51v.58A24.449,24.449,0,0,1,28,63,24.449,24.449,0,0,1,7,51.58V51c0-2.21,9.4-4,21-4S49,48.79,49,51Z" fill="#027c89"/>
          <ellipse id="Elipse_12097" data-name="Elipse 12097" cx="21" cy="4" rx="21" ry="4" transform="translate(7 47)" fill="#0395a5"/>
          <ellipse id="Elipse_12098" data-name="Elipse 12098" cx="24" cy="5" rx="24" ry="5" transform="translate(4 36)" fill="#ccc"/>
          <path id="Trazado_986228" data-name="Trazado 986228" d="M15,43a2.006,2.006,0,0,1-2-2V40a2,2,0,0,1,4,0v1A2.006,2.006,0,0,1,15,43Z" fill="#e6e6e6"/>
        </g>
        <g id="Grupo_1125620" data-name="Grupo 1125620">
          <path id="Trazado_986229" data-name="Trazado 986229" d="M36,1H58c1.1,0,2,4.48,2,10s-.9,10-2,10H42c-3,0-3,4-6,4Z" fill="#e6e6e6"/>
          <ellipse id="Elipse_12099" data-name="Elipse 12099" cx="2" cy="12" rx="2" ry="12" transform="translate(34 1)" fill="#ccc"/>
          <g id="Grupo_1125617" data-name="Grupo 1125617">
            <path id="Trazado_986230" data-name="Trazado 986230" d="M34.03,14.87A4,4,0,0,0,32,18.35V40a2,2,0,0,0,4,0V25C35,25,34.18,20.61,34.03,14.87Z" fill="#04daf2"/>
            <path id="Trazado_986231" data-name="Trazado 986231" d="M59.99,10l-22,3.93C37.91,20.12,37.05,25,36,25c3,0,3-4,6-4H58c1.1,0,2-4.48,2-10V10Z" fill="#04daf2"/>
            <path id="Trazado_986232" data-name="Trazado 986232" d="M37.99,13.93,36,14.29l-.7.12a3.857,3.857,0,0,0-1.27.46C34.18,20.61,35.01,25,36,25,37.05,25,37.91,20.12,37.99,13.93Z" fill="#038abf"/>
          </g>
          <g id="Grupo_1125618" data-name="Grupo 1125618">
            <path id="Trazado_986233" data-name="Trazado 986233" d="M43,19a2.006,2.006,0,0,1-2-2V16a2,2,0,0,1,4,0v1A2.006,2.006,0,0,1,43,19Z" fill="#04daf2"/>
            <path id="Trazado_986234" data-name="Trazado 986234" d="M47,19a2.006,2.006,0,0,1-2-2V15a2,2,0,0,1,4,0v2A2.006,2.006,0,0,1,47,19Z" fill="#04daf2"/>
            <path id="Trazado_986235" data-name="Trazado 986235" d="M55,19a2.006,2.006,0,0,1-2-2V15a2,2,0,0,1,4,0v2A2.006,2.006,0,0,1,55,19Z" fill="#04daf2"/>
            <path id="Trazado_986236" data-name="Trazado 986236" d="M51,19a2.006,2.006,0,0,1-2-2V16a2,2,0,0,1,4,0v1A2.006,2.006,0,0,1,51,19Z" fill="#04daf2"/>
          </g>
          <g id="Grupo_1125619" data-name="Grupo 1125619">
            <path id="Trazado_986237" data-name="Trazado 986237" d="M43,18a1,1,0,0,1-1-1V16a1,1,0,0,1,2,0v1A1,1,0,0,1,43,18Z" fill="#242526"/>
            <path id="Trazado_986238" data-name="Trazado 986238" d="M47,18a1,1,0,0,1-1-1V15a1,1,0,0,1,2,0v2A1,1,0,0,1,47,18Z" fill="#242526"/>
            <path id="Trazado_986239" data-name="Trazado 986239" d="M55,18a1,1,0,0,1-1-1V15a1,1,0,0,1,2,0v2A1,1,0,0,1,55,18Z" fill="#242526"/>
            <path id="Trazado_986240" data-name="Trazado 986240" d="M51,18a1,1,0,0,1-1-1V16a1,1,0,0,1,2,0v1A1,1,0,0,1,51,18Z" fill="#242526"/>
          </g>
          <path id="Trazado_986241" data-name="Trazado 986241" d="M43,6H42a2,2,0,0,1,0-4h1a2,2,0,0,1,0,4Z" fill="#fff"/>
        </g>
        <g id="Grupo_1125621" data-name="Grupo 1125621">
          <path id="Trazado_986242" data-name="Trazado 986242" d="M28,32a1,1,0,0,1-1-1V28a1,1,0,0,1,2,0v3A1,1,0,0,1,28,32Z" fill="#04daf2"/>
          <path id="Trazado_986243" data-name="Trazado 986243" d="M28,26a1,1,0,0,1-1-1V24a1,1,0,0,1,2,0v1A1,1,0,0,1,28,26Z" fill="#04daf2"/>
          <path id="Trazado_986244" data-name="Trazado 986244" d="M40,40a1,1,0,0,1-1-1V34a1,1,0,0,1,2,0v5A1,1,0,0,1,40,40Z" fill="#04daf2"/>
        </g>
      </g>
      <g id="line">
        <g id="Grupo_1125622" data-name="Grupo 1125622">
          <ellipse id="Elipse_12100" data-name="Elipse 12100" cx="24" cy="5" rx="24" ry="5" transform="translate(4 36)" fill="none" stroke="#000" stroke-linecap="round" stroke-linejoin="round" stroke-width="2"/>
          <ellipse id="Elipse_12101" data-name="Elipse 12101" cx="21" cy="4" rx="21" ry="4" transform="translate(7 47)" fill="none" stroke="#000" stroke-linecap="round" stroke-linejoin="round" stroke-width="2"/>
          <path id="Trazado_986245" data-name="Trazado 986245" d="M52,41c0,12-10.75,22-24,22S4,53,4,41" fill="none" stroke="#000" stroke-linecap="round" stroke-linejoin="round" stroke-width="2"/>
        </g>
        <g id="Grupo_1125626" data-name="Grupo 1125626">
          <g id="Grupo_1125624" data-name="Grupo 1125624">
            <path id="Trazado_986246" data-name="Trazado 986246" d="M36,1H58c1.1,0,2,4.48,2,10s-.9,10-2,10H42c-3,0-3,4-6,4" fill="none" stroke="#000" stroke-linecap="round" stroke-linejoin="round" stroke-width="2"/>
            <ellipse id="Elipse_12102" data-name="Elipse 12102" cx="2" cy="12" rx="2" ry="12" transform="translate(34 1)" fill="none" stroke="#000" stroke-linecap="round" stroke-linejoin="round" stroke-width="2"/>
            <g id="Grupo_1125623" data-name="Grupo 1125623">
              <path id="Trazado_986247" data-name="Trazado 986247" d="M43,17V16" fill="none" stroke="#000" stroke-linecap="round" stroke-linejoin="round" stroke-width="2"/>
              <path id="Trazado_986248" data-name="Trazado 986248" d="M47,17V15" fill="none" stroke="#000" stroke-linecap="round" stroke-linejoin="round" stroke-width="2"/>
              <path id="Trazado_986249" data-name="Trazado 986249" d="M55,17V15" fill="none" stroke="#000" stroke-linecap="round" stroke-linejoin="round" stroke-width="2"/>
              <path id="Trazado_986250" data-name="Trazado 986250" d="M51,17V16" fill="none" stroke="#000" stroke-linecap="round" stroke-linejoin="round" stroke-width="2"/>
            </g>
          </g>
          <path id="Trazado_986251" data-name="Trazado 986251" d="M60,10,35.3,14.41A4,4,0,0,0,32,18.35V40a2,2,0,0,0,4,0V25" fill="none" stroke="#000" stroke-linecap="round" stroke-linejoin="round" stroke-width="2"/>
          <g id="Grupo_1125625" data-name="Grupo 1125625">
            <path id="Trazado_986252" data-name="Trazado 986252" d="M28,31V28" fill="none" stroke="#000" stroke-linecap="round" stroke-linejoin="round" stroke-width="2"/>
            <path id="Trazado_986253" data-name="Trazado 986253" d="M28,25V24" fill="none" stroke="#000" stroke-linecap="round" stroke-linejoin="round" stroke-width="2"/>
            <path id="Trazado_986254" data-name="Trazado 986254" d="M40,34v5" fill="none" stroke="#000" stroke-linecap="round" stroke-linejoin="round" stroke-width="2"/>
          </g>
        </g>
      </g>
    </g>
  </g>
</svg>
