<svg xmlns="http://www.w3.org/2000/svg" xmlns:xlink="http://www.w3.org/1999/xlink" width="108.914" height="108.914" viewBox="0 0 108.914 108.914">
  <defs>
    <filter id="Trazado_874925" x="0" y="0" width="108.914" height="108.914" filterUnits="userSpaceOnUse">
      <feOffset dy="3" input="SourceAlpha"/>
      <feGaussianBlur stdDeviation="3" result="blur"/>
      <feFlood flood-opacity="0.161"/>
      <feComposite operator="in" in2="blur"/>
      <feComposite in="SourceGraphic"/>
    </filter>
  </defs>
  <g id="Grupo_1125639" data-name="Grupo 1125639" transform="translate(-1176.051 -1667.988)">
    <g transform="matrix(1, 0, 0, 1, 1176.05, 1667.99)" filter="url(#Trazado_874925)">
      <g id="Trazado_874925-2" data-name="Trazado 874925" transform="translate(9 6)" fill="#ffd9ef" opacity="0.859">
        <path d="M 45.45676803588867 89.41407012939453 C 39.52198028564453 89.41407012939453 33.76551818847656 88.25206756591797 28.34726715087891 85.96034240722656 C 23.11311721801758 83.74648284912109 18.41204261779785 80.57682800292969 14.37464332580566 76.5394287109375 C 10.33724308013916 72.50202941894531 7.167593002319336 67.80095672607422 4.953730583190918 62.56679534912109 C 2.662005424499512 57.14855575561523 1.500005483627319 51.39208221435547 1.500005483627319 45.45729446411133 C 1.500005483627319 39.52198028564453 2.662005424499512 33.76551818847656 4.953730583190918 28.34726905822754 C 7.167593002319336 23.11310577392578 10.33724308013916 18.41203117370605 14.37464332580566 14.37464332580566 C 18.41204261779785 10.33724403381348 23.11311721801758 7.167593955993652 28.34726715087891 4.953731060028076 C 33.76551818847656 2.662006139755249 39.52198028564453 1.500006198883057 45.45676803588867 1.500006198883057 C 51.39155578613281 1.500006198883057 57.14802932739258 2.662006139755249 62.56626892089844 4.953731060028076 C 67.80043029785156 7.167593955993652 72.50150299072266 10.33724403381348 76.53890228271484 14.37464332580566 C 80.57630920410156 18.41203117370605 83.74595642089844 23.11310577392578 85.95981597900391 28.34726905822754 C 88.25154113769531 33.76551818847656 89.41354370117188 39.52198028564453 89.41354370117188 45.45676803588867 C 89.41354370117188 51.39208221435547 88.25154113769531 57.14855575561523 85.95981597900391 62.56679534912109 C 83.74595642089844 67.80095672607422 80.57630920410156 72.50202941894531 76.53890228271484 76.5394287109375 C 72.50150299072266 80.57682800292969 67.80043029785156 83.74648284912109 62.56626892089844 85.96034240722656 C 57.14802932739258 88.25206756591797 51.39155578613281 89.41407012939453 45.45676803588867 89.41407012939453 Z" stroke="none"/>
        <path d="M 45.45676803588867 3 C 39.72381210327148 3 34.1639404296875 4.12213134765625 28.93159484863281 6.335227966308594 C 23.87622833251953 8.473472595214844 19.33542633056641 11.53517150878906 15.43529510498047 15.435302734375 C 11.53517150878906 19.33543395996094 8.473464965820312 23.87622833251953 6.335227966308594 28.93160247802734 C 4.122123718261719 34.16394424438477 3 39.72381591796875 3 45.4572868347168 C 3 51.19024658203125 4.122123718261719 56.75011825561523 6.335227966308594 61.98246002197266 C 8.473464965820312 67.03782653808594 11.53517150878906 71.57862854003906 15.43529510498047 75.478759765625 C 19.33542633056641 79.37889099121094 23.87622833251953 82.44058990478516 28.93159484863281 84.57883453369141 C 34.1639404296875 86.79193115234375 39.72381210327148 87.9140625 45.45676803588867 87.9140625 C 51.18972396850586 87.9140625 56.74959564208984 86.79193115234375 61.98194122314453 84.57883453369141 C 67.03730773925781 82.44058990478516 71.57810974121094 79.37889099121094 75.47824096679688 75.478759765625 C 79.37837219238281 71.57862854003906 82.44007110595703 67.03782653808594 84.57830810546875 61.98246002197266 C 86.79141235351562 56.75011825561523 87.91353607177734 51.19024658203125 87.91353607177734 45.4567756652832 C 87.91353607177734 39.72381591796875 86.79141235351562 34.16394424438477 84.57830810546875 28.93160247802734 C 82.44007110595703 23.87622833251953 79.37837219238281 19.33543395996094 75.47824096679688 15.435302734375 C 71.57810974121094 11.53517150878906 67.03730773925781 8.473472595214844 61.98194122314453 6.335227966308594 C 56.74959564208984 4.12213134765625 51.18972396850586 3 45.45676803588867 3 M 45.45676803588867 0 C 70.56185150146484 0 90.91353607177734 20.35169219970703 90.91353607177734 45.4567756652832 L 90.91353607177734 45.4572868347168 C 90.91353607177734 70.5623779296875 70.56185150146484 90.9140625 45.45676803588867 90.9140625 C 20.3516845703125 90.9140625 0 70.5623779296875 0 45.4572868347168 L 0 45.4567756652832 C 0 20.35169219970703 20.3516845703125 0 45.45676803588867 0 Z" stroke="none" fill="#fff"/>
      </g>
    </g>
    <g id="Grupo_1125638" data-name="Grupo 1125638" transform="translate(1199.051 1687)">
      <g id="Grupo_1125636" data-name="Grupo 1125636">
        <g id="Grupo_1125629" data-name="Grupo 1125629">
          <path id="Trazado_986255" data-name="Trazado 986255" d="M60,10H50v2H44V10H20v2H14V10H4a2.006,2.006,0,0,0-2,2V52a2.006,2.006,0,0,0,2,2H14V52h6v2H44V52h6v2H60a2.006,2.006,0,0,0,2-2V12A2.006,2.006,0,0,0,60,10Z" fill="#5cd6b3"/>
        </g>
        <g id="Grupo_1125630" data-name="Grupo 1125630">
          <path id="Trazado_986256" data-name="Trazado 986256" d="M38,26V38H26V26Z" fill="#ffc729"/>
        </g>
        <g id="Grupo_1125631" data-name="Grupo 1125631">
          <path id="Trazado_986257" data-name="Trazado 986257" d="M30,30h4v4H30Z" fill="#fcd770"/>
        </g>
        <g id="Grupo_1125632" data-name="Grupo 1125632">
          <circle id="Elipse_12103" data-name="Elipse 12103" cx="2" cy="2" r="2" transform="translate(54 46)" fill="#ff826e"/>
        </g>
        <g id="Grupo_1125633" data-name="Grupo 1125633">
          <circle id="Elipse_12104" data-name="Elipse 12104" cx="2" cy="2" r="2" transform="translate(6 46)" fill="#ff826e"/>
        </g>
        <g id="Grupo_1125634" data-name="Grupo 1125634">
          <circle id="Elipse_12105" data-name="Elipse 12105" cx="2" cy="2" r="2" transform="translate(6 14)" fill="#ff826e"/>
        </g>
        <g id="Grupo_1125635" data-name="Grupo 1125635">
          <circle id="Elipse_12106" data-name="Elipse 12106" cx="2" cy="2" r="2" transform="translate(54 14)" fill="#ff826e"/>
        </g>
      </g>
      <g id="Grupo_1125637" data-name="Grupo 1125637">
        <path id="Trazado_986258" data-name="Trazado 986258" d="M60,9H49v2H45V9H19v2H15V9H4a3,3,0,0,0-3,3V52a3,3,0,0,0,3,3H15V53h4v2H45V53h4v2H60a3,3,0,0,0,3-3V12A3,3,0,0,0,60,9Zm1,43a1,1,0,0,1-1,1H51V51H43v2H21V51H13v2H4a1,1,0,0,1-1-1V12a1,1,0,0,1,1-1h9v2h8V11H43v2h8V11h9a1,1,0,0,1,1,1Z"/>
        <path id="Trazado_986259" data-name="Trazado 986259" d="M29,35h6V29H29Zm2-4h2v2H31Z"/>
        <path id="Trazado_986260" data-name="Trazado 986260" d="M25,39H39V25H25Zm2-12H37V37H27Z"/>
        <path id="Trazado_986261" data-name="Trazado 986261" d="M25,13h2v2H25Z"/>
        <path id="Trazado_986262" data-name="Trazado 986262" d="M25,17h2v6H25Z"/>
        <path id="Trazado_986263" data-name="Trazado 986263" d="M29,13h2v2H29Z"/>
        <path id="Trazado_986264" data-name="Trazado 986264" d="M29,17h2v6H29Z"/>
        <path id="Trazado_986265" data-name="Trazado 986265" d="M33,13h2v2H33Z"/>
        <path id="Trazado_986266" data-name="Trazado 986266" d="M33,17h2v6H33Z"/>
        <path id="Trazado_986267" data-name="Trazado 986267" d="M37,13h2v2H37Z"/>
        <path id="Trazado_986268" data-name="Trazado 986268" d="M37,17h2v6H37Z"/>
        <path id="Trazado_986269" data-name="Trazado 986269" d="M37,49h2v2H37Z"/>
        <path id="Trazado_986270" data-name="Trazado 986270" d="M37,41h2v6H37Z"/>
        <path id="Trazado_986271" data-name="Trazado 986271" d="M33,49h2v2H33Z"/>
        <path id="Trazado_986272" data-name="Trazado 986272" d="M33,41h2v6H33Z"/>
        <path id="Trazado_986273" data-name="Trazado 986273" d="M29,49h2v2H29Z"/>
        <path id="Trazado_986274" data-name="Trazado 986274" d="M29,41h2v6H29Z"/>
        <path id="Trazado_986275" data-name="Trazado 986275" d="M25,49h2v2H25Z"/>
        <path id="Trazado_986276" data-name="Trazado 986276" d="M25,41h2v6H25Z"/>
        <path id="Trazado_986277" data-name="Trazado 986277" d="M49,25h2v2H49Z"/>
        <path id="Trazado_986278" data-name="Trazado 986278" d="M41,25h6v2H41Z"/>
        <path id="Trazado_986279" data-name="Trazado 986279" d="M49,29h2v2H49Z"/>
        <path id="Trazado_986280" data-name="Trazado 986280" d="M41,29h6v2H41Z"/>
        <path id="Trazado_986281" data-name="Trazado 986281" d="M49,33h2v2H49Z"/>
        <path id="Trazado_986282" data-name="Trazado 986282" d="M41,33h6v2H41Z"/>
        <path id="Trazado_986283" data-name="Trazado 986283" d="M49,37h2v2H49Z"/>
        <path id="Trazado_986284" data-name="Trazado 986284" d="M41,37h6v2H41Z"/>
        <path id="Trazado_986285" data-name="Trazado 986285" d="M13,25h2v2H13Z"/>
        <path id="Trazado_986286" data-name="Trazado 986286" d="M17,25h6v2H17Z"/>
        <path id="Trazado_986287" data-name="Trazado 986287" d="M13,29h2v2H13Z"/>
        <path id="Trazado_986288" data-name="Trazado 986288" d="M17,29h6v2H17Z"/>
        <path id="Trazado_986289" data-name="Trazado 986289" d="M13,33h2v2H13Z"/>
        <path id="Trazado_986290" data-name="Trazado 986290" d="M17,33h6v2H17Z"/>
        <path id="Trazado_986291" data-name="Trazado 986291" d="M13,37h2v2H13Z"/>
        <path id="Trazado_986292" data-name="Trazado 986292" d="M17,37h6v2H17Z"/>
        <path id="Trazado_986293" data-name="Trazado 986293" d="M56,13a3,3,0,1,0,3,3A3,3,0,0,0,56,13Zm0,4a1,1,0,1,1,1-1A1,1,0,0,1,56,17Z"/>
        <path id="Trazado_986294" data-name="Trazado 986294" d="M8,13a3,3,0,1,0,3,3A3,3,0,0,0,8,13Zm0,4a1,1,0,1,1,1-1A1,1,0,0,1,8,17Z"/>
        <path id="Trazado_986295" data-name="Trazado 986295" d="M8,45a3,3,0,1,0,3,3A3,3,0,0,0,8,45Zm0,4a1,1,0,1,1,1-1A1,1,0,0,1,8,49Z"/>
        <path id="Trazado_986296" data-name="Trazado 986296" d="M56,45a3,3,0,1,0,3,3A3,3,0,0,0,56,45Zm0,4a1,1,0,1,1,1-1A1,1,0,0,1,56,49Z"/>
        <path id="Trazado_986297" data-name="Trazado 986297" d="M7,21H9V43H7Z"/>
        <path id="Trazado_986298" data-name="Trazado 986298" d="M55,21h2V43H55Z"/>
      </g>
    </g>
  </g>
</svg>
