<svg xmlns="http://www.w3.org/2000/svg" xmlns:xlink="http://www.w3.org/1999/xlink" width="108.914" height="108.914" viewBox="0 0 108.914 108.914">
  <defs>
    <filter id="Trazado_874925" x="0" y="0" width="108.914" height="108.914" filterUnits="userSpaceOnUse">
      <feOffset dy="3" input="SourceAlpha"/>
      <feGaussianBlur stdDeviation="3" result="blur"/>
      <feFlood flood-opacity="0.161"/>
      <feComposite operator="in" in2="blur"/>
      <feComposite in="SourceGraphic"/>
    </filter>
  </defs>
  <g id="Grupo_1125649" data-name="Grupo 1125649" transform="translate(-336 9940.012)">
    <g transform="matrix(1, 0, 0, 1, 336, -9940.01)" filter="url(#Trazado_874925)">
      <g id="Trazado_874925-2" data-name="Trazado 874925" transform="translate(9 6)" fill="#ffd9ef" opacity="0.859">
        <path d="M 45.45676803588867 89.41407012939453 C 39.52198028564453 89.41407012939453 33.76551818847656 88.25206756591797 28.34726715087891 85.96034240722656 C 23.11311721801758 83.74648284912109 18.41204261779785 80.57682800292969 14.37464332580566 76.5394287109375 C 10.33724308013916 72.50202941894531 7.167593002319336 67.80095672607422 4.953730583190918 62.56679534912109 C 2.662005424499512 57.14855575561523 1.500005483627319 51.39208221435547 1.500005483627319 45.45729446411133 C 1.500005483627319 39.52198028564453 2.662005424499512 33.76551818847656 4.953730583190918 28.34726905822754 C 7.167593002319336 23.11310577392578 10.33724308013916 18.41203117370605 14.37464332580566 14.37464332580566 C 18.41204261779785 10.33724403381348 23.11311721801758 7.167593955993652 28.34726715087891 4.953731060028076 C 33.76551818847656 2.662006139755249 39.52198028564453 1.500006198883057 45.45676803588867 1.500006198883057 C 51.39155578613281 1.500006198883057 57.14802932739258 2.662006139755249 62.56626892089844 4.953731060028076 C 67.80043029785156 7.167593955993652 72.50150299072266 10.33724403381348 76.53890228271484 14.37464332580566 C 80.57630920410156 18.41203117370605 83.74595642089844 23.11310577392578 85.95981597900391 28.34726905822754 C 88.25154113769531 33.76551818847656 89.41354370117188 39.52198028564453 89.41354370117188 45.45676803588867 C 89.41354370117188 51.39208221435547 88.25154113769531 57.14855575561523 85.95981597900391 62.56679534912109 C 83.74595642089844 67.80095672607422 80.57630920410156 72.50202941894531 76.53890228271484 76.5394287109375 C 72.50150299072266 80.57682800292969 67.80043029785156 83.74648284912109 62.56626892089844 85.96034240722656 C 57.14802932739258 88.25206756591797 51.39155578613281 89.41407012939453 45.45676803588867 89.41407012939453 Z" stroke="none"/>
        <path d="M 45.45676803588867 3 C 39.72381210327148 3 34.1639404296875 4.12213134765625 28.93159484863281 6.335227966308594 C 23.87622833251953 8.473472595214844 19.33542633056641 11.53517150878906 15.43529510498047 15.435302734375 C 11.53517150878906 19.33543395996094 8.473464965820312 23.87622833251953 6.335227966308594 28.93160247802734 C 4.122123718261719 34.16394424438477 3 39.72381591796875 3 45.4572868347168 C 3 51.19024658203125 4.122123718261719 56.75011825561523 6.335227966308594 61.98246002197266 C 8.473464965820312 67.03782653808594 11.53517150878906 71.57862854003906 15.43529510498047 75.478759765625 C 19.33542633056641 79.37889099121094 23.87622833251953 82.44058990478516 28.93159484863281 84.57883453369141 C 34.1639404296875 86.79193115234375 39.72381210327148 87.9140625 45.45676803588867 87.9140625 C 51.18972396850586 87.9140625 56.74959564208984 86.79193115234375 61.98194122314453 84.57883453369141 C 67.03730773925781 82.44058990478516 71.57810974121094 79.37889099121094 75.47824096679688 75.478759765625 C 79.37837219238281 71.57862854003906 82.44007110595703 67.03782653808594 84.57830810546875 61.98246002197266 C 86.79141235351562 56.75011825561523 87.91353607177734 51.19024658203125 87.91353607177734 45.4567756652832 C 87.91353607177734 39.72381591796875 86.79141235351562 34.16394424438477 84.57830810546875 28.93160247802734 C 82.44007110595703 23.87622833251953 79.37837219238281 19.33543395996094 75.47824096679688 15.435302734375 C 71.57810974121094 11.53517150878906 67.03730773925781 8.473472595214844 61.98194122314453 6.335227966308594 C 56.74959564208984 4.12213134765625 51.18972396850586 3 45.45676803588867 3 M 45.45676803588867 0 C 70.56185150146484 0 90.91353607177734 20.35169219970703 90.91353607177734 45.4567756652832 L 90.91353607177734 45.4572868347168 C 90.91353607177734 70.5623779296875 70.56185150146484 90.9140625 45.45676803588867 90.9140625 C 20.3516845703125 90.9140625 0 70.5623779296875 0 45.4572868347168 L 0 45.4567756652832 C 0 20.35169219970703 20.3516845703125 0 45.45676803588867 0 Z" stroke="none" fill="#fff"/>
      </g>
    </g>
    <g id="Grupo_1125648" data-name="Grupo 1125648" transform="translate(360.914 -9967.624)">
      <g id="Grupo_1125644" data-name="Grupo 1125644" transform="translate(0 56.002)">
        <path id="Trazado_986299" data-name="Trazado 986299" d="M7.5,111.5H46.351v38.851H7.5Z" transform="translate(-6.633 -105.085)" fill="#ffe462"/>
        <path id="Trazado_986300" data-name="Trazado 986300" d="M39.5,111.5H74.651v35.151H39.5Z" transform="translate(-34.933 -105.085)" fill="#ffbf5d"/>
        <path id="Trazado_986301" data-name="Trazado 986301" d="M55.5,63.5H94.351v38.851H55.5Z" transform="translate(-49.083 -62.635)" fill="#49f0f6"/>
        <path id="Trazado_986302" data-name="Trazado 986302" d="M55.5,375.5H94.351v2.775H55.5Z" transform="translate(-49.083 -338.559)" fill="#54d3f5"/>
        <path id="Trazado_986303" data-name="Trazado 986303" d="M375.5,63.5h1.85v38.851H375.5Z" transform="translate(-332.082 -62.635)" fill="#54d3f5"/>
        <g id="Grupo_1125641" data-name="Grupo 1125641" transform="translate(17.518 14.743)">
          <g id="Grupo_1125640" data-name="Grupo 1125640">
            <path id="Trazado_986304" data-name="Trazado 986304" d="M161.675,215.5H153.35l-1.85,1.85,1.85,1.85h8.325Z" transform="translate(-151.5 -211.802)" fill="#a7c4d9"/>
            <path id="Trazado_986305" data-name="Trazado 986305" d="M311.826,183.5v3.7H303.5v3.7h8.326v3.7h14.8V183.5Z" transform="translate(-285.925 -183.502)" fill="#a7c4d9"/>
          </g>
          <path id="Trazado_986306" data-name="Trazado 986306" d="M407.505,215.5h7.4v3.7h-7.4Z" transform="translate(-377.904 -211.802)" fill="#fff"/>
        </g>
        <g id="Grupo_1125642" data-name="Grupo 1125642" transform="translate(27.693 15.668)">
          <path id="Trazado_986307" data-name="Trazado 986307" d="M239.5,191.5h7.4v9.25h-7.4Z" transform="translate(-239.5 -191.502)" fill="#49f0f6"/>
          <path id="Trazado_986308" data-name="Trazado 986308" d="M239.5,255.5h7.4v1.85h-7.4Z" transform="translate(-239.5 -248.102)" fill="#54d3f5"/>
        </g>
        <g id="Grupo_1125643" data-name="Grupo 1125643" transform="translate(0 0)">
          <path id="Trazado_986309" data-name="Trazado 986309" d="M96,103.5h1.734v1.85H96Z" transform="translate(-84.9 -98.01)"/>
          <path id="Trazado_986310" data-name="Trazado 986310" d="M96,343.5h1.734v1.85H96Z" transform="translate(-84.9 -310.259)"/>
          <path id="Trazado_986311" data-name="Trazado 986311" d="M144,343.5h1.734v1.85H144Z" transform="translate(-127.35 -310.259)"/>
          <path id="Trazado_986312" data-name="Trazado 986312" d="M192,343.5h1.734v1.85H192Z" transform="translate(-169.799 -310.259)"/>
          <path id="Trazado_986313" data-name="Trazado 986313" d="M240,343.5h1.734v1.85H240Z" transform="translate(-212.249 -310.259)"/>
          <path id="Trazado_986314" data-name="Trazado 986314" d="M288,343.5h1.734v1.85H288Z" transform="translate(-254.699 -310.259)"/>
          <path id="Trazado_986315" data-name="Trazado 986315" d="M96,295.5h1.734v1.85H96Z" transform="translate(-84.9 -267.809)"/>
          <path id="Trazado_986316" data-name="Trazado 986316" d="M96,247.5h1.734v1.85H96Z" transform="translate(-84.9 -225.359)"/>
          <path id="Trazado_986317" data-name="Trazado 986317" d="M96,199.5h1.734v1.85H96Z" transform="translate(-84.9 -182.909)"/>
          <path id="Trazado_986318" data-name="Trazado 986318" d="M96,151.5h1.734v1.85H96Z" transform="translate(-84.9 -140.46)"/>
          <path id="Trazado_986319" data-name="Trazado 986319" d="M336,343.5h1.734v1.85H336Z" transform="translate(-297.149 -310.259)"/>
          <path id="Trazado_986320" data-name="Trazado 986320" d="M59.086,82.712V69.877h-7.4V65.194A1.794,1.794,0,0,0,49.893,63.4H46.136V56H5.55v5.55H0V74.445H1.734V63.287H5.55v33.3h33.3V100.4H1.734V76.295H0v25.843H40.585v-5.55h5.55V84.62H44.4V94.853H7.285V57.736H44.4V69.877H42.552v3.7H35.96V71.67H34.226v9.25H35.96V79.012h6.591v3.7h7.4v2.833a1.794,1.794,0,0,0,1.792,1.792h5.55a.058.058,0,0,1,.058.058V90.17h1.734V87.4A1.794,1.794,0,0,0,57.294,85.6h-5.55a.058.058,0,0,1-.058-.058V82.712ZM46.136,65.137h3.758a.058.058,0,0,1,.058.058v4.683H46.136ZM44.286,80.978v-3.7H35.96V75.312h8.326v-3.7H57.352v9.366H51.686V79.012h3.7V73.577H46.252v5.435h3.7v1.966Zm7.4-5.666h1.966v1.966H51.686Zm-1.734,1.966H47.986V75.312h1.965Z" transform="translate(0 -56.002)"/>
          <path id="Trazado_986321" data-name="Trazado 986321" d="M153.163,200.752V191.5h-1.734v5.608h-7.1l-.983-.983.983-.983h5.191V193.41h-5.909l-2.717,2.717,2.717,2.717h7.817v1.908Z" transform="translate(-124.603 -175.834)"/>
          <path id="Trazado_986322" data-name="Trazado 986322" d="M264,191.5h1.734v9.25H264Z" transform="translate(-233.474 -175.834)"/>
        </g>
      </g>
      <g id="Grupo_1125647" data-name="Grupo 1125647" transform="translate(36.076 61.494)">
        <g id="Grupo_1125645" data-name="Grupo 1125645" transform="translate(3.7 0)">
          <path id="Trazado_986323" data-name="Trazado 986323" d="M344,103.5h1.734v1.85H344Z" transform="translate(-344 -103.502)" fill="#fff"/>
        </g>
        <g id="Grupo_1125646" data-name="Grupo 1125646" transform="translate(0 0)">
          <path id="Trazado_986324" data-name="Trazado 986324" d="M312,103.5h1.734v1.85H312Z" transform="translate(-312 -103.502)"/>
        </g>
      </g>
    </g>
  </g>
</svg>
