<svg xmlns="http://www.w3.org/2000/svg" width="44.209" height="55" viewBox="0 0 44.209 55">
  <g id="Grupo_1125747" data-name="Grupo 1125747" transform="translate(-191.051 -2302)">
    <rect id="Rectángulo_401320" data-name="Rectángulo 401320" width="18" height="55" transform="translate(191.051 2302)" fill="#ffecf7"/>
    <rect id="Rectángulo_401321" data-name="Rectángulo 401321" width="18" height="50" transform="translate(200.051 2307)" fill="#fff5fa"/>
    <g id="outline" transform="translate(187.191 2307.707)">
      <g id="Grupo_1114795" data-name="Grupo 1114795" transform="translate(6.806 25.027)">
        <circle id="Elipse_11542" data-name="Elipse 11542" cx="2.427" cy="2.427" r="2.427" transform="translate(33.972)" fill="#f7931e"/>
        <circle id="Elipse_11543" data-name="Elipse 11543" cx="2.427" cy="2.427" r="2.427" transform="translate(35.59 8.089)" fill="#f7931e"/>
        <circle id="Elipse_11544" data-name="Elipse 11544" cx="2.427" cy="2.427" r="2.427" transform="translate(33.972 16.177)" fill="#f7931e"/>
        <circle id="Elipse_11545" data-name="Elipse 11545" cx="2.427" cy="2.427" r="2.427" transform="translate(1.618)" fill="#f7931e"/>
        <circle id="Elipse_11546" data-name="Elipse 11546" cx="2.427" cy="2.427" r="2.427" transform="translate(0 8.089)" fill="#f7931e"/>
        <circle id="Elipse_11547" data-name="Elipse 11547" cx="2.427" cy="2.427" r="2.427" transform="translate(1.618 16.177)" fill="#f7931e"/>
      </g>
      <path id="Trazado_900463" data-name="Trazado 900463" d="M53.748,33.155a2.427,2.427,0,1,1-3.025-3.025,2.507,2.507,0,0,0-.105.7,2.427,2.427,0,0,0,2.427,2.427,2.508,2.508,0,0,0,.7-.105Z" transform="translate(-8.221 -4.998)" fill="#f15a24"/>
      <path id="Trazado_900464" data-name="Trazado 900464" d="M55.748,43.155a2.427,2.427,0,1,1-3.025-3.025,2.508,2.508,0,0,0-.105.7,2.427,2.427,0,0,0,2.427,2.427A2.507,2.507,0,0,0,55.748,43.155Z" transform="translate(-8.603 -6.909)" fill="#f15a24"/>
      <path id="Trazado_900465" data-name="Trazado 900465" d="M53.748,53.155a2.427,2.427,0,1,1-3.025-3.025,2.507,2.507,0,0,0-.105.7,2.427,2.427,0,0,0,2.427,2.427,2.508,2.508,0,0,0,.7-.105Z" transform="translate(-8.221 -8.821)" fill="#f15a24"/>
      <path id="Trazado_900466" data-name="Trazado 900466" d="M13.748,33.155a2.427,2.427,0,1,1-3.025-3.025,2.507,2.507,0,0,0-.105.7,2.427,2.427,0,0,0,2.427,2.427,2.507,2.507,0,0,0,.7-.105Z" transform="translate(-0.576 -4.998)" fill="#f15a24"/>
      <path id="Trazado_900467" data-name="Trazado 900467" d="M11.748,43.155A2.427,2.427,0,1,1,8.723,40.13a2.508,2.508,0,0,0-.105.7,2.427,2.427,0,0,0,2.427,2.427,2.507,2.507,0,0,0,.7-.105Z" transform="translate(-0.193 -6.909)" fill="#f15a24"/>
      <path id="Trazado_900468" data-name="Trazado 900468" d="M13.748,53.155a2.427,2.427,0,1,1-3.025-3.025,2.507,2.507,0,0,0-.105.7,2.427,2.427,0,0,0,2.427,2.427A2.507,2.507,0,0,0,13.748,53.155Z" transform="translate(-0.576 -8.821)" fill="#f15a24"/>
      <rect id="Rectángulo_407890" data-name="Rectángulo 407890" width="19.413" height="19.413" rx="4" transform="translate(17.322 25.836)" fill="#666"/>
      <path id="Trazado_900469" data-name="Trazado 900469" d="M23.235,43.942V31A3.235,3.235,0,0,0,20,34.235V47.177a3.235,3.235,0,0,0,3.235,3.235H36.177a3.235,3.235,0,0,0,3.235-3.235H26.471A3.235,3.235,0,0,1,23.235,43.942Z" transform="translate(-2.678 -5.164)" fill="#4d4d4d"/>
      <rect id="Rectángulo_407891" data-name="Rectángulo 407891" width="9.706" height="9.706" rx="2" transform="translate(22.175 30.689)" fill="#50b5f9"/>
      <path id="Trazado_900470" data-name="Trazado 900470" d="M30.853,43.471a1.618,1.618,0,0,1-1.618-1.618V37H27.618A1.618,1.618,0,0,0,26,38.618v6.471a1.618,1.618,0,0,0,1.618,1.618h6.471a1.618,1.618,0,0,0,1.618-1.618V43.471Z" transform="translate(-3.825 -6.311)" fill="#118cb7"/>
      <path id="Trazado_900471" data-name="Trazado 900471" d="M26.471,25.919v1.739h6.471V25.919A3.235,3.235,0,0,1,34.608,23.1a9.731,9.731,0,1,0-9.755,0A3.284,3.284,0,0,1,26.471,25.919Z" transform="translate(-2.678 -0.204)" fill="#ffdc31"/>
      <path id="Trazado_900472" data-name="Trazado 900472" d="M28,33h6.471v1.618a3.235,3.235,0,1,1-6.471,0Z" transform="translate(-4.208 -5.546)" fill="#f7931e"/>
      <path id="Trazado_900473" data-name="Trazado 900473" d="M30.53,26.248a1.618,1.618,0,0,1-1.618-1.618v-.121a3.284,3.284,0,0,0-1.618-2.823A9.706,9.706,0,0,1,25.677,6.14,9.706,9.706,0,0,0,24.868,23.3a3.284,3.284,0,0,1,1.618,2.823v1.739h6.471V26.248Z" transform="translate(-2.693 -0.412)" fill="#f9ba2b"/>
      <path id="Trazado_900474" data-name="Trazado 900474" d="M33.662,36.235A3.235,3.235,0,0,1,30.427,33H28v1.618a3.235,3.235,0,0,0,6.042,1.618,3.034,3.034,0,0,1-.38,0Z" transform="translate(-4.208 -5.546)" fill="#f15a24"/>
      <path id="Trazado_900475" data-name="Trazado 900475" d="M34.566,48.971a2.427,2.427,0,0,1-1.068.251H20.557a2.427,2.427,0,0,1-2.427-2.427V33.853a2.427,2.427,0,0,1,2.427-2.427.809.809,0,0,0,0-1.618,4.044,4.044,0,0,0-4.044,4.044v.809H14.6l-.93-.874a3.236,3.236,0,1,0-1.108,1.181l1.157,1.092a.809.809,0,0,0,.558.218h2.232v3.235H12.355a3.235,3.235,0,1,0,0,1.618h4.158v3.235H14.28a.809.809,0,0,0-.558.218l-1.157,1.092a3.235,3.235,0,1,0,1.108,1.181l.93-.874h1.909v.809a4.044,4.044,0,0,0,4.044,4.044h.809v2.427a.809.809,0,1,0,1.618,0V50.839h3.235v2.427a.809.809,0,1,0,1.618,0V50.839h3.235v2.427a.809.809,0,0,0,1.618,0V50.839H33.5a4.1,4.1,0,0,0,1.779-.413.81.81,0,1,0-.712-1.456ZM9.233,32.235a1.618,1.618,0,1,1,1.618,1.618A1.618,1.618,0,0,1,9.233,32.235Zm0,9.706a1.618,1.618,0,1,1,1.618-1.618A1.618,1.618,0,0,1,9.233,41.942Zm1.618,8.089a1.618,1.618,0,1,1,1.618-1.618A1.618,1.618,0,0,1,10.851,50.03Z" transform="translate(0 -4.782)"/>
      <path id="Trazado_900476" data-name="Trazado 900476" d="M48.011,41.133a3.235,3.235,0,1,0,0-1.618H43.853V36.28h2.232a.809.809,0,0,0,.558-.218L47.8,34.969a3.235,3.235,0,1,0-1.108-1.181l-.93.874H43.853v-.809a4.044,4.044,0,0,0-4.044-4.044.809.809,0,0,0,0,1.618,2.427,2.427,0,0,1,2.427,2.427V45.177h0v1.618a.809.809,0,0,0,.639.946h.154a.809.809,0,0,0,.809-.655,1.674,1.674,0,0,0,.016-.291v-.809h1.909l.93.874A3.236,3.236,0,1,0,47.8,45.679l-1.157-1.092a.809.809,0,0,0-.558-.218H43.853V41.133Zm3.122-2.427a1.618,1.618,0,1,1-1.618,1.618A1.618,1.618,0,0,1,51.133,38.706Zm-1.618-8.089A1.618,1.618,0,1,1,47.9,32.235,1.618,1.618,0,0,1,49.515,30.618Zm1.618,17.795a1.618,1.618,0,1,1-1.618-1.618A1.618,1.618,0,0,1,51.133,48.413Z" transform="translate(-6.31 -4.782)"/>
      <path id="Trazado_900477" data-name="Trazado 900477" d="M25.809,39.28a.809.809,0,0,0-.809.809v5.436a2.427,2.427,0,0,0,2.427,2.427H33.9a2.427,2.427,0,0,0,2.427-2.427V40.089a.809.809,0,1,0-1.618,0v5.436a.809.809,0,0,1-.809.809H27.427a.809.809,0,0,1-.809-.809V40.089A.809.809,0,0,0,25.809,39.28Z" transform="translate(-3.634 -6.747)"/>
      <path id="Trazado_900478" data-name="Trazado 900478" d="M24.219,23.587a2.427,2.427,0,0,1,1.254,2.127v3.357a4.044,4.044,0,1,0,8.089,0V25.715a2.427,2.427,0,0,1,1.262-2.127,10.515,10.515,0,1,0-10.6,0Zm7.725,5.484a2.427,2.427,0,1,1-4.853,0v-.809h4.853ZM23.354,8.1A8.891,8.891,0,1,1,34.006,22.18a4.125,4.125,0,0,0-2.063,3.535v.93H27.091v-.93A4.1,4.1,0,0,0,25.028,22.2,8.9,8.9,0,0,1,23.354,8.1Z" transform="translate(-2.489)"/>
      <path id="Trazado_900479" data-name="Trazado 900479" d="M29.427,17.235a2.427,2.427,0,0,0,1.618-.623,2.423,2.423,0,0,0,4.044-1.8.809.809,0,1,0-1.618,0,.809.809,0,0,1-1.618,0,.809.809,0,1,0-1.618,0,.809.809,0,1,1-1.618,0,.809.809,0,0,0-1.618,0A2.427,2.427,0,0,0,29.427,17.235Z" transform="translate(-4.016 -1.915)"/>
    </g>
  </g>
</svg>
