<svg xmlns="http://www.w3.org/2000/svg" xmlns:xlink="http://www.w3.org/1999/xlink" width="108.914" height="108.914" viewBox="0 0 108.914 108.914">
  <defs>
    <filter id="Trazado_874925" x="0" y="0" width="108.914" height="108.914" filterUnits="userSpaceOnUse">
      <feOffset dy="3" input="SourceAlpha"/>
      <feGaussianBlur stdDeviation="3" result="blur"/>
      <feFlood flood-opacity="0.161"/>
      <feComposite operator="in" in2="blur"/>
      <feComposite in="SourceGraphic"/>
    </filter>
  </defs>
  <g id="Grupo_1125651" data-name="Grupo 1125651" transform="translate(-654 9940)">
    <g transform="matrix(1, 0, 0, 1, 654, -9940)" filter="url(#Trazado_874925)">
      <g id="Trazado_874925-2" data-name="Trazado 874925" transform="translate(9 6)" fill="#ffd9ef" opacity="0.859">
        <path d="M 45.45676803588867 89.41407012939453 C 39.52198028564453 89.41407012939453 33.76551818847656 88.25206756591797 28.34726715087891 85.96034240722656 C 23.11311721801758 83.74648284912109 18.41204261779785 80.57682800292969 14.37464332580566 76.5394287109375 C 10.33724308013916 72.50202941894531 7.167593002319336 67.80095672607422 4.953730583190918 62.56679534912109 C 2.662005424499512 57.14855575561523 1.500005483627319 51.39208221435547 1.500005483627319 45.45729446411133 C 1.500005483627319 39.52198028564453 2.662005424499512 33.76551818847656 4.953730583190918 28.34726905822754 C 7.167593002319336 23.11310577392578 10.33724308013916 18.41203117370605 14.37464332580566 14.37464332580566 C 18.41204261779785 10.33724403381348 23.11311721801758 7.167593955993652 28.34726715087891 4.953731060028076 C 33.76551818847656 2.662006139755249 39.52198028564453 1.500006198883057 45.45676803588867 1.500006198883057 C 51.39155578613281 1.500006198883057 57.14802932739258 2.662006139755249 62.56626892089844 4.953731060028076 C 67.80043029785156 7.167593955993652 72.50150299072266 10.33724403381348 76.53890228271484 14.37464332580566 C 80.57630920410156 18.41203117370605 83.74595642089844 23.11310577392578 85.95981597900391 28.34726905822754 C 88.25154113769531 33.76551818847656 89.41354370117188 39.52198028564453 89.41354370117188 45.45676803588867 C 89.41354370117188 51.39208221435547 88.25154113769531 57.14855575561523 85.95981597900391 62.56679534912109 C 83.74595642089844 67.80095672607422 80.57630920410156 72.50202941894531 76.53890228271484 76.5394287109375 C 72.50150299072266 80.57682800292969 67.80043029785156 83.74648284912109 62.56626892089844 85.96034240722656 C 57.14802932739258 88.25206756591797 51.39155578613281 89.41407012939453 45.45676803588867 89.41407012939453 Z" stroke="none"/>
        <path d="M 45.45676803588867 3 C 39.72381210327148 3 34.1639404296875 4.12213134765625 28.93159484863281 6.335227966308594 C 23.87622833251953 8.473472595214844 19.33542633056641 11.53517150878906 15.43529510498047 15.435302734375 C 11.53517150878906 19.33543395996094 8.473464965820312 23.87622833251953 6.335227966308594 28.93160247802734 C 4.122123718261719 34.16394424438477 3 39.72381591796875 3 45.4572868347168 C 3 51.19024658203125 4.122123718261719 56.75011825561523 6.335227966308594 61.98246002197266 C 8.473464965820312 67.03782653808594 11.53517150878906 71.57862854003906 15.43529510498047 75.478759765625 C 19.33542633056641 79.37889099121094 23.87622833251953 82.44058990478516 28.93159484863281 84.57883453369141 C 34.1639404296875 86.79193115234375 39.72381210327148 87.9140625 45.45676803588867 87.9140625 C 51.18972396850586 87.9140625 56.74959564208984 86.79193115234375 61.98194122314453 84.57883453369141 C 67.03730773925781 82.44058990478516 71.57810974121094 79.37889099121094 75.47824096679688 75.478759765625 C 79.37837219238281 71.57862854003906 82.44007110595703 67.03782653808594 84.57830810546875 61.98246002197266 C 86.79141235351562 56.75011825561523 87.91353607177734 51.19024658203125 87.91353607177734 45.4567756652832 C 87.91353607177734 39.72381591796875 86.79141235351562 34.16394424438477 84.57830810546875 28.93160247802734 C 82.44007110595703 23.87622833251953 79.37837219238281 19.33543395996094 75.47824096679688 15.435302734375 C 71.57810974121094 11.53517150878906 67.03730773925781 8.473472595214844 61.98194122314453 6.335227966308594 C 56.74959564208984 4.12213134765625 51.18972396850586 3 45.45676803588867 3 M 45.45676803588867 0 C 70.56185150146484 0 90.91353607177734 20.35169219970703 90.91353607177734 45.4567756652832 L 90.91353607177734 45.4572868347168 C 90.91353607177734 70.5623779296875 70.56185150146484 90.9140625 45.45676803588867 90.9140625 C 20.3516845703125 90.9140625 0 70.5623779296875 0 45.4572868347168 L 0 45.4567756652832 C 0 20.35169219970703 20.3516845703125 0 45.45676803588867 0 Z" stroke="none" fill="#fff"/>
      </g>
    </g>
    <g id="Layer_x0020_1" transform="translate(678.821 -9948)">
      <path id="Trazado_986325" data-name="Trazado 986325" d="M35.79,80.969H33.476v2.777H40.07V39.784H33.476v2.776H35.79a.81.81,0,0,1,0,1.62H33.476v4.512H35.79a.81.81,0,0,1,0,1.62H33.476v4.512H35.79a.81.81,0,0,1,0,1.62H33.476v4.512H35.79a.81.81,0,0,1,0,1.62H33.476v4.512H35.79a.81.81,0,0,1,0,1.62H33.476v4.512H35.79a.81.81,0,0,1,0,1.62H33.476v4.512H35.79A.81.81,0,0,1,35.79,80.969Zm-3.933,2.777V55.4a14.083,14.083,0,0,1-8.792-2.2c-6.71-4.049-10.3-1.157-11.222-.347V79a4.691,4.691,0,0,0,4.743,4.743ZM10.223,52.626v-7.4L.389,35.388A.839.839,0,0,1,.968,34H48.515a.791.791,0,0,1,.81.81v3.355h4.627A5.431,5.431,0,0,1,59.39,43.6V56.79a5.431,5.431,0,0,1-5.437,5.437H49.325V79a6.419,6.419,0,0,1-6.363,6.363H16.586A6.419,6.419,0,0,1,10.223,79Zm1.62-1.851c2.892-1.735,7.173-1.967,12.147,1.041,2.892,1.735,5.437,2.314,7.867,1.851V38.975a.791.791,0,0,1,.81-.81H40.88a.791.791,0,0,1,.81.81V49.618a9.6,9.6,0,0,1,6.016,1.157V35.62H11.842Zm35.863,2.082a7.076,7.076,0,0,0-6.016-1.62V83.746h1.273A4.691,4.691,0,0,0,47.706,79Zm1.62-13.073v1.388h4.627A2.372,2.372,0,0,1,56.382,43.6V56.79a2.372,2.372,0,0,1-2.429,2.429H49.325v1.388h4.627A3.852,3.852,0,0,0,57.77,56.79V43.6a3.852,3.852,0,0,0-3.818-3.818Zm0,3.008V57.6h4.627a.791.791,0,0,0,.81-.81V43.6a.791.791,0,0,0-.81-.81ZM2.935,35.62l7.288,7.288V35.62Z" transform="translate(0)" fill="#4d4d4d" fill-rule="evenodd"/>
      <path id="Trazado_986326" data-name="Trazado 986326" d="M121.014,214.448V186.1a14.083,14.083,0,0,1-8.792-2.2c-6.71-4.049-10.3-1.157-11.222-.347V209.7a4.691,4.691,0,0,0,4.743,4.743Z" transform="translate(-89.158 -130.702)" fill="#d9f2f2" fill-rule="evenodd"/>
      <path id="Trazado_986327" data-name="Trazado 986327" d="M290.314,105.171a.81.81,0,0,1,0,1.62H288V111.3h2.314a.81.81,0,0,1,0,1.62H288v4.512h2.314a.81.81,0,0,1,0,1.62H288v4.512h2.314a.81.81,0,0,1,0,1.62H288v2.776h6.594V84H288v2.776h2.314a.81.81,0,0,1,0,1.62H288v4.512h2.314a.81.81,0,0,1,0,1.62H288v4.512h2.314a.81.81,0,0,1,0,1.62H288v4.512Z" transform="translate(-254.524 -44.216)" fill="#ffe600" fill-rule="evenodd"/>
      <path id="Trazado_986328" data-name="Trazado 986328" d="M359,182.334v32.508h1.273a4.691,4.691,0,0,0,4.743-4.743V183.954A7.076,7.076,0,0,0,359,182.334Z" transform="translate(-317.31 -131.097)" fill="#d9f2f2" fill-rule="evenodd"/>
      <path id="Trazado_986329" data-name="Trazado 986329" d="M130.847,62a9.6,9.6,0,0,1,6.016,1.157V48H101V63.155c2.892-1.735,7.173-1.967,12.147,1.041,2.892,1.735,5.437,2.314,7.867,1.851V51.355a.791.791,0,0,1,.81-.81h8.214a.791.791,0,0,1,.81.81Z" transform="translate(-89.158 -12.38)" fill="#f1f1f1" fill-rule="evenodd"/>
      <g id="Grupo_1125650" data-name="Grupo 1125650" transform="translate(2.935 35.62)">
        <path id="Trazado_986330" data-name="Trazado 986330" d="M425,85.388h4.628a2.372,2.372,0,0,1,2.429,2.429v13.188a2.372,2.372,0,0,1-2.429,2.429H425v1.388h4.628a3.852,3.852,0,0,0,3.818-3.818V87.818A3.852,3.852,0,0,0,429.628,84H425Z" transform="translate(-378.609 -79.835)" fill="#99a4ac" fill-rule="evenodd"/>
        <path id="Trazado_986331" data-name="Trazado 986331" d="M31.288,55.288V48H24Z" transform="translate(-24 -48)" fill="#99a4ac" fill-rule="evenodd"/>
      </g>
    </g>
  </g>
</svg>
