<svg xmlns="http://www.w3.org/2000/svg" xmlns:xlink="http://www.w3.org/1999/xlink" width="108.914" height="108.914" viewBox="0 0 108.914 108.914">
  <defs>
    <filter id="Trazado_874925" x="0" y="0" width="108.914" height="108.914" filterUnits="userSpaceOnUse">
      <feOffset dy="3" input="SourceAlpha"/>
      <feGaussianBlur stdDeviation="3" result="blur"/>
      <feFlood flood-opacity="0.161"/>
      <feComposite operator="in" in2="blur"/>
      <feComposite in="SourceGraphic"/>
    </filter>
  </defs>
  <g id="Grupo_1125653" data-name="Grupo 1125653" transform="translate(-978 9940.012)">
    <g transform="matrix(1, 0, 0, 1, 978, -9940.01)" filter="url(#Trazado_874925)">
      <g id="Trazado_874925-2" data-name="Trazado 874925" transform="translate(9 6)" fill="#ffd9ef" opacity="0.859">
        <path d="M 45.45676803588867 89.41407012939453 C 39.52198028564453 89.41407012939453 33.76551818847656 88.25206756591797 28.34726715087891 85.96034240722656 C 23.11311721801758 83.74648284912109 18.41204261779785 80.57682800292969 14.37464332580566 76.5394287109375 C 10.33724308013916 72.50202941894531 7.167593002319336 67.80095672607422 4.953730583190918 62.56679534912109 C 2.662005424499512 57.14855575561523 1.500005483627319 51.39208221435547 1.500005483627319 45.45729446411133 C 1.500005483627319 39.52198028564453 2.662005424499512 33.76551818847656 4.953730583190918 28.34726905822754 C 7.167593002319336 23.11310577392578 10.33724308013916 18.41203117370605 14.37464332580566 14.37464332580566 C 18.41204261779785 10.33724403381348 23.11311721801758 7.167593955993652 28.34726715087891 4.953731060028076 C 33.76551818847656 2.662006139755249 39.52198028564453 1.500006198883057 45.45676803588867 1.500006198883057 C 51.39155578613281 1.500006198883057 57.14802932739258 2.662006139755249 62.56626892089844 4.953731060028076 C 67.80043029785156 7.167593955993652 72.50150299072266 10.33724403381348 76.53890228271484 14.37464332580566 C 80.57630920410156 18.41203117370605 83.74595642089844 23.11310577392578 85.95981597900391 28.34726905822754 C 88.25154113769531 33.76551818847656 89.41354370117188 39.52198028564453 89.41354370117188 45.45676803588867 C 89.41354370117188 51.39208221435547 88.25154113769531 57.14855575561523 85.95981597900391 62.56679534912109 C 83.74595642089844 67.80095672607422 80.57630920410156 72.50202941894531 76.53890228271484 76.5394287109375 C 72.50150299072266 80.57682800292969 67.80043029785156 83.74648284912109 62.56626892089844 85.96034240722656 C 57.14802932739258 88.25206756591797 51.39155578613281 89.41407012939453 45.45676803588867 89.41407012939453 Z" stroke="none"/>
        <path d="M 45.45676803588867 3 C 39.72381210327148 3 34.1639404296875 4.12213134765625 28.93159484863281 6.335227966308594 C 23.87622833251953 8.473472595214844 19.33542633056641 11.53517150878906 15.43529510498047 15.435302734375 C 11.53517150878906 19.33543395996094 8.473464965820312 23.87622833251953 6.335227966308594 28.93160247802734 C 4.122123718261719 34.16394424438477 3 39.72381591796875 3 45.4572868347168 C 3 51.19024658203125 4.122123718261719 56.75011825561523 6.335227966308594 61.98246002197266 C 8.473464965820312 67.03782653808594 11.53517150878906 71.57862854003906 15.43529510498047 75.478759765625 C 19.33542633056641 79.37889099121094 23.87622833251953 82.44058990478516 28.93159484863281 84.57883453369141 C 34.1639404296875 86.79193115234375 39.72381210327148 87.9140625 45.45676803588867 87.9140625 C 51.18972396850586 87.9140625 56.74959564208984 86.79193115234375 61.98194122314453 84.57883453369141 C 67.03730773925781 82.44058990478516 71.57810974121094 79.37889099121094 75.47824096679688 75.478759765625 C 79.37837219238281 71.57862854003906 82.44007110595703 67.03782653808594 84.57830810546875 61.98246002197266 C 86.79141235351562 56.75011825561523 87.91353607177734 51.19024658203125 87.91353607177734 45.4567756652832 C 87.91353607177734 39.72381591796875 86.79141235351562 34.16394424438477 84.57830810546875 28.93160247802734 C 82.44007110595703 23.87622833251953 79.37837219238281 19.33543395996094 75.47824096679688 15.435302734375 C 71.57810974121094 11.53517150878906 67.03730773925781 8.473472595214844 61.98194122314453 6.335227966308594 C 56.74959564208984 4.12213134765625 51.18972396850586 3 45.45676803588867 3 M 45.45676803588867 0 C 70.56185150146484 0 90.91353607177734 20.35169219970703 90.91353607177734 45.4567756652832 L 90.91353607177734 45.4572868347168 C 90.91353607177734 70.5623779296875 70.56185150146484 90.9140625 45.45676803588867 90.9140625 C 20.3516845703125 90.9140625 0 70.5623779296875 0 45.4572868347168 L 0 45.4567756652832 C 0 20.35169219970703 20.3516845703125 0 45.45676803588867 0 Z" stroke="none" fill="#fff"/>
      </g>
    </g>
    <g id="Grupo_1125652" data-name="Grupo 1125652" transform="translate(1006.421 -9915.333)">
      <path id="Trazado_986332" data-name="Trazado 986332" d="M273.13,20.6A12.476,12.476,0,0,1,265.1,32.254v2.624h-8.924V32.254A12.488,12.488,0,1,1,273.13,20.6Zm0,0" transform="translate(-220.421 -7.201)" fill="#bdfdff"/>
      <path id="Trazado_986333" data-name="Trazado 986333" d="M88.123,96.141a8.032,8.032,0,1,1-8.032-8.032A8.032,8.032,0,0,1,88.123,96.141Zm0,0" transform="translate(-63.971 -78.28)" fill="#ffda44"/>
      <path id="Trazado_986334" data-name="Trazado 986334" d="M16.059,304.109H32.122v5.354H16.059Zm0,0" transform="translate(-14.218 -270.185)" fill="#c0ab91"/>
      <path id="Trazado_986335" data-name="Trazado 986335" d="M30.338,352.109,31.23,365.5H16.059l1.785-13.386Zm0,0" transform="translate(-14.218 -312.831)" fill="#c0ab91"/>
      <path id="Trazado_986336" data-name="Trazado 986336" d="M18.517,145.284l.17-.17a2.637,2.637,0,0,1,3.891,3.552l-2.918,3.507,1.785,2.677H11.628v-.892l-3.57-7.139,4.007-9.611a1.79,1.79,0,0,1,1.642-1.1h1.955a7.844,7.844,0,0,0-.464,2.677A7.982,7.982,0,0,0,18.517,145.284Zm0,0" transform="translate(-7.11 -120.927)" fill="#ffdaaa"/>
      <path id="Trazado_986337" data-name="Trazado 986337" d="M216.123,336.141a8.032,8.032,0,1,1-8.032-8.032A8.032,8.032,0,0,1,216.123,336.141Zm0,0" transform="translate(-177.692 -291.508)" fill="#ffda44"/>
      <path id="Trazado_986338" data-name="Trazado 986338" d="M335.2,288.109v1.785a1.791,1.791,0,0,1-1.785,1.785h-3.57a1.79,1.79,0,0,1-1.785-1.785v-1.785Zm0,0" transform="translate(-291.414 -255.97)" fill="#57565c"/>
      <path id="Trazado_986339" data-name="Trazado 986339" d="M328.983,248.109v4.462h-8.924v-4.462Zm0,0" transform="translate(-284.306 -220.432)" fill="#898890"/>
      <path id="Trazado_986340" data-name="Trazado 986340" d="M360.059,101.464a5.355,5.355,0,0,1,5.355-5.355h2.677a5.354,5.354,0,0,1-5.354,5.355Zm0,0" transform="translate(-319.844 -85.388)" fill="#91dc5a"/>
      <path id="Trazado_986341" data-name="Trazado 986341" d="M290.736,96.109a5.355,5.355,0,0,1,5.355,5.355h-2.677a5.354,5.354,0,0,1-5.355-5.355Zm0,0" transform="translate(-255.876 -85.388)" fill="#91dc5a"/>
      <path id="Trazado_986342" data-name="Trazado 986342" d="M311.541,35.621l-.357-1.75a9.7,9.7,0,0,0-3.927,1.767l1.071,1.428A7.911,7.911,0,0,1,311.541,35.621Zm0,0" transform="translate(-272.933 -30.093)"/>
      <path id="Trazado_986343" data-name="Trazado 986343" d="M258.788,28.569h1.785V26.784h-1.785v-1.13a13.386,13.386,0,1,0-10.709,0v1.13h-1.785v1.785h1.785v3.57a.892.892,0,0,0,.892.892v.892a2.677,2.677,0,0,0,2.677,2.677h3.57a2.677,2.677,0,0,0,2.677-2.677v-.892a.892.892,0,0,0,.892-.892Zm-9.5-4.345a11.6,11.6,0,1,1,8.285,0,.893.893,0,0,0-.573.833v1.728h-2.677V16.968h1.785a6.254,6.254,0,0,0,6.247-6.247.892.892,0,0,0-.892-.892h-2.677a6.247,6.247,0,0,0-5.355,3.046,6.248,6.248,0,0,0-5.355-3.046H245.4a.892.892,0,0,0-.892.892,6.254,6.254,0,0,0,6.247,6.247h1.785v9.817h-2.677V25.057A.894.894,0,0,0,249.291,24.224Zm5.124-9.041a4.469,4.469,0,0,1,4.373-3.57h1.7a4.469,4.469,0,0,1-4.373,3.57Zm-1.963,0h-1.7a4.469,4.469,0,0,1-4.373-3.57h1.7A4.469,4.469,0,0,1,252.451,15.183ZM257,28.569v2.677h-7.139V28.569Zm-.892,5.355a.892.892,0,0,1-.892.892h-3.57a.892.892,0,0,1-.892-.892v-.892h5.355Zm0,0" transform="translate(-213.218)"/>
      <path id="Trazado_986344" data-name="Trazado 986344" d="M200.983,320.109a8.924,8.924,0,1,0,8.924,8.924A8.924,8.924,0,0,0,200.983,320.109Zm0,16.064a7.139,7.139,0,1,1,7.139-7.139A7.139,7.139,0,0,1,200.983,336.173Zm0,0" transform="translate(-170.585 -284.4)"/>
      <path id="Trazado_986345" data-name="Trazado 986345" d="M242.736,354.786h1.785a.892.892,0,0,1,.892.892H247.2A2.677,2.677,0,0,0,244.521,353v-.892h-1.785V353a2.677,2.677,0,0,0,0,5.355h1.785a.892.892,0,1,1,0,1.785h-1.785a.892.892,0,0,1-.892-.892h-1.785a2.677,2.677,0,0,0,2.677,2.677v.892h1.785v-.892a2.677,2.677,0,1,0,0-5.355h-1.785a.892.892,0,1,1,0-1.785Zm0,0" transform="translate(-213.23 -312.831)"/>
      <path id="Trazado_986346" data-name="Trazado 986346" d="M17.9,104.141H14.812l-1.15-1.726,2.493-2.995a3.515,3.515,0,0,0,.733-1.565A8.924,8.924,0,1,0,7.946,85.4H6.6a2.671,2.671,0,0,0-2.471,1.648l-4,9.61A.893.893,0,0,0,.15,97.4l3.371,6.74H1.841a.892.892,0,0,0-.892.892v5.355a.892.892,0,0,0,.892.892h.766L.956,123.656a.892.892,0,0,0,.885,1.01H17.012a.893.893,0,0,0,.892-.951l-.831-12.435H17.9a.892.892,0,0,0,.892-.892v-5.355a.892.892,0,0,0-.892-.892ZM16.12,81.83a7.139,7.139,0,0,1,.668,14.245,3.525,3.525,0,0,0-.85-1.409,3.443,3.443,0,0,0-.416-.342h1.49v-.892a2.677,2.677,0,1,0,0-5.355H15.227a.892.892,0,1,1,0-1.785h1.785a.892.892,0,0,1,.892.892h1.785a2.677,2.677,0,0,0-2.677-2.677v-.892H15.227v.892a2.677,2.677,0,0,0,0,5.355h1.785a.892.892,0,1,1,0,1.785H15.227a.892.892,0,0,1-.892-.892H12.55a2.677,2.677,0,0,0,2.677,2.677v.7a3.48,3.48,0,0,0-3.838.17A7.129,7.129,0,0,1,16.12,81.83Zm-10.8,21.912L1.93,96.967l3.846-9.234a.893.893,0,0,1,.824-.549h.773a8.912,8.912,0,0,0,2.7,8.348L7.973,97.638,5.906,96.259l-.99,1.485,2.677,1.785a.892.892,0,0,0,1.126-.112l3.49-3.49a1.8,1.8,0,0,1,2.467,0,1.741,1.741,0,0,1,.106,2.351l-2.918,3.506a.892.892,0,0,0-.056,1.071l.86,1.285H5.411a.9.9,0,0,0-.089-.4Zm-2.588,2.184H17.012v3.57H2.733Zm13.324,16.956H2.86l1.547-11.6H15.284Zm0,0" transform="translate(0 -71.109)"/>
      <path id="Trazado_986347" data-name="Trazado 986347" d="M424.059,376.109h1.785v1.785h-1.785Zm0,0" transform="translate(-376.705 -334.153)"/>
      <path id="Trazado_986348" data-name="Trazado 986348" d="M440.059,392.109h1.785v1.785h-1.785Zm0,0" transform="translate(-390.92 -348.369)"/>
      <path id="Trazado_986349" data-name="Trazado 986349" d="M424.059,408.109h1.785v1.785h-1.785Zm0,0" transform="translate(-376.705 -362.584)"/>
      <path id="Trazado_986350" data-name="Trazado 986350" d="M408.059,392.109h1.785v1.785h-1.785Zm0,0" transform="translate(-362.489 -348.369)"/>
      <path id="Trazado_986351" data-name="Trazado 986351" d="M56.059,24.109h1.785v1.785H56.059Zm0,0" transform="translate(-49.755 -21.42)"/>
      <path id="Trazado_986352" data-name="Trazado 986352" d="M72.059,40.109h1.785v1.785H72.059Zm0,0" transform="translate(-63.971 -35.635)"/>
      <path id="Trazado_986353" data-name="Trazado 986353" d="M56.059,56.109h1.785v1.785H56.059Zm0,0" transform="translate(-49.755 -49.851)"/>
      <path id="Trazado_986354" data-name="Trazado 986354" d="M40.059,40.109h1.785v1.785H40.059Zm0,0" transform="translate(-35.54 -35.635)"/>
    </g>
  </g>
</svg>
