<svg xmlns="http://www.w3.org/2000/svg" width="77" height="77" viewBox="0 0 77 77">
  <g id="Grupo_1124162" data-name="Grupo 1124162" transform="translate(10718 10473)">
    <g id="Grupo_1124161" data-name="Grupo 1124161" transform="translate(-10779.225 -10469.119)">
      <g id="Grupo_1124153" data-name="Grupo 1124153" transform="translate(76.02)">
        <path id="Trazado_984444" data-name="Trazado 984444" d="M153.467,276.07H130.939a.729.729,0,0,0-.729.729v24.184a.729.729,0,0,0,.729.729h22.528a.729.729,0,0,0,.729-.729V276.8A.729.729,0,0,0,153.467,276.07Zm-.729,24.184h-21.07V277.528h21.07Z" transform="translate(-122.309 -235.819)" fill="#23130d"/>
        <path id="Trazado_984445" data-name="Trazado 984445" d="M123.22,21.843a.739.739,0,0,0-.01-.1c0-.023-.013-.045-.019-.067a.625.625,0,0,0-.022-.069.506.506,0,0,0-.032-.063.518.518,0,0,0-.034-.063.552.552,0,0,0-.045-.057c-.015-.017-.028-.036-.044-.052a.656.656,0,0,0-.077-.066c-.01-.009-.019-.017-.029-.025l0,0a0,0,0,0,1,0,0l-7.1-4.87V6.361a.729.729,0,0,0-.729-.729h-5.838V.729a.729.729,0,0,0-1.458,0v4.9h-6.94V.729a.729.729,0,1,0-1.458,0v4.9h-6.94V.729a.729.729,0,1,0-1.458,0v4.9h-6.94V.729a.729.729,0,1,0-1.458,0v4.9H76.749a.729.729,0,0,0-.729.729V68.643a.729.729,0,0,0,.729.729H122.5a.729.729,0,0,0,.729-.729V21.885C123.225,21.87,123.22,21.857,123.22,21.843Zm-14.71-8.317a.729.729,0,0,0,.729-.729V11.058h1.009v3.476h-3.476V11.058h1.009V12.8A.729.729,0,0,0,108.51,13.526Zm0,15.71a1.738,1.738,0,1,1-1.739,1.741V30.97a1.74,1.74,0,0,1,1.737-1.734h0ZM100.841,7.09h6.94V9.6h-1.738a.729.729,0,0,0-.729.729v4.934a.728.728,0,0,0,.729.729h1.738V27.863a3.207,3.207,0,0,0-2.382,2.381H96.642V25.062h3.47a.728.728,0,0,0,.729-.729V15.992h1.738a.728.728,0,0,0,.729-.729V10.329a.729.729,0,0,0-.729-.729h-1.738Zm-.729,6.436a.729.729,0,0,0,.729-.729V11.058h1.009v3.476H98.374V11.058h1.009V12.8A.729.729,0,0,0,100.112,13.526ZM92.443,7.09h6.94V9.6H97.645a.729.729,0,0,0-.729.729v4.934a.728.728,0,0,0,.729.729h1.738V23.6h-6.94V15.992h1.738a.728.728,0,0,0,.729-.729V10.329a.729.729,0,0,0-.729-.729H92.443V7.09Zm-.729,6.436a.729.729,0,0,0,.729-.729V11.058h1.009v3.476H89.976V11.058h1.009V12.8A.729.729,0,0,0,91.714,13.526ZM84.045,7.09h6.94V9.6H89.247a.729.729,0,0,0-.729.729v4.934a.728.728,0,0,0,.729.729h1.738v8.341a.728.728,0,0,0,.729.729h3.47v5.182H86.427a3.2,3.2,0,0,0-2.381-2.381V15.992h1.736a.728.728,0,0,0,.729-.729V10.329a.729.729,0,0,0-.729-.729H84.045ZM85.054,30.97v.007a1.738,1.738,0,1,1-1.739-1.741h0A1.739,1.739,0,0,1,85.054,30.97ZM83.316,13.526a.728.728,0,0,0,.729-.729V11.058h1.009v3.476H81.578V11.058h1.009V12.8A.729.729,0,0,0,83.316,13.526ZM80.12,37.5V67.914H77.478V7.09h5.109V9.6H80.849a.729.729,0,0,0-.729.729v4.934a.728.728,0,0,0,.729.729h1.739V27.863A3.2,3.2,0,1,0,86.427,31.7h8.757v5.071H80.849A.729.729,0,0,0,80.12,37.5Zm30.128,30.413H81.578V38.231h28.67Zm4.1,0h-2.642V37.5a.729.729,0,0,0-.729-.729H96.642V31.7H105.4a3.2,3.2,0,1,0,3.84-3.839V15.992h1.738a.728.728,0,0,0,.729-.729V10.329a.729.729,0,0,0-.729-.729h-1.738V7.09h5.109Zm7.418,0h-5.96V18.179l5.96,4.09Z" transform="translate(-76.02)" fill="#23130d"/>
      </g>
      <g id="Grupo_1124154" data-name="Grupo 1124154" transform="translate(81.578 11.058)">
        <path id="Trazado_984446" data-name="Trazado 984446" d="M232.816,75.84v3.476H229.34V75.84h1.009v1.739a.729.729,0,1,0,1.458,0V75.84Z" transform="translate(-212.544 -75.84)" fill="#f9c139"/>
        <path id="Trazado_984447" data-name="Trazado 984447" d="M290.416,75.84v3.476H286.94V75.84h1.009v1.739a.729.729,0,1,0,1.458,0V75.84Z" transform="translate(-261.745 -75.84)" fill="#f9c139"/>
        <path id="Trazado_984448" data-name="Trazado 984448" d="M175.216,75.84v3.476H171.74V75.84h1.009v1.739a.729.729,0,1,0,1.458,0V75.84Z" transform="translate(-163.342 -75.84)" fill="#f9c139"/>
        <path id="Trazado_984449" data-name="Trazado 984449" d="M117.616,75.84v3.476H114.14V75.84h1.009v1.739a.729.729,0,1,0,1.458,0V75.84Z" transform="translate(-114.14 -75.84)" fill="#f9c139"/>
        <path id="Trazado_984450" data-name="Trazado 984450" d="M117.616,202.254v.007a1.724,1.724,0,0,1-.389,1.092,1.656,1.656,0,0,1-.206.211,1.53,1.53,0,0,1-.229.171,1.4,1.4,0,0,1-.13.073,1.74,1.74,0,0,1-.784.188,1.74,1.74,0,0,1-1.738-1.738,1.74,1.74,0,0,1,.188-.784c.023-.045.047-.087.073-.13a1.828,1.828,0,0,1,.382-.435,1.724,1.724,0,0,1,1.094-.389h0A1.739,1.739,0,0,1,117.616,202.254Z" transform="translate(-114.14 -182.341)" fill="#f9c139"/>
        <path id="Trazado_984451" data-name="Trazado 984451" d="M290.416,202.258a1.738,1.738,0,0,1-3.476,0v-.007a1.74,1.74,0,0,1,1.736-1.734h0A1.739,1.739,0,0,1,290.416,202.258Z" transform="translate(-261.745 -182.341)" fill="#f9c139"/>
      </g>
      <path id="Trazado_984452" data-name="Trazado 984452" d="M115.88,200.957a1.3,1.3,0,1,1-1.3,1.3,1.3,1.3,0,0,1,1.3-1.3h0m0-.437h0a1.738,1.738,0,1,0,1.739,1.741v-.007a1.739,1.739,0,0,0-1.735-1.734Z" transform="translate(-32.562 -171.284)" opacity="0.2"/>
      <path id="Trazado_984453" data-name="Trazado 984453" d="M288.679,200.957a1.3,1.3,0,1,1-1.3,1.3,1.3,1.3,0,0,1,1.3-1.3h0m0-.437h0a1.74,1.74,0,0,0-1.736,1.734v.007a1.738,1.738,0,1,0,1.739-1.741Z" transform="translate(-180.167 -171.284)" opacity="0.2"/>
      <path id="Trazado_984454" data-name="Trazado 984454" d="M348.9,124.68v49.736h5.96V128.77Zm3.709,47.289a.729.729,0,0,1-1.458,0v-2.759a.729.729,0,1,1,1.458,0Zm0-5.647a.729.729,0,1,1-1.458,0v-2.76a.729.729,0,1,1,1.458,0Zm0-5.648a.729.729,0,1,1-1.458,0v-2.759a.729.729,0,1,1,1.458,0Zm0-5.648a.729.729,0,0,1-1.458,0v-2.759a.729.729,0,0,1,1.458,0Zm0-5.647a.729.729,0,0,1-1.458,0V146.62a.729.729,0,0,1,1.458,0Zm0-5.648a.729.729,0,0,1-1.458,0v-2.759a.729.729,0,1,1,1.458,0Zm0-5.647a.729.729,0,0,1-1.458,0v-2.76a.729.729,0,0,1,1.458,0Zm0-5.648a.729.729,0,1,1-1.458,0v-2.759a.729.729,0,0,1,1.458,0Z" transform="translate(-233.094 -106.501)" fill="#e1e1e5"/>
      <path id="Trazado_984455" data-name="Trazado 984455" d="M348.9,124.68v49.736h1.458V125.68Z" transform="translate(-233.094 -106.501)" opacity="0.2"/>
      <path id="Trazado_984456" data-name="Trazado 984456" d="M114.14,262.21v29.684h28.67V262.21Zm26.329,26.934a.729.729,0,0,1-.729.729H117.212a.729.729,0,0,1-.729-.729V264.96a.729.729,0,0,1,.729-.729H139.74a.729.729,0,0,1,.729.729Z" transform="translate(-32.562 -223.979)" fill="#e1e1e5"/>
      <rect id="Rectángulo_415427" data-name="Rectángulo 415427" width="21.07" height="22.726" transform="translate(85.379 41.709)" fill="#f9c139"/>
      <path id="Trazado_984457" data-name="Trazado 984457" d="M160.551,286.8v21.268H140.939V286.8h19.612m.729-.729H140.21V308.8h21.07V286.07Z" transform="translate(-54.831 -244.361)" opacity="0.2"/>
      <g id="Grupo_1124155" data-name="Grupo 1124155" transform="translate(77.478 7.09)">
        <path id="Trazado_984458" data-name="Trazado 984458" d="M103.726,73.241v5.071H89.391a.729.729,0,0,0-.729.729v30.413H86.02V48.63h5.109v2.509H89.391a.729.729,0,0,0-.729.729V56.8a.728.728,0,0,0,.729.729H91.13V69.4a3.2,3.2,0,1,0,3.839,3.839Z" transform="translate(-86.02 -48.63)" fill="#3594bf"/>
        <path id="Trazado_984459" data-name="Trazado 984459" d="M235.166,48.63v60.824h-2.642V79.041a.729.729,0,0,0-.729-.729H217.46V73.241h8.757a3.2,3.2,0,1,0,3.84-3.839V57.531H231.8a.728.728,0,0,0,.729-.729V51.868a.729.729,0,0,0-.729-.729h-1.738V48.63Z" transform="translate(-198.296 -48.63)" fill="#3594bf"/>
        <path id="Trazado_984460" data-name="Trazado 984460" d="M142.2,66.6v5.182h-8.757a3.2,3.2,0,0,0-2.381-2.381V57.531H132.8a.728.728,0,0,0,.729-.729V51.868a.729.729,0,0,0-.729-.729H131.06V48.63H138v2.509h-1.738a.729.729,0,0,0-.729.729V56.8a.728.728,0,0,0,.729.729H138v8.341a.728.728,0,0,0,.729.729Z" transform="translate(-124.493 -48.63)" fill="#3594bf"/>
        <path id="Trazado_984461" data-name="Trazado 984461" d="M193.133,51.868V56.8a.728.728,0,0,0,.729.729H195.6v7.612h-6.94V57.531H190.4a.728.728,0,0,0,.729-.729V51.868a.729.729,0,0,0-.729-.729H188.66V48.63h6.94v2.509h-1.738A.729.729,0,0,0,193.133,51.868Z" transform="translate(-173.695 -48.63)" fill="#3594bf"/>
        <path id="Trazado_984462" data-name="Trazado 984462" d="M226.132,51.868V56.8a.728.728,0,0,0,.729.729H228.6V69.4a3.207,3.207,0,0,0-2.382,2.381H217.46V66.6h3.47a.728.728,0,0,0,.729-.729V57.531H223.4a.728.728,0,0,0,.729-.729V51.868a.729.729,0,0,0-.729-.729h-1.738V48.63h6.94v2.509h-1.738A.729.729,0,0,0,226.132,51.868Z" transform="translate(-198.296 -48.63)" fill="#3594bf"/>
      </g>
      <path id="Trazado_984463" data-name="Trazado 984463" d="M90.691,49.067V50.7h-1.3a1.168,1.168,0,0,0-1.166,1.166V56.8a1.168,1.168,0,0,0,1.166,1.166h1.3v11.1A3.633,3.633,0,1,0,95.3,73.679h7.99v4.2h-13.9a1.168,1.168,0,0,0-1.166,1.166v29.975H86.457V49.067h4.234m.437-.437H86.02v60.824h2.642V79.041a.729.729,0,0,1,.729-.729h14.335V73.241H94.969A3.2,3.2,0,1,1,91.13,69.4V57.531H89.391a.728.728,0,0,1-.729-.729V51.868a.729.729,0,0,1,.729-.729h1.738V48.63Z" transform="translate(-8.542 -41.54)" opacity="0.2"/>
      <path id="Trazado_984464" data-name="Trazado 984464" d="M234.729,49.067v59.949h-1.767V79.041a1.168,1.168,0,0,0-1.166-1.166H217.9v-4.2h7.99a3.633,3.633,0,1,0,4.608-4.606v-11.1h1.3a1.168,1.168,0,0,0,1.166-1.166V51.868A1.168,1.168,0,0,0,231.8,50.7h-1.3V49.067h4.234m.437-.437h-5.109v2.509H231.8a.729.729,0,0,1,.729.729V56.8a.728.728,0,0,1-.729.729h-1.738V69.4a3.2,3.2,0,1,1-3.84,3.839H217.46v5.071H231.8a.729.729,0,0,1,.729.729v30.413h2.642V48.63Z" transform="translate(-120.818 -41.54)" opacity="0.2"/>
      <path id="Trazado_984465" data-name="Trazado 984465" d="M137.563,49.067V50.7h-1.3a1.168,1.168,0,0,0-1.166,1.166V56.8a1.168,1.168,0,0,0,1.166,1.166h1.3v7.9a1.168,1.168,0,0,0,1.166,1.166h3.033v4.307h-7.991a3.666,3.666,0,0,0-2.272-2.272v-11.1h1.3a1.168,1.168,0,0,0,1.166-1.166V51.868A1.168,1.168,0,0,0,132.8,50.7h-1.3V49.067h6.065M138,48.63h-6.94v2.509H132.8a.729.729,0,0,1,.729.729V56.8a.728.728,0,0,1-.729.729h-1.736V69.4a3.2,3.2,0,0,1,2.381,2.381H142.2V66.6h-3.47a.728.728,0,0,1-.729-.729V57.531h-1.738a.728.728,0,0,1-.729-.729V51.868a.729.729,0,0,1,.729-.729H138V48.63Z" transform="translate(-47.015 -41.54)" opacity="0.2"/>
      <path id="Trazado_984466" data-name="Trazado 984466" d="M195.163,49.067V50.7h-1.3a1.168,1.168,0,0,0-1.166,1.166V56.8a1.168,1.168,0,0,0,1.166,1.166h1.3v6.737H189.1V57.969h1.3a1.168,1.168,0,0,0,1.166-1.166V51.868A1.168,1.168,0,0,0,190.4,50.7h-1.3V49.067h6.065m.437-.437h-6.94v2.509H190.4a.729.729,0,0,1,.729.729V56.8a.728.728,0,0,1-.729.729H188.66v7.612h6.94V57.531h-1.738a.728.728,0,0,1-.729-.729V51.868a.729.729,0,0,1,.729-.729H195.6V48.63Z" transform="translate(-96.217 -41.54)" opacity="0.2"/>
      <path id="Trazado_984467" data-name="Trazado 984467" d="M228.162,49.067V50.7h-1.3a1.168,1.168,0,0,0-1.166,1.166V56.8a1.168,1.168,0,0,0,1.166,1.166h1.3v11.1a3.67,3.67,0,0,0-2.274,2.273H217.9V67.039h3.033a1.168,1.168,0,0,0,1.166-1.166v-7.9h1.3a1.168,1.168,0,0,0,1.166-1.166V51.868A1.168,1.168,0,0,0,223.4,50.7h-1.3V49.067h6.065m.437-.437h-6.94v2.509H223.4a.729.729,0,0,1,.729.729V56.8a.728.728,0,0,1-.729.729h-1.738v8.341a.728.728,0,0,1-.729.729h-3.47v5.182h8.757A3.207,3.207,0,0,1,228.6,69.4V57.531h-1.738a.728.728,0,0,1-.729-.729V51.868a.729.729,0,0,1,.729-.729H228.6V48.63Z" transform="translate(-120.818 -41.54)" opacity="0.2"/>
      <g id="Grupo_1124156" data-name="Grupo 1124156" transform="translate(118.058 22.446)">
        <path id="Trazado_984468" data-name="Trazado 984468" d="M365.8,270.889v2.759a.729.729,0,0,1-1.458,0v-2.759a.729.729,0,0,1,1.458,0Z" transform="translate(-364.34 -253.216)" fill="#23130d"/>
        <path id="Trazado_984469" data-name="Trazado 984469" d="M365.8,309.619v2.759a.729.729,0,0,1-1.458,0v-2.759a.729.729,0,0,1,1.458,0Z" transform="translate(-364.34 -286.299)" fill="#23130d"/>
        <path id="Trazado_984470" data-name="Trazado 984470" d="M365.8,232.149v2.759a.729.729,0,1,1-1.458,0v-2.759a.729.729,0,0,1,1.458,0Z" transform="translate(-364.34 -220.125)" fill="#23130d"/>
        <path id="Trazado_984471" data-name="Trazado 984471" d="M365.8,193.409v2.76a.729.729,0,1,1-1.458,0v-2.76a.729.729,0,0,1,1.458,0Z" transform="translate(-364.34 -187.033)" fill="#23130d"/>
        <path id="Trazado_984472" data-name="Trazado 984472" d="M365.8,154.679v2.759a.729.729,0,0,1-1.458,0v-2.759a.729.729,0,1,1,1.458,0Z" transform="translate(-364.34 -153.95)" fill="#23130d"/>
        <path id="Trazado_984473" data-name="Trazado 984473" d="M365.8,348.359v2.759a.729.729,0,0,1-1.458,0v-2.759a.729.729,0,0,1,1.458,0Z" transform="translate(-364.34 -319.391)" fill="#23130d"/>
        <path id="Trazado_984474" data-name="Trazado 984474" d="M365.8,387.089v2.76a.729.729,0,0,1-1.458,0v-2.76a.729.729,0,0,1,1.458,0Z" transform="translate(-364.34 -352.474)" fill="#23130d"/>
        <path id="Trazado_984475" data-name="Trazado 984475" d="M365.8,425.829v2.759a.729.729,0,0,1-1.458,0v-2.759a.729.729,0,0,1,1.458,0Z" transform="translate(-364.34 -385.566)" fill="#23130d"/>
      </g>
      <g id="Grupo_1124157" data-name="Grupo 1124157" transform="translate(85.379 41.709)" opacity="0.4">
        <path id="Trazado_984476" data-name="Trazado 984476" d="M158.676,333.747h-3.711L140.21,318.992V315.28Z" transform="translate(-140.21 -311.021)" fill="#fff"/>
        <path id="Trazado_984477" data-name="Trazado 984477" d="M161.28,307.1V308.8h-1.161L140.21,288.887V286.07h.036Z" transform="translate(-140.21 -286.07)" fill="#fff"/>
        <path id="Trazado_984478" data-name="Trazado 984478" d="M178.9,299.389v4.742L160.84,286.07h4.744Z" transform="translate(-157.832 -286.07)" fill="#fff"/>
      </g>
      <g id="Grupo_1124160" data-name="Grupo 1124160" transform="translate(81.626 29.375)">
        <g id="Grupo_1124158" data-name="Grupo 1124158" transform="translate(0)" opacity="0.4">
          <path id="Trazado_984479" data-name="Trazado 984479" d="M116.944,209.394a1.7,1.7,0,0,1-.381.14l-2.094-2.094a1.7,1.7,0,0,1,.14-.381Z" transform="translate(-114.47 -206.245)" fill="#fff"/>
          <path id="Trazado_984480" data-name="Trazado 984480" d="M118.55,207.049a1.532,1.532,0,0,1-.229.171l-2.391-2.391a1.761,1.761,0,0,1,.171-.229Z" transform="translate(-115.717 -204.144)" fill="#fff"/>
          <path id="Trazado_984481" data-name="Trazado 984481" d="M121.244,203.75a1.734,1.734,0,0,1-.251.414l-2.444-2.444a1.734,1.734,0,0,1,.414-.251Z" transform="translate(-117.955 -201.47)" fill="#fff"/>
        </g>
        <g id="Grupo_1124159" data-name="Grupo 1124159" transform="translate(25.24)" opacity="0.4">
          <path id="Trazado_984482" data-name="Trazado 984482" d="M290.054,209.394a1.7,1.7,0,0,1-.381.14l-2.094-2.094a1.7,1.7,0,0,1,.14-.381Z" transform="translate(-287.58 -206.245)" fill="#fff"/>
          <path id="Trazado_984483" data-name="Trazado 984483" d="M291.66,207.049a1.531,1.531,0,0,1-.229.171l-2.391-2.391a1.755,1.755,0,0,1,.171-.229Z" transform="translate(-288.827 -204.144)" fill="#fff"/>
          <path id="Trazado_984484" data-name="Trazado 984484" d="M294.354,203.75a1.733,1.733,0,0,1-.251.414l-2.444-2.444a1.734,1.734,0,0,1,.414-.251Z" transform="translate(-291.065 -201.47)" fill="#fff"/>
        </g>
      </g>
      <rect id="Rectángulo_415428" data-name="Rectángulo 415428" width="3.476" height="0.575" transform="translate(81.578 13.958)" opacity="0.2"/>
      <rect id="Rectángulo_415429" data-name="Rectángulo 415429" width="3.476" height="0.575" transform="translate(89.976 13.958)" opacity="0.2"/>
      <rect id="Rectángulo_415430" data-name="Rectángulo 415430" width="3.476" height="0.575" transform="translate(98.374 13.958)" opacity="0.2"/>
      <rect id="Rectángulo_415431" data-name="Rectángulo 415431" width="3.476" height="0.575" transform="translate(106.772 13.958)" opacity="0.2"/>
    </g>
    <rect id="Rectángulo_403130" data-name="Rectángulo 403130" width="77" height="77" transform="translate(-10718 -10473)" fill="none"/>
  </g>
</svg>
